<svg xmlns="http://www.w3.org/2000/svg" width="184" height="175.015" viewBox="0 0 184 175.015">
  <g id="Group_16" data-name="Group 16" transform="translate(-160.315 -101.907)">
    <g id="Group_14" data-name="Group 14" transform="translate(161.939 101.915)">
      <g id="Group_3" data-name="Group 3" transform="translate(2.017 0)">
        <path id="Path_73713" data-name="Path 73713" d="M61.605.006A62.551,62.551,0,0,1,123.759,62.16a61.211,61.211,0,0,1-61.6,61.6A62.551,62.551,0,0,1,.006,61.605,61.211,61.211,0,0,1,61.605.006Z" transform="translate(0 87.5) rotate(-45)" fill="#e0f3ff"/>
        <path id="Path_2" data-name="Path 2" d="M302.463,205.3v20.92a62.6,62.6,0,0,1-7.726,8.981V205.3h-.012v-.071c-.035-.155-3.791-3.267-6.68-5.631V198.3l3.495-.9a6.651,6.651,0,0,1,4.291.333c.606.262,1.236.511,1.866.713v2.733a60.836,60.836,0,0,1,4.754,4.063v.071Z" transform="translate(-164.179 -103.179)" fill="#64c1ff" opacity="0.73"/>
      </g>
      <g id="Group_13" data-name="Group 13" transform="translate(0 8.55)">
        <g id="Group_4" data-name="Group 4" transform="translate(1.071)">
          <path id="Path_3" data-name="Path 3" d="M163.011,110.469l18.269,42.843,13.353-9.13,7.738,11.238,1.4-18.958,16.16-9.842Z" transform="translate(-163.011 -110.469)" fill="#64c1ff"/>
          <path id="Path_4" data-name="Path 4" d="M197.592,142.16,181.28,153.318l13.353-9.13,7.738,11.238,1.4-18.958-25.75-15.328Z" transform="translate(-163.011 -110.475)" fill="#fd5675"/>
        </g>
        <g id="Group_5" data-name="Group 5" transform="translate(15.696 46.732)">
          <path id="Path_6" data-name="Path 6" d="M202.7,160.789c-.144-.835-.327-1.667-.543-2.476l1.253-.335c.226.846.417,1.717.568,2.59Z" transform="translate(-177.635 -157.978)" fill="#64c1ff"/>
          <path id="Path_7" data-name="Path 7" d="M187.57,189.894a10.72,10.72,0,0,1-5.208-1.737l.717-1.079a9.43,9.43,0,0,0,4.577,1.523Zm5.387-1.057-.572-1.162a13.052,13.052,0,0,0,3.879-3.053l.965.866A14.293,14.293,0,0,1,192.957,188.836Zm-14.2-4.819a10.683,10.683,0,0,1-1.118-4.71c0-.131,0-.263.008-.394l.016-.281,1.293.095-.013.236c0,.117-.007.231-.007.344a9.37,9.37,0,0,0,.984,4.136Zm50.175-.3-.006-1.3c1.689-.008,3.427-.077,5.166-.2l.1,1.292C232.415,183.644,230.647,183.714,228.928,183.722Zm-5.26-.17-.828-.064c-1.594-.133-3.039-.312-4.416-.551l.22-1.277c1.34.232,2.748.407,4.3.537l.811.061Zm15.74-.59-.175-1.284c1.668-.227,3.387-.511,5.11-.843l.245,1.272C242.843,182.444,241.1,182.732,239.408,182.962Zm-26.137-1.31a25.124,25.124,0,0,1-4.248-1.881c-.2-.114-.406-.233-.606-.354l.67-1.11c.189.114.379.226.572.334a23.834,23.834,0,0,0,4.03,1.785Zm-12.942-.516-1.125-.646a29.1,29.1,0,0,0,2.139-4.623l1.22.44A30.514,30.514,0,0,1,200.329,181.136Zm49.385-.144-.305-1.259c1.622-.394,3.31-.841,5.016-1.328l.357,1.246C253.058,180.144,251.354,180.594,249.714,180.992Zm10.077-2.87-.4-1.233q2.472-.8,4.92-1.672l.434,1.222Q262.282,177.313,259.791,178.122Zm-55.7-1.708a35.894,35.894,0,0,0-3.861-2.539l-.434-.23.594-1.152c.155.079.309.162.462.245a37.562,37.562,0,0,1,4,2.629Zm-23.318-1.949-.907-.926a11.08,11.08,0,0,1,4.773-2.56l.436,1.222A10.1,10.1,0,0,0,180.769,174.465Zm14.286-2.531a20.614,20.614,0,0,0-4.494-.5l-.526.006-.032-1.3a21.949,21.949,0,0,1,5.336.522Zm8.878-.764-1.277-.227a30.076,30.076,0,0,0,.46-5.075l1.3.006A31.333,31.333,0,0,1,203.933,171.17Z" transform="translate(-177.635 -157.982)" fill="#64c1ff"/>
          <path id="Path_8" data-name="Path 8" d="M269.709,174.614l-.461-1.211q1.211-.462,2.418-.935l.471,1.208Q270.926,174.149,269.709,174.614Z" transform="translate(-177.635 -157.985)" fill="#64c1ff"/>
        </g>
        <path id="Path_9" data-name="Path 9" d="M310.536,206.214a1.3,1.3,0,0,1-.125-2.586,30.811,30.811,0,0,0,20.3-10.53,1.3,1.3,0,0,1,1.955,1.7,33.38,33.38,0,0,1-22.007,11.407Q310.6,206.214,310.536,206.214Z" transform="translate(-162.228 -111.629)" fill="#fd5675"/>
        <g id="Group_9" data-name="Group 9" transform="translate(42.281 34.614)">
          <g id="Group_8" data-name="Group 8">
            <path id="Path_10" data-name="Path 10" d="M294.73,205.291,249.55,231.92l-45.179-26.629a.258.258,0,0,1,.007-.073c.037-.169,2.531-2.25,6.334-5.338.036-.029.066-.058.1-.088,12.475-10.124,38.735-30.856,38.735-30.856s26.261,20.732,38.736,30.856c3.862,3.132,6.4,5.249,6.437,5.426A.258.258,0,0,1,294.73,205.291Z" transform="translate(-204.371 -146.882)" fill="#041b31"/>
            <g id="Group_6" data-name="Group 6" transform="translate(7.443)">
              <path id="Path_11" data-name="Path 11" d="M268.131,146.871H219.385a7.569,7.569,0,0,0-7.571,7.567V228.1a7.569,7.569,0,0,0,7.571,7.566h61.08a7.569,7.569,0,0,0,7.571-7.566V166.766Z" transform="translate(-211.814 -146.871)" fill="#fff"/>
              <path id="Path_12" data-name="Path 12" d="M268.131,159.2a7.568,7.568,0,0,0,7.571,7.566h12.334l-19.9-19.895Z" transform="translate(-211.814 -146.871)" fill="#e6e8e8"/>
              <rect id="Rectangle_10142" data-name="Rectangle 10142" width="22.211" height="22.2" rx="2.697" transform="translate(9.531 10.452)" fill="#b3b23d"/>
              <rect id="Rectangle_5" data-name="Rectangle 5" width="22.211" height="22.2" rx="2.697" transform="translate(11.531 12.452)" fill="#fd5675"/>
              <path id="Path_13" data-name="Path 13" d="M265.9,187.713H225.544a2.009,2.009,0,0,0-2.173,1.789h0a2.009,2.009,0,0,0,2.173,1.789H265.9a2.009,2.009,0,0,0,2.173-1.789h0A2.009,2.009,0,0,0,265.9,187.713Z" transform="translate(-211.814 -146.892)" fill="#b3b23d"/>
              <path id="Path_14" data-name="Path 14" d="M265.9,198.537H225.544a2.033,2.033,0,0,0-2.173,1.855h0a2.033,2.033,0,0,0,2.173,1.855H265.9a2.033,2.033,0,0,0,2.173-1.855h0A2.033,2.033,0,0,0,265.9,198.537Z" transform="translate(-211.814 -146.898)" fill="#b3b23d"/>
              <path id="Path_15" data-name="Path 15" d="M247.571,209.037H225.544a1.983,1.983,0,0,0-2.173,1.709h0a1.983,1.983,0,0,0,2.173,1.709h22.027a1.983,1.983,0,0,0,2.173-1.709h0A1.983,1.983,0,0,0,247.571,209.037Z" transform="translate(-211.814 -146.903)" fill="#b3b23d"/>
            </g>
            <g id="Group_7" data-name="Group 7" transform="translate(0.005 58.408)">
              <path id="Path_16" data-name="Path 16" d="M294.735,205.309v43.322a5.518,5.518,0,0,1-5.506,5.5H209.867a5.506,5.506,0,0,1-5.491-5.5V205.309l45.179,26.624Z" transform="translate(-204.376 -205.309)" fill="#00355a"/>
              <path id="Path_17" data-name="Path 17" d="M293.208,252.418l-29.079-29.064-14.574,8.589-14.579-8.592L205.9,252.417a5.457,5.457,0,0,0,3.972,1.725h79.362A5.479,5.479,0,0,0,293.208,252.418Z" transform="translate(-204.376 -205.318)" fill="#041b31"/>
            </g>
          </g>
        </g>
        <g id="Group_12" data-name="Group 12" transform="translate(117.236 34.489)">
          <g id="Group_11" data-name="Group 11">
            <path id="Path_18" data-name="Path 18" d="M303.86,145.808a27.247,27.247,0,0,0-24.326,25.019,26.926,26.926,0,0,0,4.761,17.379,6.576,6.576,0,0,1,.627,6.271l-2.145,5.161,8.767-2.272a6.611,6.611,0,0,1,4.292.332,27.132,27.132,0,1,0,8.024-51.89Z" transform="translate(-279.463 -145.673)" fill="#64c1ff"/>
            <g id="Group_10" data-name="Group 10" transform="translate(12.939 15.684)">
              <path id="Path_19" data-name="Path 19" d="M307.276,186.518l1.492-1.49s-1.185-2.792,3.783-7.5c2.956-2.8,3.618-5.514,3.377-7.731a7.752,7.752,0,0,0-6.8-6.8c-2.219-.24-4.933.421-7.735,3.376-4.709,4.964-7.5,3.78-7.5,3.78l-1.492,1.491Z" transform="translate(-292.402 -161.366)" fill="#fff"/>
              <path id="Path_20" data-name="Path 20" d="M295.767,177.42a4.109,4.109,0,0,0,5.746,5.742Z" transform="translate(-292.402 -161.373)" fill="#fff"/>
              <path id="Path_21" data-name="Path 21" d="M316.971,164.813l-.929.929a8.979,8.979,0,0,0-2.863-2.847l.936-.937a2.019,2.019,0,1,1,2.856,2.855Z" transform="translate(-292.402 -161.365)" fill="#fff"/>
            </g>
          </g>
          <path id="Path_22" data-name="Path 22" d="M305.874,145.692A23.433,23.433,0,1,1,281.91,184a27.1,27.1,0,0,0,2.385,4.208,6.576,6.576,0,0,1,.627,6.271l-2.145,5.161,8.767-2.272a6.611,6.611,0,0,1,4.292.332,27.127,27.127,0,1,0,10.038-52.006Z" transform="translate(-279.463 -145.673)" fill="#0469b1"/>
        </g>
        <path id="Path_23" data-name="Path 23" d="M164.559,123.18l5.926,13.591a1.366,1.366,0,0,1-.712,1.8l-.211.091a1.367,1.367,0,0,1-1.8-.723l-5.714-13.683a1.365,1.365,0,0,1,.786-1.811h0A1.366,1.366,0,0,1,164.559,123.18Z" transform="translate(-161.939 -110.475)" fill="#b3b23d"/>
      </g>
    </g>
    <g id="Group_15" data-name="Group 15" transform="translate(160.315 106.273)">
      <path id="Path_24" data-name="Path 24" d="M187.774,218.877a4.354,4.354,0,1,0,4.356,4.355A4.355,4.355,0,0,0,187.774,218.877Zm0,6.117a1.763,1.763,0,1,1,1.763-1.762A1.763,1.763,0,0,1,187.774,224.994Z" transform="translate(-160.315 -107.659)" fill="#64c1ff"/>
      <path id="Path_25" data-name="Path 25" d="M304.521,236.507a4.354,4.354,0,1,0,4.356,4.354A4.355,4.355,0,0,0,304.521,236.507Zm0,6.117a1.763,1.763,0,1,1,1.763-1.763A1.764,1.764,0,0,1,304.521,242.624Z" transform="translate(-160.544 -108.11)" fill="#64c1ff"/>
      <path id="Path_26" data-name="Path 26" d="M340.164,168.839a3.334,3.334,0,1,0,3.336,3.334A3.335,3.335,0,0,0,340.164,168.839Zm0,4.684a1.349,1.349,0,1,1,1.35-1.349A1.35,1.35,0,0,1,340.164,173.523Z" transform="translate(-160.603 -107.034)" fill="#64c1ff"/>
      <path id="Path_27" data-name="Path 27" d="M281.427,115.477A3.525,3.525,0,1,0,284.954,119,3.526,3.526,0,0,0,281.427,115.477Zm0,4.952A1.427,1.427,0,1,1,282.854,119,1.427,1.427,0,0,1,281.427,120.429Z" transform="translate(-160.506 -106.28)" fill="#fd5675"/>
      <path id="Path_28" data-name="Path 28" d="M168.608,197.656a3.706,3.706,0,1,0,3.709,3.706A3.707,3.707,0,0,0,168.608,197.656Z" transform="translate(-160.315 -107.389)" fill="#fd5675"/>
      <path id="Path_29" data-name="Path 29" d="M317.384,209.931a2.7,2.7,0,1,0,2.7,2.7A2.7,2.7,0,0,0,317.384,209.931Z" transform="translate(-160.603 -107.523)" fill="#64c1ff"/>
      <path id="Path_30" data-name="Path 30" d="M228.068,116.586a3.94,3.94,0,1,0,3.942,3.94A3.941,3.941,0,0,0,228.068,116.586Z" transform="translate(-160.419 -106.28)" fill="#64c1ff"/>
      <path id="Path_31" data-name="Path 31" d="M249.171,259.374a2.871,2.871,0,1,0,2.872,2.872A2.872,2.872,0,0,0,249.171,259.374Z" transform="translate(-160.454 -102.122)" fill="#64c1ff"/>
      <path id="Path_32" data-name="Path 32" d="M304.772,131.79a3.37,3.37,0,1,0,3.372,3.37A3.371,3.371,0,0,0,304.772,131.79Z" transform="translate(-160.544 -106.585)" fill="#64c1ff"/>
      <ellipse id="Ellipse_2" data-name="Ellipse 2" cx="1.919" cy="1.918" rx="1.919" ry="1.918" transform="translate(23.121 51.11)" fill="#64c1ff"/>
      <path id="Path_33" data-name="Path 33" d="M341.329,152.026A3.272,3.272,0,1,0,344.6,155.3,3.274,3.274,0,0,0,341.329,152.026Z" transform="translate(-160.603 -106.83)" fill="#64c1ff"/>
      <ellipse id="Ellipse_3" data-name="Ellipse 3" cx="2.089" cy="2.088" rx="2.089" ry="2.088" transform="translate(4.365 62.323)" fill="#64c1ff"/>
      <path id="Path_34" data-name="Path 34" d="M254.588,109.58l1.312-1.311a1.169,1.169,0,0,0-1.653-1.653l-1.312,1.311-1.312-1.311a1.169,1.169,0,0,0-1.654,1.653l1.312,1.311-1.312,1.311a1.169,1.169,0,0,0,1.654,1.653l1.312-1.311,1.312,1.311a1.169,1.169,0,0,0,1.653-1.653Z" transform="translate(-160.46 -106.275)" fill="#64c1ff"/>
      <path id="Path_35" data-name="Path 35" d="M165.276,149.23l1.312-1.311a1.169,1.169,0,1,0-1.654-1.653l-1.312,1.311-1.312-1.311a1.169,1.169,0,1,0-1.654,1.653l1.312,1.311-1.312,1.311a1.169,1.169,0,0,0,1.654,1.653l1.312-1.311,1.312,1.311a1.169,1.169,0,0,0,1.654-1.653Z" transform="translate(-160.315 -106.756)" fill="#64c1ff"/>
      <path id="Path_36" data-name="Path 36" d="M320.023,229.348l1.112-1.11a.99.99,0,0,0-1.4-1.4l-1.111,1.11-1.111-1.11a.99.99,0,0,0-1.4,1.4l1.111,1.11-1.111,1.11a.99.99,0,0,0,1.4,1.4l1.111-1.11,1.111,1.11a.99.99,0,1,0,1.4-1.4Z" transform="translate(-160.603 -107.725)" fill="#fd5675"/>
    </g>
  </g>
</svg>
