<svg xmlns="http://www.w3.org/2000/svg" width="31.733" height="40" viewBox="0 0 31.733 40">
  <g id="doc" transform="translate(-48.39)">
    <path id="Path_73751" data-name="Path 73751" d="M98.769,0H78.088a1.6,1.6,0,0,0-1.6,1.6V38.4a1.6,1.6,0,0,0,1.6,1.6h26.133a1.6,1.6,0,0,0,1.6-1.6V7.053Z" transform="translate(-25.698)" fill="#e1e6e9"/>
    <rect id="Rectangle_6384" data-name="Rectangle 6384" width="31.733" height="10.959" transform="translate(48.39 22.043)" fill="#27a2db"/>
    <g id="Group_38561" data-name="Group 38561" transform="translate(54.79 24.05)">
      <path id="Path_73752" data-name="Path 73752" d="M128.391,284.345a3.125,3.125,0,0,1,.969,2.441,3.285,3.285,0,0,1-.94,2.475,4,4,0,0,1-2.877.911h-2.226v-6.705h2.3A3.989,3.989,0,0,1,128.391,284.345Zm-.173,2.47q0-2.3-2.638-2.3h-1.132v4.595h1.257a2.705,2.705,0,0,0,1.866-.58A2.18,2.18,0,0,0,128.219,286.815Z" transform="translate(-123.317 -283.304)" fill="#ebf0f3"/>
      <path id="Path_73753" data-name="Path 73753" d="M212.125,287.5a3.676,3.676,0,0,1-5.026,0,3.519,3.519,0,0,1,0-4.95,3.677,3.677,0,0,1,5.026,0,3.519,3.519,0,0,1,0,4.95Zm-.829-4.2a2.353,2.353,0,0,0-3.368,0,2.506,2.506,0,0,0,0,3.444,2.352,2.352,0,0,0,3.368,0,2.506,2.506,0,0,0,0-3.444Z" transform="translate(-199.012 -281.562)" fill="#ebf0f3"/>
      <path id="Path_73754" data-name="Path 73754" d="M303.908,287.4a2.37,2.37,0,0,0,1.007-.2,3.488,3.488,0,0,0,.883-.628l.728.748a3.355,3.355,0,0,1-2.585,1.18,3.465,3.465,0,0,1-2.523-.979,3.556,3.556,0,0,1,.019-4.969,3.543,3.543,0,0,1,2.58-1,3.374,3.374,0,0,1,2.6,1.151l-.719.787a3.152,3.152,0,0,0-.907-.643,2.538,2.538,0,0,0-1-.182,2.383,2.383,0,0,0-1.707.657,2.215,2.215,0,0,0-.691,1.679,2.316,2.316,0,0,0,.686,1.707A2.222,2.222,0,0,0,303.908,287.4Z" transform="translate(-285.289 -281.562)" fill="#ebf0f3"/>
    </g>
    <path id="Path_73755" data-name="Path 73755" d="M48.39,386.364l2.4,2.232v-2.232Z" transform="translate(0 -353.362)" fill="#2d93ba"/>
    <path id="Path_73756" data-name="Path 73756" d="M337.335,7.053h7.053L337.335,0Z" transform="translate(-264.264)" fill="#ebf0f3"/>
    <path id="Path_73757" data-name="Path 73757" d="M353.221,82.567l5.7,3.3v-3.3Z" transform="translate(-278.793 -75.514)" fill="#d5d6db"/>
  </g>
</svg>
