<svg xmlns="http://www.w3.org/2000/svg" width="633.119" height="400.98" viewBox="0 0 633.119 400.98">
  <g id="No_data-cuate" data-name="No data-cuate" transform="translate(-65.62 -55.73)">
    <g id="freepik--background-complete--inject-5">
      <path id="Path_3797" data-name="Path 3797" d="M666.95,150.27l-9.57,46.35-6.16-6.01-10.48,7.48-8.01-9.95L614.77,201.2l-15.35-25.67L582.3,185.56l-6.79-9.36-21.74,12.25-6.54-14.01,15.24-73.81,81.7,16.87Z" fill="#ebebeb" opacity="0.3"/>
      <path id="Path_3798" data-name="Path 3798" d="M644.17,117.5l22.78,32.77-28.34-5.85Z" fill="#dbdbdb" opacity="0.3"/>
      <path id="Path_3799" data-name="Path 3799" d="M655.34,205.88l-14.03,68L531.26,251.16l13.93-67.45,6.54,14,21.75-12.25,6.78,9.36,17.13-10.02,15.34,25.67,17.97-13.06,8,9.94,10.49-7.47Z" fill="#ebebeb" opacity="0.3"/>
      <path id="Path_3800" data-name="Path 3800" d="M497.83,197.91l-112.15,6.94L376.77,60.89l83.28-5.16,30.57,25.65Z" fill="#ebebeb" opacity="0.3"/>
      <path id="Path_3801" data-name="Path 3801" d="M460.05,55.73l30.57,25.65-28.88,1.79Z" fill="#dbdbdb" opacity="0.37"/>
      <path id="Path_3802" data-name="Path 3802" d="M429,152.6l-.44-3.25c-1.13-6.73.71-14.26,6.56-22.13,5.28-7,8.14-12,7.82-17.68-.36-6.4-4.61-10.44-12.52-10.12a22.31,22.31,0,0,0-12.45,4.6l-3.45-7.73c4-3.25,11-5.65,17.65-6,14.43-.8,21.45,7.74,22,17.27.48,8.53-3.94,14.94-9.56,22.43-5.16,6.83-6.85,12.46-6.12,18.83l.31,3.26Zm-1.78,17.71c-.26-4.64,2.69-8.08,7.08-8.32s7.59,2.84,7.85,7.49c.24,4.39-2.45,7.93-7.09,8.19-4.43.25-7.63-2.97-7.88-7.36Z" fill="#dbdbdb"/>
      <path id="Path_3803" data-name="Path 3803" d="M148.48,128.11,137.2,123l-1.57,3.45a3,3,0,0,1-2.57,1.72,14.48,14.48,0,0,0-1.85.18,3,3,0,0,1-2.85-1.18l-2.21-3.09-10.07,7.22,2.21,3.09a3,3,0,0,1,.2,3.07,18.289,18.289,0,0,0-.77,1.69,3,3,0,0,1-2.45,1.89l-3.77.37,1.21,12.33,3.79-.38a3,3,0,0,1,2.77,1.38c.16.26.33.51.51.76s.36.49.55.73a2.94,2.94,0,0,1,.42,3.05l-1.58,3.48,11.29,5.12,1.57-3.47a3,3,0,0,1,2.58-1.71,16.191,16.191,0,0,0,1.83-.18,3,3,0,0,1,2.85,1.18l2.21,3.09,10.08-7.22-2.21-3.09a2.91,2.91,0,0,1-.2-3.07,17.937,17.937,0,0,0,.75-1.68,2.94,2.94,0,0,1,2.45-1.89l3.79-.38-1.22-12.33-3.79.37a2.94,2.94,0,0,1-2.75-1.37c-.17-.26-.34-.51-.52-.76s-.36-.5-.55-.73a3,3,0,0,1-.42-3.07Zm-6.4,11.41a10.15,10.15,0,1,1-14.16-2.34,10.15,10.15,0,0,1,14.16,2.34Z" fill="#ebebeb" opacity="0.3"/>
      <path id="Path_3804" data-name="Path 3804" d="M658.38,291.71l-7.52,4.34,1.33,2.3a2,2,0,0,1-.07,2.17c-.23.36-.45.73-.65,1.12a2,2,0,0,1-1.83,1.14H647v8.69h2.66a2,2,0,0,1,1.83,1.14c.2.39.42.76.65,1.12a2,2,0,0,1,.07,2.17l-1.33,2.3,7.52,4.34,1.34-2.31a2.05,2.05,0,0,1,1.91-1h1.28a2.06,2.06,0,0,1,1.91,1l1.34,2.32,7.51-4.34-1.33-2.31a2.05,2.05,0,0,1,.08-2.16c.23-.36.45-.74.65-1.12a2,2,0,0,1,1.83-1.14h2.66v-8.69H674.9a2,2,0,0,1-1.83-1.14c-.2-.38-.42-.76-.65-1.12a2.05,2.05,0,0,1-.08-2.16l1.33-2.31-7.51-4.34L664.82,294a2.05,2.05,0,0,1-1.91,1h-1.28a2.08,2.08,0,0,1-1.92-1Zm3.89,8.3a2.953,2.953,0,1,1,0-.01Z" fill="#ebebeb" opacity="0.3"/>
      <path id="Path_3805" data-name="Path 3805" d="M171.3,91.16l-6.89,5.28L166,98.55a2,2,0,0,1,.21,2.15,10.471,10.471,0,0,0-.5,1.2,2.05,2.05,0,0,1-1.67,1.37l-2.64.34,1.12,8.61,2.64-.34a2.06,2.06,0,0,1,2,.9,11.141,11.141,0,0,0,.78,1,2,2,0,0,1,.36,2.13l-1,2.46,8,3.33,1-2.46a2.05,2.05,0,0,1,1.77-1.25l.64-.07.63-.1a2.06,2.06,0,0,1,2,.75l1.63,2.13,6.89-5.28-1.61-2.11a2.06,2.06,0,0,1-.21-2.16,11.12,11.12,0,0,0,.5-1.19,2.05,2.05,0,0,1,1.67-1.37l2.64-.34-1.12-8.61-2.64.34a2.06,2.06,0,0,1-2-.89,8.92,8.92,0,0,0-.79-1A2.07,2.07,0,0,1,186,96l1-2.46-8-3.33-1,2.46a2.07,2.07,0,0,1-1.77,1.25l-.64.06L175,94a2.06,2.06,0,0,1-2-.75Zm4.93,7.73a7.11,7.11,0,1,1-4.734,2.723,7.11,7.11,0,0,1,4.734-2.723Z" fill="#ebebeb" opacity="0.3"/>
      <path id="Path_3806" data-name="Path 3806" d="M119.82,316.78a275.635,275.635,0,0,0-.4-29,370.788,370.788,0,0,0-9.09-59.16c-2.54-10.94-5.66-21.7-8.92-32.45-.1-.33-.62-.24-.53.1,10.07,37.9,18.33,77,17.76,116.4-.16,11-1.44,21.85-2.48,32.81,0,.29.45.41.52.11C118.75,336.18,119.43,326.36,119.82,316.78Z" fill="#ebebeb"/>
      <path id="Path_3807" data-name="Path 3807" d="M100.88,196.24S85.64,234.94,89.05,244,99.5,255,99.5,255s-9.33,13.32-2.81,25.81,21,11.9,22,26.06C118.66,306.94,119.46,247.73,100.88,196.24Z" fill="#ebebeb" opacity="0.3"/>
      <path id="Path_3808" data-name="Path 3808" d="M117,282.49a.28.28,0,0,0,0-.2,354.311,354.311,0,0,0-14.78-77.85c0-.07-.15-.05-.13,0q4.53,17,8,34.14a16.87,16.87,0,0,0-7.28-4.06s-.08.06,0,.08a19.35,19.35,0,0,1,7.52,5c.44,2.25.88,4.49,1.29,6.74-3.41-3.81-8.13-5.7-12.86-7.5a.06.06,0,0,0,0,.11c4.93,2,9.83,4.58,13.17,8.83q1.74,9.63,3.06,19.33a18.43,18.43,0,0,0-9.09-5.21c-.11,0-.17.13-.06.16A19.16,19.16,0,0,1,115,268h.06q.45,3.4.86,6.83a23.37,23.37,0,0,0-6.37-3.84c-.06,0-.1.07,0,.09a21.889,21.889,0,0,1,6.39,4.23h.08c.25,2.17.5,4.34.72,6.51a31,31,0,0,0-12.93-9.24.08.08,0,1,0,0,.16,33.68,33.68,0,0,1,12.74,9.81.3.3,0,0,0,.32.1c.33,3.33.63,6.66.87,10a.04.04,0,0,0,.08,0Q117.43,287.62,117,282.49Z" fill="#fff"/>
      <path id="Path_3809" data-name="Path 3809" d="M104.75,230.71a19.09,19.09,0,0,0-9.16-2.86.06.06,0,0,0,0,.12,36.159,36.159,0,0,1,9.06,3C104.77,231,104.86,230.79,104.75,230.71Z" fill="#fff"/>
      <path id="Path_3810" data-name="Path 3810" d="M106.6,271.68a19.06,19.06,0,0,0-6.88-2.35c-.08,0-.09.11,0,.13a26.05,26.05,0,0,1,6.8,2.38C106.61,271.89,106.69,271.73,106.6,271.68Z" fill="#fff"/>
      <path id="Path_3811" data-name="Path 3811" d="M159.9,244.67a103.7,103.7,0,0,0-17.65,15.42,63.19,63.19,0,0,0-12.37,21,156.931,156.931,0,0,0-9.22,50.2,122.321,122.321,0,0,0,2.71,28.23.27.27,0,0,0,.53-.1,158.6,158.6,0,0,1,.28-49.35c2.62-16,6.73-33.42,16.91-46.43,5.54-7.09,12.45-12.66,19.28-18.42C160.73,244.9,160.27,244.41,159.9,244.67Z" fill="#ebebeb"/>
      <path id="Path_3812" data-name="Path 3812" d="M122.9,319.75a95,95,0,0,1,12.86-16.44c7.63-7.63,14.05-13.05,15.05-18.09s-7.64-8.76-7.64-8.76,10.55,1.9,13.44-2.53,4.28-30.09,4.28-30.09-19.2,13.71-28.15,32.93S122.9,319.75,122.9,319.75Z" fill="#ebebeb" opacity="0.3"/>
      <path id="Path_3813" data-name="Path 3813" d="M154.25,250.42c-8.08,7.93-16.21,16.39-21,26.82A102.831,102.831,0,0,0,129,288.29h0c-.24.76-.49,1.52-.72,2.28a.19.19,0,0,0,0,.12,218.275,218.275,0,0,0-5.46,23.71c0,.05.07.07.08,0,.83-4,1.74-8,2.76-12.07a.27.27,0,0,0,.12,0,17.14,17.14,0,0,1,5-1.28c.11,0,.1-.21,0-.2a18.778,18.778,0,0,0-5,.91c.93-3.63,1.94-7.26,3.08-10.83a53.321,53.321,0,0,1,11.39-1.49v-.06a43,43,0,0,0-11.2.95c.2-.61.41-1.22.61-1.83a59.117,59.117,0,0,1,7.58-1.29s0-.08,0-.08a37,37,0,0,0-7.42.9c1-3.09,2.17-6.14,3.42-9.1a55,55,0,0,1,3.63-7,45.517,45.517,0,0,1,6.15-1.1v-.1a16.67,16.67,0,0,0-5.75.57c1-1.63,2.07-3.23,3.21-4.78h0c4.31-.95,8.67-1.84,13.08-1a.07.07,0,0,0,0-.13c-4.19-1.11-8.35-.47-12.52.35.45-.6.92-1.2,1.39-1.79a28.429,28.429,0,0,1,8-1.27v-.09a21.089,21.089,0,0,0-7.5.67c3.56-4.42,7.49-8.58,11.38-12.69C154.58,250.34,154.44,250.23,154.25,250.42Z" fill="#fff"/>
      <path id="Path_3814" data-name="Path 3814" d="M154,267.91a16.838,16.838,0,0,0-3.82-.13c-.15,0-.14.26,0,.27,1.26,0,2.53-.06,3.79,0a.08.08,0,0,0,.03-.14Z" fill="#fff"/>
      <path id="Path_3815" data-name="Path 3815" d="M140.21,292.8a17.2,17.2,0,0,0-5.92,1.18v.09c2-.47,3.93-.66,5.91-1a.15.15,0,0,0,.01-.27Z" fill="#fff"/>
      <path id="Path_3816" data-name="Path 3816" d="M136.07,284.2a13.228,13.228,0,0,0-2.51.22.08.08,0,0,0,0,.15,12.389,12.389,0,0,0,2.51-.11.13.13,0,0,0,0-.26Z" fill="#fff"/>
      <path id="Path_3817" data-name="Path 3817" d="M66.61,271.89a87.15,87.15,0,0,1,17.85,8.41,53.329,53.329,0,0,1,14.87,14.12,132.2,132.2,0,0,1,19.06,38.49,102.521,102.521,0,0,1,4.32,23.48.23.23,0,0,1-.45,0,133.211,133.211,0,0,0-11.62-39.87c-5.83-12.35-13.18-25.49-24.42-33.67-6.12-4.45-13-7.37-19.86-10.45C66,272.28,66.25,271.77,66.61,271.89Z" fill="#ebebeb"/>
      <path id="Path_3818" data-name="Path 3818" d="M113.91,324.1A80.279,80.279,0,0,0,99.7,313.77c-7.94-4.41-14.39-7.31-16.36-11.16s4.16-8.85,4.16-8.85-8.1,4-11.46,1.05-10.42-23.35-10.42-23.35S84.33,278.11,96,291.6,113.91,324.1,113.91,324.1Z" fill="#ebebeb" opacity="0.3"/>
      <path id="Path_3819" data-name="Path 3819" d="M112.93,319.89C103.58,302.33,91.09,286.44,74,276h0a86.26,86.26,0,0,1,12.52,9.8,19.879,19.879,0,0,0-10.06,2.12.06.06,0,0,0,0,.11,27.5,27.5,0,0,1,10.35-1.75.25.25,0,0,0,.12,0c.61.57,1.2,1.16,1.8,1.75a31.464,31.464,0,0,0-5.38.71s0,.08,0,.08a27,27,0,0,1,5.67-.47,116.91,116.91,0,0,1,8.83,10,8.84,8.84,0,0,0-3.76.27.07.07,0,1,0,0,.14,19.92,19.92,0,0,1,4-.05c.51.65,1,1.3,1.53,2a35.87,35.87,0,0,0-11.35,1.1c-.06,0,0,.1,0,.09A45.65,45.65,0,0,1,100,301c.48.63.93,1.28,1.4,1.92a24.559,24.559,0,0,0-6.76.78.07.07,0,0,0,0,.13,26.089,26.089,0,0,1,7-.54c2,2.77,3.94,5.61,5.79,8.47a6.36,6.36,0,0,0-3,.18v.08a13.26,13.26,0,0,1,3.21.16q2.5,3.88,4.82,7.85C112.7,320.29,113.06,320.12,112.93,319.89Z" fill="#fff"/>
      <path id="Path_3820" data-name="Path 3820" d="M98.38,305.32a14.35,14.35,0,0,0-5.44.67s0,.09,0,.08a40.816,40.816,0,0,1,5.41-.56C98.48,305.51,98.51,305.33,98.38,305.32Z" fill="#fff"/>
      <path id="Path_3821" data-name="Path 3821" d="M82.06,283.92a9.191,9.191,0,0,0-2.51.14c-.09,0-.06.16,0,.15.83-.09,1.64-.06,2.46-.08a.11.11,0,0,0,.05-.21Z" fill="#fff"/>
      <path id="Path_3822" data-name="Path 3822" d="M138.04,382.18H95.81l6.02-44.11,1.54-11.31h27.11l1.54,11.31Z" fill="#dbdbdb" opacity="0.3"/>
      <path id="Path_3823" data-name="Path 3823" d="M132.02,338.07H101.83l1.54-11.31h27.11Z" fill="#c7c7c7"/>
      <rect id="Rectangle_8099" data-name="Rectangle 8099" width="34.86" height="9.58" transform="translate(99.49 322.84)" fill="#dbdbdb"/>
    </g>
    <g id="freepik--Floor--inject-5">
      <path id="Path_3824" data-name="Path 3824" d="M68.96,382.18l76.01-.24,76.01-.09L373,381.68l152.02.17,76.01.09,76.01.24-76.01.25-76.01.08L373,382.68l-152.02-.17-76.01-.09Z" fill="#263238"/>
    </g>
    <g id="freepik--Shadow--inject-5" transform="translate(37)" opacity="0.3">
      <ellipse id="Ellipse_1802" data-name="Ellipse 1802" cx="286.74" cy="31.42" rx="286.74" ry="31.42" transform="translate(88.26 393.87)" fill="#ebebeb"/>
    </g>
    <g id="freepik--Folder--inject-5">
      <path id="Path_3924" data-name="Path 3924" d="M576.32,432.05H271.64L315.69,182.2H620.37Z" fill="#fd5675"/>
      <path id="Path_3925" data-name="Path 3925" d="M419.97,156.32H320.26l-4.57,25.88H422.4Z" fill="#fd5675"/>
      <g id="Group_48313" data-name="Group 48313" transform="translate(-0.005)" opacity="0.1">
        <path id="Path_3926" data-name="Path 3926" d="M576.32,432.05H271.64L315.69,182.2H620.37Z"/>
        <path id="Path_3927" data-name="Path 3927" d="M419.97,156.32H320.26l-4.57,25.88H422.4Z"/>
      </g>
      <path id="Path_3928" data-name="Path 3928" d="M309.5,166.88a19.169,19.169,0,0,1,0-8.7,19.169,19.169,0,0,1,0,8.7Z" fill="#263238"/>
      <path id="Path_3929" data-name="Path 3929" d="M300.64,169.44a17,17,0,0,1-2.61-3.52,17.351,17.351,0,0,1-1.75-4,16.58,16.58,0,0,1,2.61,3.51A17.611,17.611,0,0,1,300.64,169.44Z" fill="#263238"/>
      <path id="Path_3930" data-name="Path 3930" d="M294.24,176.09a19.18,19.18,0,0,1-7.53-4.35,17.16,17.16,0,0,1,4,1.74,17.58,17.58,0,0,1,3.53,2.61Z" fill="#263238"/>
      <path id="Path_3931" data-name="Path 3931" d="M292,185.05a19.17,19.17,0,0,1-8.7,0A19.17,19.17,0,0,1,292,185.05Z" fill="#263238"/>
      <path id="Path_3932" data-name="Path 3932" d="M294.6,193.91a17.639,17.639,0,0,1-3.52,2.61,17.16,17.16,0,0,1-4,1.74,17,17,0,0,1,3.52-2.61,16.8,16.8,0,0,1,4-1.74Z" fill="#263238"/>
      <path id="Path_3933" data-name="Path 3933" d="M301.24,200.3a19.13,19.13,0,0,1-4.35,7.54,16.829,16.829,0,0,1,1.75-4A17.311,17.311,0,0,1,301.24,200.3Z" fill="#263238"/>
      <path id="Path_3934" data-name="Path 3934" d="M310.2,202.51a17.45,17.45,0,0,1,.5,4.35,17,17,0,0,1-.5,4.35,16.57,16.57,0,0,1-.5-4.35A17.45,17.45,0,0,1,310.2,202.51Z" fill="#263238"/>
      <path id="Path_3935" data-name="Path 3935" d="M319.06,200a17,17,0,0,1,2.61,3.52,16.8,16.8,0,0,1,1.74,4,19.13,19.13,0,0,1-4.35-7.54Z" fill="#263238"/>
      <path id="Path_3936" data-name="Path 3936" d="M325.45,193.3a16.8,16.8,0,0,1,4,1.74,17,17,0,0,1,3.52,2.61,16.8,16.8,0,0,1-4-1.74,17,17,0,0,1-3.52-2.61Z" fill="#263238"/>
      <path id="Path_3937" data-name="Path 3937" d="M327.66,184.34a19.22,19.22,0,0,1,8.71,0,19.22,19.22,0,0,1-8.71,0Z" fill="#263238"/>
      <path id="Path_3938" data-name="Path 3938" d="M325.1,175.48a17.309,17.309,0,0,1,3.52-2.6,16.439,16.439,0,0,1,4-1.75,19.13,19.13,0,0,1-7.54,4.35Z" fill="#263238"/>
      <path id="Path_3939" data-name="Path 3939" d="M318.45,169.09a17.578,17.578,0,0,1,1.74-4,17,17,0,0,1,2.61-3.52,16.8,16.8,0,0,1-1.74,4,17,17,0,0,1-2.61,3.52Z" fill="#263238"/>
      <path id="Path_3940" data-name="Path 3940" d="M575.87,432.05H270.54L227.18,191.27H532.52Z" fill="#fd5675"/>
      <circle id="Ellipse_1803" data-name="Ellipse 1803" cx="12.69" cy="12.69" r="12.69" transform="translate(320.3 313.08)" fill="#013c68"/>
      <circle id="Ellipse_1804" data-name="Ellipse 1804" cx="12.69" cy="12.69" r="12.69" transform="translate(420.62 313.08)" fill="#013c68"/>
      <path id="Path_3941" data-name="Path 3941" d="M401.38,340.49l-.7-1.33c-.06-.12-6.62-12.24-19.81-12.24-12,0-15,11.41-15.08,11.9l-.36,1.45-2.91-.7.35-1.46c0-.14,3.58-14.19,18-14.19,15,0,22.17,13.28,22.47,13.85l.7,1.32Z" fill="#013c68"/>
    </g>
    <g id="freepik--Fly--inject-5">
      <path id="Path_3942" data-name="Path 3942" d="M555.71,324.8l-.21-1c.65-.14,1.29-.29,1.93-.46l.25,1C557,324.51,556.37,324.66,555.71,324.8Z" fill="#263238"/>
      <path id="Path_3943" data-name="Path 3943" d="M561.55,323.19l-.32-.94c1.25-.43,2.5-.9,3.71-1.41l.39.92C564.1,322.28,562.83,322.76,561.55,323.19ZM569,320l-.45-.88a39.6,39.6,0,0,0,3.45-2l.52.85A25.57,25.57,0,0,1,569,320Zm6.88-4.23-.59-.81c1.08-.79,2.12-1.62,3.1-2.47l.66.75c-1.05.91-2.05,1.76-3.18,2.57Zm6.1-5.32-.73-.69c.92-1,1.79-2,2.59-3l.79.61c-.83,1.1-1.72,2.13-2.63,3.12Zm4.95-6.4-.85-.53a29.085,29.085,0,0,0,1.84-3.48l.92.41a33.752,33.752,0,0,1-1.92,3.64Zm3.31-7.42-1-.28a26.139,26.139,0,0,0,.81-3.83l1,.13a25.66,25.66,0,0,1-.82,4.02Zm1.11-8h-1v-.29c0-1.21-.07-2.44-.19-3.65l1-.1a36.251,36.251,0,0,1,.2,3.75Zm-1.8-7.83a39.309,39.309,0,0,0-1-3.82l1-.3a33.5,33.5,0,0,1,1,3.91Zm-2.37-7.53c-.48-1.18-1-2.39-1.64-3.61l.9-.45c.61,1.24,1.17,2.48,1.66,3.68Zm-3.5-7.13c-.62-1.09-1.3-2.24-2-3.42l.85-.53c.73,1.19,1.42,2.35,2,3.46Zm-4.18-6.79c-.73-1.1-1.47-2.21-2.23-3.32l.83-.56c.76,1.11,1.5,2.22,2.23,3.34Zm-4.5-6.62c-.75-1.1-1.51-2.21-2.25-3.31l.83-.56c.74,1.1,1.49,2.21,2.24,3.3Zm-4.47-6.66c-.73-1.12-1.44-2.26-2.14-3.4l.85-.52c.7,1.14,1.41,2.26,2.13,3.38Zm-4.17-6.87c-.68-1.21-1.31-2.41-1.88-3.56l.9-.45c.56,1.14,1.19,2.32,1.85,3.52Zm-3.55-7.2c-.53-1.25-1-2.52-1.44-3.76l1-.32c.42,1.21.89,2.46,1.41,3.69Zm-2.6-7.63c-.33-1.3-.62-2.63-.84-4l1-.16c.22,1.28.49,2.58.82,3.86Zm-1.34-8c-.1-1.23-.15-2.47-.15-3.71v-.33h1v.32a29.3,29.3,0,0,0,.15,3.63Zm1-8-1-.1c0-.27.05-.55.08-.84.12-1.07.27-2.14.45-3.16l1,.17c-.17,1-.32,2.05-.44,3.1a2.059,2.059,0,0,1-.04.86Zm1.39-7.78-1-.27c.37-1.32.8-2.61,1.28-3.84l.93.36a36.582,36.582,0,0,0-1.16,3.78Zm49.83-5.83a12.5,12.5,0,0,1-1.71-.16c-.78-.11-1.56-.24-2.33-.39l.2-1c.74.14,1.51.27,2.27.38.54.07,1.09.12,1.62.15Zm4.11-.31-.21-1a11.54,11.54,0,0,0,3.56-1.38l.52.85a12.45,12.45,0,0,1-3.82,1.56Zm-51.06-1.19-.89-.47a35.463,35.463,0,0,1,2.11-3.46l.82.57a32.664,32.664,0,0,0-1.99,3.39Zm39-.06a38.512,38.512,0,0,1-3.8-1.43l.41-.92a34.1,34.1,0,0,0,3.69,1.39Zm19-3.12-.83-.56a7,7,0,0,0,1.22-3.49l1,.07a8,8,0,0,1-1.36,4.01Zm-26.4-.15a36.674,36.674,0,0,1-3.39-2.23l.59-.8a35.288,35.288,0,0,0,3.3,2.16Zm-27.1-3.12-.74-.67a33.826,33.826,0,0,1,2.89-2.85l.66.75a33.4,33.4,0,0,0-2.78,2.8Zm20.59-1.69a37,37,0,0,1-2.83-2.91l.75-.66a36.84,36.84,0,0,0,2.75,2.83Zm32.55-2.71a9.771,9.771,0,0,0-2.33-3l.66-.75a10.8,10.8,0,0,1,2.57,3.29Zm-47.22-.79-.57-.82a38.57,38.57,0,0,1,3.47-2.11l.47.88a37.759,37.759,0,0,0-3.34,2.08Zm9.34-2.6c-.38-.54-.75-1.09-1.1-1.66l-1.3.51-.38-.92,1.15-.46c-.18-.3-.36-.6-.53-.9l.87-.49c.2.35.4.7.61,1q.84-.3,1.71-.57l.29,1c-.49.15-1,.31-1.46.48a12.162,12.162,0,0,0,1,1.43Zm32.33-1.72a21.3,21.3,0,0,0-3-1.22l-.66-.21.29-1,.68.22a21.6,21.6,0,0,1,3.12,1.27Zm-27.18-1.79-.21-1c1.29-.29,2.63-.53,4-.72l.15,1c-1.32.21-2.63.46-3.91.75Zm19.7-.54c-1.25-.22-2.57-.39-3.92-.51l.08-1c1.39.12,2.74.29,4,.52Zm-11.85-.58-.07-1c1.19-.07,2.38-.11,3.56-.11h.49v1h-.48c-1.13.03-2.31.06-3.47.14ZM580,172c-.54-1.22-1-2.49-1.45-3.78l1-.31c.42,1.26.89,2.5,1.41,3.69Zm-2.53-7.68c-.3-1.29-.55-2.63-.74-4l1-.14c.19,1.32.43,2.63.72,3.9Zm-1.12-8c-.05-.9-.08-1.82-.08-2.74v-1.3h1v1.28c0,.9,0,1.81.07,2.68Zm1.19-8-1-.1c.14-1.32.33-2.67.56-4l1,.17a38.032,38.032,0,0,0-.59,3.95Zm1.37-7.81-1-.24c.32-1.29.69-2.59,1.1-3.89l1,.31c-.45,1.31-.82,2.58-1.13,3.84Zm2.4-7.57-.93-.36c.49-1.25,1-2.5,1.61-3.71l.9.44a39.166,39.166,0,0,0-1.61,3.69Zm3.44-7.13-.87-.51c.68-1.15,1.41-2.3,2.17-3.4l.82.57c-.78,1.1-1.49,2.22-2.15,3.36Zm4.51-6.51-.78-.63c.84-1,1.74-2.06,2.67-3l.72.69a36.757,36.757,0,0,0-2.64,2.96Zm5.44-5.76-.67-.74c1-.89,2-1.77,3.07-2.62l.62.79c-1.07.85-2.09,1.72-3.05,2.59Zm6.21-4.94-.57-.83c1.09-.75,2.23-1.49,3.39-2.19l.51.85c-1.16.71-2.24,1.44-3.36,2.19Zm6.79-4.13-.47-.88c1.18-.63,2.4-1.23,3.62-1.79l.42.91c-1.27.57-2.44,1.17-3.6,1.78Zm7.23-3.32-.37-.94c1.26-.49,2.53-1,3.79-1.37l.32,1c-1.27.38-2.53.84-3.77,1.33Z" fill="#263238"/>
      <path id="Path_3944" data-name="Path 3944" d="M622.64,98.62l-.25-1c1.24-.32,2-.46,2-.46l.18,1S623.85,98.31,622.64,98.62Z" fill="#263238"/>
      <path id="Path_3945" data-name="Path 3945" d="M640.32,92.16c-2.55-7.9-19.63-5.06-16.3,5.27S642.87,100.07,640.32,92.16Z" fill="#263238"/>
      <path id="Path_3946" data-name="Path 3946" d="M614.73,89c.13-3.47,4.95-6.14,11.77-4.91s13.23,5.83,13.23,5.83S633,94,626.11,94.75,614.6,92.46,614.73,89Z" fill="#ebebeb"/>
      <path id="Path_3947" data-name="Path 3947" d="M639.73,89.9c-3.54,0-7.07-.1-10.6-.21s-7.07-.29-10.6-.57c3.54,0,7.08.09,10.61.2S636.21,89.61,639.73,89.9Z" fill="#263238"/>
      <path id="Path_3948" data-name="Path 3948" d="M621.58,85.91a29.75,29.75,0,0,1,5.65,3.53,26.633,26.633,0,0,1-2.92-1.6,28.621,28.621,0,0,1-2.73-1.93Z" fill="#263238"/>
      <path id="Path_3949" data-name="Path 3949" d="M630.85,89.57A32.47,32.47,0,0,1,625,93.35a32.472,32.472,0,0,1,5.88-3.78Z" fill="#263238"/>
      <path id="Path_3950" data-name="Path 3950" d="M631.88,87.62a7.24,7.24,0,0,1,2.58,2.08,6.849,6.849,0,0,1-1.41-.89,7.32,7.32,0,0,1-1.17-1.19Z" fill="#263238"/>
      <path id="Path_3951" data-name="Path 3951" d="M621.23,109.55c2.13,2.74,7.6,2.08,12.41-2.9S641,94.18,641,94.18s-7.88.6-13.89,4S619.09,106.8,621.23,109.55Z" fill="#ebebeb"/>
      <path id="Path_3952" data-name="Path 3952" d="M641,94.18c-2.88,2-5.68,4.22-8.49,6.37s-5.56,4.37-8.25,6.66c2.88-2,5.68-4.21,8.48-6.36S638.27,96.48,641,94.18Z" fill="#263238"/>
      <path id="Path_3953" data-name="Path 3953" d="M628.58,108a28.521,28.521,0,0,0,1.43-3,26.72,26.72,0,0,0,1.08-3.16,27.79,27.79,0,0,0-1.43,3,28.513,28.513,0,0,0-1.08,3.16Z" fill="#263238"/>
      <path id="Path_3954" data-name="Path 3954" d="M634,99.64a33.06,33.06,0,0,0-7,.37,29.2,29.2,0,0,0,3.5,0,31.108,31.108,0,0,0,3.5-.37Z" fill="#263238"/>
      <path id="Path_3955" data-name="Path 3955" d="M635.93,100.63a7.15,7.15,0,0,0,.62-1.56,7.486,7.486,0,0,0,.26-1.65,7.45,7.45,0,0,0-.88,3.21Z" fill="#263238"/>
      <path id="Path_3956" data-name="Path 3956" d="M640.32,92.16a3,3,0,1,1,1.93-3.77A3,3,0,0,1,640.32,92.16Z" fill="#455a64"/>
      <path id="Path_3957" data-name="Path 3957" d="M642.16,97.87a3,3,0,1,1,1.93-3.78,3,3,0,0,1-1.93,3.78Z" fill="#455a64"/>
    </g>
    <g id="freepik--speech-bubble--inject-5">
      <path id="Path_3958" data-name="Path 3958" d="M314.31,95.32a24.92,24.92,0,0,1-41.64,15.77l-12.47,1.83,6.24-10.78a24.92,24.92,0,1,1,47.87-6.82Z" fill="#ebebeb" opacity="0.3"/>
      <path id="Path_3960" data-name="Path 3960" d="M277.34,104.35a2.42,2.42,0,0,1,2.44-2.56,2.56,2.56,0,0,1,0,5.12,2.42,2.42,0,0,1-2.44-2.56Zm1-5.91-.58-19.84h4l-.58,19.84Z" fill="#fd5675"/>
      <path id="Path_3961" data-name="Path 3961" d="M286.85,104.35a2.42,2.42,0,0,1,2.43-2.56,2.56,2.56,0,0,1,0,5.12,2.42,2.42,0,0,1-2.43-2.56Zm1-5.91L287.3,78.6h4l-.58,19.84Z" fill="#fd5675"/>
      <path id="Path_3962" data-name="Path 3962" d="M296.35,104.35a2.42,2.42,0,0,1,2.44-2.56,2.56,2.56,0,0,1,0,5.12,2.42,2.42,0,0,1-2.44-2.56Zm1-5.91-.58-19.84h4l-.57,19.84Z" fill="#fd5675"/>
    </g>
  </g>
</svg>
