<svg xmlns="http://www.w3.org/2000/svg" width="117.521" height="178" viewBox="0 0 117.521 178">
  <g id="Group_46" data-name="Group 46" transform="translate(-2905.049 -435.294)">
    <g id="Group_36541" data-name="Group 36541" transform="translate(2905.049 435.294)">
      <g id="Group_36522" data-name="Group 36522" transform="translate(30.875 0)">
        <path id="Path_63521" data-name="Path 63521" d="M3407.83,489.985s12.128-.749,9.157-13.6c0,0,5.5-2.53,4.822-12.436s-10.653-10.479-10.653-10.479,2.424-6.08-2.845-9.595-7.88,2.239-7.88,2.239-1.825-11.4-14.733-10.308-13.371,11.693-13.371,11.693-8.7-.786-11.641,7.286,1.926,10.932,1.926,10.932-3.816,2.067-3.027,8.383,7.032,8.65,13.412,9.117S3407.83,489.985,3407.83,489.985Z" transform="translate(-3359.478 -435.733)" fill="#00355a"/>
      </g>
      <g id="Group_36523" data-name="Group 36523" transform="translate(0 50.166)">
        <path id="Path_63522" data-name="Path 63522" d="M3279.878,798.395c-5.1-16.837-29.7-27.489-29.7-27.489l-15.28,7.822-3.126,1.388-1.977-1.59-2.672-3.287c-3.453.982-13.006,4.771-21.363,6.741s-18.957-.684-18.957-.684c1.8-8.55,4.754-21.984,4.754-21.984-3.233-.706-11.609-4.869-11.609-4.869s-4.381,7.01-7.409,13.124-13.915,23.633-6.9,33.533,39.916,9.257,39.916,9.257c-4.935,13.212-6.522,56.315-6.5,65.918,6.69,14.455,46.414-1.053,69.108-6.438-.572-9.31-1.75-17.965-1-26.108C3268.295,831.609,3284.981,815.232,3279.878,798.395Z" transform="translate(-3163.325 -754.443)" fill="#64c1ff"/>
      </g>
      <g id="Group_36524" data-name="Group 36524" transform="translate(62.816 45.58)">
        <path id="Path_63523" data-name="Path 63523" d="M3586.982,747.123s-7.948-10.128-10.632-19.734-13.949,17.126-13.949,17.126l.979,6.173,3.119,5.469,10.674-1.565Z" transform="translate(-3562.401 -725.307)" fill="#fff"/>
      </g>
      <g id="Group_36525" data-name="Group 36525" transform="translate(62.816 45.58)">
        <path id="Path_63524" data-name="Path 63524" d="M3576.35,727.389c-2.684-9.605-13.949,17.126-13.949,17.126l.979,6.173.685,1.622a9.122,9.122,0,0,0,5.76-1c3.995-2.3,7.365-13.136,8.346-18.767A41.731,41.731,0,0,1,3576.35,727.389Z" transform="translate(-3562.401 -725.307)" fill="#eef8ff"/>
      </g>
      <g id="Group_36526" data-name="Group 36526" transform="translate(81.571 73.606)">
        <path id="Path_63525" data-name="Path 63525" d="M3693.693,928.874l-.743-.054a28.976,28.976,0,0,0-5.116-18.045,32.782,32.782,0,0,0-6.279-6.982l.815-.433a34.136,34.136,0,0,1,6.084,7A29.708,29.708,0,0,1,3693.693,928.874Z" transform="translate(-3681.555 -903.36)" fill="#fff"/>
      </g>
      <g id="Group_36527" data-name="Group 36527" transform="translate(38.387 94.531)">
        <path id="Path_63526" data-name="Path 63526" d="M3466.085,1036.3s-15.4,11.99-20.063,27.605l-37.5-4.2s-1.194,9.844-1.324,14.694c0,0,29.225,11.134,40.11,13.1s13.07.957,22.082-13.166,10.139-19.728,11.415-25.484" transform="translate(-3407.202 -1036.299)" fill="#0369b1"/>
      </g>
      <g id="Group_36528" data-name="Group 36528" transform="translate(38.387 95.688)">
        <path id="Path_63527" data-name="Path 63527" d="M3467.019,1043.652s-13.461,18.269-18.185,34.088l-38.212-7.314s-1.627,5.419-3.42,10.163c0,0,31.638,18.983,40.628,20.61,11.027,2,13.241.969,22.371-13.338q2.212-3.468,4.1-6.722c2.926-7.522,7.643-17.8,9.924-26.938Z" transform="translate(-3407.202 -1043.652)" fill="#0369b1"/>
      </g>
      <g id="Group_36529" data-name="Group 36529" transform="translate(40.935 20.753)">
        <path id="Path_63528" data-name="Path 63528" d="M3423.6,579.989s-1.843,11.285,5.516,24.026,16.585,14.929,21.484,12.106,8.863-18.489,8.624-21.635-5.438-17.607-5.438-17.607-14.464-11.853-17.659-8.8S3423.6,579.989,3423.6,579.989Z" transform="translate(-3423.392 -567.576)" fill="#fff"/>
      </g>
      <g id="Group_36530" data-name="Group 36530" transform="translate(35.737 8.928)">
        <path id="Path_63529" data-name="Path 63529" d="M3392.985,519.459s3.471,4.185,11.981.877c9.144-3.555,7.568-11.492,7.568-11.492s2.615,4.885,9.583,5.864c0,0,1.961,9.366,5.271,11.337s-2.21-6.889,4.994-7.691-.133-19.643-.133-19.643l-17.107-6.258-12.7,4.7s-11.365,5.658-11.992,9.954S3392.985,519.459,3392.985,519.459Z" transform="translate(-3390.365 -492.452)" fill="#041b31"/>
      </g>
      <g id="Group_36531" data-name="Group 36531" transform="translate(19.399 21.775)">
        <path id="Path_63530" data-name="Path 63530" d="M3286.57,597.172s2.02-13.7,10.223-19.98c6.229-4.77,12.511-3.735,16.96.874,3.225,3.341-1.321,3.478-3.91,2.506-1.47-.552-5.56-2.05-6.619-.406-.752,1.168,4.3,2.114,5.087,5.3s-.092,3.479-.8,6.668c-.544,2.448-1.767,2.765-3.763,3.323a5.725,5.725,0,0,1-2.685.351s-.226-.7-3.425,4.7C3295.861,603.5,3286.57,597.172,3286.57,597.172Z" transform="translate(-3286.57 -574.075)" fill="#fff"/>
      </g>
      <g id="Group_36532" data-name="Group 36532" transform="translate(9.654 100.023)">
        <path id="Path_63531" data-name="Path 63531" d="M3248.585,1103.015l.9-.241a1.828,1.828,0,0,0,1.269-2.323l-8.48-26.48a2.473,2.473,0,0,0-2.107-1.706l-12.621-1.066a1.912,1.912,0,0,0-1.2.3l-1.68,1.093Z" transform="translate(-3224.661 -1071.191)" fill="#3d3b66"/>
      </g>
      <g id="Group_36533" data-name="Group 36533" transform="translate(9.222 101.385)">
        <path id="Path_63532" data-name="Path 63532" d="M3222.651,1079.851l14.245,1.788a1.312,1.312,0,0,1,1.1.928l8.276,27.74-13.244-2.167a2.485,2.485,0,0,1-1.941-1.623l-9.133-25.8A.656.656,0,0,1,3222.651,1079.851Z" transform="translate(-3221.911 -1079.845)" fill="#252144"/>
      </g>
      <g id="Group_36534" data-name="Group 36534" transform="translate(9.776 107.837)">
        <path id="Path_63533" data-name="Path 63533" d="M3256.949,1133.5s-4.123-3.514-5.393-6.11-6.611-3.717-8.514-4.795-4.734-.868-1.971,4.132a73.5,73.5,0,0,1-9.88-3.226c-3.021-1.473-4.888-3.044-5.547-2.583s.167,4.847,3.363,6.776a7.808,7.808,0,0,0,2.753,5.13,9.929,9.929,0,0,0,5.348,5.293c3.955,1.541,17.8,6.2,17.8,6.2Z" transform="translate(-3225.433 -1120.831)" fill="#fff"/>
      </g>
      <g id="Group_36535" data-name="Group 36535" transform="translate(42.427 91.605)">
        <path id="Path_63534" data-name="Path 63534" d="M3488.174,1017.711s-13.287,18.034-17.95,33.648l-32.959-4.06s-4.315,10.863-4.394,11.8c0,0,25.478,13.451,36.362,15.422s13.07.957,22.082-13.167,13.935-25.746,15.211-31.5" transform="translate(-3432.871 -1017.711)" fill="#64c1ff"/>
      </g>
      <g id="Group_36536" data-name="Group 36536" transform="translate(69.86 35.661)">
        <circle id="Ellipse_366" data-name="Ellipse 366" cx="6.429" cy="6.429" r="6.429" transform="translate(0 0.913) rotate(-4.071)" fill="#fff"/>
      </g>
      <g id="Group_36537" data-name="Group 36537" transform="translate(61.621 65.138)">
        <path id="Path_63535" data-name="Path 63535" d="M3556.984,855.386s1.068,2.5,7.851,1.748S3579,849.563,3579,849.563a16.635,16.635,0,0,1,3.034,2.433s-8.978,11.372-19.265,10.854-7.665-6.87-7.665-6.87Z" transform="translate(-3554.81 -849.563)" fill="#fff"/>
      </g>
      <g id="Group_36538" data-name="Group 36538" transform="translate(35.817 119.236)">
        <path id="Path_63536" data-name="Path 63536" d="M3394.961,1193.255s5.695,1.561,6.917,1.957c0,0-1.674,8.585-4.393,11.8,0,0-5.906-2.073-6.611-2.829C3390.874,1204.179,3394.074,1201.1,3394.961,1193.255Z" transform="translate(-3390.874 -1193.255)" fill="#fff"/>
      </g>
      <g id="Group_36539" data-name="Group 36539" transform="translate(16.622 43.676)">
        <path id="Path_63537" data-name="Path 63537" d="M3282.77,717.737s-1.791,5.627-2.237,6.832c0,0-8.509-2.021-11.608-4.869,0,0,2.311-5.818,3.1-6.49C3272.021,713.21,3274.964,716.532,3282.77,717.737Z" transform="translate(-3268.925 -713.21)" fill="#fff"/>
      </g>
      <g id="Group_36540" data-name="Group 36540" transform="translate(41.679 73.447)">
        <path id="Path_63538" data-name="Path 63538" d="M3428.491,934.935a.381.381,0,0,1-.052,0,.373.373,0,0,1-.317-.421,55.52,55.52,0,0,1,3.909-12.986,44.513,44.513,0,0,1,6.465-10.655,30.922,30.922,0,0,1,10.905-8.487.373.373,0,0,1,.309.678c-9.048,4.126-14.232,12.471-16.989,18.745a54.749,54.749,0,0,0-3.862,12.808A.373.373,0,0,1,3428.491,934.935Z" transform="translate(-3428.118 -902.349)" fill="#fff"/>
      </g>
    </g>
  </g>
</svg>
