<svg xmlns="http://www.w3.org/2000/svg" width="54.544" height="50" viewBox="0 0 54.544 50">
  <g id="image-gallery" transform="translate(-0.001 -2)">
    <g id="Group_38341" data-name="Group 38341" transform="translate(0.001 8.818)">
      <g id="Group_38340" data-name="Group 38340" transform="translate(0 8.936)">
        <path id="Path_73682" data-name="Path 73682" d="M14.2,32.95a8.509,8.509,0,0,1-8.05-5.8l-.08-.261a8.291,8.291,0,0,1-.393-2.464V8.932L.167,27.337A5.161,5.161,0,0,0,3.786,33.6l35.143,9.411a5.212,5.212,0,0,0,1.309.168,5.067,5.067,0,0,0,4.911-3.716L47.2,32.95Z" transform="translate(-0.001 -8.932)" fill="#64c1ff"/>
      </g>
      <path id="Path_73683" data-name="Path 73683" d="M11.545,14.091A4.545,4.545,0,1,0,7,9.545,4.55,4.55,0,0,0,11.545,14.091Z" transform="translate(8.908 -5)" fill="#64c1ff"/>
    </g>
    <path id="Path_73684" data-name="Path 73684" d="M43.773,2H9.682A5.69,5.69,0,0,0,4,7.682v25a5.69,5.69,0,0,0,5.682,5.682H43.773a5.69,5.69,0,0,0,5.682-5.682v-25A5.69,5.69,0,0,0,43.773,2ZM9.682,6.545H43.773a1.137,1.137,0,0,1,1.136,1.136V23.816l-7.18-8.377a4.071,4.071,0,0,0-3.048-1.4,3.974,3.974,0,0,0-3.036,1.434L23.2,25.607l-2.75-2.743a3.989,3.989,0,0,0-5.636,0l-6.273,6.27V7.682A1.137,1.137,0,0,1,9.682,6.545Z" transform="translate(5.09)" fill="#64c1ff"/>
  </g>
</svg>
