<svg xmlns="http://www.w3.org/2000/svg" width="199.365" height="100" viewBox="0 0 199.365 100">
  <g id="Key" transform="translate(658.81 -462.473)">
    <g id="Group_2" data-name="Group 2" transform="translate(-605.706 507.89)">
      <path id="Path_2" data-name="Path 2" d="M165.88,359.064l-16.348,23.355,1.6,1.012s10.876-10.118,12.141-11.256,6.733-7.04,6.733-7.04l6.028-5.649Z" transform="translate(-147.828 -330.83)" fill="#0369b1"/>
      <path id="Path_3" data-name="Path 3" d="M179.09,358.314s-.645.348-1.444,3.51c-.787,3.114,3.52-2.2,3.52-2.2Z" transform="translate(-161.672 -330.459)" fill="#02548e"/>
      <path id="Path_4" data-name="Path 4" d="M191.1,360.041s8.8,2.415,11.2,5.26-6.509,18.212-6.509,18.212h-2.115s3.773-14.165,3.794-14.418-12.121-5.185-12.121-5.185Z" transform="translate(-165.523 -331.312)" fill="#0369b1"/>
      <path id="Path_5" data-name="Path 5" d="M196.643,304.422l.172-.814a1.939,1.939,0,0,1-1.436.212c-.6-.261-.37-.568-.37-.568h3.206l-.338,1.17Z" transform="translate(-170.277 -303.252)" fill="#d9ffff"/>
      <path id="Path_6" data-name="Path 6" d="M237.406,303.252l1.2.766-.316.562.84.506,2.069-1.676Z" transform="translate(-191.248 -303.252)" fill="#d9ffff"/>
      <path id="Path_7" data-name="Path 7" d="M190.235,333.5c2.312-3.8,3.408-7.15,4.834-12.051,5.527-4.085,11.556-9.99,15.16-15.651-.452-.272-.9-.494-1.348-.766-6.023,5.456-13.478,11.156-21.129,13.9,1.44-4.56,1.587-8.831,2.1-14.039-.464-.042-1.393-.087-1.857-.129-1.642,5.536-2.585,8.984-4.51,14.428-1.1,3.117-1,5.885-2.1,9a23.948,23.948,0,0,0-3.3,5.046C182.2,332.9,186.112,333.85,190.235,333.5Z" transform="translate(-161.931 -304)" fill="#0369b1"/>
      <path id="Path_8" data-name="Path 8" d="M199.754,323.6a32.072,32.072,0,0,1,1.373-5.375c.632-1.222,4.055-1.476,4.473-1.044s-.7,2.646-.742,2.772.885.991-.168.548c0,0-.021.991-.464,1.244a3.649,3.649,0,0,1-1.075.348l.07.424Z" transform="translate(-172.643 -310.039)" fill="#fff"/>
      <path id="Path_9" data-name="Path 9" d="M198.621,328.994l.418-1.158,3.881-.618.1.785Z" transform="translate(-172.083 -315.094)" fill="#fff"/>
      <path id="Path_10" data-name="Path 10" d="M196.719,330.676l.938-2.013,4.567-.945.252,1.006Z" transform="translate(-171.144 -315.341)" fill="#02548e"/>
      <path id="Path_11" data-name="Path 11" d="M201.111,317.556c-.368.712-.436,2.728-.71,4.028a7.3,7.3,0,0,0,1.267-.2,3.776,3.776,0,0,0,.87-.252c.348-.185.359-.539.5-.878a1.685,1.685,0,0,1-.278-.661.854.854,0,0,1,.125-.62.629.629,0,0,1,.554-.276.5.5,0,0,1,.447.4,2.5,2.5,0,0,1,.027.413l.212-.021c.074-.3.2-.611.272-.907a4.709,4.709,0,0,0,1.458-.646,2.628,2.628,0,0,0,.159-1.31C205.672,315.884,201.744,316.334,201.111,317.556Z" transform="translate(-172.963 -309.683)" fill="#0369b1"/>
      <path id="Path_12" data-name="Path 12" d="M148.4,404.9l-2.234,3.162h6.24a3.593,3.593,0,0,0-2.234-.991,2.891,2.891,0,0,0-1.342-.527l.641-1.138Z" transform="translate(-146.163 -353.477)" fill="#0369b1"/>
      <path id="Path_13" data-name="Path 13" d="M150.087,406.542l.641-1.138-1.069-.506-.944,1.336Z" transform="translate(-147.423 -353.477)" fill="#fff"/>
      <path id="Path_14" data-name="Path 14" d="M201.544,405.9l-1.075,2.656h6.239a4,4,0,0,0-2.392-1.181,14.431,14.431,0,0,0-1.476-.442l.279-1.034Z" transform="translate(-172.997 -353.971)" fill="#0369b1"/>
      <path id="Path_15" data-name="Path 15" d="M201.767,406.931h1.714l.258-1.033h-1.554Z" transform="translate(-173.638 -353.971)" fill="#fff"/>
    </g>
    <g id="Group_3" data-name="Group 3" transform="translate(-567.006 507.89)">
      <path id="Path_16" data-name="Path 16" d="M242.38,359.064l-16.348,23.355,1.6,1.012s10.876-10.118,12.141-11.256,6.733-7.04,6.733-7.04l6.028-5.649Z" transform="translate(-224.328 -330.83)" fill="#0369b1"/>
      <path id="Path_17" data-name="Path 17" d="M255.59,358.314s-.645.348-1.444,3.51c-.787,3.114,3.52-2.2,3.52-2.2Z" transform="translate(-238.172 -330.459)" fill="#02548e"/>
      <path id="Path_18" data-name="Path 18" d="M267.6,360.041s8.8,2.415,11.2,5.26-6.509,18.212-6.509,18.212h-2.115s3.773-14.165,3.794-14.418-12.121-5.185-12.121-5.185Z" transform="translate(-242.023 -331.312)" fill="#0369b1"/>
      <path id="Path_19" data-name="Path 19" d="M273.142,304.422l.172-.814a1.939,1.939,0,0,1-1.436.212c-.6-.261-.37-.568-.37-.568h3.206l-.338,1.17Z" transform="translate(-246.777 -303.252)" fill="#d9ffff"/>
      <path id="Path_20" data-name="Path 20" d="M313.906,303.252l1.2.766-.316.562.84.506,2.069-1.676Z" transform="translate(-267.748 -303.252)" fill="#d9ffff"/>
      <path id="Path_21" data-name="Path 21" d="M266.735,333.5c2.312-3.8,3.408-7.15,4.834-12.051,5.527-4.085,11.556-9.99,15.16-15.651-.452-.272-.9-.494-1.348-.766-6.023,5.456-13.478,11.156-21.129,13.9,1.44-4.56,1.587-8.831,2.1-14.039-.464-.042-1.393-.087-1.857-.129-1.642,5.536-2.585,8.984-4.51,14.428-1.1,3.117-1,5.885-2.1,9a23.95,23.95,0,0,0-3.3,5.046C258.7,332.9,262.612,333.85,266.735,333.5Z" transform="translate(-238.431 -304)" fill="#0369b1"/>
      <path id="Path_22" data-name="Path 22" d="M276.254,323.6a32.072,32.072,0,0,1,1.373-5.375c.632-1.222,4.055-1.476,4.473-1.044s-.7,2.646-.742,2.772.885.991-.168.548c0,0-.021.991-.464,1.244a3.649,3.649,0,0,1-1.075.348l.07.424Z" transform="translate(-249.143 -310.039)" fill="#fff"/>
      <path id="Path_23" data-name="Path 23" d="M275.121,328.994l.418-1.158,3.881-.618.1.785Z" transform="translate(-248.583 -315.094)" fill="#fff"/>
      <path id="Path_24" data-name="Path 24" d="M273.219,330.676l.938-2.013,4.567-.945.252,1.006Z" transform="translate(-247.644 -315.341)" fill="#02548e"/>
      <path id="Path_25" data-name="Path 25" d="M277.611,317.556c-.368.712-.436,2.728-.71,4.028a7.3,7.3,0,0,0,1.267-.2,3.776,3.776,0,0,0,.87-.252c.348-.185.359-.539.5-.878a1.686,1.686,0,0,1-.278-.661.854.854,0,0,1,.125-.62.629.629,0,0,1,.554-.276.5.5,0,0,1,.447.4,2.5,2.5,0,0,1,.027.413l.212-.021c.074-.3.2-.611.272-.907a4.709,4.709,0,0,0,1.458-.646,2.627,2.627,0,0,0,.159-1.31C282.172,315.884,278.244,316.334,277.611,317.556Z" transform="translate(-249.463 -309.683)" fill="#0369b1"/>
      <path id="Path_26" data-name="Path 26" d="M224.9,404.9l-2.234,3.162h6.24a3.593,3.593,0,0,0-2.234-.991,2.891,2.891,0,0,0-1.342-.527l.641-1.138Z" transform="translate(-222.663 -353.477)" fill="#0369b1"/>
      <path id="Path_27" data-name="Path 27" d="M226.587,406.542l.641-1.138-1.069-.506-.944,1.336Z" transform="translate(-223.923 -353.477)" fill="#fff"/>
      <path id="Path_28" data-name="Path 28" d="M278.044,405.9l-1.075,2.656h6.239a4,4,0,0,0-2.392-1.181,14.43,14.43,0,0,0-1.476-.442l.279-1.034Z" transform="translate(-249.497 -353.971)" fill="#0369b1"/>
      <path id="Path_29" data-name="Path 29" d="M278.267,406.931h1.714l.258-1.033h-1.554Z" transform="translate(-250.138 -353.971)" fill="#fff"/>
    </g>
    <g id="Group_24" data-name="Group 24" transform="translate(-658.81 462.473)">
      <g id="Group_23" data-name="Group 23" transform="translate(0 0)">
        <path id="Path_49" data-name="Path 49" d="M231.955,242.424H152.029v-.543a2.9,2.9,0,0,0-2.9-2.895h-1.81a2.9,2.9,0,0,0-2.9,2.895v.543h-6.875v-.543a2.9,2.9,0,0,0-2.9-2.895h-1.81a2.9,2.9,0,0,0-2.9,2.895v.543H118.633l-3.34-2.895a3.352,3.352,0,0,0-4.263-.106l-2.054,1.609a3.352,3.352,0,0,1-4.953-.933l-6-10.16v.007c-5.56-10.016-14.907-16.473-25.706-16.473-17.452,0-31.122,16.849-31.122,38.36s13.67,38.359,31.122,38.359c12.321,0,22.751-8.4,27.821-20.913a59.2,59.2,0,0,1,3.89-7.884h0a3.352,3.352,0,0,1,4.953-.933l2.054,1.609a3.353,3.353,0,0,0,4.263-.106l3.34-2.895h11.321v.543a2.9,2.9,0,0,0,2.9,2.9h1.81a2.9,2.9,0,0,0,2.9-2.9v-.543h6.875v.543a2.9,2.9,0,0,0,2.9,2.9h1.81a2.9,2.9,0,0,0,2.9-2.9v-.543h36.548v24.112a1.447,1.447,0,0,0,1.447,1.447h3.619a1.447,1.447,0,0,0,1.447-1.447v-5.79a1.448,1.448,0,0,1,1.448-1.448h2.714A1.447,1.447,0,0,0,200.7,274.5v-3.076a1.447,1.447,0,0,1,1.448-1.447h8.685a1.448,1.448,0,0,1,1.448,1.447V274.5a1.447,1.447,0,0,0,1.447,1.447h2.714a1.448,1.448,0,0,1,1.448,1.448v5.79a1.447,1.447,0,0,0,1.447,1.447h3.619a1.447,1.447,0,0,0,1.447-1.447V259.071h7.827a8.324,8.324,0,0,0,8.322-8.48A8.5,8.5,0,0,0,231.955,242.424ZM72.312,278.612c-10.793,0-19.542-11.989-19.542-26.779s8.749-26.78,19.542-26.78,19.542,11.99,19.542,26.78S83.1,278.612,72.312,278.612Z" transform="translate(-41.19 -213.473)" fill="#64c1ff"/>
        <path id="Union_2" data-name="Union 2" d="M-1708.246-60.288v-4.8h-36.548v-4.342h87.508a8.317,8.317,0,0,1-7.305,4.342h-7.828v4.8Zm-51.024-4.749v-4.388h5.409l1.467-9.047v13.435Zm-8.685-.046h-10.236a14.582,14.582,0,0,1,9.852-4.333l1.469-9.056v13.389Z" transform="translate(1855.633 110.681)" fill="rgba(255,255,255,0.31)"/>
      </g>
    </g>
  </g>
</svg>
