<svg xmlns="http://www.w3.org/2000/svg" width="298" height="222.01" viewBox="0 0 298 222.01">
  <g id="Group_38718" data-name="Group 38718" transform="translate(-37 -51.755)">
    <g id="Background_complete" transform="translate(37 51.755)">
      <g id="Group_38698" data-name="Group 38698">
        <g id="Group_38688" data-name="Group 38688">
          <rect id="Rectangle_6385" data-name="Rectangle 6385" width="298" height="0.179" transform="translate(0 195.13)" fill="#e6e6e6"/>
          <rect id="Rectangle_6386" data-name="Rectangle 6386" width="19.728" height="0.179" transform="translate(54.653 204.13)" fill="#e6e6e6"/>
          <rect id="Rectangle_6387" data-name="Rectangle 6387" width="11.443" height="0.179" transform="translate(36.952 204.13)" fill="#e6e6e6"/>
          <rect id="Rectangle_6388" data-name="Rectangle 6388" width="11.443" height="0.179" transform="translate(114.074 206.335)" fill="#e6e6e6"/>
          <rect id="Rectangle_6389" data-name="Rectangle 6389" width="25.747" height="0.179" transform="translate(159.37 209.673)" fill="#e6e6e6"/>
          <rect id="Rectangle_6390" data-name="Rectangle 6390" width="3.755" height="0.179" transform="translate(150.311 209.673)" fill="#e6e6e6"/>
          <rect id="Rectangle_6391" data-name="Rectangle 6391" width="55.845" height="0.179" transform="translate(214.381 206.335)" fill="#e6e6e6"/>
          <g id="Group_38687" data-name="Group 38687" transform="translate(22.767)">
            <path id="Path_73988" data-name="Path 73988" d="M156.685,223.549H41.6a3.435,3.435,0,0,1-3.4-3.4V58.4A3.435,3.435,0,0,1,41.6,55H156.685a3.435,3.435,0,0,1,3.4,3.4V220.151A3.4,3.4,0,0,1,156.685,223.549ZM41.6,55.119A3.268,3.268,0,0,0,38.319,58.4V220.151a3.268,3.268,0,0,0,3.278,3.278H156.685a3.268,3.268,0,0,0,3.278-3.278V58.4a3.268,3.268,0,0,0-3.278-3.278Z" transform="translate(-38.2 -55)" fill="#e6e6e6"/>
            <path id="Path_73989" data-name="Path 73989" d="M372.985,223.549H257.9a3.435,3.435,0,0,1-3.4-3.4V58.4a3.435,3.435,0,0,1,3.4-3.4H372.985a3.435,3.435,0,0,1,3.4,3.4V220.151A3.4,3.4,0,0,1,372.985,223.549ZM257.9,55.119a3.268,3.268,0,0,0-3.278,3.278V220.151a3.268,3.268,0,0,0,3.278,3.278H372.985a3.268,3.268,0,0,0,3.278-3.278V58.4a3.268,3.268,0,0,0-3.278-3.278Z" transform="translate(-125.585 -55)" fill="#e6e6e6"/>
          </g>
        </g>
        <g id="Group_38689" data-name="Group 38689" transform="translate(88.863 144.232)">
          <rect id="Rectangle_6392" data-name="Rectangle 6392" width="13.112" height="51.971" transform="translate(57.395)" fill="#e0e0e0"/>
          <path id="Path_73990" data-name="Path 73990" d="M261.422,379.392h2.5V372.3H258.8Z" transform="translate(-193.419 -327.421)" fill="#fafafa"/>
          <rect id="Rectangle_6393" data-name="Rectangle 6393" width="13.112" height="51.971" fill="#e0e0e0"/>
          <rect id="Rectangle_6394" data-name="Rectangle 6394" width="59.6" height="47.62" transform="translate(10.907)" fill="#fafafa"/>
          <path id="Path_73991" data-name="Path 73991" d="M226.187,300.738v12.635H170.879V300.738h55.309m.238-.238H170.7v13.052h55.726V300.5Z" transform="translate(-157.826 -298.414)" fill="#e0e0e0"/>
          <path id="Path_73992" data-name="Path 73992" d="M169.9,379.392h-2.5V372.3h5.126Z" transform="translate(-156.493 -327.421)" fill="#fafafa"/>
          <ellipse id="Ellipse_1653" data-name="Ellipse 1653" cx="1.311" cy="1.311" rx="1.311" ry="1.311" transform="translate(39.396 7.331)" fill="#e6e6e6"/>
          <path id="Path_73993" data-name="Path 73993" d="M226.187,326.238v12.635H170.879V326.238h55.309m.238-.238H170.7v13.052h55.726V326Z" transform="translate(-157.826 -308.716)" fill="#e0e0e0"/>
          <ellipse id="Ellipse_1654" data-name="Ellipse 1654" cx="1.311" cy="1.311" rx="1.311" ry="1.311" transform="translate(39.396 22.469)" fill="#e6e6e6"/>
          <path id="Path_73994" data-name="Path 73994" d="M226.187,351.679v12.635H170.879V351.679h55.309m.238-.179H170.7v13.052h55.726V351.5Z" transform="translate(-157.826 -319.018)" fill="#e0e0e0"/>
          <ellipse id="Ellipse_1655" data-name="Ellipse 1655" cx="1.311" cy="1.311" rx="1.311" ry="1.311" transform="translate(39.396 37.667)" fill="#e6e6e6"/>
        </g>
        <g id="Group_38690" data-name="Group 38690" transform="translate(31.826 114.015)">
          <rect id="Rectangle_6395" data-name="Rectangle 6395" width="13.112" height="82.188" transform="translate(48.991)" fill="#e0e0e0"/>
          <path id="Path_73995" data-name="Path 73995" d="M151.663,379.392h2.5V372.3H149.1Z" transform="translate(-92.063 -297.204)" fill="#fafafa"/>
          <rect id="Rectangle_6396" data-name="Rectangle 6396" width="13.112" height="82.188" fill="#e0e0e0"/>
          <rect id="Rectangle_6397" data-name="Rectangle 6397" width="51.137" height="77.838" transform="translate(10.966)" fill="#fafafa"/>
          <path id="Path_73996" data-name="Path 73996" d="M122.024,249.838V267.48H75.3V249.838h46.726m.3-.238H75v18.118h47.263V249.6Z" transform="translate(-62.126 -247.633)" fill="#e0e0e0"/>
          <path id="Path_73997" data-name="Path 73997" d="M138.629,283v46.726h-22.29V283h22.29m.3-.3H116.1v47.263h22.827V282.7Z" transform="translate(-78.731 -261.006)" fill="#e0e0e0"/>
          <path id="Path_73998" data-name="Path 73998" d="M97.529,283v46.726H75.3V283H97.529m.3-.3H75v47.263H97.827V282.7Z" transform="translate(-62.126 -261.006)" fill="#e0e0e0"/>
          <path id="Path_73999" data-name="Path 73999" d="M74.3,379.392H71.8V372.3h5.066Z" transform="translate(-60.834 -297.204)" fill="#fafafa"/>
          <ellipse id="Ellipse_1656" data-name="Ellipse 1656" cx="1.311" cy="1.311" rx="1.311" ry="1.311" transform="translate(35.224 9.715)" fill="#e6e6e6"/>
          <ellipse id="Ellipse_1657" data-name="Ellipse 1657" cx="1.311" cy="1.311" rx="1.311" ry="1.311" transform="translate(39.932 42.912)" fill="#e6e6e6"/>
          <ellipse id="Ellipse_1658" data-name="Ellipse 1658" cx="1.311" cy="1.311" rx="1.311" ry="1.311" transform="translate(30.515 42.912)" fill="#e6e6e6"/>
        </g>
        <path id="Path_74000" data-name="Path 74000" d="M98.01,207.9H92.467a59.128,59.128,0,0,1,.954,8.106c0,2.98-4.232,14.781,1.788,14.781S97,218.986,97,216.006A64.648,64.648,0,0,1,98.01,207.9Z" transform="translate(-37.158 -116.772)" fill="#e0e0e0"/>
        <path id="Path_74001" data-name="Path 74001" d="M66.8,228.1v3.576a7.237,7.237,0,0,0,7.212,7.212h3.576a7.237,7.237,0,0,0,7.212-7.212V228.1Z" transform="translate(-26.987 -124.932)" fill="#f5f5f5"/>
        <path id="Path_74002" data-name="Path 74002" d="M195.7,284.3c0,4.172,4.649,7.569,10.37,7.569H211.2c5.722,0,10.37-3.4,10.37-7.569Z" transform="translate(-79.063 -147.637)" fill="#e0e0e0"/>
        <g id="Group_38692" data-name="Group 38692" transform="translate(216.916 57.311)">
          <path id="Path_74003" data-name="Path 74003" d="M400.1,224.372a55.033,55.033,0,0,0-11.384,13.768,34.943,34.943,0,0,0-4.887,15.019c0-6.854.06-14.244.06-21.158.775-1.788,2.622-5.9,3.934-9.178,4.351-10.847,5.96-13.529,9.834-22.886,5.185-12.516,10.549-27.356,9-26.164-3.1,2.444-15.019,24.734-16.33,27.952a90.232,90.232,0,0,0-6.437,26.76c0-6.556.06-12.516.06-17.165.06-15.079.358-19.966.477-21.456.477-.775,1.073-1.669,1.371-2.146,2.8-4.053,3.874-7.51,6.5-13.529,3.755-8.582,6.973-23.721,6.02-23.006-3.934,3.218-7.033,10.072-11.086,18.774-4.053,8.761-2.92,13.768-3.7,21.218-.179,1.49-.3,6.973-.417,14.662-1.073-8.165-3.04-13.529-6.616-18.416-4.41-6.02-8.7-10.072-11.86-12.218s5.424,12.635,9.536,19.072c3.636,5.722,7.033,10.788,8.94,15.794-.119,10.37-.119,23.542-.119,35.76a74.329,74.329,0,0,0-4.53-16.211c-2.444-5.6-6.258-14.125-9.3-17.046-.715-.715,3.159,15.973,5.662,20.383s4.291,8.582,5.9,11.086c.358.6,1.55,2.861,2.265,4.112,0,14.96.06,28.131.238,32.6h.656c-.06-1.132-.06-8.761-.06-18.834,1.55-5.483,5.126-11.682,8.046-17.4C395.033,238.5,403.2,221.869,400.1,224.372Z" transform="translate(-363.953 -151.159)" fill="#e0e0e0"/>
          <g id="Group_38691" data-name="Group 38691" transform="translate(6.703 116.542)">
            <path id="Path_74004" data-name="Path 74004" d="M398.785,371.8H380.13l-1.43-18.3h21.516Z" transform="translate(-376.614 -349.447)" fill="#f0f0f0"/>
            <path id="Path_74005" data-name="Path 74005" d="M400.172,352.9H375.915l-.715-6.2h25.688Z" transform="translate(-375.2 -346.7)" fill="#f5f5f5"/>
          </g>
        </g>
        <g id="Group_38693" data-name="Group 38693" transform="translate(40.647 12.218)">
          <rect id="Rectangle_6398" data-name="Rectangle 6398" width="33.436" height="36.654" fill="#e0e0e0"/>
          <rect id="Rectangle_6399" data-name="Rectangle 6399" width="34.508" height="36.654" transform="translate(2.503)" fill="#f5f5f5"/>
          <rect id="Rectangle_6400" data-name="Rectangle 6400" width="30.873" height="28.727" transform="translate(34.123 2.915) rotate(90)" fill="#fff"/>
          <rect id="Rectangle_6401" data-name="Rectangle 6401" width="15.913" height="14.781" transform="translate(27.15 10.365) rotate(90)" fill="#f5f5f5"/>
        </g>
        <g id="Group_38697" data-name="Group 38697" transform="translate(83.976 34.091)">
          <g id="Group_38696" data-name="Group 38696">
            <rect id="Rectangle_6405" data-name="Rectangle 6405" width="24.794" height="27.237" fill="#e0e0e0"/>
            <rect id="Rectangle_6406" data-name="Rectangle 6406" width="25.568" height="27.237" transform="translate(1.848)" fill="#f5f5f5"/>
            <rect id="Rectangle_6407" data-name="Rectangle 6407" width="22.946" height="21.337" transform="translate(25.357 2.15) rotate(90)" fill="#fff"/>
            <path id="Path_74006" data-name="Path 74006" d="M161.541,125.3,155.7,135.372h11.682Z" transform="translate(-146.879 -117.492)" fill="#f5f5f5"/>
          </g>
        </g>
      </g>
    </g>
    <g id="Shadow" transform="translate(70.435 260.295)">
      <ellipse id="Ellipse_1660" data-name="Ellipse 1660" cx="115.564" cy="6.735" rx="115.564" ry="6.735" fill="#f5f5f5"/>
    </g>
    <g id="Character_2" transform="translate(208.171 77.148)">
      <g id="Group_38703" data-name="Group 38703" transform="translate(0 0)">
        <path id="Path_74007" data-name="Path 74007" d="M328.715,161.784l-5.9-2.384s-7.808,14.244-10.013,14.96c-3.04.954-9.357,3.7-13.052,4.232a7.257,7.257,0,0,0-1.252,3.1c5.006,1.669,16.032-.536,18.357-2.324C322.219,175.373,328.715,161.784,328.715,161.784Z" transform="translate(-291.763 -122.57)" fill="#e58a7b"/>
        <g id="Group_38699" data-name="Group 38699" transform="translate(26.045 32.695)">
          <path id="Path_74008" data-name="Path 74008" d="M343.654,155.763c1.073,4.053-4.887,12.278-4.887,12.278l-7.867-4.41s1.49-3.338,3.278-6.794C337.1,151.293,342.4,151.114,343.654,155.763Z" transform="translate(-330.9 -152.463)" fill="#46aff5"/>
          <path id="Path_74009" data-name="Path 74009" d="M343.654,155.763c1.073,4.053-4.887,12.278-4.887,12.278l-7.867-4.41s1.49-3.338,3.278-6.794C337.1,151.293,342.4,151.114,343.654,155.763Z" transform="translate(-330.9 -152.463)" fill="#46aff5" opacity="0.2"/>
        </g>
        <path id="Path_74010" data-name="Path 74010" d="M336.2,168.848l3.1,1.728.536-9.476C338.048,162.53,336.8,166.643,336.2,168.848Z" transform="translate(-306.996 -123.257)" opacity="0.2"/>
        <g id="Group_38700" data-name="Group 38700" transform="translate(30.016 31.566)">
          <path id="Path_74011" data-name="Path 74011" d="M341.221,151.958s-6.079,13.529-2.563,38.8h24.019c.358-3.7-.894-21.635,3.7-39.038a58.986,58.986,0,0,0-7.986-1.013,96.811,96.811,0,0,0-10.192,0A42.446,42.446,0,0,0,341.221,151.958Z" transform="translate(-337.563 -150.569)" fill="#407bff"/>
          <path id="Path_74012" data-name="Path 74012" d="M341.221,151.958s-6.079,13.529-2.563,38.8h24.019c.358-3.7-.894-21.635,3.7-39.038a58.986,58.986,0,0,0-7.986-1.013,96.811,96.811,0,0,0-10.192,0A42.446,42.446,0,0,0,341.221,151.958Z" transform="translate(-337.563 -150.569)" fill="#64c1ff"/>
        </g>
        <path id="Path_74013" data-name="Path 74013" d="M334.3,416.332c-.06.656,9.059,1.132,20.324,1.132s20.443-.536,20.443-1.132c.06-.656-9.059-1.132-20.324-1.132C343.538,415.2,334.359,415.736,334.3,416.332Z" transform="translate(-306.228 -225.914)" fill="#e8ecf1"/>
        <rect id="Rectangle_6408" data-name="Rectangle 6408" width="4.589" height="10.192" transform="translate(40.391 176.034) rotate(-21.07)" fill="#e58a7b"/>
        <path id="Path_74014" data-name="Path 74014" d="M388.939,402.43h-4.53L382.8,392h4.47Z" transform="translate(-325.822 -216.541)" fill="#e58a7b"/>
        <path id="Path_74015" data-name="Path 74015" d="M380.1,408.6h5.066a.334.334,0,0,1,.358.3l.656,3.993a.676.676,0,0,1-.715.775c-1.788-.06-2.622-.119-4.828-.119-1.371,0-4.172.119-6.079.119-1.848,0-2.026-1.848-1.252-2.026,3.516-.775,4.887-1.788,6.02-2.8A1.311,1.311,0,0,1,380.1,408.6Z" transform="translate(-321.812 -223.247)" fill="#263238"/>
        <path id="Path_74016" data-name="Path 74016" d="M353.487,404.956l4.768-1.371a.308.308,0,0,1,.417.179l1.788,3.576a.712.712,0,0,1-.477.954c-1.728.477-2.92.775-5.066,1.371-1.49.417-3.04,1.132-4.53,1.609a23.352,23.352,0,0,1-4.649.358c-1.848,0-2.265-1.967-1.49-2.026,2.026-.238,2.265-.119,3.4-.656a14.988,14.988,0,0,0,4.828-3.338A2.3,2.3,0,0,1,353.487,404.956Z" transform="translate(-310.098 -221.212)" fill="#263238"/>
        <path id="Path_74017" data-name="Path 74017" d="M297.073,190.086,292.126,188l-2.026,5.483a19.484,19.484,0,0,0,6.079,0Z" transform="translate(-288.372 -134.125)" fill="#e58a7b"/>
        <path id="Path_74018" data-name="Path 74018" d="M287.319,187.8l-.119,3.636,1.728,1.967,2.026-5.483Z" transform="translate(-287.2 -134.044)" fill="#e58a7b"/>
        <g id="Group_38701" data-name="Group 38701" transform="translate(40.384 174.33)">
          <rect id="Rectangle_6409" data-name="Rectangle 6409" width="4.589" height="5.245" transform="translate(0 1.653) rotate(-21.107)" fill="#cf6f64"/>
          <path id="Path_74019" data-name="Path 74019" d="M387.27,392H382.8l.834,5.364h4.47Z" transform="translate(-366.206 -390.871)" fill="#cf6f64"/>
        </g>
        <path id="Path_74020" data-name="Path 74020" d="M338.1,194.38c.06,1.073.179,2.205.3,3.338l17.82-5.781a12.574,12.574,0,0,0,6.854-5.006c.06-1.609.179-3.278.3-5.006.06-.834.119-1.728.238-2.622.06-.894.179-1.848.3-2.8Z" transform="translate(-307.764 -129.479)" opacity="0.2"/>
        <path id="Path_74021" data-name="Path 74021" d="M347.5,170.1l-.6-.06c.358-2.98,2.563-5.3,4.947-5.245v.6C349.761,165.336,347.794,167.422,347.5,170.1Z" transform="translate(-311.319 -124.751)" fill="#fff"/>
        <path id="Path_74022" data-name="Path 74022" d="M353.119,179.3H353v-.6c2.026.06,3.993-2.086,4.291-4.708l.6.06C357.589,176.98,355.444,179.3,353.119,179.3Z" transform="translate(-313.783 -128.469)" fill="#fff"/>
        <path id="Path_74023" data-name="Path 74023" d="M364.676,131.5c-.834,3.278-1.848,9.3.358,11.5,0,0-1.49,3.338-7.629,3.338-5.6,0-2.563-3.338-2.563-3.338,3.7-.894,3.755-3.576,3.278-6.139Z" transform="translate(-314.195 -111.299)" fill="#e58a7b"/>
        <path id="Path_74024" data-name="Path 74024" d="M364.774,135.2l-3.874,3.159a9.1,9.1,0,0,1,.179,1.788c1.132,1.132,3.4-1.728,3.636-3.218A3.452,3.452,0,0,0,364.774,135.2Z" transform="translate(-316.975 -112.794)" fill="#cf6f64"/>
        <path id="Path_74025" data-name="Path 74025" d="M349.511,129.355a3.808,3.808,0,0,0,2.5,1.848c1.43.3,2.146-1.013,1.728-2.324-.358-1.192-1.55-2.8-2.98-2.5A2,2,0,0,0,349.511,129.355Z" transform="translate(-312.261 -109.214)" fill="#cf6f64"/>
        <path id="Path_74026" data-name="Path 74026" d="M352.232,113.682c-2.205,1.013-3.04,9.894-.238,11.2C354.855,126.2,356.464,111.775,352.232,113.682Z" transform="translate(-312.658 -104.03)" fill="#263238"/>
        <path id="Path_74027" data-name="Path 74027" d="M364.313,118.79c-.536,4.47-.6,7.033-2.98,9.357a5.755,5.755,0,0,1-9.774-3.04c-.715-3.993.3-10.609,4.708-12.337A5.732,5.732,0,0,1,364.313,118.79Z" transform="translate(-313.116 -103.535)" fill="#e58a7b"/>
        <path id="Path_74028" data-name="Path 74028" d="M354.678,109.582c3.278-.834,5.722-1.43,4.887,1.311-1.132,3.7-2.563,7.212-.656,7.39,1.132.119,6.139-2.026,5.483-4.172-.536-1.848,1.788-2.384,2.205-3.338,1.55-3.457-2.861-2.98-2.086-5.066.775-2.026-3.576-5.424-5.96-3.755-3.874,2.682-10.549,2.682-7.033-1.788,2.5-3.159-1.967-2.5-1.967-2.5s2.682,1.609-1.848,4.112C342.817,104.337,347.228,111.429,354.678,109.582Z" transform="translate(-310.812 -97.605)" fill="#263238"/>
        <path id="Path_74029" data-name="Path 74029" d="M372.894,129.355a4.555,4.555,0,0,1-2.742,1.848c-1.49.3-2.026-1.013-1.49-2.324.477-1.192,1.848-2.8,3.278-2.5A1.827,1.827,0,0,1,372.894,129.355Z" transform="translate(-320.029 -109.214)" fill="#e58a7b"/>
        <path id="Path_74030" data-name="Path 74030" d="M336.448,217.9s-4.053,36.058-4.351,49.766c-.3,14.244,13.648,58.646,13.648,58.646l7.152-2.98s-8.344-40.588-7.152-54.534c1.252-15.258,6.5-50.839,6.5-50.839H336.448Z" transform="translate(-305.336 -146.204)" fill="#013c68"/>
        <path id="Path_74031" data-name="Path 74031" d="M355.075,233.6c-3.218,6.675-1.073,19.847.715,27.654.656-5.483,1.43-11.5,2.205-17.046C357.876,235.689,357.221,229.074,355.075,233.6Z" transform="translate(-313.951 -151.955)" opacity="0.2"/>
        <path id="Path_74032" data-name="Path 74032" d="M360.6,390.8c.06,0,.834,2.265.834,2.265l-8.225,3.457-1.311-2.444Z" transform="translate(-313.339 -216.056)" fill="#407bff"/>
        <path id="Path_74033" data-name="Path 74033" d="M353.7,217.9s3.1,34.27,5.126,47.144c2.265,14.066,11.026,60.911,11.026,60.911h8.225s-4.947-45.713-5.841-59.66c-1.013-15.138-3.04-48.4-3.04-48.4Z" transform="translate(-314.066 -146.204)" fill="#013c68"/>
        <path id="Path_74034" data-name="Path 74034" d="M388.417,395.5c.06,0,.3,2.324.3,2.324h-9.059L379,395.2Z" transform="translate(-324.287 -217.834)" fill="#407bff"/>
        <path id="Path_74035" data-name="Path 74035" d="M384.006,324.44c-.06,0-.06,0-.06-.06-.06-.417-4.47-41.72-5.3-54.236-.894-13.589-2.742-43.687-2.742-43.985a.058.058,0,0,1,.06-.06h0a.058.058,0,0,1,.06.06c0,.3,1.848,30.4,2.742,43.985.834,12.516,5.3,53.819,5.3,54.236,0,.06,0,.06-.06.06Z" transform="translate(-323.035 -149.517)" opacity="0.2"/>
        <path id="Path_74036" data-name="Path 74036" d="M360.994,124.856c0,.358-.238.656-.477.656s-.417-.3-.417-.656.238-.656.477-.656C360.875,124.2,361.054,124.5,360.994,124.856Z" transform="translate(-316.652 -108.35)" fill="#263238"/>
        <path id="Path_74037" data-name="Path 74037" d="M354.194,124.856c0,.358-.238.656-.477.656s-.417-.3-.417-.656.238-.656.477-.656S354.194,124.5,354.194,124.856Z" transform="translate(-313.904 -108.35)" fill="#263238"/>
        <path id="Path_74038" data-name="Path 74038" d="M355.607,125.6a14.526,14.526,0,0,1-1.907,3.1,2.034,2.034,0,0,0,1.728.3Z" transform="translate(-314.066 -108.915)" fill="#df5753"/>
        <path id="Path_74039" data-name="Path 74039" d="M357.019,132.93a.119.119,0,1,1,0-.238,2.969,2.969,0,0,0,2.384-1.132.185.185,0,0,1,.119-.06c.06.06.06.119,0,.119A2.617,2.617,0,0,1,357.019,132.93Z" transform="translate(-315.359 -111.299)" fill="#263238"/>
        <path id="Path_74040" data-name="Path 74040" d="M361.451,122.9h-.179a1.733,1.733,0,0,0-1.49-.179.227.227,0,0,1-.179-.417,2.194,2.194,0,0,1,1.907.179c.119.06.119.179.06.3C361.57,122.9,361.511,122.9,361.451,122.9Z" transform="translate(-316.393 -107.526)" fill="#263238"/>
        <path id="Path_74041" data-name="Path 74041" d="M352.029,120.745a.058.058,0,0,1-.06-.06.271.271,0,0,1,0-.3,1.952,1.952,0,0,1,1.848-.715c.119,0,.179.119.179.238s-.119.179-.238.179h0a1.671,1.671,0,0,0-1.43.6A.648.648,0,0,1,352.029,120.745Z" transform="translate(-313.349 -106.504)" fill="#263238"/>
        <path id="Path_74042" data-name="Path 74042" d="M370.738,161.169l-6.2-1.669s-6.079,14.96-8.225,15.913a119.523,119.523,0,0,0-13.47,8.165,6.035,6.035,0,0,0,.358,3.278c5.364-.954,15.615-4.947,17.761-6.914C365.911,175.354,370.738,161.169,370.738,161.169Z" transform="translate(-309.648 -122.611)" fill="#e58a7b"/>
        <path id="Path_74043" data-name="Path 74043" d="M381.8,409.145a1.165,1.165,0,0,1-.834-.238.453.453,0,0,1-.179-.536.371.371,0,0,1,.179-.3c.477-.238,1.907.656,2.086.715.06,0,.06.06.06.119a.058.058,0,0,1-.06.06A4.537,4.537,0,0,1,381.8,409.145Zm-.656-.954h-.119a.208.208,0,0,0-.06.119c0,.179,0,.3.119.358a2.235,2.235,0,0,0,1.609.06A8.043,8.043,0,0,0,381.142,408.192Z" transform="translate(-324.999 -223.018)" fill="#013c68"/>
        <path id="Path_74044" data-name="Path 74044" d="M383.584,408.226h0c-.477-.238-1.311-1.252-1.192-1.728,0-.119.119-.238.358-.3a.5.5,0,0,1,.417.119c.477.417.536,1.728.536,1.788s0,.119-.119.119Zm-.775-1.788h0c-.179,0-.179.06-.238.119-.06.3.477,1.013.894,1.371-.06-.358-.119-1.132-.477-1.43C382.988,406.438,382.869,406.438,382.809,406.438Z" transform="translate(-325.653 -222.278)" fill="#013c68"/>
        <path id="Path_74045" data-name="Path 74045" d="M354.93,408.059a1.827,1.827,0,0,1-1.132,0,.671.671,0,0,1-.3-.477c0-.119,0-.238.119-.3.477-.417,2.444.06,2.622.06.06,0,.06.06.06.119s0,.06-.06.119A10.541,10.541,0,0,1,354.93,408.059Zm-.954-.715c-.06,0-.119.06-.179.06-.06.06-.06.06-.06.119a.328.328,0,0,0,.179.3,2.864,2.864,0,0,0,2.026-.358A5.78,5.78,0,0,0,353.977,407.344Z" transform="translate(-313.985 -222.646)" fill="#013c68"/>
        <path id="Path_74046" data-name="Path 74046" d="M356.948,406.642h0c-.6-.119-1.848-.775-1.848-1.311,0-.119.06-.3.358-.358a.705.705,0,0,1,.6.06c.656.3,1.013,1.49,1.013,1.49l-.119.119Zm-1.43-1.49h-.06c-.179.06-.179.119-.179.179,0,.3.834.894,1.49,1.073a2.1,2.1,0,0,0-.834-1.192A1.163,1.163,0,0,0,355.517,405.152Z" transform="translate(-314.632 -221.766)" fill="#013c68"/>
        <path id="Path_74047" data-name="Path 74047" d="M339.114,199.4l-6.2,2.861-.715,1.728,2.324,1.55s4.291-.477,5.483-3.218Z" transform="translate(-305.38 -138.73)" fill="#e58a7b"/>
        <path id="Path_74048" data-name="Path 74048" d="M343.432,202.812a10.393,10.393,0,0,0-1.132-3.4l.954-.715a8.693,8.693,0,0,1,1.371,3.874Z" transform="translate(-309.46 -138.448)" fill="#263238"/>
        <ellipse id="Ellipse_1661" data-name="Ellipse 1661" cx="1.192" cy="0.954" rx="1.192" ry="0.954" transform="translate(32.491 61.486) rotate(-22.007)" fill="#263238"/>
        <path id="Path_74049" data-name="Path 74049" d="M326.3,206.465l.834.894,5.543-2.444-2.146-.715Z" transform="translate(-302.996 -140.67)" fill="#e58a7b"/>
        <path id="Path_74050" data-name="Path 74050" d="M360.6,390.8c.06,0,.834,2.265.834,2.265l-8.225,3.457-1.311-2.444Z" transform="translate(-313.339 -216.056)" fill="#013c68"/>
        <path id="Path_74051" data-name="Path 74051" d="M388.417,395.5c.06,0,.3,2.324.3,2.324h-9.059L379,395.2Z" transform="translate(-324.287 -217.834)" fill="#013c68"/>
        <g id="Group_38702" data-name="Group 38702" transform="translate(49.11 32.609)">
          <path id="Path_74052" data-name="Path 74052" d="M383.189,156.539c1.669,5.3-4.768,12.516-4.768,12.516l-8.821-3.636a94.428,94.428,0,0,1,3.636-9C375.918,150.638,381.58,151.234,383.189,156.539Z" transform="translate(-369.6 -152.318)" fill="#46aff5"/>
          <path id="Path_74053" data-name="Path 74053" d="M383.189,156.539c1.669,5.3-4.768,12.516-4.768,12.516l-8.821-3.636a94.428,94.428,0,0,1,3.636-9C375.918,150.638,381.58,151.234,383.189,156.539Z" transform="translate(-369.6 -152.318)" fill="#46aff5" opacity="0.2"/>
        </g>
      </g>
    </g>
    <g id="Screen" transform="translate(150.001 61.052)">
      <g id="Group_38705" data-name="Group 38705" transform="translate(0 0)">
        <rect id="Rectangle_6410" data-name="Rectangle 6410" width="3.814" height="0.596" transform="translate(29.144)" fill="#407bff"/>
        <rect id="Rectangle_6411" data-name="Rectangle 6411" width="10.251" height="0.596" transform="translate(81.774 34.525) rotate(-87.421)" fill="#407bff"/>
        <path id="Path_74054" data-name="Path 74054" d="M273.484,75.2H203.156L196.6,221.637h70.328Z" transform="translate(-192.428 -72.458)" fill="#fd5675"/>
        <path id="Path_74055" data-name="Path 74055" d="M269.984,78.6H199.656L193.1,225.037h70.328Z" transform="translate(-191.014 -73.832)" fill="#fafafa" opacity="0.56"/>
        <path id="Path_74056" data-name="Path 74056" d="M266.484,81.9H196.156L189.6,228.4h70.328Z" transform="translate(-189.6 -75.165)" fill="#fd5675" opacity="0.07"/>
        <path id="Path_74057" data-name="Path 74057" d="M264.094,189.1H204.077l-.477,11.2h60.017Z" transform="translate(-195.256 -118.474)" fill="#fff"/>
        <path id="Path_74058" data-name="Path 74058" d="M237.54,175.4H204.879l-.179,5.006h32.6Z" transform="translate(-195.7 -112.939)" fill="#fd5675"/>
        <path id="Path_74059" data-name="Path 74059" d="M261.854,239.8H201.836l-.536,11.264h60.017Z" transform="translate(-194.327 -138.957)" fill="#fff"/>
        <path id="Path_74060" data-name="Path 74060" d="M256.645,284H216.3l-.6,13.47h40.349Z" transform="translate(-200.144 -156.814)" fill="#013c68" opacity="0.47"/>
        <path id="Path_74061" data-name="Path 74061" d="M252.509,300.929H212.1v-.06l.6-13.41a.058.058,0,0,1,.06-.06h40.409v.06l-.6,13.41Zm-40.29-.179h40.23l.6-13.291h-40.23Z" transform="translate(-198.69 -158.187)" fill="#fff"/>
        <path id="Path_74062" data-name="Path 74062" d="M229.578,226.1H202.638l-.238,5.006h26.939Z" transform="translate(-194.771 -133.422)" fill="#fd5675"/>
        <path id="Path_74063" data-name="Path 74063" d="M262.4,118.058a16.2,16.2,0,0,1-15.973,15.317,14.495,14.495,0,0,1-14.542-15.317A16.076,16.076,0,0,1,247.858,102.8,14.442,14.442,0,0,1,262.4,118.058Z" transform="translate(-206.675 -83.609)" fill="#fff"/>
        <path id="Path_74064" data-name="Path 74064" d="M280,105.353a4.175,4.175,0,0,1-.894,2.384,4.264,4.264,0,0,1-3.338,1.669,3.952,3.952,0,0,1-3.218-1.669,3.618,3.618,0,0,1-.656-2.384,4.3,4.3,0,0,1,4.232-4.053A3.835,3.835,0,0,1,280,105.353Z" transform="translate(-222.843 -83.003)" fill="#013c68"/>
        <path id="Path_74065" data-name="Path 74065" d="M212.874,197.288a1.885,1.885,0,0,1-1.848,1.788,1.674,1.674,0,0,1-1.728-1.788,1.885,1.885,0,0,1,1.848-1.788A1.707,1.707,0,0,1,212.874,197.288Z" transform="translate(-197.557 -121.06)" fill="#263238"/>
        <path id="Path_74066" data-name="Path 74066" d="M226.374,197.288a1.885,1.885,0,0,1-1.848,1.788,1.674,1.674,0,0,1-1.728-1.788,1.885,1.885,0,0,1,1.848-1.788A1.743,1.743,0,0,1,226.374,197.288Z" transform="translate(-203.011 -121.06)" fill="#263238"/>
        <path id="Path_74067" data-name="Path 74067" d="M239.774,197.288a1.885,1.885,0,0,1-1.848,1.788,1.674,1.674,0,0,1-1.728-1.788,1.885,1.885,0,0,1,1.848-1.788A1.674,1.674,0,0,1,239.774,197.288Z" transform="translate(-208.424 -121.06)" fill="#263238"/>
        <path id="Path_74068" data-name="Path 74068" d="M210.574,248.086a1.885,1.885,0,0,1-1.848,1.788A1.674,1.674,0,0,1,207,248.086a1.885,1.885,0,0,1,1.848-1.788A1.643,1.643,0,0,1,210.574,248.086Z" transform="translate(-196.627 -141.581)" fill="#263238"/>
        <path id="Path_74069" data-name="Path 74069" d="M224.074,248.086a1.885,1.885,0,0,1-1.848,1.788,1.674,1.674,0,0,1-1.728-1.788,1.885,1.885,0,0,1,1.848-1.788A1.643,1.643,0,0,1,224.074,248.086Z" transform="translate(-202.081 -141.581)" fill="#263238"/>
        <path id="Path_74070" data-name="Path 74070" d="M237.574,248.088a1.885,1.885,0,0,1-1.848,1.788A1.674,1.674,0,0,1,234,248.088a1.885,1.885,0,0,1,1.848-1.788A1.743,1.743,0,0,1,237.574,248.088Z" transform="translate(-207.535 -141.583)" fill="#263238"/>
        <path id="Path_74071" data-name="Path 74071" d="M251.074,248.086a1.885,1.885,0,0,1-1.848,1.788,1.674,1.674,0,0,1-1.728-1.788,1.885,1.885,0,0,1,1.848-1.788A1.708,1.708,0,0,1,251.074,248.086Z" transform="translate(-212.989 -141.581)" fill="#263238"/>
        <path id="Path_74072" data-name="Path 74072" d="M264.474,248.086a1.885,1.885,0,0,1-1.848,1.788,1.674,1.674,0,0,1-1.728-1.788,1.885,1.885,0,0,1,1.848-1.788A1.643,1.643,0,0,1,264.474,248.086Z" transform="translate(-218.403 -141.581)" fill="#263238"/>
        <g id="Group_38704" data-name="Group 38704" transform="translate(27.714 23.125)">
          <path id="Path_74073" data-name="Path 74073" d="M259.831,115.6a6.565,6.565,0,0,1-6.437,6.2,5.841,5.841,0,0,1-5.9-6.2,6.565,6.565,0,0,1,6.437-6.2A5.872,5.872,0,0,1,259.831,115.6Z" transform="translate(-240.7 -109.4)" fill="#407bff"/>
          <path id="Path_74074" data-name="Path 74074" d="M260.774,140.168a16.035,16.035,0,0,1-12.635,6.318,14.414,14.414,0,0,1-12.039-6.318,18.144,18.144,0,0,1,12.576-4.768C253.742,135.4,258.152,137.307,260.774,140.168Z" transform="translate(-236.1 -119.904)" fill="#407bff"/>
          <path id="Path_74075" data-name="Path 74075" d="M259.831,115.6a6.565,6.565,0,0,1-6.437,6.2,5.841,5.841,0,0,1-5.9-6.2,6.565,6.565,0,0,1,6.437-6.2A5.872,5.872,0,0,1,259.831,115.6Z" transform="translate(-240.7 -109.4)" fill="#013c68" opacity="0.91"/>
          <path id="Path_74076" data-name="Path 74076" d="M260.774,140.168a16.035,16.035,0,0,1-12.635,6.318,14.414,14.414,0,0,1-12.039-6.318,18.144,18.144,0,0,1,12.576-4.768C253.742,135.4,258.152,137.307,260.774,140.168Z" transform="translate(-236.1 -119.904)" fill="#013c68" opacity="0.91"/>
        </g>
      </g>
    </g>
    <g id="Character_1" transform="translate(101.845 113.044)">
      <g id="Group_38717" data-name="Group 38717">
        <g id="Group_38712" data-name="Group 38712" transform="translate(3.099)">
          <path id="Path_74077" data-name="Path 74077" d="M123.774,210.946c-.536,1.252-1.132,2.622-1.669,3.934s-1.073,2.682-1.49,4.053a52.282,52.282,0,0,0-2.146,8.225l-.119.894a1.164,1.164,0,0,0,.06.417,3.534,3.534,0,0,0,.656,1.371,17.1,17.1,0,0,0,2.622,2.98,36.286,36.286,0,0,0,3.278,2.742c1.132.894,2.324,1.728,3.516,2.563l-1.132,2.086a43.109,43.109,0,0,1-8.046-4.589,17.371,17.371,0,0,1-3.576-3.4,8.724,8.724,0,0,1-1.43-2.563,5.537,5.537,0,0,1-.3-1.728v-.775l.06-.6a42.1,42.1,0,0,1,1.967-9.119c.477-1.49.954-2.92,1.55-4.351s1.132-2.8,1.848-4.291Z" transform="translate(-114 -178.424)" fill="#e58a7b"/>
          <path id="Path_74078" data-name="Path 74078" d="M136.173,255.946,140.4,253.8l-1.073,4.649s-2.92.834-4.232-.6Z" transform="translate(-122.524 -196.604)" fill="#e58a7b"/>
          <path id="Path_74079" data-name="Path 74079" d="M147.147,254.575l-1.132,3.814-3.814.06,1.073-4.649Z" transform="translate(-125.393 -196.604)" fill="#e58a7b"/>
          <path id="Path_74080" data-name="Path 74080" d="M160.4,175a11.021,11.021,0,0,0,.954,2.384.935.935,0,0,1-.954.3Z" transform="translate(-132.746 -164.769)" fill="#df5753"/>
          <ellipse id="Ellipse_1662" data-name="Ellipse 1662" cx="0.417" cy="0.656" rx="0.417" ry="0.656" transform="translate(27.118 8.92)" fill="#263238"/>
          <path id="Path_74081" data-name="Path 74081" d="M160,172.638l.894-.238C160.954,172.4,160.477,173.115,160,172.638Z" transform="translate(-132.584 -163.719)" fill="#263238"/>
          <path id="Path_74082" data-name="Path 74082" d="M140.334,182.3c.536,2.8,1.073,7.867-.834,9.715,0,0,.775,2.8,5.9,2.8,5.662,0,2.682-2.8,2.682-2.8-3.1-.715-3.04-3.04-2.5-5.185Z" transform="translate(-124.302 -167.718)" fill="#e58a7b"/>
          <path id="Path_74083" data-name="Path 74083" d="M138.391,167.118c.3,4.649.3,6.616,2.622,9,3.516,3.576,9.119,2.205,10.251-2.384,1.013-4.172.358-11.026-4.172-12.874A6.283,6.283,0,0,0,138.391,167.118Z" transform="translate(-123.848 -158.854)" fill="#e58a7b"/>
          <path id="Path_74084" data-name="Path 74084" d="M135.747,162.765c-2.324.834-5.424.238-4.232,7.39,1.311,7.569-.715,10.072-.715,10.072a46.586,46.586,0,0,0,17.82-.119s-2.742-4.828-1.967-8.284c.954-4.47.179-6.139.179-6.139S139.025,161.632,135.747,162.765Z" transform="translate(-120.787 -159.745)" fill="#263238"/>
          <path id="Path_74085" data-name="Path 74085" d="M155.6,174.928a4.923,4.923,0,0,0,.715,2.5c.656.954,1.371.6,1.55-.417.179-.894.06-2.5-.775-3.1C156.375,173.259,155.66,173.855,155.6,174.928Z" transform="translate(-130.806 -164.22)" fill="#e58a7b"/>
          <path id="Path_74086" data-name="Path 74086" d="M135.743,161.688c-.656-1.848,2.5-4.768,9.238-3.576s7.033,6.794,7.033,6.794l-1.371-1.609.06,1.728-6.914,1.311Z" transform="translate(-122.75 -157.834)" fill="#263238"/>
          <g id="Group_38706" data-name="Group 38706" transform="translate(13.509 22.649)">
            <path id="Path_74087" data-name="Path 74087" d="M136.686,197.841h0a1,1,0,0,1,.894-1.192c2.086-.358,6.854-1.073,9.238-.715,1.788.238,2.265,1.311,2.324,2.146a1.019,1.019,0,0,1-1.073,1.132l-10.37-.477A1.085,1.085,0,0,1,136.686,197.841Z" transform="translate(-136.666 -195.836)" fill="#407bff"/>
            <path id="Path_74088" data-name="Path 74088" d="M136.686,197.841h0a1,1,0,0,1,.894-1.192c2.086-.358,6.854-1.073,9.238-.715,1.788.238,2.265,1.311,2.324,2.146a1.019,1.019,0,0,1-1.073,1.132l-10.37-.477A1.085,1.085,0,0,1,136.686,197.841Z" transform="translate(-136.666 -195.836)" opacity="0.6"/>
          </g>
          <path id="Path_74089" data-name="Path 74089" d="M146.8,367.961l3.814,2.622,6.437-8.7-3.814-2.682Z" transform="translate(-127.251 -239.186)" fill="#e58a7b"/>
          <path id="Path_74090" data-name="Path 74090" d="M131.7,367.338l4.053,2.265,5.722-9.178-4.053-2.324Z" transform="translate(-121.151 -238.742)" fill="#e58a7b"/>
          <g id="Group_38707" data-name="Group 38707" transform="translate(13.291 119.358)">
            <path id="Path_74091" data-name="Path 74091" d="M159.152,361.882l-3.338,4.53L152,363.73l3.278-4.53Z" transform="translate(-142.643 -358.544)" fill="#cf6f64"/>
            <path id="Path_74092" data-name="Path 74092" d="M139.28,358.1l4.053,2.324-2.92,4.768-4.112-2.324Z" transform="translate(-136.3 -358.1)" fill="#cf6f64"/>
          </g>
          <g id="Group_38708" data-name="Group 38708" transform="translate(7.804 53.739)">
            <path id="Path_74093" data-name="Path 74093" d="M142.057,248s15.019,18.893,12.218,37.012c-2.265,14.6-15.436,34.389-15.436,34.389l-6.2-3.1a203.41,203.41,0,0,0,11.145-27.058A20.063,20.063,0,0,0,141.4,271.9c-7.629-11.086-19.787-4.47-11.562-23.9Z" transform="translate(-127.095 -248)" fill="#407bff"/>
            <path id="Path_74094" data-name="Path 74094" d="M142.057,248s15.019,18.893,12.218,37.012c-2.265,14.6-15.436,34.389-15.436,34.389l-6.2-3.1a203.41,203.41,0,0,0,11.145-27.058A20.063,20.063,0,0,0,141.4,271.9c-7.629-11.086-19.787-4.47-11.562-23.9Z" transform="translate(-127.095 -248)" opacity="0.6"/>
          </g>
          <path id="Path_74095" data-name="Path 74095" d="M163.005,266.946,160.8,264.8c0,.179,4.232,26.284,5.424,33.614a49.877,49.877,0,0,0,1.609-6.556C169.263,282.918,166.343,273.859,163.005,266.946Z" transform="translate(-132.907 -201.048)" opacity="0.4"/>
          <g id="Group_38709" data-name="Group 38709" transform="translate(11.92 53.739)">
            <path id="Path_74096" data-name="Path 74096" d="M151.522,248s18.059,23.78,18.6,38.025c.417,11.92-19.668,34.985-19.668,34.985l-5.841-3.755s11.741-16.39,14.721-29.8C158.2,274.164,134,248,134,248Z" transform="translate(-134 -248)" fill="#407bff"/>
            <path id="Path_74097" data-name="Path 74097" d="M151.522,248s18.059,23.78,18.6,38.025c.417,11.92-19.668,34.985-19.668,34.985l-5.841-3.755s11.741-16.39,14.721-29.8C158.2,274.164,134,248,134,248Z" transform="translate(-134 -248)" opacity="0.6"/>
          </g>
          <path id="Path_74098" data-name="Path 74098" d="M123.355,200.342c-1.907.477-3.755,7.51-3.755,7.51l7.569,5.066s2.5-5.543,1.609-7.986C127.884,202.368,125.8,199.746,123.355,200.342Z" transform="translate(-116.262 -174.973)" fill="#a5a42d"/>
          <path id="Path_74099" data-name="Path 74099" d="M128.036,208l-.536,6.139,2.8,1.907a26.613,26.613,0,0,0,1.728-5.424Z" transform="translate(-119.454 -178.101)" opacity="0.2"/>
          <path id="Path_74100" data-name="Path 74100" d="M150.555,199.685s2.205.775-2.205,28.25H129.338c.3-7.748.3-12.516-3.338-28.37a52.826,52.826,0,0,1,8.046-1.073,59.67,59.67,0,0,1,8.642,0C146.324,198.851,150.555,199.685,150.555,199.685Z" transform="translate(-118.848 -174.197)" fill="#b3b23d"/>
          <path id="Path_74101" data-name="Path 74101" d="M167.33,206.648c.417,1.192.894,2.5,1.371,3.7l1.43,3.755,1.49,3.755.358.954.179.477.119.238v.06a1.306,1.306,0,0,0-.417-.358,1.491,1.491,0,0,0-.775-.238,1.6,1.6,0,0,0-.656.119c-.3.119-.3.179-.238.179l.119-.119a6.887,6.887,0,0,0,.834-1.371c.3-.536.536-1.132.834-1.728.536-1.192,1.013-2.444,1.49-3.7s.954-2.5,1.371-3.755l1.371-3.814,2.324.6c-.477,2.742-1.013,5.364-1.728,8.046-.358,1.311-.715,2.682-1.192,3.993-.238.656-.477,1.371-.775,2.026a10.728,10.728,0,0,1-1.132,2.146,4.346,4.346,0,0,1-.536.656,3.533,3.533,0,0,1-1.073.775,3.176,3.176,0,0,1-1.132.238,2.584,2.584,0,0,1-1.252-.358,3,3,0,0,1-1.073-1.132,3.417,3.417,0,0,1-.238-.417l-.119-.238-.238-.477-.477-.954c-.6-1.252-1.192-2.5-1.728-3.755s-1.073-2.563-1.609-3.814c-.477-1.311-.954-2.563-1.43-3.934Z" transform="translate(-133.715 -176.808)" fill="#e58a7b"/>
          <path id="Path_74102" data-name="Path 74102" d="M163.4,200.478c2.265.536,4.828,7.271,4.828,7.271l-6.794,5.781s-4.41-7.331-3.516-9.774C158.873,201.253,160.422,199.763,163.4,200.478Z" transform="translate(-131.695 -174.99)" fill="#a5a42d"/>
          <path id="Path_74103" data-name="Path 74103" d="M186.252,199.867l2.384-1.967,1.669,2.563-1.192,2.146s-1.967,1.788-3.636.894h0A2.924,2.924,0,0,1,186.252,199.867Z" transform="translate(-142.744 -174.021)" fill="#e58a7b"/>
          <path id="Path_74104" data-name="Path 74104" d="M195.291,197.86l-.179.6-3.755.656L191,197.8Z" transform="translate(-145.108 -173.98)" fill="#e58a7b"/>
          <path id="Path_74105" data-name="Path 74105" d="M157.794,366.656,151,362.246l1.192-2.146,7.688,4.708Z" transform="translate(-128.948 -239.55)" fill="#013c68"/>
          <path id="Path_74106" data-name="Path 74106" d="M141.828,376.124a4,4,0,0,1-1.669-.6c-.06,0-.06-.06-.06-.119s.06-.06.06-.119c.179-.06,1.788-.536,2.265-.179a.337.337,0,0,1,.119.358.685.685,0,0,1-.358.536A.438.438,0,0,1,141.828,376.124Zm-1.371-.656c.715.358,1.311.536,1.609.358a.547.547,0,0,0,.238-.358c0-.119,0-.119-.06-.179A4.127,4.127,0,0,0,140.458,375.468Z" transform="translate(-124.544 -245.561)" fill="#263238"/>
          <path id="Path_74107" data-name="Path 74107" d="M140.142,374.717c-.06,0-.06,0-.06-.06a.083.083,0,0,1,0-.119c0-.06.417-1.371,1.013-1.669a.653.653,0,0,1,.477,0,.472.472,0,0,1,.3.417c-.06.536-1.192,1.311-1.728,1.43Zm1.192-1.669a.219.219,0,0,0-.179.06c-.358.179-.656.894-.834,1.311.536-.238,1.252-.834,1.252-1.132,0-.06,0-.119-.119-.179C141.393,373.108,141.393,373.048,141.334,373.048Z" transform="translate(-124.526 -244.691)" fill="#263238"/>
          <path id="Path_74108" data-name="Path 74108" d="M155.815,380.15c-.656,0-1.609-.834-2.146-1.371-.06-.06-.06-.06,0-.119,0-.06.06-.06.119-.06.238.06,2.324.3,2.622.894a.38.38,0,0,1,0,.358.927.927,0,0,1-.477.358A.185.185,0,0,0,155.815,380.15Zm-1.728-1.311c.775.715,1.43,1.132,1.788,1.073a.3.3,0,0,0,.3-.238c0-.06.06-.119,0-.119C155.994,379.256,154.921,379.017,154.087,378.838Z" transform="translate(-130.009 -247.024)" fill="#263238"/>
          <path id="Path_74109" data-name="Path 74109" d="M154.177,378.111a.885.885,0,0,1-.417-.06.058.058,0,0,1-.06-.06v-.119c.06-.06.834-1.013,1.609-1.073a1.007,1.007,0,0,1,.6.179c.238.179.238.358.179.477C155.905,377.932,154.832,378.111,154.177,378.111Zm-.179-.238c.656.06,1.728-.179,1.848-.477,0,0,.06-.119-.119-.238a.464.464,0,0,0-.477-.119A3.086,3.086,0,0,0,154,377.873Z" transform="translate(-130.039 -246.297)" fill="#263238"/>
          <path id="Path_74110" data-name="Path 74110" d="M135.571,373.92l-5.066-1.43a.363.363,0,0,0-.417.179l-1.728,3.814a.752.752,0,0,0,.477,1.013c1.788.477,2.622.6,4.887,1.252,1.371.358,3.338,1.073,5.185,1.609s2.5-1.311,1.788-1.669a8.925,8.925,0,0,1-4.47-4.291A.923.923,0,0,0,135.571,373.92Z" transform="translate(-119.777 -244.549)" fill="#013c68"/>
          <path id="Path_74111" data-name="Path 74111" d="M148.6,375.636l-4.291-2.98a.361.361,0,0,0-.477.06l-2.861,3.1a.78.78,0,0,0,.119,1.132c1.55,1.013,2.324,1.43,4.232,2.742,1.192.834,3.516,2.622,5.126,3.755,1.55,1.073,2.8-.417,2.205-1.013a13.348,13.348,0,0,1-3.576-6.02A1.165,1.165,0,0,0,148.6,375.636Z" transform="translate(-124.819 -244.596)" fill="#013c68"/>
          <path id="Path_74112" data-name="Path 74112" d="M142.808,364.36,135,360.486l.834-2.086,8.284,4.053Z" transform="translate(-122.484 -238.863)" fill="#013c68"/>
          <g id="Group_38710" data-name="Group 38710" transform="translate(9.524 52.428)">
            <path id="Path_74113" data-name="Path 74113" d="M130.648,245.979l-.656,1.728c-.06.119.119.238.3.238h19.728c.179,0,.3-.06.3-.179l.179-1.728a.273.273,0,0,0-.3-.238H130.946A1.3,1.3,0,0,0,130.648,245.979Z" transform="translate(-129.98 -245.8)" fill="#407bff"/>
            <path id="Path_74114" data-name="Path 74114" d="M130.648,245.979l-.656,1.728c-.06.119.119.238.3.238h19.728c.179,0,.3-.06.3-.179l.179-1.728a.273.273,0,0,0-.3-.238H130.946A1.3,1.3,0,0,0,130.648,245.979Z" transform="translate(-129.98 -245.8)" fill="#65653f"/>
          </g>
          <g id="Group_38711" data-name="Group 38711" transform="translate(12.576 52.308)">
            <path id="Path_74115" data-name="Path 74115" d="M135.815,248.044h-.536c-.119,0-.179-.06-.179-.119l.238-2.205c0-.06.119-.119.179-.119h.536c.119,0,.179.06.179.119l-.238,2.205C135.994,247.984,135.934,248.044,135.815,248.044Z" transform="translate(-135.1 -245.6)" fill="#013c68"/>
            <path id="Path_74116" data-name="Path 74116" d="M156.215,248.044h-.536c-.119,0-.179-.06-.179-.119l.238-2.205c0-.06.119-.119.179-.119h.536c.119,0,.179.06.179.119l-.238,2.205C156.394,247.984,156.334,248.044,156.215,248.044Z" transform="translate(-143.342 -245.6)" fill="#013c68"/>
          </g>
        </g>
        <g id="Group_38716" data-name="Group 38716" transform="translate(0 69.354)">
          <g id="Group_38713" data-name="Group 38713" transform="translate(0 6.02)">
            <path id="Path_74117" data-name="Path 74117" d="M108.8,416.332c0,.656,7.092,1.132,15.913,1.132s15.973-.536,16.032-1.132c0-.656-7.092-1.132-15.913-1.132C115.952,415.2,108.8,415.736,108.8,416.332Z" transform="translate(-108.8 -337.184)" fill="#f5f5f5"/>
            <path id="Path_74118" data-name="Path 74118" d="M138.278,361.84a39.581,39.581,0,0,1-7.867-2.98.219.219,0,0,0-.179-.06V346.046h5.662a1.728,1.728,0,0,0,0-3.457h-5.662V284.3h-3.4v58.289h-5.662a1.728,1.728,0,1,0,0,3.457h5.662V358.8c-.06,0-.119.06-.179.06a35.061,35.061,0,0,1-7.867,2.98.819.819,0,0,0,.238,1.609H137.98A.824.824,0,0,0,138.278,361.84Z" transform="translate(-112.59 -284.3)" fill="#e0e0e0"/>
          </g>
          <g id="Group_38715" data-name="Group 38715" transform="translate(2.205)">
            <path id="Path_74119" data-name="Path 74119" d="M136.817,286.716H115.6a3.116,3.116,0,0,1-3.1-3.1V277.3a3.116,3.116,0,0,1,3.1-3.1h21.218a3.116,3.116,0,0,1,3.1,3.1v6.318A3.078,3.078,0,0,1,136.817,286.716Z" transform="translate(-112.5 -274.2)" fill="#c6c6c6"/>
            <g id="Group_38714" data-name="Group 38714" transform="translate(2.92 12.516)">
              <path id="Path_74120" data-name="Path 74120" d="M117.4,295.2v1.073c0,.894.954,1.609,2.146,1.609H136.83c1.192,0,2.146-.715,2.146-1.609V295.2Z" transform="translate(-117.4 -295.2)" fill="#c6c6c6"/>
              <path id="Path_74121" data-name="Path 74121" d="M117.4,295.2v1.073c0,.894.954,1.609,2.146,1.609H136.83c1.192,0,2.146-.715,2.146-1.609V295.2Z" transform="translate(-117.4 -295.2)" fill="#c6c6c6" opacity="0.3"/>
            </g>
          </g>
        </g>
      </g>
    </g>
  </g>
</svg>
