<svg xmlns="http://www.w3.org/2000/svg" width="102.45" height="142.188" viewBox="0 0 102.45 142.188">
  <g id="Metaphor" transform="translate(0 2.302)" style="isolation: isolate">
    <g id="Group_36578" data-name="Group 36578" transform="translate(0)">
      <g id="Group_36572" data-name="Group 36572" transform="translate(0 0)">
        <path id="Path_63569" data-name="Path 63569" d="M736.743,437.108l93.74-5.425c2.159-.105,4.1,2.252,4.1,4.231V556.67c0,2.745-2.8,3.3-4.961,3.077l-92.881-9.49a3.526,3.526,0,0,1-3.066-3.47V440.414A3.3,3.3,0,0,1,736.743,437.108Z" transform="translate(-732.135 -419.99)" fill="rgba(0,0,0,0.1)"/>
        <path id="Path_63570" data-name="Path 63570" d="M752.883,434.65l93.925-4.622a3.562,3.562,0,0,1,3.917,3.419v121.7a3.347,3.347,0,0,1-3.917,3.208l-93.925-9.671a3.544,3.544,0,0,1-3.066-3.5v-107.2A3.316,3.316,0,0,1,752.883,434.65Z" transform="translate(-749.817 -418.492)" fill="#d8dee8"/>
        <path id="Path_63571" data-name="Path 63571" d="M864.279,572.35a1.812,1.812,0,0,0,2.114-1.736V449.173a1.928,1.928,0,0,0-2.114-1.849l-93.925,4.439a1.8,1.8,0,0,0-1.662,1.8V560.971a1.919,1.919,0,0,0,1.662,1.892Z" transform="translate(-767.288 -434.137)" fill="#64c1ff" style="mix-blend-mode: multiply;isolation: isolate"/>
        <path id="Path_63572" data-name="Path 63572" d="M869.73,639.147l80.334,7.743V534.85l-80.334,3.027Z" transform="translate(-860.61 -513.302)" fill="#fff"/>
        <path id="Path_63573" data-name="Path 63573" d="M1038.248,459.26l32.106.4-.72-7.243a1.962,1.962,0,0,0-1.63-1.851l-5.437-.836a1.956,1.956,0,0,1-1.471-1.13l-.59-1.281-14.222.879Z" transform="translate(-996.997 -434.137)" fill="#97a6b7" opacity="0.3" style="mix-blend-mode: multiply;isolation: isolate"/>
        <g id="Group_36579" data-name="Group 36579" transform="translate(21.894 0.34) rotate(-3)">
          <path id="Path_63574" data-name="Path 63574" d="M1090.525,329.931a1.718,1.718,0,0,0-1.636-1.432l-5.13-.23a4.12,4.12,0,0,1-3.95-4.394l.2-5.555a1.8,1.8,0,0,0-1.7-1.911l-1.686-.1a2.135,2.135,0,0,1-1.961-2.521,3.808,3.808,0,0,0-3.527-4.422,4.62,4.62,0,0,0-4.771,3.915,2.585,2.585,0,0,1-.356.989,2.638,2.638,0,0,1-2.366,1.263l-1.739-.1a2.3,2.3,0,0,0-2.321,1.718l-1.446,5.638a5.522,5.522,0,0,1-5.488,4.088l-5.628-.252a2.444,2.444,0,0,0-2.25,1.339l-3.391,6.732a.779.779,0,0,0,.67,1.167l48.8,1.622a.907.907,0,0,0,.889-1.045Zm-20.088-15.758a1.117,1.117,0,0,1-1.041-1.306,1.353,1.353,0,0,1,1.395-1.151,1.117,1.117,0,0,1,1.037,1.305A1.354,1.354,0,0,1,1070.437,314.174Z" transform="translate(-1041.274 -309.357)" fill="#97a6b7"/>
          <g id="Group_36564" data-name="Group 36564" transform="translate(0 8.727)">
            <path id="Path_63575" data-name="Path 63575" d="M1082.173,415.621c-4.353-2.689-7.694-.782-10.407-3.815-2.9-3.246-.946-7.52-3.951-9.536-1.924-1.291-3.64-.152-5.878-.5a6.17,6.17,0,0,1-2.6-1.089l-1.206,4.7a5.522,5.522,0,0,1-5.488,4.088l-5.628-.252a2.444,2.444,0,0,0-2.25,1.339l-3.391,6.732a.779.779,0,0,0,.67,1.167l44.352,1.474A13.233,13.233,0,0,0,1082.173,415.621Z" transform="translate(-1041.274 -400.68)" fill="#fff" opacity="0.5" style="mix-blend-mode: soft-light;isolation: isolate"/>
          </g>
        </g>
        <g id="Group_36571" data-name="Group 36571" transform="translate(16.954 34.969)">
          <g id="Group_36570" data-name="Group 36570">
            <g id="Group_36565" data-name="Group 36565" transform="translate(0)">
              <path id="Path_63576" data-name="Path 63576" d="M977.381,679.369l62.217-.379v-3.7l-62.217.515Z" transform="translate(-977.381 -675.294)" fill="#d8dee8"/>
              <path id="Path_63577" data-name="Path 63577" d="M977.381,746.844l62.217-.141v-3.7l-62.217.277Z" transform="translate(-977.381 -736.536)" fill="#d8dee8"/>
              <path id="Path_63578" data-name="Path 63578" d="M977.381,814.319l62.217.1v-3.7l-62.217.04Z" transform="translate(-977.381 -797.777)" fill="#d8dee8"/>
              <path id="Path_63579" data-name="Path 63579" d="M977.381,879.921l62.217.334v-3.7l-62.217-.2Z" transform="translate(-977.381 -857.146)" fill="#d8dee8"/>
            </g>
            <g id="Group_36566" data-name="Group 36566" transform="translate(10.521 29.432)">
              <path id="Path_63580" data-name="Path 63580" d="M967.635,986.9l52.627,1.268v-3.849l-52.627-1.027Z" transform="translate(-967.635 -983.288)" fill="#d8dee8"/>
              <path id="Path_63581" data-name="Path 63581" d="M967.635,1053l52.627,1.689v-3.849l-52.627-1.449Z" transform="translate(-967.635 -1043.078)" fill="#d8dee8"/>
              <path id="Path_63582" data-name="Path 63582" d="M967.635,1119.112l52.627,2.11v-3.849l-52.627-1.87Z" transform="translate(-967.635 -1102.869)" fill="#d8dee8"/>
              <path id="Path_63583" data-name="Path 63583" d="M967.635,1185.22l52.627,2.532V1183.9l-52.627-2.291Z" transform="translate(-967.635 -1162.659)" fill="#d8dee8"/>
            </g>
            <g id="Group_36567" data-name="Group 36567" transform="translate(0 29.227)">
              <path id="Path_63584" data-name="Path 63584" d="M1556.249,984.7l6.923.167v-3.592l-6.923-.135Z" transform="translate(-1556.249 -981.138)" fill="#d8dee8"/>
              <path id="Path_63585" data-name="Path 63585" d="M1556.249,1049.925l6.923.222v-3.592l-6.923-.191Z" transform="translate(-1556.249 -1040.132)" fill="#d8dee8"/>
              <path id="Path_63586" data-name="Path 63586" d="M1556.249,1115.152l6.923.278v-3.592l-6.923-.246Z" transform="translate(-1556.249 -1099.125)" fill="#d8dee8"/>
              <path id="Path_63587" data-name="Path 63587" d="M1556.249,1180.379l6.923.333v-3.592l-6.923-.3Z" transform="translate(-1556.249 -1158.119)" fill="#d8dee8"/>
            </g>
            <g id="Group_36568" data-name="Group 36568" transform="translate(10.521 58.636)">
              <path id="Path_63588" data-name="Path 63588" d="M967.635,1292.5l52.627,3.215v-3.849l-52.627-2.975Z" transform="translate(-967.635 -1288.89)" fill="#d8dee8"/>
              <path id="Path_63589" data-name="Path 63589" d="M967.635,1358.607l52.627,3.636v-3.849l-52.627-3.4Z" transform="translate(-967.635 -1348.681)" fill="#d8dee8"/>
              <path id="Path_63590" data-name="Path 63590" d="M967.635,1424.715l52.627,4.058v-3.849l-52.627-3.817Z" transform="translate(-967.635 -1408.472)" fill="#d8dee8"/>
              <path id="Path_63591" data-name="Path 63591" d="M967.635,1490.823l52.627,4.479v-3.849l-52.627-4.238Z" transform="translate(-967.635 -1468.262)" fill="#d8dee8"/>
            </g>
            <g id="Group_36569" data-name="Group 36569" transform="translate(0 58.041)">
              <path id="Path_63592" data-name="Path 63592" d="M1556.249,1286.228l6.923.423v-3.592l-6.923-.391Z" transform="translate(-1556.249 -1282.667)" fill="#d8dee8"/>
              <path id="Path_63593" data-name="Path 63593" d="M1556.249,1351.454l6.923.478v-3.592l-6.923-.447Z" transform="translate(-1556.249 -1341.661)" fill="#d8dee8"/>
              <path id="Path_63594" data-name="Path 63594" d="M1556.249,1416.681l6.923.534v-3.592l-6.923-.5Z" transform="translate(-1556.249 -1400.655)" fill="#d8dee8"/>
              <path id="Path_63595" data-name="Path 63595" d="M1556.249,1481.908l6.923.589v-3.592l-6.923-.558Z" transform="translate(-1556.249 -1459.649)" fill="#d8dee8"/>
            </g>
          </g>
        </g>
      </g>
    </g>
  </g>
</svg>
