<svg xmlns="http://www.w3.org/2000/svg" width="441.518" height="460.125" viewBox="0 0 441.518 460.125">
  <g id="Group_47147" data-name="Group 47147" transform="translate(21.652 -411.302)">
    <g id="Group_38601" data-name="Group 38601" transform="translate(-76.713 289.847)">
      <g id="OBJECTS" transform="translate(36.105 181.072)">
        <g id="Group_38600" data-name="Group 38600">
          <path id="Path_73745" data-name="Path 73745" d="M233.393,51.6C165.228,49.815,98.74,108.685,104.08,184.48c2.932,40.788,18.324,69.8,14.554,110.486C116.54,317.883,104.5,338.382,94.97,359.3S77.9,404.085,85.232,425.846c10.157,30.486,46.28,45.414,78.111,42.576S224.6,449.183,252.659,435.1c25.758-12.93,54.552-22.6,83.766-26.491,29.737-3.995,61.568,3.784,90.467-2.944C485.841,391.785,507.516,320.3,477.465,271c-20.208-33.114-59.264-45.309-80.624-77.161-20.523-30.486-40.207-81.577-67.327-107.227C300.3,58.856,273.286,52.548,233.393,51.6Z" transform="translate(-30.462 -76.775)" fill="#04375d"/>
          <path id="Path_73746" data-name="Path 73746" d="M319.011,79.846c-33.969-6.344-70.6,2.046-93.21,28.649-16.985,19.952-30.8,45.94-50.851,63.948-21.793,19.542-50.033,30.286-72.338,49.214C75.805,244.37,58.1,278.237,57.9,313.331S75.6,382.8,105.989,400.4c22.1,12.79,51.26,16.473,76.737,15.143,25.579-1.33,40.313-1.739,74.077-9.106,37.448-8.185,76.533-1.944,114.8-.307,25.784,1.126,53.511,1.535,74.9-12.892,26.091-17.6,34.378-56.888,17.6-83.49-12.79-20.259-36.629-32.025-47.679-53.307-12.892-24.658-5.218-54.637-8.083-82.365a107.142,107.142,0,0,0-39.7-72.235A116.477,116.477,0,0,0,319.011,79.846Z" transform="translate(-28.486 -70.782)" fill="#0e3f64"/>
          <g id="Group_38537" data-name="Group 38537" transform="translate(18.956 131.044)">
            <g id="Group_38522" data-name="Group 38522">
              <g id="Group_38509" data-name="Group 38509" transform="translate(49.724 28.349)">
                <path id="Path_73747" data-name="Path 73747" d="M86.64,228.878a38.326,38.326,0,0,1,9.966-7.837,65.142,65.142,0,0,1,11.127-4.741,87.2,87.2,0,0,0-1.548,10.256c-.194,1.742-.29,3.386-.581,5.031a20.957,20.957,0,0,1-.387,2.419,19.819,19.819,0,0,1-.484,2.322,19.509,19.509,0,0,1-.677,2.225c-.29.774-.484,1.451-.774,2.225-.194.387-.29.677-.484,1.064a11.35,11.35,0,0,1-.484,1.064,14.564,14.564,0,0,1-1.064,2.129,66.721,66.721,0,0,1-4.838,8.127,78.078,78.078,0,0,1-6.579,8.321c-1.064,1.161-2.032,2.322-3.1,3.483-.968,1.064-1.838,2.225-2.612,3.193-.581-1.451-1.355-3.193-1.935-4.741s-.968-2.806-1.161-3.193a33.514,33.514,0,0,1-1.838-15.965A30.86,30.86,0,0,1,86.64,228.878Z" transform="translate(-78.892 -216.3)" fill="#226a9a"/>
              </g>
              <path id="Path_73748" data-name="Path 73748" d="M43.395,215.349c-.774-9.482,1.355-18.964,3.483-28.349,6.386,4.935,12.869,9.966,17.706,16.448s7.45,15.481,8.127,23.415a91.825,91.825,0,0,1-.871,24.479c-3.29-2.225-7.74-5.418-8.611-6C52.1,237.8,44.459,229.089,43.395,215.349Z" transform="translate(-28.01 -187)" fill="#226a9a"/>
              <g id="Group_38510" data-name="Group 38510" transform="translate(24.068 14.32)">
                <path id="Path_73749" data-name="Path 73749" d="M105.228,379.347a6.449,6.449,0,0,1-.387-1.838c-.194-1.258-.484-3-.871-5.322-.29-2.322-.871-5.128-1.451-8.418-.29-1.645-.581-3.386-.968-5.225s-.774-3.773-1.258-5.9c-1.742-8.224-4.064-17.9-6.87-28.64-.774-2.709-1.451-5.418-2.225-8.224s-1.548-5.612-2.419-8.514c-.387-1.451-.871-2.9-1.258-4.354s-.871-3-1.355-4.451c-.871-3-1.838-6-2.709-9.1-.968-3.1-1.935-6.1-2.806-9.1-.484-1.451-.968-3-1.355-4.451l-1.451-4.354c-.968-2.9-1.838-5.709-2.806-8.418s-1.838-5.418-2.806-8.031c-.871-2.612-1.838-5.225-2.709-7.644-.871-2.516-1.742-4.838-2.516-7.257-.871-2.322-1.645-4.548-2.419-6.676l-1.161-3.193c-.387-1.064-.774-2.032-1.161-3C60.72,223.28,59.462,219.8,58.2,216.7q-.871-2.322-1.742-4.354c-.29-.677-.484-1.258-.774-1.935a12.923,12.923,0,0,1-.677-1.742c-.871-2.129-1.548-3.87-2.032-5.031S52.3,201.9,52.4,201.8a12.792,12.792,0,0,1,.871,1.645c.581,1.161,1.258,2.806,2.322,4.935.29.581.484,1.064.774,1.742.29.581.484,1.258.774,1.838.581,1.355,1.161,2.709,1.838,4.257,1.355,3.1,2.709,6.579,4.257,10.546.387.968.774,1.935,1.161,3s.774,2.032,1.161,3.193c.774,2.129,1.645,4.354,2.516,6.676s1.742,4.741,2.612,7.16c.871,2.516,1.838,5.031,2.709,7.644s1.838,5.322,2.806,8.031c.968,2.806,1.838,5.612,2.806,8.418l1.451,4.354c.484,1.451.968,2.9,1.451,4.451.968,3,1.935,6,2.806,9.095.968,3.1,1.838,6.1,2.709,9.1.484,1.451.871,3,1.258,4.451s.871,2.9,1.258,4.451c.871,2.9,1.645,5.805,2.419,8.611s1.451,5.612,2.225,8.224c2.709,10.74,5.031,20.512,6.579,28.833.387,2.032.774,4.064,1.161,5.9s.581,3.677.871,5.322c.484,3.29.968,6.1,1.258,8.515.29,2.322.484,4.16.581,5.418C105.228,378.67,105.325,379.347,105.228,379.347Z" transform="translate(-52.375 -201.8)" fill="#418ec1"/>
              </g>
              <g id="Group_38511" data-name="Group 38511" transform="translate(53.603 55.237)">
                <path id="Path_73750" data-name="Path 73750" d="M90.447,244.1c.194.1-.774,2.516-2.129,6.579-.194.484-.29,1.064-.484,1.548-.194.581-.29,1.161-.484,1.742a37.67,37.67,0,0,0-.968,3.87c-.581,2.709-1.161,5.709-1.548,8.9a76.259,76.259,0,0,0-.581,9c0,1.355,0,2.709.1,3.967a11.707,11.707,0,0,0,.1,1.838c0,.581.1,1.161.1,1.645.29,4.257.774,6.773.484,6.87q-.145,0-.581-1.742c-.1-.29-.194-.581-.29-.967a4.858,4.858,0,0,1-.193-1.161,21.063,21.063,0,0,1-.484-2.806c-.1-.484-.1-1.064-.194-1.645s-.1-1.161-.194-1.838c-.1-1.258-.193-2.612-.193-4.064a77.114,77.114,0,0,1,.484-9.192,75.993,75.993,0,0,1,1.742-9.1c.387-1.355.774-2.709,1.161-3.87l.581-1.742c.193-.581.387-1.064.581-1.548q.581-1.451,1.161-2.612a11.347,11.347,0,0,1,.484-1.064c.194-.29.29-.581.484-.871Q90.3,243.955,90.447,244.1Z" transform="translate(-82.9 -244.089)" fill="#418ec1"/>
              </g>
              <g id="Group_38512" data-name="Group 38512" transform="translate(0 53.758)">
                <path id="Path_73751" data-name="Path 73751" d="M42.11,261.66a99.147,99.147,0,0,1-7.16-8.224c-2.322-2.806-4.741-5.805-7.45-8.611a97.3,97.3,0,0,1,10.546-2.032,36.278,36.278,0,0,1,5.612-.194,13.817,13.817,0,0,1,2.806.29,12.25,12.25,0,0,1,2.709.581A30.219,30.219,0,0,1,59.526,248.5a40.963,40.963,0,0,1,8.224,8.128,35.483,35.483,0,0,1,5.515,10.74c.581,1.645.968,3.29,1.355,4.741.29,1.548.581,2.9.871,4.257-1.548-.484-3.386-1.064-4.935-1.548-1.548-.387-2.806-.774-3.193-.871a81.69,81.69,0,0,1-13.933-4.257A36.378,36.378,0,0,1,42.11,261.66Z" transform="translate(-27.5 -242.561)" fill="#226a9a"/>
              </g>
              <g id="Group_38513" data-name="Group 38513" transform="translate(29.217 68.388)">
                <path id="Path_73752" data-name="Path 73752" d="M57.7,257.7c.1-.1.677.194,1.645.871l.871.581a8.367,8.367,0,0,0,.968.677q1.016.726,2.322,1.742c.387.387.871.677,1.258,1.064a16.087,16.087,0,0,1,1.355,1.258,39.039,39.039,0,0,1,2.9,2.806,65.25,65.25,0,0,1,6,7.063,72.809,72.809,0,0,1,4.935,7.741c.677,1.258,1.258,2.419,1.838,3.58.29.581.581,1.161.774,1.645.194.581.484,1.064.677,1.548.387.968.677,1.935.968,2.709.1.387.29.774.387,1.161s.194.677.29.968a6.485,6.485,0,0,1,.387,1.838c-.193.1-1.161-2.419-3-6.192-.194-.484-.484-.968-.677-1.451-.29-.484-.581-1.064-.871-1.548-.581-1.064-1.258-2.225-1.935-3.483q-2.177-3.628-4.935-7.547a73.708,73.708,0,0,0-5.805-6.966c-.968-.968-1.838-1.935-2.806-2.806a15.388,15.388,0,0,1-1.258-1.258c-.387-.387-.871-.774-1.258-1.161C59.732,259.441,57.6,257.893,57.7,257.7Z" transform="translate(-57.697 -257.681)" fill="#418ec1"/>
              </g>
              <g id="Group_38514" data-name="Group 38514" transform="translate(9.966 89.751)">
                <path id="Path_73753" data-name="Path 73753" d="M52.41,298.86a99.146,99.146,0,0,1-7.16-8.224c-2.322-2.806-4.741-5.805-7.45-8.611a97.312,97.312,0,0,1,10.546-2.032,36.282,36.282,0,0,1,5.612-.194,13.816,13.816,0,0,1,2.806.29,12.246,12.246,0,0,1,2.709.581A30.216,30.216,0,0,1,69.826,285.7a40.965,40.965,0,0,1,8.224,8.127,35.484,35.484,0,0,1,5.515,10.74c.581,1.645.968,3.29,1.355,4.741.29,1.548.581,2.9.871,4.257-1.548-.484-3.386-1.064-4.935-1.548-1.548-.387-2.806-.774-3.193-.871a81.682,81.682,0,0,1-13.933-4.257A37.529,37.529,0,0,1,52.41,298.86Z" transform="translate(-37.8 -279.761)" fill="#226a9a"/>
              </g>
              <g id="Group_38515" data-name="Group 38515" transform="translate(39.28 104.381)">
                <path id="Path_73754" data-name="Path 73754" d="M68.1,294.9c.1-.1.677.194,1.645.871l.871.581a8.367,8.367,0,0,0,.968.677q1.016.726,2.322,1.742c.387.387.871.677,1.258,1.064a16.036,16.036,0,0,1,1.355,1.258,39.03,39.03,0,0,1,2.9,2.806,65.272,65.272,0,0,1,6,7.063,72.836,72.836,0,0,1,4.935,7.741c.677,1.258,1.258,2.419,1.838,3.58.29.581.581,1.161.774,1.645.194.581.484,1.064.677,1.548.387.968.677,1.935.968,2.709.1.387.29.774.387,1.161s.193.677.29.967a6.485,6.485,0,0,1,.387,1.838c-.193.1-1.161-2.419-3-6.192-.194-.484-.484-.968-.677-1.451-.29-.484-.581-1.064-.871-1.548-.581-1.064-1.258-2.225-1.935-3.483q-2.177-3.628-4.935-7.547a73.727,73.727,0,0,0-5.805-6.967c-.968-.968-1.838-1.935-2.806-2.806a15.411,15.411,0,0,1-1.258-1.258c-.387-.387-.871-.774-1.258-1.161C70.035,296.738,68,295.093,68.1,294.9Z" transform="translate(-68.097 -294.881)" fill="#418ec1"/>
              </g>
              <g id="Group_38516" data-name="Group 38516" transform="translate(18.093 125.358)">
                <path id="Path_73755" data-name="Path 73755" d="M60.81,335.66a99.157,99.157,0,0,1-7.16-8.224c-2.322-2.806-4.741-5.805-7.45-8.611a97.325,97.325,0,0,1,10.546-2.032,36.29,36.29,0,0,1,5.612-.193,13.814,13.814,0,0,1,2.806.29,12.257,12.257,0,0,1,2.709.581A30.221,30.221,0,0,1,78.226,322.5a40.964,40.964,0,0,1,8.224,8.128,35.482,35.482,0,0,1,5.515,10.74c.581,1.645.968,3.29,1.355,4.741.29,1.548.581,2.9.871,4.257-1.548-.484-3.386-1.064-4.935-1.548-1.548-.387-2.806-.774-3.193-.871a81.679,81.679,0,0,1-13.933-4.257A34.853,34.853,0,0,1,60.81,335.66Z" transform="translate(-46.2 -316.561)" fill="#226a9a"/>
              </g>
              <g id="Group_38517" data-name="Group 38517" transform="translate(47.31 140.084)">
                <path id="Path_73756" data-name="Path 73756" d="M76.4,331.8c.1-.1.677.194,1.645.871l.871.581a8.375,8.375,0,0,0,.968.677q1.016.726,2.322,1.742c.387.387.871.677,1.258,1.064a16.093,16.093,0,0,1,1.355,1.258,39.045,39.045,0,0,1,2.9,2.806,65.262,65.262,0,0,1,6,7.063,72.814,72.814,0,0,1,4.935,7.741c.677,1.258,1.258,2.419,1.838,3.58.29.581.581,1.161.774,1.645.193.581.484,1.064.677,1.548.387.967.677,1.935.968,2.709.1.387.29.774.387,1.161s.194.677.29.968a6.488,6.488,0,0,1,.387,1.838c-.194.1-1.161-2.419-3-6.192-.194-.484-.484-.968-.677-1.451-.29-.484-.581-1.064-.871-1.548-.581-1.064-1.258-2.225-1.935-3.483q-2.177-3.628-4.935-7.547a73.734,73.734,0,0,0-5.805-6.966c-.968-.968-1.838-1.935-2.806-2.806a15.4,15.4,0,0,1-1.258-1.258c-.387-.387-.871-.774-1.258-1.161C78.432,333.541,76.3,331.993,76.4,331.8Z" transform="translate(-76.397 -331.781)" fill="#418ec1"/>
              </g>
              <g id="Group_38518" data-name="Group 38518" transform="translate(60.174 65.697)">
                <path id="Path_73757" data-name="Path 73757" d="M97.44,267.478a38.328,38.328,0,0,1,9.966-7.837,65.132,65.132,0,0,1,11.127-4.741,87.191,87.191,0,0,0-1.548,10.256c-.193,1.742-.29,3.386-.581,5.031a20.95,20.95,0,0,1-.387,2.419,19.822,19.822,0,0,1-.484,2.322,19.515,19.515,0,0,1-.677,2.225c-.29.774-.484,1.451-.774,2.225-.194.387-.29.677-.484,1.064a11.35,11.35,0,0,1-.484,1.064,14.568,14.568,0,0,1-1.064,2.129,66.729,66.729,0,0,1-4.838,8.128,78.077,78.077,0,0,1-6.579,8.321c-1.064,1.161-2.032,2.322-3.1,3.483-.968,1.064-1.838,2.225-2.612,3.193-.581-1.451-1.355-3.193-1.935-4.741s-.968-2.806-1.161-3.193a33.515,33.515,0,0,1-1.838-15.965A30.074,30.074,0,0,1,97.44,267.478Z" transform="translate(-89.692 -254.9)" fill="#226a9a"/>
              </g>
              <g id="Group_38519" data-name="Group 38519" transform="translate(64.052 92.585)">
                <path id="Path_73758" data-name="Path 73758" d="M101.247,282.7c.194.1-.774,2.516-2.129,6.579-.194.484-.29,1.064-.484,1.548-.193.581-.29,1.161-.484,1.742a37.673,37.673,0,0,0-.968,3.87c-.581,2.709-1.161,5.709-1.548,8.9a76.259,76.259,0,0,0-.581,9c0,1.355,0,2.709.1,3.967a11.711,11.711,0,0,0,.1,1.838c0,.581.1,1.161.1,1.645.29,4.257.774,6.773.484,6.87q-.145,0-.581-1.742c-.1-.29-.194-.58-.29-.967a4.857,4.857,0,0,1-.194-1.161,21.06,21.06,0,0,1-.484-2.806c-.1-.484-.1-1.064-.193-1.645s-.1-1.161-.194-1.838c-.1-1.258-.194-2.612-.194-4.064a77.109,77.109,0,0,1,.484-9.192,75.98,75.98,0,0,1,1.742-9.1c.387-1.355.774-2.709,1.161-3.87l.581-1.742c.193-.581.387-1.064.581-1.548q.581-1.451,1.161-2.612a11.348,11.348,0,0,1,.484-1.064c.194-.29.29-.581.484-.871C100.763,283.183,101.15,282.6,101.247,282.7Z" transform="translate(-93.7 -282.689)" fill="#418ec1"/>
              </g>
              <g id="Group_38520" data-name="Group 38520" transform="translate(68.592 99.175)">
                <path id="Path_73759" data-name="Path 73759" d="M106.14,302.078a38.327,38.327,0,0,1,9.966-7.837,65.137,65.137,0,0,1,11.127-4.741,87.208,87.208,0,0,0-1.548,10.256c-.193,1.741-.29,3.386-.581,5.031a20.946,20.946,0,0,1-.387,2.419,19.815,19.815,0,0,1-.484,2.322,19.5,19.5,0,0,1-.677,2.225c-.29.774-.484,1.451-.774,2.225-.194.387-.29.677-.484,1.064a11.354,11.354,0,0,1-.484,1.064,14.569,14.569,0,0,1-1.064,2.129,66.726,66.726,0,0,1-4.838,8.127,78.082,78.082,0,0,1-6.579,8.321c-1.064,1.161-2.032,2.322-3.1,3.483-.968,1.064-1.838,2.225-2.612,3.193-.581-1.451-1.355-3.193-1.935-4.741s-.968-2.806-1.161-3.193a33.515,33.515,0,0,1-1.838-15.965A29.719,29.719,0,0,1,106.14,302.078Z" transform="translate(-98.392 -289.5)" fill="#64c1ff"/>
              </g>
              <g id="Group_38521" data-name="Group 38521" transform="translate(72.47 125.976)">
                <path id="Path_73760" data-name="Path 73760" d="M109.947,317.2c.194.1-.774,2.516-2.129,6.579-.193.484-.29,1.064-.484,1.548-.194.581-.29,1.161-.484,1.742a37.672,37.672,0,0,0-.968,3.87c-.581,2.709-1.161,5.709-1.548,8.9a76.264,76.264,0,0,0-.581,9c0,1.355,0,2.709.1,3.967a11.709,11.709,0,0,0,.1,1.838c0,.581.1,1.161.1,1.645.29,4.257.774,6.773.484,6.87q-.145,0-.581-1.742c-.1-.29-.194-.581-.29-.967a4.855,4.855,0,0,1-.194-1.161,21.06,21.06,0,0,1-.484-2.806c-.1-.484-.1-1.064-.193-1.645s-.1-1.161-.194-1.838c-.1-1.258-.194-2.612-.194-4.064a77.118,77.118,0,0,1,.484-9.192,76,76,0,0,1,1.742-9.1c.387-1.355.774-2.709,1.161-3.87l.581-1.742c.193-.581.387-1.064.581-1.548q.581-1.451,1.161-2.612a11.359,11.359,0,0,1,.484-1.064c.194-.29.29-.581.484-.871C109.463,317.684,109.85,317.2,109.947,317.2Z" transform="translate(-102.4 -317.2)" fill="#fff"/>
              </g>
            </g>
            <g id="Group_38536" data-name="Group 38536" transform="translate(302.929 2.709)">
              <g id="Group_38523" data-name="Group 38523" transform="translate(24.479 23.512)">
                <path id="Path_73761" data-name="Path 73761" d="M410.628,228.323a41,41,0,0,0-9.289-8.611A67.1,67.1,0,0,0,390.6,214.1a72.5,72.5,0,0,1,.677,10.353c.1,1.742,0,3.483.194,5.031.1.774.1,1.645.194,2.419l.29,2.322a15.038,15.038,0,0,0,.484,2.225c.193.774.387,1.548.581,2.225.1.387.29.774.387,1.161s.29.774.387,1.161c.29.774.581,1.451.871,2.225a57.933,57.933,0,0,0,4.16,8.515,86.841,86.841,0,0,0,5.9,8.8c.968,1.258,1.838,2.516,2.806,3.677.871,1.161,1.645,2.322,2.419,3.483.774-1.355,1.645-3.1,2.322-4.548s1.258-2.709,1.451-3.1a33.361,33.361,0,0,0,3.1-15.771A29.922,29.922,0,0,0,410.628,228.323Z" transform="translate(-390.6 -214.1)" fill="#226a9a"/>
              </g>
              <path id="Path_73762" data-name="Path 73762" d="M454.642,218.246c1.548-9.385.193-19.061-1.161-28.446-6.773,4.451-13.643,8.9-18.964,15s-8.708,14.8-9.966,22.738a91.583,91.583,0,0,0-1.064,24.479c3.387-1.935,8.224-4.741,9.1-5.225C444.193,240.016,452.417,231.889,454.642,218.246Z" transform="translate(-367.175 -189.8)" fill="#226a9a"/>
              <g id="Group_38524" data-name="Group 38524" transform="translate(13.022 13.739)">
                <path id="Path_73763" data-name="Path 73763" d="M378.8,376.806a9.144,9.144,0,0,0,.581-1.838c.29-1.161.774-3,1.258-5.225.484-2.322,1.258-5.031,2.129-8.321.484-1.645.871-3.29,1.355-5.128.581-1.838,1.064-3.773,1.742-5.709,2.322-8.031,5.515-17.513,9.1-28.059.968-2.612,1.935-5.321,2.9-8.031s2.032-5.515,3.1-8.321c.484-1.451,1.064-2.806,1.645-4.257s1.064-2.9,1.645-4.354c1.161-2.9,2.322-5.805,3.483-8.8s2.419-5.9,3.58-8.8c.581-1.451,1.161-2.9,1.742-4.257.581-1.451,1.161-2.806,1.742-4.257,1.161-2.806,2.322-5.515,3.483-8.224s2.322-5.322,3.386-7.837,2.225-5.031,3.29-7.45,2.129-4.741,3.1-6.966c1.064-2.225,2.032-4.451,3-6.483.484-1.064.968-2.032,1.451-3.1.484-.968.968-1.935,1.354-2.9,1.838-3.773,3.387-7.257,4.935-10.256.774-1.451,1.451-2.9,2.032-4.16.29-.677.581-1.258.871-1.838s.581-1.161.871-1.645c1.064-2.129,1.838-3.773,2.419-4.838a15.224,15.224,0,0,0,.774-1.742s-.387.484-1.064,1.548c-.581,1.064-1.548,2.612-2.709,4.741-.29.484-.581,1.064-.871,1.645s-.581,1.161-.968,1.838c-.677,1.258-1.355,2.612-2.129,4.161-1.548,2.9-3.193,6.386-5.128,10.159l-1.451,2.9c-.484.968-.968,2.032-1.451,3-.967,2.032-2.032,4.257-3.1,6.483s-2.129,4.548-3.193,6.966-2.225,4.838-3.387,7.45c-1.161,2.516-2.225,5.128-3.483,7.837-1.161,2.709-2.322,5.418-3.483,8.224-.581,1.355-1.161,2.806-1.742,4.257l-1.742,4.354c-1.161,2.9-2.419,5.805-3.58,8.8s-2.322,5.9-3.483,8.8c-.581,1.451-1.161,2.9-1.645,4.354-.581,1.451-1.064,2.9-1.645,4.257-1.064,2.806-2.129,5.612-3.1,8.321s-1.935,5.418-2.806,8.031c-3.58,10.546-6.579,20.125-8.8,28.156-.581,2.032-1.064,3.967-1.645,5.805-.484,1.838-.871,3.58-1.258,5.225-.774,3.29-1.451,6-1.935,8.321s-.774,4.064-1.064,5.322C378.8,376.225,378.7,376.806,378.8,376.806Z" transform="translate(-378.759 -204)" fill="#418ec1"/>
              </g>
              <g id="Group_38525" data-name="Group 38525" transform="translate(39.64 51.657)">
                <path id="Path_73764" data-name="Path 73764" d="M406.3,243.2c-.193.1.581,2.612,1.548,6.676.1.484.29,1.064.387,1.645a11.234,11.234,0,0,0,.387,1.742c.29,1.258.484,2.516.677,3.87q.581,4.209.871,9c.1,3.193,0,6.289-.193,9.1-.1,1.354-.193,2.709-.387,3.967-.1.581-.1,1.258-.193,1.742-.1.581-.194,1.161-.29,1.645-.677,4.161-1.258,6.773-1.064,6.773.1,0,.387-.581.774-1.742.1-.29.194-.581.29-.968l.29-1.161c.193-.774.484-1.742.677-2.806a13.187,13.187,0,0,1,.387-1.645c.1-.581.193-1.161.29-1.838.194-1.258.387-2.612.484-3.967a70.662,70.662,0,0,0,.29-9.192,65.37,65.37,0,0,0-.968-9.192c-.29-1.355-.484-2.709-.871-3.967-.193-.581-.29-1.161-.484-1.742s-.29-1.064-.484-1.645c-.29-1.064-.677-1.935-.871-2.709a7.373,7.373,0,0,1-.387-1.064,7.656,7.656,0,0,0-.387-.871C406.686,243.683,406.4,243.1,406.3,243.2Z" transform="translate(-406.269 -243.189)" fill="#418ec1"/>
              </g>
              <g id="Group_38526" data-name="Group 38526" transform="translate(50.313 53.753)">
                <path id="Path_73765" data-name="Path 73765" d="M451.745,264.556c2.709-2.322,5.225-4.935,7.837-7.644,2.612-2.612,5.225-5.418,8.127-8.031a88.747,88.747,0,0,0-10.353-2.806,35.585,35.585,0,0,0-5.612-.677,27.149,27.149,0,0,0-2.806,0,23.254,23.254,0,0,0-2.709.29,29.72,29.72,0,0,0-10.74,4.257,39.581,39.581,0,0,0-8.9,7.45,35.46,35.46,0,0,0-6.386,10.256c-.677,1.645-1.161,3.193-1.645,4.644s-.871,2.9-1.258,4.16c1.548-.387,3.483-.774,5.031-1.064s2.806-.484,3.29-.58a79.517,79.517,0,0,0,14.223-3.1A40.621,40.621,0,0,0,451.745,264.556Z" transform="translate(-417.3 -245.356)" fill="#226a9a"/>
              </g>
              <g id="Group_38527" data-name="Group 38527" transform="translate(39.839 67.324)">
                <path id="Path_73766" data-name="Path 73766" d="M437.074,259.4c-.1-.1-.677.194-1.742.677a3.919,3.919,0,0,0-.871.484,10.592,10.592,0,0,1-1.064.581c-.677.484-1.548.968-2.419,1.548a11.759,11.759,0,0,0-1.355.968,13.834,13.834,0,0,0-1.451,1.064c-1.064.774-2.032,1.645-3.1,2.516a82.224,82.224,0,0,0-6.579,6.483c-2.129,2.516-3.967,5.031-5.612,7.353-.774,1.161-1.451,2.322-2.129,3.483-.29.581-.58,1.064-.871,1.548s-.484,1.064-.774,1.548c-.484.968-.871,1.838-1.258,2.612a11.368,11.368,0,0,1-.484,1.064,2.9,2.9,0,0,1-.387.967c-.387,1.161-.58,1.742-.484,1.838.194.1,1.355-2.322,3.483-6l.871-1.451c.29-.484.581-.967.968-1.548.677-1.064,1.355-2.129,2.225-3.29a85.946,85.946,0,0,1,5.612-7.16c2.129-2.419,4.257-4.548,6.289-6.483,1.064-.968,2.032-1.838,3-2.612a16.877,16.877,0,0,0,1.355-1.161,14.472,14.472,0,0,0,1.258-1.064C434.945,261.044,437.171,259.593,437.074,259.4Z" transform="translate(-406.475 -259.381)" fill="#418ec1"/>
              </g>
              <g id="Group_38528" data-name="Group 38528" transform="translate(37.445 88.779)">
                <path id="Path_73767" data-name="Path 73767" d="M438.445,300.756c2.709-2.322,5.225-4.935,7.837-7.644,2.612-2.612,5.225-5.418,8.127-8.031a88.755,88.755,0,0,0-10.353-2.806,35.6,35.6,0,0,0-5.612-.677,27.145,27.145,0,0,0-2.806,0,23.283,23.283,0,0,0-2.709.29,29.723,29.723,0,0,0-10.74,4.257,39.584,39.584,0,0,0-8.9,7.45,35.455,35.455,0,0,0-6.386,10.256c-.677,1.645-1.161,3.193-1.645,4.644s-.871,2.9-1.258,4.16c1.548-.387,3.483-.774,5.031-1.064s2.806-.484,3.29-.581a79.526,79.526,0,0,0,14.223-3.1A36.835,36.835,0,0,0,438.445,300.756Z" transform="translate(-404 -281.556)" fill="#226a9a"/>
              </g>
              <g id="Group_38529" data-name="Group 38529" transform="translate(26.97 102.446)">
                <path id="Path_73768" data-name="Path 73768" d="M423.774,295.7c-.1-.1-.677.194-1.742.677a3.92,3.92,0,0,0-.871.484,10.59,10.59,0,0,1-1.064.581c-.677.484-1.548.967-2.419,1.548a11.736,11.736,0,0,0-1.355.967,13.89,13.89,0,0,0-1.451,1.064c-1.064.774-2.032,1.645-3.1,2.516a82.218,82.218,0,0,0-6.579,6.483c-2.129,2.516-3.967,5.031-5.612,7.354-.774,1.161-1.451,2.322-2.129,3.483-.29.581-.581,1.064-.871,1.548s-.484,1.064-.774,1.548c-.484.968-.871,1.838-1.258,2.612a11.358,11.358,0,0,1-.484,1.064,2.9,2.9,0,0,1-.387.968c-.387,1.161-.581,1.742-.484,1.838.194.1,1.355-2.322,3.483-6l.871-1.451c.29-.484.581-.968.968-1.548.677-1.064,1.354-2.129,2.225-3.29a85.912,85.912,0,0,1,5.612-7.16c2.129-2.419,4.257-4.548,6.289-6.483,1.064-.968,2.032-1.838,3-2.612A16.818,16.818,0,0,0,417,300.731a14.469,14.469,0,0,0,1.258-1.064C421.645,297.344,423.871,295.893,423.774,295.7Z" transform="translate(-393.175 -295.681)" fill="#418ec1"/>
              </g>
              <g id="Group_38530" data-name="Group 38530" transform="translate(26.511 123.708)">
                <path id="Path_73769" data-name="Path 73769" d="M427.145,336.856c2.709-2.322,5.225-4.935,7.837-7.644,2.612-2.613,5.225-5.418,8.128-8.031a88.761,88.761,0,0,0-10.353-2.806,35.587,35.587,0,0,0-5.612-.677,27.155,27.155,0,0,0-2.806,0,23.259,23.259,0,0,0-2.709.29,29.722,29.722,0,0,0-10.74,4.257,39.577,39.577,0,0,0-8.9,7.45,35.456,35.456,0,0,0-6.386,10.256c-.677,1.645-1.161,3.193-1.645,4.644s-.871,2.9-1.258,4.161c1.548-.387,3.483-.774,5.031-1.064s2.806-.484,3.29-.581a79.515,79.515,0,0,0,14.223-3.1A38.635,38.635,0,0,0,427.145,336.856Z" transform="translate(-392.7 -317.656)" fill="#226a9a"/>
              </g>
              <g id="Group_38531" data-name="Group 38531" transform="translate(16.037 137.278)">
                <path id="Path_73770" data-name="Path 73770" d="M412.474,331.7c-.1-.1-.677.194-1.742.677a3.918,3.918,0,0,0-.871.484,10.551,10.551,0,0,1-1.064.581c-.677.484-1.548.968-2.419,1.548a11.741,11.741,0,0,0-1.355.967,13.867,13.867,0,0,0-1.451,1.064c-1.064.774-2.032,1.645-3.1,2.516a82.189,82.189,0,0,0-6.579,6.483c-2.129,2.516-3.967,5.031-5.612,7.353-.774,1.161-1.451,2.322-2.129,3.483-.29.581-.581,1.064-.871,1.548s-.484,1.064-.774,1.548c-.484.968-.871,1.838-1.258,2.612a11.363,11.363,0,0,1-.484,1.064,2.9,2.9,0,0,1-.387.968c-.387,1.161-.581,1.742-.484,1.838.194.1,1.355-2.322,3.483-6l.871-1.451c.29-.484.581-.967.968-1.548.677-1.064,1.354-2.129,2.225-3.29a85.875,85.875,0,0,1,5.612-7.16c2.129-2.419,4.257-4.547,6.289-6.483,1.064-.968,2.032-1.838,3-2.612a16.864,16.864,0,0,0,1.355-1.161,14.447,14.447,0,0,0,1.258-1.064C410.442,333.344,412.668,331.893,412.474,331.7Z" transform="translate(-381.875 -331.681)" fill="#418ec1"/>
              </g>
              <g id="Group_38532" data-name="Group 38532" transform="translate(11.127 59.892)">
                <path id="Path_73771" data-name="Path 73771" d="M396.828,265.923a41,41,0,0,0-9.289-8.611A67.1,67.1,0,0,0,376.8,251.7a72.524,72.524,0,0,1,.677,10.353c.1,1.742,0,3.483.194,5.031.1.774.1,1.645.193,2.419l.29,2.322a15,15,0,0,0,.484,2.225c.194.774.387,1.548.581,2.225.1.387.29.774.387,1.161s.29.774.387,1.161c.29.774.581,1.451.871,2.225a57.919,57.919,0,0,0,4.161,8.514,86.8,86.8,0,0,0,5.9,8.8c.967,1.258,1.838,2.516,2.806,3.677.871,1.161,1.645,2.322,2.419,3.483.774-1.355,1.645-3.1,2.322-4.548s1.258-2.709,1.451-3.1a33.36,33.36,0,0,0,3.1-15.771A30.221,30.221,0,0,0,396.828,265.923Z" transform="translate(-376.8 -251.7)" fill="#ababef"/>
              </g>
              <g id="Group_38533" data-name="Group 38533" transform="translate(26.288 88.048)">
                <path id="Path_73772" data-name="Path 73772" d="M392.5,280.8c-.194.1.581,2.612,1.548,6.676.1.484.29,1.064.387,1.645a11.25,11.25,0,0,0,.387,1.742c.29,1.258.484,2.516.677,3.87q.581,4.209.871,9c.1,3.193,0,6.289-.193,9.1-.1,1.354-.194,2.709-.387,3.967-.1.581-.1,1.258-.194,1.742-.1.58-.194,1.161-.29,1.645-.677,4.161-1.258,6.773-1.064,6.773.1,0,.387-.581.774-1.742.1-.29.193-.581.29-.968l.29-1.161c.193-.774.484-1.742.677-2.806a13.194,13.194,0,0,1,.387-1.645c.1-.581.193-1.161.29-1.838.193-1.258.387-2.612.484-3.967a70.646,70.646,0,0,0,.29-9.192,65.389,65.389,0,0,0-.968-9.192c-.29-1.355-.484-2.709-.871-3.967-.193-.581-.29-1.161-.484-1.742s-.29-1.064-.484-1.645c-.29-1.064-.677-1.935-.871-2.709a7.352,7.352,0,0,1-.387-1.064,7.656,7.656,0,0,0-.387-.871A4.67,4.67,0,0,0,392.5,280.8Z" transform="translate(-392.469 -280.8)" fill="#fff"/>
              </g>
              <g id="Group_38534" data-name="Group 38534" transform="translate(0 92.499)">
                <path id="Path_73773" data-name="Path 73773" d="M385.328,299.623a40.992,40.992,0,0,0-9.289-8.611A67.086,67.086,0,0,0,365.3,285.4a72.528,72.528,0,0,1,.677,10.353c.1,1.742,0,3.483.194,5.031.1.774.1,1.645.194,2.419l.29,2.322a15.018,15.018,0,0,0,.484,2.225c.194.774.387,1.548.58,2.225.1.387.29.774.387,1.161s.29.774.387,1.161c.29.774.58,1.451.871,2.225a57.919,57.919,0,0,0,4.16,8.514,86.81,86.81,0,0,0,5.9,8.8c.968,1.258,1.838,2.516,2.806,3.677.871,1.161,1.645,2.322,2.419,3.483.774-1.355,1.645-3.1,2.322-4.548s1.258-2.709,1.451-3.1a33.361,33.361,0,0,0,3.1-15.771A30.522,30.522,0,0,0,385.328,299.623Z" transform="translate(-365.3 -285.4)" fill="#ababef"/>
              </g>
              <g id="Group_38535" data-name="Group 38535" transform="translate(15.161 120.655)">
                <path id="Path_73774" data-name="Path 73774" d="M381,314.5c-.194.1.581,2.612,1.548,6.676.1.484.29,1.064.387,1.645a11.252,11.252,0,0,0,.387,1.742c.29,1.258.484,2.516.677,3.87q.581,4.209.871,9c.1,3.193,0,6.289-.194,9.1-.1,1.355-.193,2.709-.387,3.967-.1.581-.1,1.258-.194,1.742-.1.581-.194,1.161-.29,1.645-.677,4.161-1.258,6.773-1.064,6.773.1,0,.387-.581.774-1.742.1-.29.193-.581.29-.968l.29-1.161c.193-.774.484-1.742.677-2.806a13.218,13.218,0,0,1,.387-1.645c.1-.581.193-1.161.29-1.838.194-1.258.387-2.612.484-3.967a70.639,70.639,0,0,0,.29-9.192,65.391,65.391,0,0,0-.968-9.192c-.29-1.355-.484-2.709-.871-3.967-.194-.581-.29-1.161-.484-1.742s-.29-1.064-.484-1.645c-.29-1.064-.677-1.935-.871-2.709a7.363,7.363,0,0,1-.387-1.064,7.68,7.68,0,0,0-.387-.871A3.3,3.3,0,0,0,381,314.5Z" transform="translate(-380.969 -314.5)" fill="#fff"/>
              </g>
            </g>
          </g>
          <path id="Path_73775" data-name="Path 73775" d="M272.89,369.6c3,8.708,7.353,20.9-1.258,28.446A12.361,12.361,0,0,1,269.6,399.4a6.94,6.94,0,0,0,3.1-1.838C281.211,389.822,276.276,378.115,272.89,369.6Z" transform="translate(-35.354 -61.88)" fill="#ffb088"/>
          <g id="Group_38544" data-name="Group 38544" transform="translate(202.607 119.917)">
            <path id="Path_73776" data-name="Path 73776" d="M385.807,326.29H250.543A13.627,13.627,0,0,1,236.9,312.647v-110.2A13.627,13.627,0,0,1,250.543,188.8H385.807a13.627,13.627,0,0,1,13.643,13.643v110.2A13.627,13.627,0,0,1,385.807,326.29Z" transform="translate(-236.9 -175.931)" fill="#fcfcfc"/>
            <g id="Group_38538" data-name="Group 38538" transform="translate(14.804 60.279)">
              <path id="Path_73777" data-name="Path 73777" d="M332.3,297.155v14.223a1.323,1.323,0,0,0,1.355,1.355h14.32a1.323,1.323,0,0,0,1.355-1.355V297.155a1.323,1.323,0,0,0-1.355-1.355h-14.32A1.323,1.323,0,0,0,332.3,297.155Z" transform="translate(-254.799 -239.682)" fill="#ffd2da"/>
              <path id="Path_73778" data-name="Path 73778" d="M269.813,276.3H253.655a1.323,1.323,0,0,0-1.355,1.355v14.61a1.323,1.323,0,0,0,1.355,1.355h16.158a1.323,1.323,0,0,0,1.355-1.355v-14.61A1.323,1.323,0,0,0,269.813,276.3Z" transform="translate(-252.203 -239.049)" fill="#d2edff"/>
              <path id="Path_73779" data-name="Path 73779" d="M252.2,297.155v14.223a1.323,1.323,0,0,0,1.355,1.355h16.158a1.323,1.323,0,0,0,1.355-1.355V297.155a1.323,1.323,0,0,0-1.355-1.355H253.555A1.384,1.384,0,0,0,252.2,297.155Z" transform="translate(-252.2 -239.682)" fill="#d2edff"/>
              <path id="Path_73780" data-name="Path 73780" d="M312.8,297.155v14.223a1.323,1.323,0,0,0,1.355,1.355h14.32a1.323,1.323,0,0,0,1.355-1.355V297.155a1.323,1.323,0,0,0-1.355-1.355h-14.32A1.323,1.323,0,0,0,312.8,297.155Z" transform="translate(-254.166 -239.682)" fill="#d2edff"/>
              <path id="Path_73781" data-name="Path 73781" d="M273.7,297.155v14.223a1.323,1.323,0,0,0,1.355,1.355h14.32a1.323,1.323,0,0,0,1.355-1.355V297.155a1.323,1.323,0,0,0-1.355-1.355h-14.32A1.323,1.323,0,0,0,273.7,297.155Z" transform="translate(-252.897 -239.682)" fill="#d2edff"/>
              <path id="Path_73782" data-name="Path 73782" d="M293.2,297.155v14.223a1.323,1.323,0,0,0,1.355,1.355h14.32a1.323,1.323,0,0,0,1.355-1.355V297.155a1.323,1.323,0,0,0-1.355-1.355h-14.32A1.384,1.384,0,0,0,293.2,297.155Z" transform="translate(-253.53 -239.682)" fill="#d2edff"/>
              <path id="Path_73783" data-name="Path 73783" d="M269.813,258.1H253.655a1.323,1.323,0,0,0-1.355,1.355v13.352a1.323,1.323,0,0,0,1.355,1.355h16.158a1.323,1.323,0,0,0,1.355-1.355V259.455A1.323,1.323,0,0,0,269.813,258.1Z" transform="translate(-252.203 -238.459)" fill="#d2edff"/>
              <path id="Path_73784" data-name="Path 73784" d="M368.929,254.539V239.155a1.323,1.323,0,0,0-1.355-1.355h-14.32a1.323,1.323,0,0,0-1.355,1.355v15.384a1.323,1.323,0,0,0,1.355,1.354h14.32A1.384,1.384,0,0,0,368.929,254.539Z" transform="translate(-255.434 -237.8)" fill="#d2edff"/>
              <path id="Path_73785" data-name="Path 73785" d="M390.267,254.539V239.155a1.323,1.323,0,0,0-1.355-1.355H372.755a1.323,1.323,0,0,0-1.355,1.355v15.384a1.323,1.323,0,0,0,1.355,1.354h16.158A1.384,1.384,0,0,0,390.267,254.539Z" transform="translate(-256.067 -237.8)" fill="#d2edff"/>
              <path id="Path_73786" data-name="Path 73786" d="M349.429,254.539V239.155a1.323,1.323,0,0,0-1.355-1.355h-14.32a1.323,1.323,0,0,0-1.355,1.355v15.384a1.323,1.323,0,0,0,1.355,1.354h14.32A1.457,1.457,0,0,0,349.429,254.539Z" transform="translate(-254.802 -237.8)" fill="#d2edff"/>
              <path id="Path_73787" data-name="Path 73787" d="M310.329,254.539V239.155a1.323,1.323,0,0,0-1.355-1.355h-14.32a1.323,1.323,0,0,0-1.355,1.355v15.384a1.323,1.323,0,0,0,1.355,1.354h14.32A1.384,1.384,0,0,0,310.329,254.539Z" transform="translate(-253.533 -237.8)" fill="#d2edff"/>
              <path id="Path_73788" data-name="Path 73788" d="M290.829,254.539V239.155a1.323,1.323,0,0,0-1.355-1.355h-14.32a1.323,1.323,0,0,0-1.355,1.355v15.384a1.323,1.323,0,0,0,1.355,1.354h14.32A1.457,1.457,0,0,0,290.829,254.539Z" transform="translate(-252.901 -237.8)" fill="#d2edff"/>
              <path id="Path_73789" data-name="Path 73789" d="M329.829,254.539V239.155a1.323,1.323,0,0,0-1.355-1.355h-14.32a1.323,1.323,0,0,0-1.355,1.355v15.384a1.323,1.323,0,0,0,1.355,1.354h14.32A1.384,1.384,0,0,0,329.829,254.539Z" transform="translate(-254.166 -237.8)" fill="#d2edff"/>
              <path id="Path_73790" data-name="Path 73790" d="M269.813,237.8H253.655a1.323,1.323,0,0,0-1.355,1.355v15.384a1.323,1.323,0,0,0,1.355,1.355h16.158a1.323,1.323,0,0,0,1.355-1.355V239.155A1.323,1.323,0,0,0,269.813,237.8Z" transform="translate(-252.203 -237.8)" fill="#d2edff"/>
              <path id="Path_73791" data-name="Path 73791" d="M294.555,274.161h14.32a1.323,1.323,0,0,0,1.355-1.355V259.455a1.323,1.323,0,0,0-1.355-1.355h-14.32a1.323,1.323,0,0,0-1.355,1.355v13.352A1.457,1.457,0,0,0,294.555,274.161Z" transform="translate(-253.53 -238.459)" fill="#d2edff"/>
              <path id="Path_73792" data-name="Path 73792" d="M333.655,274.161h14.32a1.323,1.323,0,0,0,1.355-1.355V259.455a1.323,1.323,0,0,0-1.355-1.355h-14.32a1.323,1.323,0,0,0-1.355,1.355v13.352A1.384,1.384,0,0,0,333.655,274.161Z" transform="translate(-254.799 -238.459)" fill="#d2edff"/>
              <path id="Path_73793" data-name="Path 73793" d="M353.254,293.619h14.32a1.323,1.323,0,0,0,1.355-1.355v-14.61a1.323,1.323,0,0,0-1.355-1.355h-14.32a1.323,1.323,0,0,0-1.355,1.355v14.61A1.269,1.269,0,0,0,353.254,293.619Z" transform="translate(-255.434 -239.049)" fill="#d2edff"/>
              <path id="Path_73794" data-name="Path 73794" d="M314.155,274.161h14.32a1.323,1.323,0,0,0,1.355-1.355V259.455a1.323,1.323,0,0,0-1.355-1.355h-14.32a1.323,1.323,0,0,0-1.355,1.355v13.352A1.384,1.384,0,0,0,314.155,274.161Z" transform="translate(-254.166 -238.459)" fill="#d2edff"/>
              <path id="Path_73795" data-name="Path 73795" d="M333.655,293.619h14.32a1.323,1.323,0,0,0,1.355-1.355v-14.61a1.323,1.323,0,0,0-1.355-1.355h-14.32a1.323,1.323,0,0,0-1.355,1.355v14.61A1.323,1.323,0,0,0,333.655,293.619Z" transform="translate(-254.799 -239.049)" fill="#d2edff"/>
              <path id="Path_73796" data-name="Path 73796" d="M353.254,274.161h14.32a1.323,1.323,0,0,0,1.355-1.355V259.455a1.323,1.323,0,0,0-1.355-1.355h-14.32a1.323,1.323,0,0,0-1.355,1.355v13.352A1.321,1.321,0,0,0,353.254,274.161Z" transform="translate(-255.434 -238.459)" fill="#d2edff"/>
              <path id="Path_73797" data-name="Path 73797" d="M351.8,297.155v14.223a1.323,1.323,0,0,0,1.354,1.355h14.32a1.323,1.323,0,0,0,1.355-1.355V297.155a1.323,1.323,0,0,0-1.355-1.355h-14.32A1.384,1.384,0,0,0,351.8,297.155Z" transform="translate(-255.431 -239.682)" fill="#d2edff"/>
              <path id="Path_73798" data-name="Path 73798" d="M371.4,259.455v13.352a1.323,1.323,0,0,0,1.355,1.355h16.158a1.323,1.323,0,0,0,1.355-1.355V259.455a1.323,1.323,0,0,0-1.355-1.355H372.755A1.323,1.323,0,0,0,371.4,259.455Z" transform="translate(-256.067 -238.459)" fill="#d2edff"/>
              <path id="Path_73799" data-name="Path 73799" d="M372.755,293.619h16.158a1.323,1.323,0,0,0,1.355-1.355v-14.61a1.323,1.323,0,0,0-1.355-1.355H372.755a1.323,1.323,0,0,0-1.355,1.355v14.61A1.323,1.323,0,0,0,372.755,293.619Z" transform="translate(-256.067 -239.049)" fill="#d2edff"/>
              <path id="Path_73800" data-name="Path 73800" d="M314.155,293.619h14.32a1.323,1.323,0,0,0,1.355-1.355v-14.61a1.323,1.323,0,0,0-1.355-1.355h-14.32a1.323,1.323,0,0,0-1.355,1.355v14.61A1.323,1.323,0,0,0,314.155,293.619Z" transform="translate(-254.166 -239.049)" fill="#d2edff"/>
              <path id="Path_73801" data-name="Path 73801" d="M372.755,312.832h16.158a1.323,1.323,0,0,0,1.355-1.355V297.255a1.323,1.323,0,0,0-1.355-1.355H372.755a1.323,1.323,0,0,0-1.355,1.355v14.223A1.384,1.384,0,0,0,372.755,312.832Z" transform="translate(-256.067 -239.685)" fill="#d2edff"/>
              <path id="Path_73802" data-name="Path 73802" d="M275.055,293.619h14.32a1.323,1.323,0,0,0,1.355-1.355v-14.61a1.323,1.323,0,0,0-1.355-1.355h-14.32a1.323,1.323,0,0,0-1.355,1.355v14.61A1.323,1.323,0,0,0,275.055,293.619Z" transform="translate(-252.897 -239.049)" fill="#d2edff"/>
              <path id="Path_73803" data-name="Path 73803" d="M294.654,293.619h14.32a1.323,1.323,0,0,0,1.355-1.355v-14.61a1.323,1.323,0,0,0-1.355-1.355h-14.32a1.323,1.323,0,0,0-1.355,1.355v14.61A1.269,1.269,0,0,0,294.654,293.619Z" transform="translate(-253.533 -239.049)" fill="#d2edff"/>
              <path id="Path_73804" data-name="Path 73804" d="M275.055,274.161h14.32a1.323,1.323,0,0,0,1.355-1.355V259.455a1.323,1.323,0,0,0-1.355-1.355h-14.32a1.323,1.323,0,0,0-1.355,1.355v13.352A1.384,1.384,0,0,0,275.055,274.161Z" transform="translate(-252.897 -238.459)" fill="#d2edff"/>
            </g>
            <g id="Group_38539" data-name="Group 38539" transform="translate(15.689 60.691)">
              <text id="_1" data-name="1" transform="translate(21.885 5.453)" fill="#4893c1" font-size="4" font-family="SegoeUI, Segoe UI"><tspan x="0" y="0">1</tspan></text>
              <text id="_2" data-name="2" transform="translate(41.002 5.151)" fill="#4893c1" font-size="4" font-family="SegoeUI, Segoe UI"><tspan x="0" y="0">2</tspan></text>
              <text id="_3" data-name="3" transform="translate(59.664 5.453)" fill="#4893c1" font-size="4" font-family="SegoeUI, Segoe UI"><tspan x="0" y="0">3</tspan></text>
              <text id="_8" data-name="8" transform="translate(22.554 24.891)" fill="#4893c1" font-size="4" font-family="SegoeUI, Segoe UI"><tspan x="0" y="0">8</tspan></text>
              <text id="_9" data-name="9" transform="translate(41.216 25.193)" fill="#4893c1" font-size="4" font-family="SegoeUI, Segoe UI"><tspan x="0" y="0">9</tspan></text>
              <text id="_10" data-name="10" transform="translate(59.03 24.739)" fill="#4893c1" font-size="4" font-family="SegoeUI, Segoe UI"><tspan x="0" y="0">10</tspan></text>
              <text id="_15" data-name="15" transform="translate(21.554 42.048)" fill="#4893c1" font-size="4" font-family="SegoeUI, Segoe UI"><tspan x="0" y="0">15</tspan></text>
              <text id="_16" data-name="16" transform="translate(40.216 42.35)" fill="#4893c1" font-size="4" font-family="SegoeUI, Segoe UI"><tspan x="0" y="0">16</tspan></text>
              <text id="_17" data-name="17" transform="translate(59.03 41.896)" fill="#4893c1" font-size="4" font-family="SegoeUI, Segoe UI"><tspan x="0" y="0">17</tspan></text>
              <text id="_21" data-name="21" transform="translate(0 56.722)" fill="#4893c1" font-size="1" font-family="SegoeUI, Segoe UI"><tspan x="0" y="0">21</tspan></text>
              <g id="Component_25_1" data-name="Component 25 – 1" transform="translate(1 1)">
                <text id="_4" data-name="4" transform="translate(78.479 4)" fill="#4893c1" font-size="4" font-family="SegoeUI, Segoe UI"><tspan x="0" y="0">4</tspan></text>
                <text id="_5" data-name="5" transform="translate(97.444 4.453)" fill="#4893c1" font-size="4" font-family="SegoeUI, Segoe UI"><tspan x="0" y="0">5</tspan></text>
                <text id="_6" data-name="6" transform="translate(116.203 4.453)" fill="#4893c1" font-size="4" font-family="SegoeUI, Segoe UI"><tspan x="0" y="0">6</tspan></text>
                <text id="_7" data-name="7" transform="translate(0 24.193)" fill="#4893c1" font-size="4" font-family="SegoeUI, Segoe UI"><tspan x="0" y="0">7</tspan></text>
                <text id="_11" data-name="11" transform="translate(76.996 24.193)" fill="#4893c1" font-size="4" font-family="SegoeUI, Segoe UI"><tspan x="0" y="0">11</tspan></text>
                <text id="_12" data-name="12" transform="translate(95.754 24.193)" fill="#4893c1" font-size="4" font-family="SegoeUI, Segoe UI"><tspan x="0" y="0">12</tspan></text>
                <text id="_13" data-name="13" transform="translate(114.851 24.407)" fill="#4893c1" font-size="4" font-family="SegoeUI, Segoe UI"><tspan x="0" y="0">13</tspan></text>
                <text id="_14" data-name="14" transform="translate(0 41.35)" fill="#4893c1" font-size="4" font-family="SegoeUI, Segoe UI"><tspan x="0" y="0">14</tspan></text>
                <text id="_18" data-name="18" transform="translate(76.996 41.35)" fill="#4893c1" font-size="4" font-family="SegoeUI, Segoe UI"><tspan x="0" y="0">18</tspan></text>
                <text id="_19" data-name="19" transform="translate(95.754 41.35)" fill="#4893c1" font-size="4" font-family="SegoeUI, Segoe UI"><tspan x="0" y="0">19</tspan></text>
                <text id="_20" data-name="20" transform="translate(114.851 41.564)" fill="#4893c1" font-size="4" font-family="SegoeUI, Segoe UI"><tspan x="0" y="0">20</tspan></text>
                <text id="_22" data-name="22" transform="translate(20.554 59.42)" fill="#4893c1" font-size="4" font-family="SegoeUI, Segoe UI"><tspan x="0" y="0">22</tspan></text>
                <text id="_21-2" data-name="21" transform="translate(0.554 59.42)" fill="#4893c1" font-size="4" font-family="SegoeUI, Segoe UI"><tspan x="0" y="0">21</tspan></text>
                <text id="_23" data-name="23" transform="translate(39.216 59.722)" fill="#4893c1" font-size="4" font-family="SegoeUI, Segoe UI"><tspan x="0" y="0">23</tspan></text>
                <text id="_24" data-name="24" transform="translate(58.03 59.269)" fill="#4893c1" font-size="4" font-family="SegoeUI, Segoe UI"><tspan x="0" y="0">24</tspan></text>
                <text id="_25" data-name="25" transform="translate(76.996 59.722)" fill="#4893c1" font-size="4" font-family="SegoeUI, Segoe UI"><tspan x="0" y="0">25</tspan></text>
                <text id="_26" data-name="26" transform="translate(95.312 59.474)" fill="#4893c1" font-size="4" font-family="SegoeUI, Segoe UI"><tspan x="0" y="0">26</tspan></text>
                <text id="_27" data-name="27" transform="translate(114.851 59.937)" fill="#4893c1" font-size="4" font-family="SegoeUI, Segoe UI"><tspan x="0" y="0">27</tspan></text>
              </g>
            </g>
            <path id="Path_73805" data-name="Path 73805" d="M396.735,218.283H240.764c-.581,0-1.064-.178-1.064-.392h0c0-.214.484-.392,1.064-.392h155.97c.581,0,1.064.178,1.064.392h0C397.8,218.105,397.315,218.283,396.735,218.283Z" transform="translate(-236.991 -176.19)" fill="#fd5675"/>
            <g id="Component_23_1" data-name="Component 23 – 1" transform="translate(60.329 26.419)">
              <text id="NOVEMBER" transform="translate(0 9)" fill="#4893c1" font-size="8" font-family="SegoeUI-Bold, Segoe UI" font-weight="700"><tspan x="0" y="0">NOVEMBER</tspan></text>
            </g>
            <g id="Component_22_3" data-name="Component 22 – 3" transform="translate(21.683 45.165)">
              <text id="S" transform="translate(0 10)" fill="#fd5675" font-size="9" font-family="SegoeUI, Segoe UI"><tspan x="0" y="0">S</tspan></text>
              <text id="M" transform="translate(18.006 10)" fill="#fd5675" font-size="9" font-family="SegoeUI, Segoe UI"><tspan x="0" y="0">M</tspan></text>
              <text id="T" transform="translate(38.046 10)" fill="#fd5675" font-size="9" font-family="SegoeUI, Segoe UI"><tspan x="0" y="0">T</tspan></text>
              <text id="W" transform="translate(55.041 10)" fill="#fd5675" font-size="9" font-family="SegoeUI, Segoe UI"><tspan x="0" y="0">W</tspan></text>
              <text id="T-2" data-name="T" transform="translate(75.855 10)" fill="#fd5675" font-size="9" font-family="SegoeUI, Segoe UI"><tspan x="0" y="0">T</tspan></text>
              <text id="F" transform="translate(95.536 10)" fill="#fd5675" font-size="9" font-family="SegoeUI, Segoe UI"><tspan x="0" y="0">F</tspan></text>
              <text id="S-2" data-name="S" transform="translate(114.296 10)" fill="#fd5675" font-size="9" font-family="SegoeUI, Segoe UI"><tspan x="0" y="0">S</tspan></text>
            </g>
            <g id="Group_38540" data-name="Group 38540" transform="translate(18.674)">
              <path id="Path_73806" data-name="Path 73806" d="M262.562,175.5a9.462,9.462,0,1,0,0,18.925h.075v-1.5h-.075a8.036,8.036,0,1,1,8.036-8.036v.451h1.5v-.451A9.569,9.569,0,0,0,262.562,175.5Z" transform="translate(-253.1 -172.5)" fill="#fd5675"/>
            </g>
            <g id="Group_38541" data-name="Group 38541" transform="translate(53.41)">
              <path id="Path_73807" data-name="Path 73807" d="M298.462,175.5a9.462,9.462,0,0,0,0,18.925h.075v-1.5h-.075a8.036,8.036,0,1,1,8.036-8.036v.451H308v-.451A9.472,9.472,0,0,0,298.462,175.5Z" transform="translate(-289 -172.5)" fill="#fd5675"/>
            </g>
            <g id="Group_38542" data-name="Group 38542" transform="translate(88.502 3.252)">
              <path id="Path_73808" data-name="Path 73808" d="M334.462,175.5a9.462,9.462,0,1,0,0,18.925h.075v-1.5h-.075a8.036,8.036,0,1,1,8.036-8.036v.451H344v-.451A9.569,9.569,0,0,0,334.462,175.5Z" transform="translate(-325 -175.5)" fill="#fd5675"/>
            </g>
            <g id="Group_38543" data-name="Group 38543" transform="translate(122.977 3)">
              <path id="Path_73809" data-name="Path 73809" d="M370.362,175.5a9.462,9.462,0,0,0,0,18.925h.075v-1.5h-.075a8.036,8.036,0,1,1,8.036-8.036v.451h1.5v-.451A9.472,9.472,0,0,0,370.362,175.5Z" transform="translate(-360.9 -175.5)" fill="#fd5675"/>
            </g>
            <path id="Path_73810" data-name="Path 73810" d="M287.086,206.1l-3.1,2.516a.827.827,0,0,0,0,1.258l3.1,2.516" transform="translate(-238.418 -176.493)" fill="none" stroke="#4893c1" stroke-linecap="round" stroke-miterlimit="10" stroke-width="1"/>
            <path id="Path_73811" data-name="Path 73811" d="M355.8,206.1l3.1,2.516a.827.827,0,0,1,0,1.258l-3.1,2.516" transform="translate(-240.757 -176.493)" fill="none" stroke="#4893c1" stroke-linecap="round" stroke-miterlimit="10" stroke-width="1"/>
          </g>
          <g id="Group_38545" data-name="Group 38545" transform="translate(256.306 249.328)">
            <path id="Path_73812" data-name="Path 73812" d="M386.06,323.231H348.905a.814.814,0,0,1-.677-.387l-7.547-13.159a.822.822,0,0,0-1.451,0l-7.547,13.159a.648.648,0,0,1-.677.387H293.948a1.528,1.528,0,0,0-1.548,1.548v57.086a1.528,1.528,0,0,0,1.548,1.548H386.06a1.528,1.528,0,0,0,1.548-1.548V324.779A1.528,1.528,0,0,0,386.06,323.231Z" transform="translate(-292.4 -309.25)" fill="#64c1ff"/>
            <path id="Path_73813" data-name="Path 73813" d="M318,336.45A7.483,7.483,0,0,0,310.16,329a7.653,7.653,0,0,0-7.16,7.353,7.473,7.473,0,0,0,2.612,5.805,10.963,10.963,0,0,1,2.129,2.612,27.848,27.848,0,0,1,2.129,4.741.706.706,0,0,0,1.355,0,35.863,35.863,0,0,1,2.032-4.644,9.788,9.788,0,0,1,2.225-2.709A8.215,8.215,0,0,0,318,336.45Z" transform="translate(-292.744 -309.89)" fill="#fd5675"/>
            <circle id="Ellipse_1605" data-name="Ellipse 1605" cx="4.064" cy="4.064" r="4.064" transform="translate(13.643 22.302)" fill="#fcfcfc"/>
            <circle id="Ellipse_1606" data-name="Ellipse 1606" cx="1.838" cy="1.838" r="1.838" transform="translate(15.868 24.528)" fill="#f25353"/>
            <g id="Component_24_1" data-name="Component 24 – 1" transform="translate(35.302 18.754)">
              <text id="_10.10_PM" data-name="10.10 PM" transform="translate(0 5)" fill="#fff" font-size="5" font-family="SegoeUI, Segoe UI"><tspan x="0" y="0">10.10 PM</tspan></text>
            </g>
            <path id="Path_73814" data-name="Path 73814" d="M380.326,357.861H298.181a.558.558,0,0,1-.581-.581h0a.558.558,0,0,1,.581-.581h82.146a.558.558,0,0,1,.581.581h0C380.81,357.571,380.616,357.861,380.326,357.861Z" transform="translate(-292.569 -310.789)" fill="#fd5675"/>
            <path id="Path_73815" data-name="Path 73815" d="M375.282,341.048H330.774a.763.763,0,0,1-.774-.774h0a.763.763,0,0,1,.774-.774h44.508a.763.763,0,0,1,.774.774h0A.832.832,0,0,1,375.282,341.048Z" transform="translate(-293.62 -310.231)" fill="#fcfcfc"/>
            <path id="Path_73816" data-name="Path 73816" d="M360.481,348.848H330.874a.763.763,0,0,1-.774-.774h0a.763.763,0,0,1,.774-.774h29.607a.763.763,0,0,1,.774.774h0C361.159,348.558,360.868,348.848,360.481,348.848Z" transform="translate(-293.623 -310.484)" fill="#fcfcfc"/>
            <path id="Path_73817" data-name="Path 73817" d="M334.881,365.748H305.274a.763.763,0,0,1-.774-.774h0a.763.763,0,0,1,.774-.774h29.607a.763.763,0,0,1,.774.774h0A.832.832,0,0,1,334.881,365.748Z" transform="translate(-292.793 -311.033)" fill="#fcfcfc"/>
            <path id="Path_73818" data-name="Path 73818" d="M356.845,372.348H305.274a.763.763,0,0,1-.774-.774h0a.763.763,0,0,1,.774-.774h51.571a.763.763,0,0,1,.774.774h0A.763.763,0,0,1,356.845,372.348Z" transform="translate(-292.792 -311.247)" fill="#fcfcfc"/>
            <path id="Path_73819" data-name="Path 73819" d="M356.845,379.548H305.274a.763.763,0,0,1-.774-.774h0a.763.763,0,0,1,.774-.774h51.571a.763.763,0,0,1,.774.774h0A.832.832,0,0,1,356.845,379.548Z" transform="translate(-292.792 -311.48)" fill="#fcfcfc"/>
          </g>
          <g id="Group_38546" data-name="Group 38546" transform="translate(312.812 61.96)">
            <path id="Path_73979" data-name="Path 73979" d="M22.351,0A22.351,22.351,0,1,1,0,22.351,22.351,22.351,0,0,1,22.351,0Z" transform="translate(2.903 2.903)" fill="#d2edff"/>
            <path id="Path_73820" data-name="Path 73820" d="M376.053,166.107a25.253,25.253,0,1,1,25.253-25.253A25.271,25.271,0,0,1,376.053,166.107Zm0-44.7A19.448,19.448,0,1,0,395.5,140.853,19.449,19.449,0,0,0,376.053,121.405Z" transform="translate(-350.8 -115.6)" fill="#fd5675"/>
          </g>
          <g id="Group_38547" data-name="Group 38547" transform="translate(327.415 69.507)">
            <path id="Path_73821" data-name="Path 73821" d="M368.4,149.9l8.321-7.063V125.9" transform="translate(-365.974 -123.481)" fill="#f2d3e1"/>
            <path id="Path_73822" data-name="Path 73822" d="M368.319,152.233a2.383,2.383,0,0,1-1.838-.871,2.345,2.345,0,0,1,.29-3.386l7.45-6.386V125.819a2.419,2.419,0,0,1,4.838,0v18l-9.192,7.837A2.372,2.372,0,0,1,368.319,152.233Z" transform="translate(-365.892 -123.4)" fill="#fd5675"/>
          </g>
          <g id="Group_38553" data-name="Group 38553" transform="translate(196.995 62.444)">
            <path id="Path_73823" data-name="Path 73823" d="M333.679,119.5H239.051a1.488,1.488,0,0,0-1.451,1.451v43.637a1.488,1.488,0,0,0,1.451,1.451h94.627a1.488,1.488,0,0,0,1.451-1.451V120.951A1.425,1.425,0,0,0,333.679,119.5Z" transform="translate(-231.311 -116.21)" fill="#fcfcfc"/>
            <g id="Group_38552" data-name="Group 38552">
              <g id="Group_38548" data-name="Group 38548">
                <rect id="Rectangle_6363" data-name="Rectangle 6363" width="33.574" height="23.512" fill="#b3b23d"/>
              </g>
              <g id="Group_38549" data-name="Group 38549" transform="translate(0.309 0.405)">
                <path id="Path_73824" data-name="Path 73824" d="M247.849,130.917l-16.158-13.159a.688.688,0,0,1,.871-1.064l15.287,12.482,15.287-12.482a.688.688,0,0,1,.871,1.064Z" transform="translate(-231.419 -116.519)" fill="#9e9d2a"/>
              </g>
              <g id="Group_38550" data-name="Group 38550" transform="translate(0.383 8.414)">
                <path id="Path_73825" data-name="Path 73825" d="M232.177,139.41a.582.582,0,0,1-.387-.1.75.75,0,0,1-.194-.968l9.289-13.256a.7.7,0,1,1,1.161.774l-9.289,13.255A.69.69,0,0,1,232.177,139.41Z" transform="translate(-231.496 -124.796)" fill="#9e9d2a"/>
              </g>
              <g id="Group_38551" data-name="Group 38551" transform="translate(22.804 8.387)">
                <path id="Path_73826" data-name="Path 73826" d="M264.665,139.409a.69.69,0,0,1-.581-.29L254.8,125.863a.7.7,0,0,1,1.161-.774l9.289,13.256a.662.662,0,0,1-.194.968A.581.581,0,0,1,264.665,139.409Z" transform="translate(-254.669 -124.769)" fill="#9e9d2a"/>
              </g>
            </g>
            <path id="Path_73827" data-name="Path 73827" d="M328.65,135.07H272.435a1.941,1.941,0,0,1-1.935-1.935h0a1.941,1.941,0,0,1,1.935-1.935H328.65a1.941,1.941,0,0,1,1.935,1.935h0A1.941,1.941,0,0,1,328.65,135.07Z" transform="translate(-232.378 -116.59)" fill="#cee4ef"/>
            <path id="Path_73828" data-name="Path 73828" d="M328.845,150.155H244.377a.661.661,0,0,1-.677-.677h0a.661.661,0,0,1,.677-.677h84.468a.661.661,0,0,1,.677.677h0A.661.661,0,0,1,328.845,150.155Z" transform="translate(-231.509 -117.161)" fill="#cee4ef"/>
          </g>
          <path id="Path_73829" data-name="Path 73829" d="M328.845,157.155H244.377a.661.661,0,0,1-.677-.677h0a.661.661,0,0,1,.677-.677h84.468a.661.661,0,0,1,.677.677h0A.661.661,0,0,1,328.845,157.155Z" transform="translate(-34.514 -54.944)" fill="#cee4ef"/>
          <g id="Group_38580" data-name="Group 38580" transform="translate(50.645 13.099)">
            <g id="Group_38555" data-name="Group 38555" transform="translate(267.972 336.807)">
              <circle id="Ellipse_1609" data-name="Ellipse 1609" cx="5.805" cy="5.805" r="5.805" fill="#e9e9ff"/>
            </g>
            <g id="Group_38556" data-name="Group 38556" transform="translate(278.787 7.219)">
              <circle id="Ellipse_1610" data-name="Ellipse 1610" cx="4.161" cy="4.161" r="4.161" fill="#fcfcfc"/>
            </g>
            <g id="Group_38557" data-name="Group 38557" transform="translate(67.235 23.862)">
              <circle id="Ellipse_1611" data-name="Ellipse 1611" cx="4.838" cy="4.838" r="4.838" fill="#b3b23d"/>
            </g>
            <g id="Group_38559" data-name="Group 38559" transform="translate(312.93 311.071)">
              <g id="Group_38558" data-name="Group 38558" transform="translate(0)">
                <path id="Path_73830" data-name="Path 73830" d="M422.107,412.914a14.707,14.707,0,1,1,14.707-14.707A14.7,14.7,0,0,1,422.107,412.914Zm0-27.866A13.256,13.256,0,1,0,435.362,398.3,13.276,13.276,0,0,0,422.107,385.048Z" transform="translate(-407.4 -383.5)" fill="#b3b23d"/>
              </g>
            </g>
            <g id="Group_38561" data-name="Group 38561" transform="translate(233.043 357.997)">
              <g id="Group_38560" data-name="Group 38560">
                <path id="Path_73831" data-name="Path 73831" d="M335.407,464.514a14.707,14.707,0,1,1,14.707-14.707A14.7,14.7,0,0,1,335.407,464.514Zm0-27.962a13.256,13.256,0,1,0,13.256,13.256A13.276,13.276,0,0,0,335.407,436.551Z" transform="translate(-320.7 -435.1)" fill="#e9e9ff"/>
              </g>
            </g>
            <g id="Group_38563" data-name="Group 38563" transform="translate(113.926 -44.667)">
              <g id="Group_38562" data-name="Group 38562">
                <path id="Path_73832" data-name="Path 73832" d="M146.574,89.848a12.374,12.374,0,1,1,12.374-12.374A12.368,12.368,0,0,1,146.574,89.848Zm0-23.445a11.153,11.153,0,1,0,11.153,11.153A11.17,11.17,0,0,0,146.574,66.4Z" transform="translate(-134.2 -65.1)" fill="#fff"/>
              </g>
            </g>
            <g id="Group_38569" data-name="Group 38569" transform="translate(331.216 36.693)">
              <g id="Group_38567" data-name="Group 38567" transform="translate(0 0)">
                <rect id="Rectangle_6366" data-name="Rectangle 6366" width="3.007" height="13.231" transform="translate(0 2.126) rotate(-45)" fill="#226a9a"/>
              </g>
              <g id="Group_38568" data-name="Group 38568" transform="translate(0 0.002)">
                <rect id="Rectangle_6367" data-name="Rectangle 6367" width="13.231" height="3.007" transform="translate(0 9.356) rotate(-45)" fill="#226a9a"/>
              </g>
            </g>
            <g id="Group_38579" data-name="Group 38579" transform="translate(13 60.426)">
              <g id="Group_38576" data-name="Group 38576" transform="translate(0 0.113)">
                <g id="Group_38575" data-name="Group 38575" transform="translate(0 0)">
                  <rect id="Rectangle_6370" data-name="Rectangle 6370" width="2.573" height="23.159" transform="translate(0 1.82) rotate(-45)" fill="#b3b23d"/>
                </g>
              </g>
              <g id="Group_38578" data-name="Group 38578" transform="translate(0 0)">
                <g id="Group_38577" data-name="Group 38577">
                  <rect id="Rectangle_6371" data-name="Rectangle 6371" width="23.159" height="2.573" transform="translate(0 16.376) rotate(-45)" fill="#b3b23d"/>
                </g>
              </g>
            </g>
          </g>
          <g id="Group_38597" data-name="Group 38597" transform="translate(65.814 133.144)">
            <path id="Path_73833" data-name="Path 73833" d="M275.138,383.777c-.29-4.064-2.032-7.934-3.967-11.514-7.063-13.546-16.836-25.544-23.221-39.477-4.451-9.676-7.063-20.028-11.514-29.607-3.483-7.644-8.418-15-15.191-19.835-2.806-2.032-7.353-3.58-11.03-4.354l-2.322-.29c-1.451,15,5.031,30.672,9.579,45.088,7.257,23.318,15.191,47.41,32.123,64.923,2.806,2.9,5.9,5.612,9.676,7.063s8.321,1.355,11.514-1.064C274.074,392.195,275.429,387.841,275.138,383.777Z" transform="translate(-99.16 -192.075)" fill="#ffb088"/>
            <path id="Path_73834" data-name="Path 73834" d="M201.733,276.757c-3-.774-5.225-1.838-8.321-1.258l-27.672-3a232.3,232.3,0,0,0-31.929,10.45c4.451.871,7.547,5.418,9.385,9.579,2.032,4.644,1.645,9.289,1.451,14.513a59.766,59.766,0,0,1-10.45,31.349c-3,4.451-2.419,9.192-1.451,14.417a22.436,22.436,0,0,0,3.58,8.9c5.709,8.224.484,19.351-3.386,28.156A22.1,22.1,0,0,0,131.2,394.9a5.083,5.083,0,0,0,3.193,5.612c12.385,3.87,54.377,5.322,77.5.871,2.709-.484,6.773-.581,7.547-1.258,2.516-2.516,1.161-11.417.581-15-3-17.9,1.935-23.9,6.579-35.9C238.21,319.814,232.114,284.5,201.733,276.757Z" transform="translate(-96.676 -191.874)" fill="#fd5675"/>
            <path id="Path_73835" data-name="Path 73835" d="M200.574,271.795a6.418,6.418,0,0,0-.968-3.58c-1.064-1.258-2.9-1.548-4.548-1.645l-24-3.58a2.505,2.505,0,0,0-3,.484,6.237,6.237,0,0,0-1.742,2.709,29.991,29.991,0,0,0-2.322,9.1c4.741,4.644,10.837,8.224,17.513,9.192a31.246,31.246,0,0,0,19.351-3.483C200.574,277.793,200.767,274.891,200.574,271.795Z" transform="translate(-97.743 -191.556)" fill="#fd5675"/>
            <path id="Path_73836" data-name="Path 73836" d="M201.578,276.1S198.1,281.325,189,281.325c0,0,40.347,18.287,47.314,33.574C236.41,314.9,232.734,283.744,201.578,276.1Z" transform="translate(-98.554 -191.991)" fill="#fd5675"/>
            <path id="Path_73837" data-name="Path 73837" d="M216.469,228.226c-2.225,1.838-3.386,4.741-4.064,7.547s-.968,5.805-1.742,8.611a23.5,23.5,0,0,1-14.417,15.481,91.438,91.438,0,0,0-.774,10.256,22.862,22.862,0,0,1-15.384,1.935c-3.774-.871-7.547-2.9-9.289-6.386l8.515-41.8s10.45-22.254,26.995-13.836C222.758,218.357,216.469,228.226,216.469,228.226Z" transform="translate(-97.963 -189.786)" fill="#ffb088"/>
            <path id="Path_73838" data-name="Path 73838" d="M194.277,214.221,193.5,215a69.446,69.446,0,0,1-15.094,10.837h0l-5.709-3.29c.194-3.29.484-6.579.677-9.869a17.3,17.3,0,0,1,3.1-8.9,10.942,10.942,0,0,1,.968-1.258c10.837-13.352,34.542-10.063,44.121,3.1,4.354,6,5.128,14.417.1,20.319-2.612,3-7.45,4.354-10.933,2.419,1.258,0,2.225-1.258,2.709-2.419a15.55,15.55,0,0,1-11.03-.774,19.213,19.213,0,0,0,6.289-6.773c-5.515,4.354-12.191,5.805-18.771,3.193l.871-.677a8.811,8.811,0,0,0,3.483-6.676Z" transform="translate(-98.025 -189.327)" fill="#24354d"/>
            <path id="Path_73839" data-name="Path 73839" d="M167.921,190.36a18.805,18.805,0,0,0-16.255,1.451,16.322,16.322,0,0,0-7.74,14.126c.1,2.612.871,5.225,1.161,7.837s-.1,5.515-1.935,7.45c-1.645,1.742-4.161,2.322-6.386,3.386a12.48,12.48,0,0,0-6.483,6.483c-1.064,2.9-.484,6.579,1.838,8.611,2.032,1.838,5.322,2.419,6.386,4.935.677,1.645.193,3.677-.581,5.322a16.491,16.491,0,0,0-1.935,5.128c-.387,3.58,2.806,6.87,6.386,7.547s7.257-.774,10.159-3c3.87-2.9,7.354-6.676,7.741-11.514.194-2.516-.194-5.515,1.742-7.257,1.064-.968,2.709-1.258,3.773-2.225,1.935-1.548,2.129-4.257,3-6.579a12.6,12.6,0,0,1,6.966-7.45l4.451-23.028A23.216,23.216,0,0,0,167.921,190.36Z" transform="translate(-96.632 -189.171)" fill="#24354d"/>
            <path id="Path_73840" data-name="Path 73840" d="M132.752,283.2s-32.994,21.964-36.767,71.019c-3.773,49.152,16.739,47.6,16.739,47.6s17.126.387,35.413-37.348l17.126-34.929,5.128-6.579s9.579,1.161,12.482-5.805c0,0,1.451.677,2.322.194a2.879,2.879,0,0,0,2.225,3.58c3.1.968,5.128-.484,5.515-1.355a9.6,9.6,0,0,0,.29-3s3.967-.967,4.451-3.677l.29-1.548s3.774-1.838,3.483-4.838-3.386-4.644-6.192-5.612l12.869-2.806s5.805-.29,6.483-1.258-1.258-2.9-6.1-3.1-24.092,2.709-24.092,2.709-13.643,8.128-16.836,11.321-36.961,39.863-36.961,39.863,14.8-28.156,13.643-46.056S132.752,283.2,132.752,283.2Z" transform="translate(-95.521 -192.221)" fill="#ffb088"/>
            <g id="Group_38581" data-name="Group 38581" transform="translate(91.887 106.962)">
              <path id="Path_73841" data-name="Path 73841" d="M201.433,302.8c-.29.387-2.516-.871-5.418-1.355-2.9-.581-5.418-.194-5.515-.581-.1-.194.484-.581,1.548-.871a10.2,10.2,0,0,1,4.257-.1,9.433,9.433,0,0,1,3.967,1.645C201.143,302.023,201.53,302.6,201.433,302.8Z" transform="translate(-190.489 -299.719)" fill="#e89470"/>
            </g>
            <g id="Group_38582" data-name="Group 38582" transform="translate(94.12 112.168)">
              <path id="Path_73842" data-name="Path 73842" d="M201.121,312.26c-.29.193-1.645-1.838-3.967-3.774-2.225-1.935-4.451-3-4.354-3.29.1-.194.677-.1,1.645.29a12.943,12.943,0,0,1,3.483,2.129,13.835,13.835,0,0,1,2.612,3.1C201.024,311.486,201.218,312.163,201.121,312.26Z" transform="translate(-192.797 -305.1)" fill="#e89470"/>
            </g>
            <g id="Group_38583" data-name="Group 38583" transform="translate(100.111 114.877)">
              <path id="Path_73843" data-name="Path 73843" d="M202.193,308c.1.194-.581.58-1.451.967s-1.548.581-1.742.387c-.1-.193.484-.774,1.355-1.064C201.322,307.9,202.1,307.8,202.193,308Z" transform="translate(-198.989 -307.9)" fill="#e89470"/>
            </g>
            <g id="Group_38584" data-name="Group 38584" transform="translate(91.898 117.127)">
              <path id="Path_73844" data-name="Path 73844" d="M196.4,317.651c-.194.1-.484-.484-.871-1.258a19.013,19.013,0,0,0-1.645-2.9,8.043,8.043,0,0,0-2.225-2.225c-.677-.484-1.161-.677-1.161-.871s.677-.29,1.548.1a6.15,6.15,0,0,1,2.9,2.322,8.565,8.565,0,0,1,1.451,3.29C196.6,316.974,196.6,317.554,196.4,317.651Z" transform="translate(-190.5 -310.225)" fill="#e89470"/>
            </g>
            <g id="Group_38585" data-name="Group 38585" transform="translate(96.832 120.909)">
              <path id="Path_73845" data-name="Path 73845" d="M198.5,314.295c.1.193-.484.58-1.355.774s-1.548,0-1.548-.29c0-.194.677-.387,1.355-.581C197.825,314.1,198.406,314.1,198.5,314.295Z" transform="translate(-195.6 -314.134)" fill="#e89470"/>
            </g>
            <g id="Group_38586" data-name="Group 38586" transform="translate(89.382 123.867)">
              <path id="Path_73846" data-name="Path 73846" d="M191.867,320.393c-.1,0-.194-.387-.387-.871a2.58,2.58,0,0,0-1.258-1.451,1.673,1.673,0,0,0-.968-.1,1.559,1.559,0,0,0-.677.387,2.7,2.7,0,0,0-.484.774c-.1,0-.1-.1-.194-.29a1.3,1.3,0,0,1,.194-.774,2.021,2.021,0,0,1,.968-.774,2.147,2.147,0,0,1,1.548.1,2.1,2.1,0,0,1,1.064.968,2.87,2.87,0,0,1,.387,1.064C192.157,320.006,191.964,320.393,191.867,320.393Z" transform="translate(-187.9 -317.191)" fill="#e89470"/>
            </g>
            <path id="Path_73847" data-name="Path 73847" d="M228.756,283.273,206.7,333.3a1.518,1.518,0,0,0,.484,1.838l1.935,1.451a1.561,1.561,0,0,0,.871.29l26.027.193a1.517,1.517,0,0,0,1.355-.871l21.77-50.313a1.568,1.568,0,0,0-1.258-2.129L230.207,282.5A1.365,1.365,0,0,0,228.756,283.273Z" transform="translate(-99.123 -192.198)" fill="#b5daf4"/>
            <g id="Group_38587" data-name="Group 38587" transform="translate(110.164 93.589)">
              <path id="Path_73848" data-name="Path 73848" d="M209.4,333.407c-.194-.1.968-2.806,3-6.966,2.032-4.257,4.741-10.159,7.547-16.642,2.806-6.579,5.322-12.578,7.063-16.932s2.9-7.063,3.1-6.966-.484,2.9-2.032,7.353c-1.451,4.451-3.773,10.546-6.579,17.126-2.9,6.579-5.805,12.385-8.031,16.545S209.593,333.5,209.4,333.407Z" transform="translate(-209.378 -285.897)" fill="#d5f7f4"/>
            </g>
            <path id="Path_73849" data-name="Path 73849" d="M235.761,289.409c-.387,1.548-1.548,2.709-2.709,2.709-1.064,0-1.645-1.258-1.355-2.709.387-1.548,1.548-2.709,2.709-2.709C235.568,286.6,236.148,287.861,235.761,289.409Z" transform="translate(-99.936 -192.335)" fill="#4d6f84"/>
            <path id="Path_73850" data-name="Path 73850" d="M239.822,288.661a1.541,1.541,0,0,1-1.451,1.161.907.907,0,0,1-.871-1.161,1.541,1.541,0,0,1,1.451-1.161A.916.916,0,0,1,239.822,288.661Z" transform="translate(-100.127 -192.361)" fill="#4d6f84"/>
            <g id="Group_38593" data-name="Group 38593" transform="translate(93.252 35.725)">
              <g id="Group_38588" data-name="Group 38588" transform="translate(9.072 6.277)">
                <path id="Path_73851" data-name="Path 73851" d="M205.266,232.793a81.755,81.755,0,0,1,1.258,9.772c.1,1.258.1,2.709-1.161,3.386-1.161.677-2.612.387-3.87.1-.387-.1-.193-.677.1-.581,1.161.29,2.709.677,3.677-.29s.581-2.806.484-3.967a79.686,79.686,0,0,0-1.064-8.224c0-.387.484-.581.58-.194Z" transform="translate(-201.276 -232.582)" fill="#f27766"/>
              </g>
              <g id="Group_38589" data-name="Group 38589">
                <path id="Path_73852" data-name="Path 73852" d="M201.189,229.777a13.253,13.253,0,0,0-9-3.1.29.29,0,0,1,0-.581,14.177,14.177,0,0,1,9.482,3.29c.29.194-.1.677-.484.387Z" transform="translate(-191.9 -226.094)" fill="#684430"/>
              </g>
              <g id="Group_38590" data-name="Group 38590" transform="translate(0.536 18.85)">
                <path id="Path_73853" data-name="Path 73853" d="M202.464,250.631a12.426,12.426,0,0,1-9.966-4.644c-.194-.29.29-.581.484-.29a11.8,11.8,0,0,0,9.482,4.354c.29-.1.387.581,0,.581Z" transform="translate(-192.454 -245.576)" fill="#f27766"/>
              </g>
              <g id="Group_38591" data-name="Group 38591" transform="translate(2.909 22.788)">
                <path id="Path_73854" data-name="Path 73854" d="M199.932,252.794A7.989,7.989,0,0,1,195,250.182c-.29-.29.193-.677.387-.484a7.518,7.518,0,0,0,4.741,2.419c.29.193.194.774-.193.677Z" transform="translate(-194.906 -249.646)" fill="#f27766"/>
              </g>
              <ellipse id="Ellipse_1612" data-name="Ellipse 1612" cx="2.032" cy="1.355" rx="2.032" ry="1.355" transform="matrix(0.3, -0.954, 0.954, 0.3, 3.221, 8.337)" fill="#684430"/>
              <g id="Group_38592" data-name="Group 38592" transform="translate(13.944 3.094)">
                <path id="Path_73855" data-name="Path 73855" d="M213.654,230.267a9.9,9.9,0,0,0-6.87.484c-.387.193-.677-.387-.29-.484a10.457,10.457,0,0,1,7.257-.581c.387.1.29.677-.1.581Z" transform="translate(-206.311 -229.292)" fill="#684430"/>
              </g>
              <ellipse id="Ellipse_1613" data-name="Ellipse 1613" cx="2.032" cy="1.355" rx="2.032" ry="1.355" transform="matrix(0.3, -0.954, 0.954, 0.3, 15.46, 10.318)" fill="#684430"/>
            </g>
            <path id="Path_73856" data-name="Path 73856" d="M178.073,235.171c-2.516,1.258-5.515.1-7.547-1.838-3.193-3.1-2.612-8.224-.1-10.159,3-2.322,7.644.871,8.611,3.677C180.009,229.753,179.235,232.365,178.073,235.171Z" transform="translate(-97.883 -190.248)" fill="#ffb088"/>
            <path id="Path_73857" data-name="Path 73857" d="M184.6,256.878c-3.967-4.064-5.515-9.869-5.515-15.578a22.328,22.328,0,0,0,3.87,17.9,21.915,21.915,0,0,0,12.965,8.224c.1-2.225.29-4.354.581-6.483A14.7,14.7,0,0,1,184.6,256.878Z" transform="translate(-98.216 -190.862)" fill="#ef926a"/>
            <path id="Path_73858" data-name="Path 73858" d="M250.226,381.51a140.1,140.1,0,0,1-10.256-42.96c-.387-5.321-4.161-10.353-3.677-15.578-3.87-1.742-8.611-2.516-12.675-1.064a5.1,5.1,0,0,1-1.161.29.929.929,0,0,1-.871-.677c-.1-.484.387-.968.774-1.258a24.537,24.537,0,0,1,10.256-3.87c-1.355-1.064-3.386-.871-5.128-.484s-3.483,1.064-5.225.677a1.328,1.328,0,0,1-1.064-.774c-.1-.484.29-.774.677-1.064a19.162,19.162,0,0,1,7.353-3.193c-1.258,0-3-.1-4.257-.1-.387,0-.871-.1-.967-.484s.29-.677.677-.871a27.681,27.681,0,0,1,18.867-2.129,17,17,0,0,1-2.806-3.58,61.563,61.563,0,0,1-6.773-3.193c-.774-.484-1.742-1.258-1.451-2.129s1.548-.871,2.516-.677a30.956,30.956,0,0,1,10.546,3.58c3.193,1.935,5.805,5.225,6,9,.484,6.676.968,14.513,0,21.093,0,0,15.287,23.9,18.384,32.413s10.546,22.254,1.161,31.059C261.837,404.054,250.226,381.51,250.226,381.51Z" transform="translate(-99.598 -192.711)" fill="#ffb088"/>
            <path id="Path_73859" data-name="Path 73859" d="M251.194,384.29l.193.387c-.193-.29-.29-.581-.387-.677C251.1,384.1,251.194,384.194,251.194,384.29Z" transform="translate(-100.565 -195.491)" fill="#ffb088"/>
            <path id="Path_73860" data-name="Path 73860" d="M242.225,337.627a146.455,146.455,0,0,0,8.224,43.83,140.515,140.515,0,0,1-9.869-42.089c-.29-4.354-2.9-8.611-3.58-12.869l1.355,3.483a33.41,33.41,0,0,0,3.87,7.644Z" transform="translate(-100.111 -193.626)" fill="#ef926a"/>
            <g id="Group_38594" data-name="Group 38594" transform="translate(131.664 114.103)">
              <path id="Path_73861" data-name="Path 73861" d="M231.6,307.971a5.406,5.406,0,0,1,2.516-.677,22.538,22.538,0,0,1,2.806-.193,23.034,23.034,0,0,1,3.483.29,17.325,17.325,0,0,1,3.386.871c.968.387,1.935.774,2.612,1.064,1.451.774,2.225,1.355,2.129,1.451a14.636,14.636,0,0,1-2.419-.968q-1.161-.435-2.612-.871a27.485,27.485,0,0,0-3.29-.774,20.892,20.892,0,0,0-3.387-.29h-2.709A12.534,12.534,0,0,1,231.6,307.971Z" transform="translate(-231.6 -307.1)" fill="#e89470"/>
            </g>
            <g id="Group_38595" data-name="Group 38595" transform="translate(129.536 117.901)">
              <path id="Path_73862" data-name="Path 73862" d="M229.4,311.775a3.944,3.944,0,0,1,1.838-.581,13.183,13.183,0,0,1,4.741.1,13.965,13.965,0,0,1,4.451,1.548c1.064.581,1.645,1.064,1.548,1.161-.1.193-2.612-1.355-6.1-1.935C232.3,311.485,229.4,312.065,229.4,311.775Z" transform="translate(-229.4 -311.025)" fill="#e89470"/>
            </g>
            <g id="Group_38596" data-name="Group 38596" transform="translate(131.757 122.84)">
              <path id="Path_73863" data-name="Path 73863" d="M231.7,316.2c0-.194,1.935,0,4.064.871s3.58,2.032,3.483,2.225-1.742-.581-3.773-1.451C233.345,316.972,231.6,316.391,231.7,316.2Z" transform="translate(-231.696 -316.129)" fill="#e89470"/>
            </g>
            <path id="Path_73864" data-name="Path 73864" d="M163.96,273.1s3.1,5.031,12.385,7.547c0,0-8.321,2.032-19.545-5.612Z" transform="translate(-97.509 -191.894)" fill="#f23d5e"/>
            <path id="Path_73865" data-name="Path 73865" d="M108.2,373.67c7.934-8.224,15.868-16.545,23.8-24.77C123.2,356.447,113.715,362.736,108.2,373.67Z" transform="translate(-95.932 -194.353)" fill="#ef926a"/>
          </g>
          <g id="Group_38599" data-name="Group 38599" transform="translate(132.846 86.633)">
            <path id="Path_73866" data-name="Path 73866" d="M210.662,164.031a22.931,22.931,0,1,0-22.931,22.931,20.291,20.291,0,0,0,5.418-.677l9.579,9.192-.29-13.836A22.836,22.836,0,0,0,210.662,164.031Z" transform="translate(-164.8 -141.1)" fill="#fcfcfc"/>
            <g id="Group_38598" data-name="Group 38598" transform="translate(10.292 11.8)">
              <path id="Path_73867" data-name="Path 73867" d="M187.883,180.1l-12.095-13.449a1.438,1.438,0,0,1,2.129-1.935L187.5,175.36l13.546-21.383a1.41,1.41,0,1,1,2.419,1.451Z" transform="translate(-175.437 -153.296)" fill="#64c1ff"/>
            </g>
          </g>
        </g>
      </g>
    </g>
    <g id="Group_38602" data-name="Group 38602" transform="translate(-16.576 412.076)">
      <path id="Path_73868" data-name="Path 73868" d="M-5214-2856.667s3.664-5.077,7.826,0,8.615,0,8.615,0,4.081-4.306,8.277,0,8.861,0,8.861,0" transform="translate(5214 2858.924)" fill="none" stroke="#fd5675" stroke-width="1.5"/>
      <path id="Path_73869" data-name="Path 73869" d="M-5214-2856.667s3.664-5.077,7.826,0,8.615,0,8.615,0,4.081-4.306,8.277,0,8.861,0,8.861,0" transform="translate(5214 2864.565)" fill="none" stroke="#fd5675" stroke-width="1.5"/>
      <path id="Path_73870" data-name="Path 73870" d="M-5214-2856.667s3.664-5.077,7.826,0,8.615,0,8.615,0,4.081-4.306,8.277,0,8.861,0,8.861,0" transform="translate(5214 2870.206)" fill="none" stroke="#fd5675" stroke-width="1.5"/>
    </g>
    <g id="Group_38604" data-name="Group 38604" transform="translate(359.293 760.847)">
      <path id="Path_73868-2" data-name="Path 73868" d="M-5214-2856.821s3.88-4.732,8.287,0,9.123,0,9.123,0,4.321-4.013,8.765,0,9.383,0,9.383,0" transform="translate(5214 2858.924)" fill="none" stroke="#fd5675" stroke-width="1.5"/>
      <path id="Path_73869-2" data-name="Path 73869" d="M-5214-2856.821s3.88-4.732,8.287,0,9.123,0,9.123,0,4.321-4.013,8.765,0,9.383,0,9.383,0" transform="translate(5214 2864.181)" fill="none" stroke="#fd5675" stroke-width="1.5"/>
      <path id="Path_73870-2" data-name="Path 73870" d="M-5214-2856.821s3.88-4.732,8.287,0,9.123,0,9.123,0,4.321-4.013,8.765,0,9.383,0,9.383,0" transform="translate(5214 2869.438)" fill="none" stroke="#fd5675" stroke-width="1.5"/>
    </g>
    <circle id="Ellipse_1617" data-name="Ellipse 1617" cx="7" cy="7" r="7" transform="translate(327 413)" fill="#b3b23d"/>
  </g>
</svg>
