<svg xmlns="http://www.w3.org/2000/svg" width="223.174" height="164.573" viewBox="0 0 223.174 164.573">
  <g id="Phone_maintenance-rafiki" data-name="Phone maintenance-rafiki" transform="translate(0 -55)">
    <g id="freepik--background-complete--inject-15" transform="translate(0 55)">
      <rect id="Rectangle_10197" data-name="Rectangle 10197" width="14.783" height="0.112" transform="translate(186.029 153.316)" fill="#ebebeb"/>
      <rect id="Rectangle_10198" data-name="Rectangle 10198" width="3.879" height="0.112" transform="translate(143.961 154.53)" fill="#ebebeb"/>
      <rect id="Rectangle_10199" data-name="Rectangle 10199" width="8.565" height="0.112" transform="translate(177.017 149.174)" fill="#ebebeb"/>
      <rect id="Rectangle_10200" data-name="Rectangle 10200" width="19.278" height="0.112" transform="translate(23.415 149.924)" fill="#ebebeb"/>
      <rect id="Rectangle_10201" data-name="Rectangle 10201" width="2.825" height="0.112" transform="translate(46.67 149.924)" fill="#ebebeb"/>
      <rect id="Rectangle_10202" data-name="Rectangle 10202" width="41.814" height="0.112" transform="translate(58.681 151.807)" fill="#ebebeb"/>
      <path id="Path_76923" data-name="Path 76923" d="M126.94,181.227H40.759a2.549,2.549,0,0,1-2.549-2.549V57.526A2.549,2.549,0,0,1,40.759,55H126.94a2.549,2.549,0,0,1,2.549,2.549v121.13A2.549,2.549,0,0,1,126.94,181.227ZM40.759,55.089a2.442,2.442,0,0,0-2.437,2.437V178.679a2.441,2.441,0,0,0,2.437,2.437H126.94a2.442,2.442,0,0,0,2.437-2.437V57.526a2.442,2.442,0,0,0-2.437-2.437Z" transform="translate(-21.155 -55)" fill="#ebebeb"/>
      <path id="Path_76924" data-name="Path 76924" d="M343.238,181.227h-86.19a2.553,2.553,0,0,1-2.549-2.549V57.526A2.553,2.553,0,0,1,257.049,55h86.19a2.549,2.549,0,0,1,2.54,2.526V178.679A2.549,2.549,0,0,1,343.238,181.227ZM257.049,55.089a2.442,2.442,0,0,0-2.437,2.437V178.679a2.442,2.442,0,0,0,2.437,2.437h86.19a2.442,2.442,0,0,0,2.437-2.437V57.526a2.442,2.442,0,0,0-2.437-2.437Z" transform="translate(-140.904 -55)" fill="#ebebeb"/>
      <rect id="Rectangle_10203" data-name="Rectangle 10203" width="223.174" height="0.112" transform="translate(0 146.134)" fill="#ebebeb"/>
      <path id="Path_76925" data-name="Path 76925" d="M108.97,104.674l-13.007-.759a2.366,2.366,0,0,0-1.339.312h0c-4.294,3.723-8.927,1.236-10.971-.232A5.057,5.057,0,0,0,81,103.045l-14.471-.861c-5.437-.317-6.307-8.007-1.067-9.494l.2-.054c-5.405-5.066,7.641-14.3,20.371.286-.786-4.664,11.159-2.3,14.462,4.2C102.047,93.069,113.1,100.907,108.97,104.674Z" transform="translate(-34.305 -71.644)" fill="#fafafa"/>
      <path id="Path_76926" data-name="Path 76926" d="M189.781,79.154c1.669-4.754,5.2-10.936,17.733-9.588s6.249,8.927,13.39,9.82,6.124-2.812,11.935,3.124,5.137.772,10.079,3.718S185.885,90.3,189.781,79.154Z" transform="translate(-104.975 -62.961)" fill="#f5f5f5"/>
      <path id="Path_76927" data-name="Path 76927" d="M350.053,100.062l9.172-.174.759.321a15.051,15.051,0,0,0,13-.589h0l7.668-.147s7.142-2.839,6.061-9.98-11.788-.969-11.788-.969,3.093-10.047-7.342-7.012a15.526,15.526,0,0,0-11.27,12.944S342.487,92.326,350.053,100.062Z" transform="translate(-192.554 -69.362)" fill="#f5f5f5"/>
      <path id="Path_76928" data-name="Path 76928" d="M406,293.332l-.326.04c0-.165-1.977-16.555,2.062-29.954,4.017-13.315,1.25-21.8,1.223-21.871l.308-.107c.027.089,2.825,8.668-1.219,22.081C404.023,276.844,406,293.167,406,293.332Z" transform="translate(-224.332 -158.223)" fill="#e0e0e0"/>
      <path id="Path_76929" data-name="Path 76929" d="M411.543,243.275a5.062,5.062,0,0,0-2.723-1.678l.076-.317a5.4,5.4,0,0,1,2.9,1.785Z" transform="translate(-226.344 -158.134)" fill="#e0e0e0"/>
      <rect id="Rectangle_10204" data-name="Rectangle 10204" width="1.071" height="0.326" transform="matrix(0.871, -0.492, 0.492, 0.871, 185.653, 87.017)" fill="#e0e0e0"/>
      <path id="Path_76930" data-name="Path 76930" d="M408.947,260.339a7.731,7.731,0,0,0-4.187-4.057l.107-.281a8.034,8.034,0,0,1,4.361,4.231Z" transform="translate(-224.096 -166.284)" fill="#e0e0e0"/>
      <path id="Path_76931" data-name="Path 76931" d="M409.689,284.1h-.326a4.463,4.463,0,0,0-1.683-3.419l.2-.259A4.8,4.8,0,0,1,409.689,284.1Z" transform="translate(-225.713 -179.804)" fill="#e0e0e0"/>
      <path id="Path_76932" data-name="Path 76932" d="M410.184,292.116l-.3-.121a3.272,3.272,0,0,1,1.848-1.826l.116.308A2.9,2.9,0,0,0,410.184,292.116Z" transform="translate(-226.931 -185.202)" fill="#e0e0e0"/>
      <path id="Path_76933" data-name="Path 76933" d="M405.52,326.727l-.25-.21a10.7,10.7,0,0,0,.857-3.272c.04-.232.071-.446.1-.576l.321.063c-.027.138-.062.335-.1.567A9.707,9.707,0,0,1,405.52,326.727Z" transform="translate(-224.379 -203.196)" fill="#e0e0e0"/>
      <path id="Path_76934" data-name="Path 76934" d="M401.534,340.377a3.209,3.209,0,0,0-3.124-2.142v-.326a3.54,3.54,0,0,1,3.428,2.37Z" transform="translate(-220.581 -211.632)" fill="#e0e0e0"/>
      <rect id="Rectangle_10205" data-name="Rectangle 10205" width="3.441" height="0.326" transform="matrix(0.666, -0.746, 0.746, 0.666, 181.148, 134.716)" fill="#e0e0e0"/>
      <path id="Path_76935" data-name="Path 76935" d="M404.021,310.2c.522,1.678-3.1,4.883-3.1,4.883s-4.8-.6-5.316-2.285a4.422,4.422,0,0,1,8.418-2.6Z" transform="translate(-218.961 -194.782)" fill="#f0f0f0"/>
      <path id="Path_76936" data-name="Path 76936" d="M416.322,261.8c-.446,1.785-3.892,3.053-3.892,3.053s-2.392-2.767-1.933-4.553,2.357-3.754,3.968-3.339S416.782,260.014,416.322,261.8Z" transform="translate(-227.24 -166.785)" fill="#ebebeb"/>
      <path id="Path_76937" data-name="Path 76937" d="M385.142,327.055c2.156.839,3.477,4.646,3.477,4.646s-3.571,1.915-5.7,1.076-4.437-3.2-3.821-4.78S382.986,326.216,385.142,327.055Z" transform="translate(-209.83 -205.354)" fill="#f5f5f5"/>
      <path id="Path_76938" data-name="Path 76938" d="M400.617,275.168a4.633,4.633,0,0,0,1.468.835,1.558,1.558,0,0,0,1.571-.37,1.932,1.932,0,0,0,.049-2c-.576-1.268-2.678-3.424-4.33-2.8C397.02,271.74,399.564,274.391,400.617,275.168Z" transform="translate(-220.578 -174.436)" fill="#e6e6e6"/>
      <path id="Path_76939" data-name="Path 76939" d="M413.526,285.489c-.308.379-.638.866-.446,1.339a.986.986,0,0,0,1.085.531,2.867,2.867,0,0,0,1.165-.567c.835-.58,2.535-1.785,1.451-2.924S414.177,284.681,413.526,285.489Z" transform="translate(-228.671 -181.521)" fill="#ebebeb"/>
      <path id="Path_76940" data-name="Path 76940" d="M397.595,251.806a.857.857,0,0,0-.777.629c-.071.411.272.772.6,1.027.826.638,3.307,2.352,3.861.7C401.8,252.6,398.68,251.681,397.595,251.806Z" transform="translate(-219.694 -163.956)" fill="#e0e0e0"/>
      <path id="Path_76941" data-name="Path 76941" d="M405.7,239.477c-.513.049-1.022-.138-1.535-.1s-1.085.446-.969.946.678.616,1.156.647a9.373,9.373,0,0,0,2.419-.165.759.759,0,0,0,.491-.25c.205-.3-.125-.714-.478-.821a5.29,5.29,0,0,1-1.071-.259Z" transform="translate(-223.219 -157.077)" fill="#e6e6e6"/>
      <path id="Path_76942" data-name="Path 76942" d="M418.058,247.245c.513,0,1.013-.205,1.526-.205s1.107.375,1.027.893-.638.665-1.107.723a9.214,9.214,0,0,1-2.428,0,.754.754,0,0,1-.5-.214c-.228-.295.076-.723.42-.853a5.457,5.457,0,0,0,1.053-.326Z" transform="translate(-230.592 -161.323)" fill="#f0f0f0"/>
      <path id="Path_76943" data-name="Path 76943" d="M413.342,332.059a.709.709,0,0,1,.446-.219.5.5,0,0,1,.446.446,1.339,1.339,0,0,1-.08.647c-.348,1.165-4.258,9.605-5.16,8.092-.531-.893.777-3.865,1.161-4.7A12.243,12.243,0,0,1,413.342,332.059Z" transform="translate(-226.371 -208.273)" fill="#f0f0f0"/>
      <path id="Path_76944" data-name="Path 76944" d="M413.65,237.593a4.374,4.374,0,0,1,1.263-1.875,1.345,1.345,0,1,1,1.281,2.241,4.364,4.364,0,0,1-2.513.134l-.022-.375Z" transform="translate(-229.018 -154.871)" fill="#e6e6e6"/>
      <path id="Path_76945" data-name="Path 76945" d="M400.014,364.825h0a32.045,32.045,0,0,1-12.574,0h0L384.16,350.39h19.122Z" transform="translate(-212.691 -218.543)" fill="#e6e6e6"/>
      <rect id="Rectangle_10206" data-name="Rectangle 10206" width="11.819" height="21.942" transform="translate(60.976 75.335) rotate(180)" fill="#ebebeb"/>
      <rect id="Rectangle_10207" data-name="Rectangle 10207" width="11.819" height="21.942" transform="translate(64.27 75.335) rotate(180)" fill="#f5f5f5"/>
      <rect id="Rectangle_10208" data-name="Rectangle 10208" width="17.635" height="4.785" transform="translate(48.183 48.607)" fill="#f5f5f5"/>
      <rect id="Rectangle_10209" data-name="Rectangle 10209" width="2.714" height="4.785" transform="translate(48.183 48.607)" fill="#ebebeb"/>
      <rect id="Rectangle_10210" data-name="Rectangle 10210" width="80.164" height="59.503" transform="translate(118.679 146.13) rotate(180)" fill="#e6e6e6"/>
      <path id="Path_76946" data-name="Path 76946" d="M118.319,147.48l45.353,45.353H72.97Z" transform="translate(-40.4 -106.202)" fill="#f5f5f5"/>
      <rect id="Rectangle_10211" data-name="Rectangle 10211" width="90.702" height="5.231" transform="translate(123.268 91.863) rotate(180)" fill="#e0e0e0"/>
      <rect id="Rectangle_10212" data-name="Rectangle 10212" width="22.558" height="22.558" transform="translate(65.336 96.88)" fill="#e0e0e0"/>
      <rect id="Rectangle_10213" data-name="Rectangle 10213" width="22.558" height="22.558" transform="translate(66.167 96.88)" fill="#f0f0f0"/>
      <rect id="Rectangle_10214" data-name="Rectangle 10214" width="20.322" height="20.322" transform="translate(67.265 97.799)" fill="#fff"/>
      <rect id="Rectangle_10215" data-name="Rectangle 10215" width="0.714" height="20.322" transform="translate(86.873 97.799)" fill="#e0e0e0"/>
      <rect id="Rectangle_10216" data-name="Rectangle 10216" width="0.714" height="19.746" transform="translate(67.202 109.297) rotate(-90)" fill="#e0e0e0"/>
      <rect id="Rectangle_10217" data-name="Rectangle 10217" width="20.706" height="1.201" transform="translate(66.881 107.382)" fill="#f0f0f0"/>
    </g>
    <g id="freepik--Shadow--inject-15" transform="translate(22.893 209.468)">
      <ellipse id="freepik--path--inject-15" cx="86.542" cy="5.053" rx="86.542" ry="5.053" fill="#f5f5f5"/>
    </g>
    <g id="freepik--Sign--inject-15" transform="translate(150.946 176.433)">
      <path id="Path_76947" data-name="Path 76947" d="M353,327.06l6.615,37.806h5.079l-.4-3.124h7.316l.7,3.124h5.071l-6.615-37.806Zm3.888,3.758a2.107,2.107,0,0,1,2.134-2.334h5.968a2.6,2.6,0,0,1,2.54,2.334,2.111,2.111,0,0,1-2.134,2.339h-5.954a2.611,2.611,0,0,1-2.544-2.339Z" transform="translate(-346.385 -327.06)" fill="#fd5675"/>
      <path id="Path_76948" data-name="Path 76948" d="M353,327.06l6.615,37.806h5.079l-.4-3.124h7.316l.7,3.124h5.071l-6.615-37.806Zm4.218,3.758a1.906,1.906,0,0,1,1.928-2.334h5.963a2.776,2.776,0,0,1,1.785.683,2.861,2.861,0,0,1,.977,1.651,1.915,1.915,0,0,1-1.928,2.339h-5.972a2.758,2.758,0,0,1-1.785-.687,2.83,2.83,0,0,1-.96-1.651Z" transform="translate(-346.385 -327.06)" opacity="0.3"/>
      <path id="Path_76949" data-name="Path 76949" d="M344.795,327.06l-6.615,37.806h5.071l.7-3.124h7.316l-.4,3.124h5.084l6.615-37.806Zm12.569,5.41a2.758,2.758,0,0,1-1.785.687h-5.963a1.915,1.915,0,0,1-1.928-2.339,2.861,2.861,0,0,1,.978-1.651,2.776,2.776,0,0,1,1.785-.683h5.95a1.906,1.906,0,0,1,1.928,2.334,2.83,2.83,0,0,1-.973,1.651Z" transform="translate(-338.18 -327.06)" fill="#fd5675"/>
      <path id="Path_76950" data-name="Path 76950" d="M366.739,360.012H365.4l.482-2.754a.384.384,0,0,1,.362-.308h.714a.25.25,0,0,1,.25.308Z" transform="translate(-353.25 -343.609)" fill="#013c68"/>
      <path id="Path_76951" data-name="Path 76951" d="M364.611,366.062H354.84l.254-1.464a1.558,1.558,0,0,1,1.477-1.259h7.267a1.031,1.031,0,0,1,1.04,1.259Z" transform="translate(-347.404 -347.146)" fill="#013c68"/>
      <path id="Path_76952" data-name="Path 76952" d="M361.537,369.44l-1.3,7.441L358,376.858l.295-2.75-.629,2.745h-1.678l.295-2.732-.625,2.727-3.236-.036.473-2.678-.844,2.678-2.772-.031.268-.576a25.683,25.683,0,0,0,2.209-6.753Z" transform="translate(-344.326 -350.524)" fill="#fd5675"/>
      <path id="Path_76953" data-name="Path 76953" d="M361.537,369.44l-1.3,7.441L358,376.858l.295-2.75-.629,2.745h-1.678l.295-2.732-.625,2.727-3.236-.036.473-2.678-.844,2.678-2.772-.031.268-.576a25.683,25.683,0,0,0,2.209-6.753Z" transform="translate(-344.326 -350.524)" fill="#fff" opacity="0.5"/>
    </g>
    <g id="freepik--Device--inject-15" transform="translate(84.328 63.48)">
      <path id="Path_76954" data-name="Path 76954" d="M248.381,201.275H202.889a8.525,8.525,0,0,1-8.619-9.266L201.858,83.27A10.1,10.1,0,0,1,211.789,74h45.492a8.53,8.53,0,0,1,8.619,9.266L258.312,192a10.1,10.1,0,0,1-9.931,9.271Z" transform="translate(-191.868 -73.998)" fill="#fd5675"/>
      <path id="Path_76955" data-name="Path 76955" d="M243.08,201.275h-45.5a8.53,8.53,0,0,1-8.623-9.266L196.548,83.27A10.1,10.1,0,0,1,206.484,74h45.5A8.53,8.53,0,0,1,260.6,83.27l-7.588,108.739A10.087,10.087,0,0,1,243.08,201.275Z" transform="translate(-188.928 -73.998)" fill="#013c68"/>
      <path id="Path_76956" data-name="Path 76956" d="M254.5,78.77H242.676a1.683,1.683,0,0,0-1.62,1.339l-.071.37a4.1,4.1,0,0,1-3.959,3.3H225.787a3.45,3.45,0,0,1-3.5-3.285l-.022-.37a1.41,1.41,0,0,0-1.433-1.339H209.008a7.78,7.78,0,0,0-7.641,7.142l-7.588,108.739a6.57,6.57,0,0,0,6.642,7.142H245.9a7.78,7.78,0,0,0,7.641-7.142l7.588-108.739A6.579,6.579,0,0,0,254.5,78.77Z" transform="translate(-191.6 -76.64)" fill="#fd5675"/>
      <path id="Path_76957" data-name="Path 76957" d="M261.125,85.884l-.156,2.232-7.445,106.508a7.78,7.78,0,0,1-7.641,7.142h-45.5a6.566,6.566,0,0,1-6.637-7.142l7.445-106.53.156-2.232a7.78,7.78,0,0,1,7.637-7.142h11.828a1.41,1.41,0,0,1,1.433,1.339l.022.366a3.45,3.45,0,0,0,3.495,3.33H237a4.1,4.1,0,0,0,3.959-3.285l.071-.366a1.687,1.687,0,0,1,1.625-1.339h11.824a6.57,6.57,0,0,1,6.642,7.119Z" transform="translate(-191.583 -76.612)" fill="#fff" opacity="0.8"/>
      <path id="Path_76958" data-name="Path 76958" d="M260.969,100.4l-7.445,106.53a7.78,7.78,0,0,1-7.641,7.142h-45.5a6.566,6.566,0,0,1-6.637-7.142l7.445-106.53Z" transform="translate(-191.583 -88.616)" fill="#fff" opacity="0.7"/>
      <g id="Group_47198" data-name="Group 47198" transform="translate(35.51 2.433)" opacity="0.7">
        <path id="Path_76959" data-name="Path 76959" d="M270.3,80.363a.986.986,0,0,1-.969.893.835.835,0,0,1-.839-.893.982.982,0,0,1,.969-.893.826.826,0,0,1,.839.893Z" transform="translate(-268.485 -79.461)"/>
        <path id="Path_76960" data-name="Path 76960" d="M281.959,79.45h-3.1a.982.982,0,0,0-.964.893.83.83,0,0,0,.839.893h3.1a.986.986,0,0,0,.969-.893.83.83,0,0,0-.844-.893Z" transform="translate(-273.695 -79.45)"/>
      </g>
      <path id="Path_76961" data-name="Path 76961" d="M222.25,88.74h.955l.067-.96h-.955Z" transform="translate(-207.377 -81.628)" fill="#fd5675"/>
      <path id="Path_76962" data-name="Path 76962" d="M226.6,86.6l-.067.96h.96l.067-.96.067-.955h-.96Z" transform="translate(-209.747 -80.444)" fill="#fd5675"/>
      <path id="Path_76963" data-name="Path 76963" d="M231.021,83.5l-.067.955-.067.955-.067.96h.955l.067-.96.067-.955.067-.955Z" transform="translate(-212.122 -79.259)" fill="#fd5675"/>
      <path id="Path_76964" data-name="Path 76964" d="M322.676,83.64l-.049.7h-.469l-.1,1.406h.469l-.049.7h4.209l.2-2.808Zm1.723,2.107h-1.406l.1-1.406H324.5Z" transform="translate(-262.637 -79.336)" fill="#fd5675"/>
      <path id="Path_76965" data-name="Path 76965" d="M267.634,184.095l-1.964,1.04a11.857,11.857,0,0,0,.317,1.75l2.142-.036a9.94,9.94,0,0,0,1.259,2.6l-1.259,1.834a11.732,11.732,0,0,0,1.165,1.281l1.933-1.1a10.083,10.083,0,0,0,2.464,1.5l-.223,2.138a12.007,12.007,0,0,0,1.705.446l1.205-1.87a11.658,11.658,0,0,0,1.491.1,11.99,11.99,0,0,0,1.5-.1l.893,1.87a13.706,13.706,0,0,0,1.785-.446l.152-2.138a12.534,12.534,0,0,0,2.723-1.5l1.741,1.1a15.73,15.73,0,0,0,1.393-1.281l-.937-1.834a12.5,12.5,0,0,0,1.727-2.593l2.138.036a14.791,14.791,0,0,0,.62-1.75l-1.785-1.04a11.974,11.974,0,0,0,.232-1.5,11.279,11.279,0,0,0,.031-1.5l1.964-1.04a13.157,13.157,0,0,0-.317-1.75l-2.142.036a10.155,10.155,0,0,0-1.272-2.593l1.259-1.834a11.775,11.775,0,0,0-1.169-1.281l-1.928,1.1a9.963,9.963,0,0,0-2.464-1.5l.223-2.138a12.69,12.69,0,0,0-1.71-.446l-1.205,1.875a10.792,10.792,0,0,0-1.486-.1,11.268,11.268,0,0,0-1.509.1l-.893-1.875a14.243,14.243,0,0,0-1.785.446l-.152,2.138a12.5,12.5,0,0,0-2.727,1.5l-1.736-1.1a15.129,15.129,0,0,0-1.393,1.281l.937,1.834a12.8,12.8,0,0,0-1.727,2.593l-2.134-.036a13.348,13.348,0,0,0-.62,1.75l1.785,1.04a10.885,10.885,0,0,0-.263,2.995Zm7.418-1.5a4.236,4.236,0,0,1,4.142-3.807,3.428,3.428,0,0,1,3.473,3.807,4.236,4.236,0,0,1-4.138,3.807,3.432,3.432,0,0,1-3.477-3.794Z" transform="translate(-231.417 -126.961)" fill="#fd5675"/>
      <path id="Path_76966" data-name="Path 76966" d="M267.634,184.095l-1.964,1.04a11.857,11.857,0,0,0,.317,1.75l2.142-.036a9.94,9.94,0,0,0,1.259,2.6l-1.259,1.834a11.732,11.732,0,0,0,1.165,1.281l1.933-1.1a10.083,10.083,0,0,0,2.464,1.5l-.223,2.138a12.007,12.007,0,0,0,1.705.446l1.205-1.87a11.658,11.658,0,0,0,1.491.1,11.99,11.99,0,0,0,1.5-.1l.893,1.87a13.706,13.706,0,0,0,1.785-.446l.152-2.138a12.534,12.534,0,0,0,2.723-1.5l1.741,1.1a15.73,15.73,0,0,0,1.393-1.281l-.937-1.834a12.5,12.5,0,0,0,1.727-2.593l2.138.036a14.791,14.791,0,0,0,.62-1.75l-1.785-1.04a11.974,11.974,0,0,0,.232-1.5,11.279,11.279,0,0,0,.031-1.5l1.964-1.04a13.157,13.157,0,0,0-.317-1.75l-2.142.036a10.155,10.155,0,0,0-1.272-2.593l1.259-1.834a11.775,11.775,0,0,0-1.169-1.281l-1.928,1.1a9.963,9.963,0,0,0-2.464-1.5l.223-2.138a12.69,12.69,0,0,0-1.71-.446l-1.205,1.875a10.792,10.792,0,0,0-1.486-.1,11.268,11.268,0,0,0-1.509.1l-.893-1.875a14.243,14.243,0,0,0-1.785.446l-.152,2.138a12.5,12.5,0,0,0-2.727,1.5l-1.736-1.1a15.129,15.129,0,0,0-1.393,1.281l.937,1.834a12.8,12.8,0,0,0-1.727,2.593l-2.134-.036a13.348,13.348,0,0,0-.62,1.75l1.785,1.04a10.885,10.885,0,0,0-.263,2.995Zm7.418-1.5a4.236,4.236,0,0,1,4.142-3.807,3.428,3.428,0,0,1,3.473,3.807,4.236,4.236,0,0,1-4.138,3.807,3.432,3.432,0,0,1-3.477-3.794Z" transform="translate(-231.417 -126.961)" fill="#fff" opacity="0.4"/>
      <path id="Path_76967" data-name="Path 76967" d="M223.577,146.876,220.31,148.6a13.648,13.648,0,0,0,.259,1.428l3.571-.062a9.137,9.137,0,0,0,.969,1.977L223.01,155a12.44,12.44,0,0,0,.955,1.044l3.209-1.83a9.227,9.227,0,0,0,1.879,1.143l-.37,3.571a12.778,12.778,0,0,0,1.393.384l2-3.124a10.615,10.615,0,0,0,1.138.062,10.9,10.9,0,0,0,1.147-.062l1.455,3.124a14.6,14.6,0,0,0,1.46-.384l.254-3.571a11.6,11.6,0,0,0,2.076-1.143l2.892,1.83q.589-.5,1.138-1.044l-1.567-3.053a11.544,11.544,0,0,0,1.317-1.977l3.571.063c.192-.469.362-.942.509-1.428l-2.959-1.732q.107-.562.161-1.138a9.862,9.862,0,0,0,.036-1.143l3.263-1.727a13.445,13.445,0,0,0-.254-1.428l-3.571.058a9.239,9.239,0,0,0-.969-1.977l2.1-3.049a12.5,12.5,0,0,0-.955-1.049l-3.214,1.83a9.373,9.373,0,0,0-1.875-1.138l.37-3.571a11.841,11.841,0,0,0-1.393-.379l-2,3.124a10.532,10.532,0,0,0-1.134-.062,10.912,10.912,0,0,0-1.147.062l-1.455-3.124a13.465,13.465,0,0,0-1.46.379l-.254,3.571a11.863,11.863,0,0,0-2.076,1.138l-2.892-1.83c-.4.33-.777.683-1.138,1.049l1.562,3.049a11.971,11.971,0,0,0-1.312,1.977l-3.571-.058a14.284,14.284,0,0,0-.509,1.428l2.959,1.727a10.663,10.663,0,0,0-.161,1.143,9.761,9.761,0,0,0-.036,1.143Zm6.093-1.138a4.968,4.968,0,0,1,4.847-4.463,4.017,4.017,0,0,1,4.071,4.463,4.968,4.968,0,0,1-4.847,4.463,4.017,4.017,0,0,1-4.071-4.464Z" transform="translate(-206.303 -106.2)" fill="#fd5675"/>
      <path id="Path_76968" data-name="Path 76968" d="M223.577,146.876,220.31,148.6a13.648,13.648,0,0,0,.259,1.428l3.571-.062a9.137,9.137,0,0,0,.969,1.977L223.01,155a12.44,12.44,0,0,0,.955,1.044l3.209-1.83a9.227,9.227,0,0,0,1.879,1.143l-.37,3.571a12.778,12.778,0,0,0,1.393.384l2-3.124a10.615,10.615,0,0,0,1.138.062,10.9,10.9,0,0,0,1.147-.062l1.455,3.124a14.6,14.6,0,0,0,1.46-.384l.254-3.571a11.6,11.6,0,0,0,2.076-1.143l2.892,1.83q.589-.5,1.138-1.044l-1.567-3.053a11.544,11.544,0,0,0,1.317-1.977l3.571.063c.192-.469.362-.942.509-1.428l-2.959-1.732q.107-.562.161-1.138a9.862,9.862,0,0,0,.036-1.143l3.263-1.727a13.445,13.445,0,0,0-.254-1.428l-3.571.058a9.239,9.239,0,0,0-.969-1.977l2.1-3.049a12.5,12.5,0,0,0-.955-1.049l-3.214,1.83a9.373,9.373,0,0,0-1.875-1.138l.37-3.571a11.841,11.841,0,0,0-1.393-.379l-2,3.124a10.532,10.532,0,0,0-1.134-.062,10.912,10.912,0,0,0-1.147.062l-1.455-3.124a13.465,13.465,0,0,0-1.46.379l-.254,3.571a11.863,11.863,0,0,0-2.076,1.138l-2.892-1.83c-.4.33-.777.683-1.138,1.049l1.562,3.049a11.971,11.971,0,0,0-1.312,1.977l-3.571-.058a14.284,14.284,0,0,0-.509,1.428l2.959,1.727a10.663,10.663,0,0,0-.161,1.143,9.761,9.761,0,0,0-.036,1.143Zm6.093-1.138a4.968,4.968,0,0,1,4.847-4.463,4.017,4.017,0,0,1,4.071,4.463,4.968,4.968,0,0,1-4.847,4.463,4.017,4.017,0,0,1-4.071-4.464Z" transform="translate(-206.303 -106.2)" fill="#fff" opacity="0.3"/>
      <path id="Path_76969" data-name="Path 76969" d="M243.1,225.886l-2.169,1.152a8.232,8.232,0,0,0,.174.946l2.366-.04a6.173,6.173,0,0,0,.643,1.312l-1.393,2.031a8.434,8.434,0,0,0,.634.692l2.134-1.214a6.191,6.191,0,0,0,1.245.759l-.245,2.361a9.188,9.188,0,0,0,.928.259l1.339-2.071a6.923,6.923,0,0,0,.754.045,7.144,7.144,0,0,0,.759-.045l.969,2.071a9.962,9.962,0,0,0,.969-.259l.17-2.361a7.672,7.672,0,0,0,1.379-.759l1.919,1.214a10.1,10.1,0,0,0,.759-.692l-1.04-2.031a7.9,7.9,0,0,0,.893-1.312l2.357.04a8.829,8.829,0,0,0,.339-.946l-2-1.152a6.986,6.986,0,0,0,.112-.754,7.253,7.253,0,0,0,.022-.759l2.169-1.152a8.212,8.212,0,0,0-.174-.946l-2.366.04a6.174,6.174,0,0,0-.643-1.312l1.393-2.026a7.82,7.82,0,0,0-.634-.7l-2.134,1.214a6.191,6.191,0,0,0-1.245-.759l.245-2.361a8.139,8.139,0,0,0-.928-.254l-1.339,2.067a6.911,6.911,0,0,0-.754-.045,7.131,7.131,0,0,0-.759.045L249,216.133a8.816,8.816,0,0,0-.969.254l-.17,2.361a7.674,7.674,0,0,0-1.379.759l-1.919-1.214a10.15,10.15,0,0,0-.759.7l1.04,2.026a7.9,7.9,0,0,0-.893,1.312l-2.357-.04a8.839,8.839,0,0,0-.339.946l1.968,1.152a7.063,7.063,0,0,0-.112.759A7.166,7.166,0,0,0,243.1,225.886Zm2.883-.754A4.593,4.593,0,0,1,250.468,221a3.723,3.723,0,0,1,3.767,4.129,4.593,4.593,0,0,1-4.486,4.124,3.718,3.718,0,0,1-3.767-4.111Z" transform="translate(-217.719 -152.684)" fill="#fd5675"/>
      <path id="Path_76970" data-name="Path 76970" d="M243.1,225.886l-2.169,1.152a8.232,8.232,0,0,0,.174.946l2.366-.04a6.173,6.173,0,0,0,.643,1.312l-1.393,2.031a8.434,8.434,0,0,0,.634.692l2.134-1.214a6.191,6.191,0,0,0,1.245.759l-.245,2.361a9.188,9.188,0,0,0,.928.259l1.339-2.071a6.923,6.923,0,0,0,.754.045,7.144,7.144,0,0,0,.759-.045l.969,2.071a9.962,9.962,0,0,0,.969-.259l.17-2.361a7.672,7.672,0,0,0,1.379-.759l1.919,1.214a10.1,10.1,0,0,0,.759-.692l-1.04-2.031a7.9,7.9,0,0,0,.893-1.312l2.357.04a8.829,8.829,0,0,0,.339-.946l-2-1.152a6.986,6.986,0,0,0,.112-.754,7.253,7.253,0,0,0,.022-.759l2.169-1.152a8.212,8.212,0,0,0-.174-.946l-2.366.04a6.174,6.174,0,0,0-.643-1.312l1.393-2.026a7.82,7.82,0,0,0-.634-.7l-2.134,1.214a6.191,6.191,0,0,0-1.245-.759l.245-2.361a8.139,8.139,0,0,0-.928-.254l-1.339,2.067a6.911,6.911,0,0,0-.754-.045,7.131,7.131,0,0,0-.759.045L249,216.133a8.816,8.816,0,0,0-.969.254l-.17,2.361a7.674,7.674,0,0,0-1.379.759l-1.919-1.214a10.15,10.15,0,0,0-.759.7l1.04,2.026a7.9,7.9,0,0,0-.893,1.312l-2.357-.04a8.839,8.839,0,0,0-.339.946l1.968,1.152a7.063,7.063,0,0,0-.112.759A7.166,7.166,0,0,0,243.1,225.886Zm2.883-.754A4.593,4.593,0,0,1,250.468,221a3.723,3.723,0,0,1,3.767,4.129,4.593,4.593,0,0,1-4.486,4.124,3.718,3.718,0,0,1-3.767-4.111Z" transform="translate(-217.719 -152.684)" fill="#fff" opacity="0.5"/>
      <path id="Path_76971" data-name="Path 76971" d="M254.081,78.73H208.589a7.78,7.78,0,0,0-7.641,7.142L193.36,194.606Z" transform="translate(-191.382 -76.618)" fill="#fff" opacity="0.2"/>
    </g>
    <g id="freepik--Sparkles--inject-15" transform="translate(73.464 77.46)">
      <path id="Path_76972" data-name="Path 76972" d="M247.834,115.541a13.528,13.528,0,0,0,.263-1.727,4.115,4.115,0,0,1,2.857-3.758l1.053-.214a5.465,5.465,0,0,1-2.343-.482c-1.46-1.022-1.785-4.039-1.785-4.039s-.406,3.017-1.866,4.039a5.465,5.465,0,0,1-2.343.482l1.053.214a4.09,4.09,0,0,1,2.857,3.758,13.529,13.529,0,0,0,.254,1.727Z" transform="translate(-208.373 -105.32)" fill="#fd5675"/>
      <g id="Group_47199" data-name="Group 47199" transform="translate(35.297 0)" opacity="0.7">
        <path id="Path_76973" data-name="Path 76973" d="M247.834,115.541a13.528,13.528,0,0,0,.263-1.727,4.115,4.115,0,0,1,2.857-3.758l1.053-.214a5.465,5.465,0,0,1-2.343-.482c-1.46-1.022-1.785-4.039-1.785-4.039s-.406,3.017-1.866,4.039a5.465,5.465,0,0,1-2.343.482l1.053.214a4.09,4.09,0,0,1,2.857,3.758,13.529,13.529,0,0,0,.254,1.727Z" transform="translate(-243.67 -105.32)" fill="#fff"/>
      </g>
      <path id="Path_76974" data-name="Path 76974" d="M171.062,126.356a21.05,21.05,0,0,0,.411-2.678c.375-3.026,2.169-5.356,4.428-5.829l1.634-.335s-2.562,0-3.629-.745c-2.267-1.585-2.785-6.249-2.785-6.249s-.634,4.682-2.9,6.249c-1.067.745-3.629.745-3.629.745l1.634.335c2.259.446,4.053,2.8,4.428,5.829A21.05,21.05,0,0,0,171.062,126.356Z" transform="translate(-164.59 -108.199)" fill="#fd5675"/>
      <g id="Group_47200" data-name="Group 47200" transform="translate(0 2.321)" opacity="0.7">
        <path id="Path_76975" data-name="Path 76975" d="M171.062,126.356a21.05,21.05,0,0,0,.411-2.678c.375-3.026,2.169-5.356,4.428-5.829l1.634-.335s-2.562,0-3.629-.745c-2.267-1.585-2.785-6.249-2.785-6.249s-.634,4.682-2.9,6.249c-1.067.745-3.629.745-3.629.745l1.634.335c2.259.446,4.053,2.8,4.428,5.829A21.05,21.05,0,0,0,171.062,126.356Z" transform="translate(-164.59 -110.52)" fill="#fff"/>
      </g>
      <path id="Path_76976" data-name="Path 76976" d="M218.094,217.955a13.364,13.364,0,0,0,.263-1.727,4.106,4.106,0,0,1,2.852-3.754l1.053-.214a5.438,5.438,0,0,1-2.339-.482c-1.46-1.022-1.785-4.017-1.785-4.017s-.411,3.017-1.87,4.017a5.438,5.438,0,0,1-2.339.482l1.053.214c1.455.295,2.611,1.785,2.852,3.754a12.115,12.115,0,0,0,.259,1.727Z" transform="translate(-191.907 -162.036)" fill="#fd5675"/>
      <g id="Group_47201" data-name="Group 47201" transform="translate(22.023 45.724)" opacity="0.7">
        <path id="Path_76977" data-name="Path 76977" d="M218.094,217.955a13.364,13.364,0,0,0,.263-1.727,4.106,4.106,0,0,1,2.852-3.754l1.053-.214a5.438,5.438,0,0,1-2.339-.482c-1.46-1.022-1.785-4.017-1.785-4.017s-.411,3.017-1.87,4.017a5.438,5.438,0,0,1-2.339.482l1.053.214c1.455.295,2.611,1.785,2.852,3.754a12.115,12.115,0,0,0,.259,1.727Z" transform="translate(-213.93 -207.76)" fill="#fff"/>
      </g>
    </g>
    <g id="freepik--Stairs--inject-15" transform="translate(42.295 109.091)">
      <path id="Path_76978" data-name="Path 76978" d="M135.691,281.4a1.071,1.071,0,0,0,1.339-1.067v-2.067h26.986v1.625a1.607,1.607,0,0,0,1.339,1.509,1.076,1.076,0,0,0,1.339-1.067l-.5-102.607a1.625,1.625,0,0,0-1.339-1.509,1.076,1.076,0,0,0-1.339,1.067v1.643H136.508v-1.2a1.625,1.625,0,0,0-1.339-1.509,1.076,1.076,0,0,0-1.339,1.067l.522,102.607A1.611,1.611,0,0,0,135.691,281.4Zm28.191-24.674h-27l-.085-17.358h27.009Zm-27.258-56.24H163.61l.085,17.358h-27Zm27.08,19.447.085,17.358h-27l-.085-17.358Zm-.2-38.922.085,17.358h-27l-.067-17.358Zm-26.518,95.161-.085-17.358h26.986l.085,17.358Z" transform="translate(-116.39 -176.186)" fill="#013c68"/>
      <path id="Path_76979" data-name="Path 76979" d="M95.843,281.473a1.308,1.308,0,0,0,1.509-1.067l.357-2.067h26.982l-.277,1.625a1.308,1.308,0,0,0,2.575.446L144.58,177.8a1.308,1.308,0,0,0-2.575-.446L141.724,179H114.737l.205-1.2a1.308,1.308,0,0,0-2.575-.446L94.777,279.964A1.308,1.308,0,0,0,95.843,281.473ZM128.387,256.8H101.4l2.977-17.358h26.982Zm-17.341-56.24h26.982L135.037,217.9H108.069ZM134.7,220.006l-2.973,17.358h-27l2.977-17.358Zm6.66-38.922-2.973,17.358H111.4l2.977-17.358Zm-43.3,95.157,2.977-17.358h26.982l-2.973,17.358Z" transform="translate(-94.758 -176.258)" fill="#263238"/>
      <path id="Path_76980" data-name="Path 76980" d="M95.843,281.473a1.308,1.308,0,0,0,1.509-1.067l.357-2.067h26.982l-.277,1.625a1.308,1.308,0,0,0,2.575.446L144.58,177.8a1.308,1.308,0,0,0-2.575-.446L141.724,179H114.737l.205-1.2a1.308,1.308,0,0,0-2.575-.446L94.777,279.964A1.308,1.308,0,0,0,95.843,281.473ZM128.387,256.8H101.4l2.977-17.358h26.982Zm-17.341-56.24h26.982L135.037,217.9H108.069ZM134.7,220.006l-2.973,17.358h-27l2.977-17.358Zm6.66-38.922-2.973,17.358H111.4l2.977-17.358Zm-43.3,95.157,2.977-17.358h26.982l-2.973,17.358Z" transform="translate(-94.758 -176.258)" fill="#99b1c3" opacity="0.2"/>
    </g>
    <g id="freepik--Character--inject-15" transform="translate(40.254 90.577)">
      <rect id="Rectangle_10218" data-name="Rectangle 10218" width="26.576" height="3.977" transform="translate(83.665 8.826) rotate(180)" fill="#013c68"/>
      <rect id="Rectangle_10219" data-name="Rectangle 10219" width="26.576" height="1.669" transform="translate(83.665 7.675) rotate(180)" fill="#fff" opacity="0.1"/>
      <path id="Path_76981" data-name="Path 76981" d="M114.686,179.866a.67.67,0,0,1-.3-1.268l59.07-30a.671.671,0,1,1,.607,1.2l-59.07,29.995A.679.679,0,0,1,114.686,179.866Z" transform="translate(-103.378 -142.358)" fill="#013c68"/>
      <path id="Path_76982" data-name="Path 76982" d="M121.209,178.64s-4.838,5.039-3.5,7.655a45.267,45.267,0,0,0,4.339,6.249,1.5,1.5,0,0,0,1.161,1.616l2.611-2.125a16.681,16.681,0,0,0-3.062-.42l-2.178-7.012,3.379-4.651Z" transform="translate(-105.295 -159.03)" fill="#dd8c6a"/>
      <path id="Path_76983" data-name="Path 76983" d="M132.921,208.65l.705,1.2a1.2,1.2,0,0,1-.321,1.571l-.129.094a1.192,1.192,0,0,1-1.254.1l-1.611-.835Z" transform="translate(-112.401 -175.645)" fill="#dd8c6a"/>
      <path id="Path_76984" data-name="Path 76984" d="M97.725,324.31l-2.035,5.651,3.138,1.214,2.446-5.213Z" transform="translate(-93.233 -239.681)" fill="#dd8c6a"/>
      <path id="Path_76985" data-name="Path 76985" d="M103.389,340.01a.089.089,0,0,1-.04-.089.085.085,0,0,1,.067-.067c.062,0,1.451-.237,1.942.116a.446.446,0,0,1,.179.272.312.312,0,0,1-.121.344,1.5,1.5,0,0,1-1.058-.112,6.03,6.03,0,0,1-.969-.464Zm.29,0c.585.3,1.415.607,1.647.446.031,0,.067-.058.045-.179a.228.228,0,0,0-.112-.165.535.535,0,0,0-.143-.071,3.8,3.8,0,0,0-1.437-.045Z" transform="translate(-97.473 -248.243)" fill="#fd5675"/>
      <path id="Path_76986" data-name="Path 76986" d="M103.336,338.762a.076.076,0,0,1,0-.08,2.338,2.338,0,0,1,.982-1.085.62.62,0,0,1,.482.031c.205.1.232.232.21.326-.067.393-1.12.812-1.58.844H103.4A.076.076,0,0,1,103.336,338.762Zm1.339-1.009a.446.446,0,0,0-.3,0,1.95,1.95,0,0,0-.812.844c.5-.089,1.223-.446,1.285-.683,0-.022,0-.08-.121-.147h-.049Z" transform="translate(-97.46 -247.018)" fill="#fd5675"/>
      <path id="Path_76987" data-name="Path 76987" d="M95.937,337.316l-3.571-1.339A.313.313,0,0,0,92,336.1l-1.732,2.678a.518.518,0,0,0,.147.71.408.408,0,0,0,.1.049c1.3.446,2.477.817,4.084,1.415,1.9.705,1.339.754,3.571,1.616,1.339.518,2.156-.919,1.611-1.21-2.486-1.294-2.464-2.187-3.124-3.495A1.245,1.245,0,0,0,95.937,337.316Z" transform="translate(-90.186 -246.13)" fill="#263238"/>
      <path id="Path_76988" data-name="Path 76988" d="M98.06,327.019l3.29,1.571,1.236-2.629-3.548-1.651Z" transform="translate(-94.545 -239.681)" fill="#263238" opacity="0.2"/>
      <path id="Path_76989" data-name="Path 76989" d="M142.28,336.43l.545,5.981,3.357-.223.013-5.758Z" transform="translate(-119.028 -246.391)" fill="#dd8c6a"/>
      <path id="Path_76990" data-name="Path 76990" d="M152.224,348.1a.085.085,0,0,1-.067-.067.076.076,0,0,1,.036-.085c.054-.036,1.25-.777,1.839-.634a.411.411,0,0,1,.268.183.308.308,0,0,1,0,.362,1.513,1.513,0,0,1-1.022.3,6.212,6.212,0,0,1-1.053-.062Zm.268-.121c.652.058,1.535.022,1.692-.214.022-.027.04-.08,0-.179a.228.228,0,0,0-.17-.112.445.445,0,0,0-.156,0A3.824,3.824,0,0,0,152.492,347.982Z" transform="translate(-124.495 -252.409)" fill="#fd5675"/>
      <path id="Path_76991" data-name="Path 76991" d="M152.165,347.1a.071.071,0,0,1-.036-.071,2.357,2.357,0,0,1,.5-1.375.62.62,0,0,1,.446-.161c.228,0,.3.129.317.223.089.393-.728,1.183-1.138,1.384h-.036a.089.089,0,0,1-.049,0Zm.866-1.446a.446.446,0,0,0-.286.116,1.95,1.95,0,0,0-.424,1.089c.424-.272.955-.893.924-1.12,0-.022,0-.085-.17-.089Z" transform="translate(-124.481 -251.406)" fill="#fd5675"/>
      <path id="Path_76992" data-name="Path 76992" d="M145.634,347.994l-3.821.138a.3.3,0,0,0-.295.25l-.58,3.124a.513.513,0,0,0,.406.6h.112c1.375-.076,2.6-.192,4.316-.25,2.022-.076,1.518.187,3.9.134,1.433-.031,1.638-1.669,1.027-1.727-2.794-.254-3.124-1.085-4.222-2.04a1.241,1.241,0,0,0-.844-.232Z" transform="translate(-118.28 -252.79)" fill="#263238"/>
      <path id="Path_76993" data-name="Path 76993" d="M146.194,336.43H142.28l.286,3.124,3.62-.1Z" transform="translate(-119.028 -246.391)" fill="#263238" opacity="0.2"/>
      <path id="Path_76994" data-name="Path 76994" d="M115.074,212.24s-6,3.95-5.021,15.578l-1,13.167S103.1,244.98,98.34,263.378a10.8,10.8,0,0,0,4.178,2.035l14.319-21.9,5.3-22.8.62-7.588Z" transform="translate(-94.701 -177.633)" fill="#fd5675"/>
      <path id="Path_76995" data-name="Path 76995" d="M115.074,212.24s-6,3.95-5.021,15.578l-1,13.167S103.1,244.98,98.34,263.378a10.8,10.8,0,0,0,4.178,2.035l14.319-21.9,5.3-22.8.62-7.588Z" transform="translate(-94.701 -177.633)" opacity="0.1"/>
      <path id="Path_76996" data-name="Path 76996" d="M138.8,244.283l-2.16-8.387-3.441-1.7s0,16.323,1.544,23.612l1.41-2.16Z" transform="translate(-114.001 -189.791)" opacity="0.2"/>
      <path id="Path_76997" data-name="Path 76997" d="M126.5,168.071a3.9,3.9,0,0,0-3.446,1.415,30.489,30.489,0,0,0-3.2,4.954s2.017,2.522,4.321,2.2Z" transform="translate(-106.61 -153.166)" fill="#fd5675"/>
      <path id="Path_76998" data-name="Path 76998" d="M126.5,168.071a3.9,3.9,0,0,0-3.446,1.415,30.489,30.489,0,0,0-3.2,4.954s2.017,2.522,4.321,2.2Z" transform="translate(-106.61 -153.166)" opacity="0.1"/>
      <path id="Path_76999" data-name="Path 76999" d="M128.992,178.829,130.84,172l-1.852.232S128.019,178.356,128.992,178.829Z" transform="translate(-111.431 -155.354)" opacity="0.1"/>
      <path id="Path_77000" data-name="Path 77000" d="M135.4,212.24s-4.954,5.419-1.924,16.028l2.142,13.323a72.306,72.306,0,0,0,.616,27.772,15.716,15.716,0,0,0,5.053-.112l3.1-28.4L145.93,213.7Z" transform="translate(-113.608 -177.633)" fill="#fd5675"/>
      <path id="Path_77001" data-name="Path 77001" d="M154.323,144.5c.143-.027.295.125.339.339s-.036.42-.179.446-.295-.125-.339-.344S154.18,144.519,154.323,144.5Z" transform="translate(-125.59 -140.125)" fill="#263238"/>
      <path id="Path_77002" data-name="Path 77002" d="M154.675,148.388a1.272,1.272,0,0,0,1-.406,7.959,7.959,0,0,1-1.415-1.651Z" transform="translate(-125.661 -141.142)" fill="#932a2a"/>
      <path id="Path_77003" data-name="Path 77003" d="M151.751,142.3a1.022,1.022,0,0,1,.893-.37h.045a.129.129,0,0,0,.129-.134.134.134,0,0,0-.129-.134,1.308,1.308,0,0,0-1.1.446.121.121,0,0,0-.036.085.134.134,0,0,0,.129.134A.138.138,0,0,0,151.751,142.3Z" transform="translate(-124.16 -138.555)" fill="#263238"/>
      <path id="Path_77004" data-name="Path 77004" d="M143.838,156.717c-.393,1.567-.411,3.513,1.3,4.048,0,0,2.134,1.785-1.982,1.785-3.74,0-4.289-2.04-4.289-2.04,1.406-1.339,1.169-4.138.772-6.151Z" transform="translate(-117.14 -145.587)" fill="#dd8c6a"/>
      <path id="Path_77005" data-name="Path 77005" d="M135.46,164.258a5.581,5.581,0,0,1,1.6-2.325c.919-.54,4.8.259,5.4.531s1.152,1.71,1.152,1.71Z" transform="translate(-115.252 -149.679)" fill="#fd5675"/>
      <path id="Path_77006" data-name="Path 77006" d="M135.46,164.258a5.581,5.581,0,0,1,1.6-2.325c.919-.54,4.8.259,5.4.531s1.152,1.71,1.152,1.71Z" transform="translate(-115.252 -149.679)" opacity="0.4"/>
      <path id="Path_77007" data-name="Path 77007" d="M128.665,170.081a79.281,79.281,0,0,1,.567,18.912c-.058.634-.112,1.174-.156,1.6-.04.339-.067.607-.089.8l14.729-.085c.031-.241.063-.482.089-.719.067-.549.134-1.08.192-1.6,1.236-10.587,1.071-16.149.518-18.921a3.919,3.919,0,0,0-3.187-3.089c-.17-.027-.741-.062-1.513-.1-.424,0-.893-.04-1.424-.054-1.589-.062-3.455-.1-4.7-.058a4.117,4.117,0,0,0-.594.027c-.446.031-.915.071-1.366.125-.263.022-.518.054-.777.089a2.651,2.651,0,0,0-2.294,3.071Z" transform="translate(-111.47 -152.448)" fill="#fd5675"/>
      <path id="Path_77008" data-name="Path 77008" d="M137.4,141.132a3.655,3.655,0,0,0,.125.812c.518,1.937.808,3.3,1.571,4.325a4.062,4.062,0,0,0,1.044,1,3.631,3.631,0,0,0,5.6-3.044c.085-2.517-1.085-6.414-3.914-6.945a3.727,3.727,0,0,0-4.37,2.955A3.829,3.829,0,0,0,137.4,141.132Z" transform="translate(-116.323 -136.091)" fill="#dd8c6a"/>
      <g id="Group_47202" data-name="Group 47202" transform="translate(21.078 3.608)" opacity="0.2">
        <path id="Path_77009" data-name="Path 77009" d="M137.41,144.223a3.655,3.655,0,0,0,.125.812c.518,1.937.808,3.3,1.571,4.325l2.879.036,1.339-3.361.366-3.245A40.11,40.11,0,0,1,137.41,144.223Z" transform="translate(-137.41 -142.79)"/>
      </g>
      <path id="Path_77010" data-name="Path 77010" d="M135.525,140.927c-.446-.571-1.58-2.433-1.518-3.165a8.07,8.07,0,0,1,3.388-2.562,8.409,8.409,0,0,1,4.566-.286,6.49,6.49,0,0,1,.79,1.884,2.232,2.232,0,0,1-.277,1.919C141.171,140.436,135.98,141.5,135.525,140.927Z" transform="translate(-114.446 -134.716)" fill="#013c68"/>
      <path id="Path_77011" data-name="Path 77011" d="M149.61,145.1c.786.241,1.183,1.4,1.205,2.138.031.812-.518,1.339-1.219.768a3.058,3.058,0,0,1-1.067-1.669C148.342,145.538,148.824,144.864,149.61,145.1Z" transform="translate(-122.466 -140.434)" fill="#dd8c6a"/>
      <path id="Path_77012" data-name="Path 77012" d="M134.05,137.734a3.5,3.5,0,0,0,.415.1,8.569,8.569,0,0,0,2,.076c.134.259.263.522.4.786v-.786c.129.183.308.487.446.67,0-.219.022-.482,0-.705a7.142,7.142,0,0,0,3.861-1.785,2.723,2.723,0,0,0,.692-.893,1.339,1.339,0,0,0,.089-.308,8.4,8.4,0,0,0-4.517.295,7.976,7.976,0,0,0-3.383,2.553Z" transform="translate(-114.471 -134.706)" fill="#fff" opacity="0.1"/>
      <path id="Path_77013" data-name="Path 77013" d="M160.4,177.743a8.838,8.838,0,0,0-.312-2.508l-2.134-1.085-1.312,1.942s2.071,4.236,3.781,5.963A28.685,28.685,0,0,0,160.4,177.743Z" transform="translate(-126.978 -156.544)" opacity="0.2"/>
      <path id="Path_77014" data-name="Path 77014" d="M162.17,170.652s6.718,4.4,6.285,4.379l8.851-3.254a18.221,18.221,0,0,1,.607-1.754l.835-.719a.826.826,0,0,1,.754-.312l.625.214c.37.3.665.3.656.5l-.861.893-1.486,1.9s-7.392,4.553-9.3,5.8-6.9-3.2-6.9-3.2Z" transform="translate(-130.04 -153.685)" fill="#dd8c6a"/>
      <path id="Path_77015" data-name="Path 77015" d="M156.239,169.275c1.951.286,3.946,1.839,7.043,4.575a9.507,9.507,0,0,1-3.276,3.785,12.108,12.108,0,0,1-3.955-3.526C153.472,170.8,155.043,169.1,156.239,169.275Z" transform="translate(-125.882 -153.838)" fill="#fd5675"/>
      <path id="Path_77016" data-name="Path 77016" d="M147.73,218.178h6.637c.067-.549.134-1.08.192-1.6h-6.521Z" transform="translate(-122.045 -180.036)" opacity="0.2"/>
      <path id="Path_77017" data-name="Path 77017" d="M129.63,218.178h.665l.134-1.6H129.8C129.728,217.214,129.675,217.754,129.63,218.178Z" transform="translate(-112.024 -180.036)" opacity="0.2"/>
    </g>
  </g>
</svg>
