<svg xmlns="http://www.w3.org/2000/svg" width="225.717" height="182.003" viewBox="0 0 225.717 182.003">
  <g id="Group_47162" data-name="Group 47162" transform="translate(-2843 -1185.455)">
    <path id="Path_76056" data-name="Path 76056" d="M261.252,137.752a.365.365,0,0,1-.124-.022,7.323,7.323,0,0,0-1.454-.364.365.365,0,0,1,.1-.723,8.053,8.053,0,0,1,1.6.4.365.365,0,0,1-.125.709Z" transform="translate(2687.605 1193.527)" fill="#7d7d7d"/>
    <g id="Group_47158" data-name="Group 47158" transform="translate(2843 1193.059)">
      <g id="freepik--background-simple--inject-2" transform="translate(0)" opacity="0.18">
        <path id="Path_75985" data-name="Path 75985" d="M138.171,29.306S108.626,18.8,79.626,35.528s-43.642,49.926-56.209,76.52-5.344,53.651,16.8,65.985,37.191-5.848,68.248-6.734,39.421,3.554,65.21-13.99,30.427-58.98,10.1-89.636S138.171,29.306,138.171,29.306Z" transform="translate(-17.267 -26.05)" fill="#99b1c3"/>
        <path id="Path_75986" data-name="Path 75986" d="M138.171,29.306S108.626,18.8,79.626,35.528s-43.642,49.926-56.209,76.52-5.344,53.651,16.8,65.985,37.191-5.848,68.248-6.734,39.421,3.554,65.21-13.99,30.427-58.98,10.1-89.636S138.171,29.306,138.171,29.306Z" transform="translate(-17.267 -26.05)" fill="#99b1c3" opacity="0.7"/>
      </g>
      <g id="freepik--Plants--inject-2" transform="translate(4.155 45.906)">
        <path id="Path_75987" data-name="Path 75987" d="M32.674,220.45c1.527-.111,4.531-1.779,4.531-1.783s-1.7-1.641-1.821-1.733c-1.4-1.042-4.718-2.233-6.31-1.1a2.313,2.313,0,0,0-.294,3.436A4.847,4.847,0,0,0,32.674,220.45Z" transform="translate(-28.151 -189.011)" fill="#fd5675"/>
        <path id="Path_75988" data-name="Path 75988" d="M42.609,185.994a16.125,16.125,0,0,0,3.863-2.882,41.611,41.611,0,0,0,4.039,3.684c.828.664,1.683,1.313,2.546,1.947-.435-.229-.832-.435-.889-.458-1.626-.634-5.142-.908-6.379.607a2.313,2.313,0,0,0,.626,3.386,4.826,4.826,0,0,0,4.069.115,15.554,15.554,0,0,0,3.764-2.787l1,.725c1.607,1.145,3.218,2.29,4.76,3.455.546.412,1.069.836,1.592,1.26a6.588,6.588,0,0,0-.763-.382c-1.626-.637-5.142-.908-6.379.607a2.317,2.317,0,0,0,.626,3.386,4.826,4.826,0,0,0,4.069.115,14.311,14.311,0,0,0,3.672-2.7c.519.45,1.046.9,1.527,1.359.324.321.66.607.966.947l.928.981c.569.649,1.145,1.309,1.695,1.954.382.443.725.874,1.08,1.309-.534-.416-1.6-1.206-1.7-1.263-1.508-.874-4.943-1.676-6.394-.382a2.313,2.313,0,0,0,.1,3.435,4.841,4.841,0,0,0,4,.725,15.832,15.832,0,0,0,4.233-2.245c.584.718,1.145,1.424,1.668,2.1,1.4,1.809,2.561,3.436,3.466,4.714l1.145-.607c-.954-1.309-2.2-2.962-3.71-4.825-.588-.733-1.233-1.5-1.909-2.29a25.323,25.323,0,0,0,1.779-2.359,17,17,0,0,0,4.623.408c.088.92.168,1.817.229,2.672.168,2.214.248,4.153.29,5.707l1.252-.657c-.08-1.458-.2-3.2-.382-5.149-.088-.939-.2-1.935-.328-2.962a15.671,15.671,0,0,0,4.4-1.909,4.846,4.846,0,0,0,1.939-3.581,2.313,2.313,0,0,0-2.622-2.233c-1.909.313-3.436,3.493-3.714,5.218,0,.1-.061,1.225-.076,1.935-.053-.42-.1-.825-.16-1.256-.115-.851-.256-1.7-.382-2.607-.084-.439-.172-.882-.26-1.325s-.218-.9-.324-1.363c-.271-1.054-.6-2.107-.947-3.164a14.982,14.982,0,0,0,4.5-1.191,4.836,4.836,0,0,0,2.458-3.245,2.317,2.317,0,0,0-2.252-2.607c-1.954,0-3.943,2.932-4.462,4.581-.034.1-.271,1.34-.382,2.023-.218-.634-.431-1.267-.668-1.909-.691-1.828-1.447-3.657-2.195-5.485-.229-.557-.447-1.118-.672-1.68a16.051,16.051,0,0,0,4.661-1.214,4.828,4.828,0,0,0,2.458-3.245,2.313,2.313,0,0,0-2.252-2.6c-1.954,0-3.939,2.928-4.462,4.581-.038.126-.382,1.909-.447,2.363-.492-1.233-.97-2.466-1.393-3.7A41.081,41.081,0,0,1,68.7,171a15.921,15.921,0,0,0,4.691-1.218,4.834,4.834,0,0,0,2.454-3.245,2.313,2.313,0,0,0-2.248-2.607c-1.958,0-3.943,2.932-4.466,4.581-.038.134-.4,2.05-.447,2.4-.023-.1-.053-.2-.073-.3a29.637,29.637,0,0,1-.466-5.275c0-.977.031-1.909.092-2.821a15.262,15.262,0,0,0,4.684-.691,4.7,4.7,0,0,0,2.8-2.958,2.313,2.313,0,0,0-1.951-2.836c-1.947-.2-4.241,2.481-4.939,4.081-.038.084-.328,1.012-.531,1.691.034-.408.061-.832.1-1.225.149-1.47.382-2.809.588-3.993.126-.672.256-1.275.382-1.84a15.509,15.509,0,0,0,3.817-2.76,4.79,4.79,0,0,0,1.122-3.913,2.313,2.313,0,0,0-3.054-1.618c-1.821.718-2.622,4.153-2.508,5.894,0,.153.435,2.489.47,2.474l.034-.023c-.13.542-.263,1.145-.382,1.764-.237,1.18-.5,2.516-.679,3.989a42.29,42.29,0,0,0-.382,4.783,30.209,30.209,0,0,0,.359,5.344v.061c-.256-.512-1.027-1.909-1.1-2.019-1.008-1.428-3.791-3.6-5.657-3.012a2.317,2.317,0,0,0-1.347,3.168,4.847,4.847,0,0,0,3.332,2.34,16.122,16.122,0,0,0,4.814-.271,40.946,40.946,0,0,0,1.336,5.3c.324,1.015.679,2.023,1.05,3.031-.237-.435-.454-.821-.489-.874-1.008-1.428-3.787-3.592-5.653-3.012a2.313,2.313,0,0,0-1.347,3.168,4.831,4.831,0,0,0,3.329,2.34,15.473,15.473,0,0,0,4.676-.248l.435,1.145c.706,1.848,1.42,3.684,2.065,5.512.229.641.428,1.283.63,1.909-.21-.382-.382-.71-.424-.763-1-1.428-3.787-3.6-5.653-3.012a2.309,2.309,0,0,0-1.347,3.168,4.835,4.835,0,0,0,3.329,2.336,14.5,14.5,0,0,0,4.55-.221c.187.66.382,1.325.531,1.977.092.447.214.87.282,1.325s.157.889.233,1.328c.118.851.24,1.729.336,2.561.069.58.122,1.145.179,1.691-.218-.641-.676-1.909-.725-1.993a8.967,8.967,0,0,0-3.1-3.306,2.574,2.574,0,0,0-.263-.439,2.317,2.317,0,0,0-3.436-.416c-1.435,1.325-.95,4.817-.218,6.4.042.1.626,1.057,1,1.657-.279-.321-.542-.634-.828-.958-.565-.645-1.145-1.275-1.771-1.954l-.95-.962c-.309-.328-.679-.634-1.019-.958-.805-.729-1.66-1.428-2.535-2.115a15.335,15.335,0,0,0,3.1-3.478,4.819,4.819,0,0,0,.26-4.062,2.317,2.317,0,0,0-3.317-.931c-1.619,1.092-1.668,4.619-1.183,6.295.027.107.512,1.271.79,1.909-.531-.408-1.057-.817-1.6-1.214-1.584-1.145-3.226-2.252-4.856-3.363l-1.489-1.031a16.168,16.168,0,0,0,3.222-3.584,4.845,4.845,0,0,0,.256-4.062,2.313,2.313,0,0,0-3.271-.878c-1.622,1.092-1.672,4.619-1.187,6.295.038.126.733,1.8.931,2.218-1.088-.763-2.168-1.527-3.2-2.317a40.169,40.169,0,0,1-3.985-3.474c.092-.08,2.611-2.237,3.241-3.6a4.855,4.855,0,0,0,.26-4.065,2.317,2.317,0,0,0-3.317-.931c-1.622,1.1-1.672,4.619-1.187,6.3.038.13.79,1.932.95,2.248-.073-.073-.157-.137-.225-.214a29.678,29.678,0,0,1-3.3-4.142c-.55-.809-1.027-1.611-1.477-2.4a15.366,15.366,0,0,0,3.523-3.161,4.783,4.783,0,0,0,.706-4.008,2.317,2.317,0,0,0-3.2-1.29c-1.729.909-2.168,4.409-1.87,6.108,0,.1.286,1.027.492,1.706-.2-.363-.408-.729-.588-1.08-.687-1.309-1.237-2.55-1.714-3.653-.263-.63-.492-1.206-.7-1.744a15.619,15.619,0,0,0,1.66-4.409,4.8,4.8,0,0,0-1.225-3.882,2.313,2.313,0,0,0-3.436.328c-1.118,1.6.107,4.909,1.145,6.3.092.122,1.737,1.836,1.752,1.8v-.034c.191.523.4,1.08.641,1.687.45,1.118.973,2.374,1.634,3.7a41.458,41.458,0,0,0,2.39,4.191,30.45,30.45,0,0,0,3.252,4.268l.046.042c-.5-.282-1.909-1.031-2.031-1.076-1.626-.634-5.142-.909-6.379.607a2.313,2.313,0,0,0,.618,3.413A4.827,4.827,0,0,0,42.609,185.994Z" transform="translate(-32.402 -146.31)" fill="#fd5675"/>
        <path id="Path_75989" data-name="Path 75989" d="M109.422,176.9c.038,0-.508-2.29-.561-2.451-.592-1.641-2.7-4.466-4.657-4.4a2.317,2.317,0,0,0-2.138,2.7,4.835,4.835,0,0,0,2.6,3.134C106,176.652,109.422,176.9,109.422,176.9Z" transform="translate(-73.831 -160.986)" fill="#fd5675"/>
        <path id="Path_75990" data-name="Path 75990" d="M423.227,375.37a12.078,12.078,0,0,1-3.367-1.325s1.263-1.221,1.355-1.29c1.038-.763,3.508-1.66,4.691-.817a1.722,1.722,0,0,1,.218,2.55A3.6,3.6,0,0,1,423.227,375.37Z" transform="translate(-270.336 -285.6)" fill="#fd5675"/>
        <path id="Path_75991" data-name="Path 75991" d="M368.134,349.82a12.556,12.556,0,0,1-2.874-2.141,30.856,30.856,0,0,1-3,2.737c-.615.5-1.252.973-1.909,1.447.324-.172.618-.324.66-.34,1.21-.473,3.817-.676,4.741.45a1.722,1.722,0,0,1-.462,2.519,3.613,3.613,0,0,1-3.027.084,11.42,11.42,0,0,1-2.8-2.073l-.729.546c-1.195.855-2.39,1.7-3.539,2.569-.4.305-.794.622-1.18.935.286-.153.534-.279.573-.294,1.21-.473,3.817-.676,4.741.45a1.722,1.722,0,0,1-.466,2.519,3.6,3.6,0,0,1-3.023.084,10.671,10.671,0,0,1-2.729-2q-.573.5-1.145,1.008c-.241.237-.492.45-.721.7l-.687.733c-.424.477-.859.973-1.26,1.451-.279.332-.542.653-.805.973.4-.309,1.195-.9,1.267-.939,1.122-.649,3.676-1.248,4.756-.271a1.718,1.718,0,0,1-.08,2.558,3.609,3.609,0,0,1-2.977.542,11.823,11.823,0,0,1-3.145-1.672c-.435.534-.851,1.061-1.237,1.561-1.042,1.344-1.909,2.538-2.58,3.5l-.855-.45c.714-.977,1.638-2.206,2.76-3.588.439-.546.916-1.118,1.416-1.7a18.609,18.609,0,0,1-1.3-1.76,11.9,11.9,0,0,1-3.435.3c-.069.687-.13,1.355-.176,1.985-.122,1.645-.183,3.088-.214,4.245l-.931-.489c.061-1.088.149-2.378.29-3.817.065-.7.149-1.439.24-2.2a11.816,11.816,0,0,1-3.271-1.412,3.594,3.594,0,0,1-1.439-2.672,1.718,1.718,0,0,1,1.947-1.66c1.435.233,2.565,2.6,2.764,3.882,0,.073.042.909.053,1.435.042-.309.076-.611.122-.931.084-.634.187-1.264.3-1.939.061-.324.126-.653.191-.985s.16-.672.24-1.012c.2-.783.443-1.569.706-2.351a11.61,11.61,0,0,1-3.348-.886,3.574,3.574,0,0,1-1.825-2.413,1.722,1.722,0,0,1,1.672-1.939c1.454,0,2.932,2.18,3.317,3.416.027.08.2,1,.29,1.508.16-.473.321-.943.5-1.412.515-1.359,1.076-2.718,1.63-4.077.172-.416.336-.832.5-1.248a12.046,12.046,0,0,1-3.466-.9,3.607,3.607,0,0,1-1.828-2.412,1.725,1.725,0,0,1,1.676-1.939c1.451,0,2.928,2.18,3.317,3.436.027.092.282,1.416.332,1.756.363-.916.721-1.836,1.034-2.752a29.845,29.845,0,0,0,1.046-3.787,11.8,11.8,0,0,1-3.485-.9,3.6,3.6,0,0,1-1.828-2.413,1.725,1.725,0,0,1,1.676-1.939c1.454,0,2.932,2.18,3.317,3.435.031.1.3,1.527.336,1.783a1.712,1.712,0,0,1,.05-.225,21.982,21.982,0,0,0,.347-3.92c0-.729-.023-1.424-.069-2.1a11.242,11.242,0,0,1-3.481-.511,3.547,3.547,0,0,1-2.08-2.2,1.722,1.722,0,0,1,1.451-2.111c1.447-.145,3.153,1.844,3.672,3.035.031.065.244.763.382,1.256-.023-.3-.046-.618-.076-.909-.111-1.1-.279-2.088-.435-2.97-.1-.5-.191-.947-.283-1.367a11.556,11.556,0,0,1-2.836-2.054,3.558,3.558,0,0,1-.836-2.909,1.722,1.722,0,0,1,2.26-1.2c1.351.534,1.951,3.088,1.863,4.382,0,.115-.324,1.851-.347,1.84h-.027c.1.4.2.832.3,1.309.176.878.382,1.87.5,2.966a30.572,30.572,0,0,1,.267,3.554,22.431,22.431,0,0,1-.263,3.981v.046c.191-.382.763-1.424.817-1.5.763-1.061,2.817-2.672,4.2-2.241a1.722,1.722,0,0,1,1,2.355,3.594,3.594,0,0,1-2.477,1.741,12,12,0,0,1-3.577-.2,30.86,30.86,0,0,1-1,3.939c-.241.763-.5,1.5-.763,2.252.176-.321.336-.611.363-.649.763-1.061,2.817-2.672,4.2-2.241a1.725,1.725,0,0,1,1,2.359,3.578,3.578,0,0,1-2.477,1.737,11.525,11.525,0,0,1-3.477-.183l-.321.859c-.527,1.374-1.057,2.741-1.527,4.1-.172.477-.321.954-.47,1.431.157-.286.29-.527.317-.561.744-1.061,2.813-2.672,4.2-2.241a1.722,1.722,0,0,1,1,2.355,3.575,3.575,0,0,1-2.477,1.741,10.665,10.665,0,0,1-3.382-.168c-.137.492-.279.985-.382,1.47-.069.332-.16.649-.21.985s-.115.664-.172.989c-.088.634-.179,1.286-.248,1.909-.053.431-.092.844-.134,1.256.16-.477.5-1.4.534-1.481a6.7,6.7,0,0,1,2.309-2.458,1.906,1.906,0,0,1,.156-.367,1.718,1.718,0,0,1,2.538-.309c1.069.985.71,3.581.164,4.76-.031.069-.466.783-.744,1.229.2-.237.4-.47.615-.71.42-.481.851-.951,1.317-1.454l.706-.714c.229-.244.5-.473.763-.714.6-.542,1.233-1.061,1.886-1.573a10.961,10.961,0,0,1-2.29-2.584,3.686,3.686,0,0,1-.195-3.019,1.718,1.718,0,0,1,2.466-.691c1.206.809,1.241,3.436.882,4.68-.023.076-.382.943-.588,1.412.382-.3.786-.607,1.191-.9,1.18-.851,2.4-1.676,3.611-2.5l1.107-.763a11.739,11.739,0,0,1-2.393-2.672,3.584,3.584,0,0,1-.195-3.019,1.718,1.718,0,0,1,2.466-.691c1.206.813,1.241,3.435.882,4.68-.027.1-.546,1.34-.695,1.649.813-.565,1.615-1.145,2.382-1.725a30.067,30.067,0,0,0,2.966-2.58,12.267,12.267,0,0,1-2.412-2.672,3.6,3.6,0,0,1-.191-3.019,1.722,1.722,0,0,1,2.466-.695c1.2.813,1.241,3.436.882,4.68-.031.1-.588,1.439-.706,1.672l.168-.157a22.542,22.542,0,0,0,2.454-3.081c.4-.6.763-1.2,1.1-1.786a11.582,11.582,0,0,1-2.619-2.351,3.533,3.533,0,0,1-.523-2.977,1.722,1.722,0,0,1,2.374-.962c1.286.676,1.611,3.279,1.389,4.558,0,.069-.214.763-.382,1.267.149-.271.3-.542.439-.805.512-.973.916-1.909,1.271-2.714.2-.47.382-.9.523-1.3a11.655,11.655,0,0,1-1.237-3.275,3.562,3.562,0,0,1,.912-2.886,1.718,1.718,0,0,1,2.546.24c.832,1.195-.08,3.653-.863,4.684-.069.092-1.29,1.367-1.305,1.34v-.027c-.141.382-.3.805-.477,1.256-.336.828-.725,1.764-1.218,2.752a31.056,31.056,0,0,1-1.733,3.115,22.257,22.257,0,0,1-2.42,3.172l-.034.034c.382-.21,1.424-.763,1.527-.8,1.206-.473,3.817-.676,4.741.45a1.722,1.722,0,0,1-.466,2.519A3.7,3.7,0,0,1,368.134,349.82Z" transform="translate(-219.464 -253.92)" fill="#fd5675"/>
        <path id="Path_75992" data-name="Path 75992" d="M368.178,343.031c-.027,0,.382-1.718.416-1.825.443-1.218,2.012-3.321,3.462-3.268a1.718,1.718,0,0,1,1.588,2.008,3.59,3.59,0,0,1-1.928,2.328A12.336,12.336,0,0,1,368.178,343.031Z" transform="translate(-238.381 -264.789)" fill="#fd5675"/>
      </g>
      <g id="freepik--Floor--inject-2" transform="translate(5.64 166.429)">
        <path id="Line_246" data-name="Line 246" d="M170.5.231H-.135A.365.365,0,0,1-.5-.135.365.365,0,0,1-.135-.5H170.5a.365.365,0,0,1,.365.365A.365.365,0,0,1,170.5.231Z" transform="translate(0.5 0.5)" fill="#263238"/>
      </g>
    </g>
    <g id="Group_47161" data-name="Group 47161" transform="translate(2960.609 1185.455)">
      <g id="Group_47160" data-name="Group 47160" transform="translate(0 0)">
        <g id="freepik--Character--inject-2">
          <ellipse id="Ellipse_1679" data-name="Ellipse 1679" cx="30.259" cy="7.358" rx="30.259" ry="7.358" transform="translate(32.281 167.287)" opacity="0.22"/>
          <path id="Path_75511" data-name="Path 75511" d="M494.474,236.2l-15.893,22.746a5.715,5.715,0,0,0,1.6,7.287,4.936,4.936,0,0,0,7.132-.291l9.765-11.953-.291-14.265Z" transform="translate(-450.704 -191.263)" fill="#263238"/>
          <path id="Path_75511_-_Outline" data-name="Path 75511 - Outline" d="M494.245,235.634h0a.336.336,0,0,1,.276.151l2.318,3.525a.337.337,0,0,1,.055.178l.291,14.265a.336.336,0,0,1-.076.22l-9.765,11.953-.008.009a5.709,5.709,0,0,1-3.96,1.824,5.606,5.606,0,0,1-3.643-1.5,6.924,6.924,0,0,1-2.008-2.684,5.683,5.683,0,0,1-.39-2.494,6.154,6.154,0,0,1,.722-2.536l.013-.021,15.893-22.746A.337.337,0,0,1,494.245,235.634Zm1.984,3.965-1.992-3.029-15.6,22.327a5.611,5.611,0,0,0-.626,2.255,5.452,5.452,0,0,0,2.164,4.595,4.957,4.957,0,0,0,3.207,1.338,5.077,5.077,0,0,0,3.451-1.591l9.683-11.851Z" transform="translate(-450.474 -191.034)" fill="#013c68"/>
          <path id="Path_75512" data-name="Path 75512" d="M521.095,228.718l-15.3,4.375,3.608,40.714h32.8l7.982-40.678-17.5-4.589-9.51.327Z" transform="translate(-462.02 -188.156)" fill="#fd5675"/>
          <path id="Path_75512_-_Outline" data-name="Path 75512 - Outline" d="M532.455,227.974a.337.337,0,0,1,.085.011l17.5,4.589a.336.336,0,0,1,.245.39L542.3,273.642a.336.336,0,0,1-.33.272h-32.8a.336.336,0,0,1-.335-.307l-3.608-40.714a.336.336,0,0,1,.243-.353l15.3-4.375a.334.334,0,0,1,.116-.012l2.063.147,9.492-.326Zm17.107,5.17-17.145-4.5-9.461.325h-.036l-2.021-.144L505.92,233.11l3.556,40.131h32.218Z" transform="translate(-461.79 -187.926)" fill="#013c68"/>
          <path id="Path_75513" data-name="Path 75513" d="M564.461,257.081a3.941,3.941,0,1,1-3.941-3.941A3.941,3.941,0,0,1,564.461,257.081Z" transform="translate(-482.622 -198.135)" fill="#fff"/>
          <path id="Path_75514" data-name="Path 75514" d="M490.1,260.876l3.435-22.5s-8.363-.244-8.476.475-9.2,21.344-9.2,21.344a6.383,6.383,0,0,0,1.6,5.569,7.34,7.34,0,0,0,7.988,2.52C488.057,267.544,490.1,260.876,490.1,260.876Z" transform="translate(-449.826 -192.128)" fill="#99b1c3"/>
          <path id="Path_75514_-_Outline" data-name="Path 75514 - Outline" d="M483.033,268.72h0a7.678,7.678,0,0,1-6.07-2.977,7.349,7.349,0,0,1-1.768-4.026,5.341,5.341,0,0,1,.108-1.847.34.34,0,0,1,.015-.042c3.6-8.172,9.012-20.569,9.177-21.266.056-.333.44-.456.808-.533a10.857,10.857,0,0,1,1.359-.163c.913-.065,2.138-.1,3.641-.1,1.62,0,2.995.04,3.008.04a.336.336,0,0,1,.323.387L490.2,260.7a.33.33,0,0,1-.011.048,28.231,28.231,0,0,1-1.364,3.473c-1.152,2.423-2.335,3.822-3.516,4.157A7.664,7.664,0,0,1,483.033,268.72Zm-7.09-8.646a4.919,4.919,0,0,0-.077,1.609,6.648,6.648,0,0,0,1.615,3.631l.009.011a7.051,7.051,0,0,0,5.543,2.721h0a6.992,6.992,0,0,0,2.079-.317l.009,0c.973-.274,2.043-1.588,3.1-3.8a28.169,28.169,0,0,0,1.321-3.358l3.374-22.1c-.517-.012-1.505-.03-2.609-.03-4.083,0-4.979.244-5.169.332-.106.346-.712,1.9-4.642,10.922C478.31,254.7,476.115,259.684,475.943,260.074Z" transform="translate(-449.596 -191.899)" fill="#013c68"/>
          <path id="Path_75515" data-name="Path 75515" d="M487.28,240.1l11.941,1.213-.3-6.021-9.884-.481Z" transform="translate(-454.511 -190.699)" fill="#fff"/>
          <path id="Path_75515_-_Outline" data-name="Path 75515 - Outline" d="M498.991,241.419l-.034,0L487.016,240.2a.336.336,0,0,1-.285-.441l1.759-5.29a.336.336,0,0,1,.336-.23l9.884.481a.336.336,0,0,1,.32.319l.3,6.021a.336.336,0,0,1-.336.353ZM487.5,239.578l11.134,1.131-.263-5.326-9.325-.454Z" transform="translate(-454.282 -190.47)" fill="#013c68"/>
          <path id="Path_75516" data-name="Path 75516" d="M506.986,175.052l-57.416,41.332a10.7,10.7,0,1,0,5.8,8.042L512.787,183.1a10.7,10.7,0,0,0,15.376-11.323l-.814-.814-6.966,6.425-5.516-7.626,7.84-5.652a6.737,6.737,0,0,1-.808-.814s-7.323-.826-10.6,1.551A10.7,10.7,0,0,0,506.986,175.052ZM441.915,232.3l-4.065-5.641,2.853-6.336,6.912-.7,4.065,5.635-2.847,6.336Z" transform="translate(-432.933 -161.634)" fill="#fff"/>
          <path id="Path_75516_-_Outline" data-name="Path 75516 - Outline" d="M518.76,162.59c.876,0,1.629.038,2.107.07.271.018.484.036.615.048l.166.016.044,0a.337.337,0,0,1,.245.131,6.426,6.426,0,0,0,.759.763.336.336,0,0,1-.021.529l-7.566,5.455,5.1,7.046,6.687-6.168a.336.336,0,0,1,.466.009l.814.814a.336.336,0,0,1,.094.182,11.035,11.035,0,0,1-15.675,11.77L455.5,224.351a11.037,11.037,0,1,1-6.194-8.587l57.088-41.1a11.035,11.035,0,0,1,4.478-10.323C512.872,162.895,516.265,162.59,518.76,162.59Zm2.741.8c-.357-.034-1.411-.124-2.741-.124-2.4,0-5.639.282-7.49,1.626a10.333,10.333,0,0,0-4.18,9.885.336.336,0,0,1-.136.321l-57.416,41.332a.336.336,0,0,1-.347.028,10.362,10.362,0,1,0,5.619,7.789.336.336,0,0,1,.136-.321L512.361,182.6a.336.336,0,0,1,.348-.027,10.41,10.41,0,0,0,4.673,1.114,10.362,10.362,0,0,0,10.237-11.975l-.509-.509-6.728,6.206a.336.336,0,0,1-.5-.05l-5.516-7.626a.336.336,0,0,1,.076-.47l7.5-5.409Q521.712,163.629,521.5,163.387Zm-74.115,55.671a.336.336,0,0,1,.273.14l4.065,5.635a.336.336,0,0,1,.034.335l-2.847,6.336a.336.336,0,0,1-.273.2l-6.918.707a.336.336,0,0,1-.307-.138l-4.065-5.641a.336.336,0,0,1-.034-.335l2.853-6.336a.336.336,0,0,1,.273-.2l6.912-.7Zm3.679,6.01-3.838-5.32-6.526.662-2.693,5.982,3.838,5.325,6.532-.668Z" transform="translate(-432.704 -161.404)" fill="#013c68"/>
          <path id="Path_75517" data-name="Path 75517" d="M505.616,173.434,448.2,214.76A10.7,10.7,0,1,0,454,222.8l57.416-41.326a10.7,10.7,0,0,0,15.376-11.323l-7.786,5.617-5.5-7.632,7.84-5.652a10.7,10.7,0,0,0-15.739,10.948Zm-65.065,57.243-4.065-5.635,2.847-6.324,6.912-.7,4.065,5.635-2.847,6.342Z" transform="translate(-432.377 -160.825)" fill="#fff"/>
          <path id="Path_75517_-_Outline" data-name="Path 75517 - Outline" d="M515.964,160.6h0a11.063,11.063,0,0,1,5.318,1.366.336.336,0,0,1,.035.568l-7.567,5.456,5.1,7.086,7.513-5.42a.336.336,0,0,1,.529.217,11.035,11.035,0,0,1-15.675,11.77l-57.088,41.09a11.037,11.037,0,1,1-6.194-8.587l57.082-41.086A11.035,11.035,0,0,1,515.964,160.6Zm4.515,1.709A10.362,10.362,0,0,0,505.7,173.095l0,.006a.336.336,0,0,1-.124.376L448.168,214.8a.336.336,0,0,1-.347.028,10.362,10.362,0,1,0,5.619,7.789.336.336,0,0,1,.136-.321l57.416-41.326a.336.336,0,0,1,.348-.027,10.41,10.41,0,0,0,4.673,1.114,10.363,10.363,0,0,0,10.3-11.538l-7.335,5.291a.336.336,0,0,1-.47-.076l-5.5-7.632a.336.336,0,0,1,.076-.469Zm-74.463,55.148a.336.336,0,0,1,.273.14l4.065,5.635a.336.336,0,0,1,.034.335l-2.847,6.342a.336.336,0,0,1-.274.2l-6.912.683a.336.336,0,0,1-.306-.138l-4.065-5.635a.336.336,0,0,1-.034-.335l2.847-6.324a.336.336,0,0,1,.273-.2l6.912-.7Zm3.679,6.01-3.838-5.32-6.526.662-2.687,5.97,3.838,5.32,6.526-.645Z" transform="translate(-432.148 -160.595)" fill="#013c68"/>
          <path id="Path_75518" data-name="Path 75518" d="M576.351,236.26,585.32,289.3l-8.167.874-6.853-22.74Z" transform="translate(-488.187 -191.287)" fill="#99b1c3"/>
          <path id="Path_75518_-_Outline" data-name="Path 75518 - Outline" d="M576.121,235.694h0a.336.336,0,0,1,.328.28l8.969,53.035a.336.336,0,0,1-.3.391l-8.167.874a.336.336,0,0,1-.358-.237l-6.853-22.74a.337.337,0,0,1-.008-.161l6.051-31.168A.336.336,0,0,1,576.121,235.694Zm8.578,53.075-8.6-50.856-5.682,29.268,6.749,22.394Z" transform="translate(-487.958 -191.058)" fill="#013c68"/>
          <path id="Path_75519" data-name="Path 75519" d="M574.5,253.5l-2.77,24.274-1.427-3.352Z" transform="translate(-488.187 -198.281)" fill="#013c68"/>
          <path id="Path_75519_-_Outline" data-name="Path 75519 - Outline" d="M574.266,252.934a.337.337,0,0,1,.335.375l-2.77,24.274a.336.336,0,0,1-.644.094l-1.427-3.352a.337.337,0,0,1-.02-.2l4.2-20.922A.336.336,0,0,1,574.266,252.934Zm-2.959,23.305,1.721-15.085-2.608,13Z" transform="translate(-487.958 -198.051)" fill="#013c68"/>
          <path id="Path_75520" data-name="Path 75520" d="M486.665,226.051c-.85.369-1.872,1.747-1.563,2.057.44.446,1.783,2.651,2.425,2.318s1.658-1.319,1.658-1.872-1.783-2.425-1.783-2.431A.63.63,0,0,0,486.665,226.051Z" transform="translate(-453.605 -187.111)" fill="#fff"/>
          <path id="Path_75520_-_Outline" data-name="Path 75520 - Outline" d="M486.754,225.4a.966.966,0,0,1,.641.243.337.337,0,0,1,.034.035l.034.037c1.828,1.978,1.828,2.438,1.828,2.611a2.16,2.16,0,0,1-.679,1.248,4.76,4.76,0,0,1-1.161.922.642.642,0,0,1-.3.072c-.613,0-1.268-.81-2.061-1.869-.187-.25-.363-.485-.46-.583a.587.587,0,0,1-.138-.556,3.7,3.7,0,0,1,1.789-2.038A.967.967,0,0,1,486.754,225.4Zm.184.737a.293.293,0,0,0-.333-.024l-.037.019a2.994,2.994,0,0,0-.978.813,2,2,0,0,0-.437.744c.124.137.282.347.477.607.26.347.583.778.89,1.109.421.453.6.488.629.49.619-.325,1.465-1.226,1.469-1.567,0-.032-.088-.468-1.65-2.157Z" transform="translate(-453.375 -186.881)" fill="#013c68"/>
          <path id="Path_75521" data-name="Path 75521" d="M488.775,220.155c-.85.363-1.872,1.747-1.563,2.057.44.446,2.645,3.786,3.311,3.453s1.652-1.325,1.652-1.878-2.639-3.566-2.645-3.566A.63.63,0,0,0,488.775,220.155Z" transform="translate(-454.461 -184.716)" fill="#fff"/>
          <path id="Path_75521_-_Outline" data-name="Path 75521 - Outline" d="M488.879,219.493h0a.965.965,0,0,1,.646.247l0,0a2.147,2.147,0,0,1,.146.158c.063.072.167.192.3.352.225.264.566.67.915,1.1,1.394,1.736,1.394,2.039,1.394,2.2,0,.782-1.19,1.855-1.838,2.179a.565.565,0,0,1-.255.059c-.618,0-1.447-.952-2.858-2.826-.253-.336-.492-.654-.587-.751a.589.589,0,0,1-.137-.559,3.683,3.683,0,0,1,1.785-2.033A.965.965,0,0,1,488.879,219.493Zm.186.739a.294.294,0,0,0-.342-.022.343.343,0,0,1-.046.024,2.947,2.947,0,0,0-.976.81,2,2,0,0,0-.436.746c.132.146.334.415.6.773.39.518.874,1.162,1.338,1.69a6.368,6.368,0,0,0,.637.647,1.074,1.074,0,0,0,.332.217,3.259,3.259,0,0,0,1.434-1.55,7.444,7.444,0,0,0-1.254-1.8C489.743,221.007,489.151,220.329,489.065,220.232Z" transform="translate(-454.231 -184.486)" fill="#013c68"/>
          <path id="Path_75522" data-name="Path 75522" d="M493.145,217.035c-.85.363-1.872,1.747-1.563,2.057.446.44,2.651,3.78,3.311,3.447s1.658-1.319,1.658-1.872-2.645-3.566-2.651-3.566a.63.63,0,0,0-.755-.065Z" transform="translate(-456.233 -183.45)" fill="#fff"/>
          <path id="Path_75522_-_Outline" data-name="Path 75522 - Outline" d="M493.249,216.373h0a.965.965,0,0,1,.646.247l0,0c.041.038.086.089.146.158s.167.192.3.352c.226.264.568.67.917,1.1,1.4,1.736,1.4,2.039,1.4,2.2,0,.771-1.193,1.845-1.843,2.173a.561.561,0,0,1-.255.059c-.609,0-1.43-.938-2.827-2.786-.266-.352-.517-.684-.616-.782a.59.59,0,0,1-.14-.563,3.683,3.683,0,0,1,1.785-2.033A.965.965,0,0,1,493.249,216.373Zm.186.739a.294.294,0,0,0-.342-.022.334.334,0,0,1-.046.024,2.947,2.947,0,0,0-.976.81,2,2,0,0,0-.436.746c.136.148.35.431.634.806.387.512.87,1.15,1.326,1.668.622.707.879.827.949.847.61-.324,1.424-1.194,1.441-1.544a7.44,7.44,0,0,0-1.257-1.8C494.115,217.887,493.521,217.208,493.435,217.112Z" transform="translate(-456.004 -183.221)" fill="#013c68"/>
          <path id="Path_75523" data-name="Path 75523" d="M498.3,215.075c-.85.368-1.872,1.747-1.563,2.062.44.44,2.651,3.78,3.311,3.447s1.652-1.325,1.652-1.878-2.639-3.566-2.645-3.566a.63.63,0,0,0-.755-.065Z" transform="translate(-458.326 -182.655)" fill="#fff"/>
          <path id="Path_75523_-_Outline" data-name="Path 75523 - Outline" d="M498.409,214.413a.965.965,0,0,1,.646.247l0,0c.041.038.086.089.146.158s.167.192.3.352c.225.264.567.67.915,1.1,1.394,1.736,1.394,2.039,1.394,2.2,0,.776-1.19,1.852-1.837,2.179a.561.561,0,0,1-.255.059c-.612,0-1.439-.946-2.846-2.808-.258-.342-.5-.665-.6-.761l0,0a.6.6,0,0,1-.136-.563,3.721,3.721,0,0,1,1.784-2.034A.965.965,0,0,1,498.409,214.413Zm.186.739a.294.294,0,0,0-.342-.022.338.338,0,0,1-.044.023,2.99,2.99,0,0,0-.98.816,1.983,1.983,0,0,0-.435.747c.133.146.34.42.615.785.389.515.873,1.155,1.333,1.679.631.717.89.838.96.858.608-.323,1.418-1.2,1.435-1.55a7.435,7.435,0,0,0-1.254-1.8C499.273,215.927,498.681,215.249,498.6,215.152Z" transform="translate(-458.097 -182.425)" fill="#013c68"/>
          <path id="Path_75524" data-name="Path 75524" d="M506.54,320.269H508.5l-.458-17.349h-1.45a4.238,4.238,0,0,0-4.238,4.238v8.915a4.161,4.161,0,0,0,4.19,4.2Z" transform="translate(-460.624 -218.327)" fill="#fff"/>
          <path id="Path_75524_-_Outline" data-name="Path 75524 - Outline" d="M506.281,320.376a4.467,4.467,0,0,1-3.182-1.319,4.524,4.524,0,0,1-1.315-3.216v-8.913a4.579,4.579,0,0,1,4.574-4.574h1.45a.336.336,0,0,1,.336.328l.458,17.35a.336.336,0,0,1-.336.345Zm.077-17.35a3.906,3.906,0,0,0-3.9,3.9v8.915a3.849,3.849,0,0,0,1.118,2.738,3.8,3.8,0,0,0,2.706,1.122h1.64l-.44-16.677Z" transform="translate(-460.395 -218.097)" fill="#013c68"/>
          <path id="Path_75525" data-name="Path 75525" d="M502.111,318.709a.336.336,0,0,1,0-.673,1.871,1.871,0,0,0,1.869-1.869v-4.547a2.64,2.64,0,0,1,2.637-2.637H507.8a.336.336,0,0,1,0,.673h-1.189a1.966,1.966,0,0,0-1.964,1.964v4.547A2.544,2.544,0,0,1,502.111,318.709Z" transform="translate(-460.391 -220.787)" fill="#013c68"/>
          <path id="Path_75526" data-name="Path 75526" d="M511.92,308.32s1.189,45.344,1.189,46.218S515,383.7,515,383.7a27.163,27.163,0,0,0-.874,3.643,19.971,19.971,0,0,0,.594,2.918h12.392l1.314-65.612,1.314,65.761h11.941s.731-6.128.291-7a15.457,15.457,0,0,1-.725-1.747l4.226-44.91-.731-28.428Z" transform="translate(-464.506 -220.518)" fill="#fff"/>
          <path id="Path_75526_-_Outline" data-name="Path 75526 - Outline" d="M511.69,307.754h32.827a.336.336,0,0,1,.336.328l.731,28.428a.34.34,0,0,1,0,.04l-4.219,44.837a15.194,15.194,0,0,0,.685,1.64c.087.174.315.641.053,4-.127,1.629-.31,3.172-.312,3.187a.336.336,0,0,1-.334.3H529.516a.336.336,0,0,1-.336-.33l-.978-48.943-.977,48.794a.336.336,0,0,1-.336.33H514.5a.336.336,0,0,1-.324-.245,20.391,20.391,0,0,1-.6-2.967.336.336,0,0,1,0-.1,27.592,27.592,0,0,1,.866-3.628c-.123-1.84-1.893-28.256-1.893-29.119s-1.177-45.756-1.189-46.209a.336.336,0,0,1,.336-.345Zm32.5.673H512.036c.118,4.508,1.18,45.044,1.18,45.881s1.876,28.854,1.9,29.137a.336.336,0,0,1-.015.123,26.919,26.919,0,0,0-.855,3.549,19.7,19.7,0,0,0,.511,2.575h11.807l1.307-65.282a.336.336,0,0,1,.673,0l1.307,65.431h11.311c.059-.524.182-1.671.275-2.865.23-2.957.07-3.541.015-3.649l0,0a15.858,15.858,0,0,1-.741-1.785.337.337,0,0,1-.017-.141l4.224-44.89Z" transform="translate(-464.277 -220.288)" fill="#013c68"/>
          <path id="Path_75527" data-name="Path 75527" d="M520.115,374.719h-4.226a.336.336,0,1,1,0-.673h3.89v-3.559H513.41a.336.336,0,0,1,0-.673h6.7a.336.336,0,0,1,.336.336v4.232A.336.336,0,0,1,520.115,374.719Z" transform="translate(-464.974 -245.462)" fill="#013c68"/>
          <path id="Path_75528" data-name="Path 75528" d="M521.21,393.2h-5.1a.336.336,0,1,1,0-.673h4.763V377.27a.336.336,0,0,1,.673,0v15.6A.336.336,0,0,1,521.21,393.2Z" transform="translate(-466.07 -248.35)" fill="#013c68"/>
          <path id="Path_75529" data-name="Path 75529" d="M559.092,374.719H554.86a.336.336,0,0,1-.336-.336V370.15a.336.336,0,0,1,.336-.336h6.71a.336.336,0,1,1,0,.673H555.2v3.559h3.9a.336.336,0,0,1,0,.673Z" transform="translate(-481.788 -245.462)" fill="#013c68"/>
          <path id="Path_75530" data-name="Path 75530" d="M559.966,393.2H554.86a.336.336,0,0,1-.336-.336v-15.6a.336.336,0,0,1,.673,0v15.26h4.769a.336.336,0,0,1,0,.673Z" transform="translate(-481.788 -248.35)" fill="#013c68"/>
          <rect id="Rectangle_10103" data-name="Rectangle 10103" width="32.803" height="4.517" transform="translate(47.414 84.01)" fill="#263238"/>
          <path id="Rectangle_10103_-_Outline" data-name="Rectangle 10103 - Outline" d="M-.23-.566h32.8a.336.336,0,0,1,.336.336V4.288a.336.336,0,0,1-.336.336H-.23a.336.336,0,0,1-.336-.336V-.23A.336.336,0,0,1-.23-.566ZM32.237.107H.107V3.951h32.13Z" transform="translate(47.643 84.24)" fill="#013c68"/>
          <rect id="Rectangle_10104" data-name="Rectangle 10104" width="6.562" height="4.517" transform="translate(60.537 84.01)" fill="#fff"/>
          <path id="Rectangle_10104_-_Outline" data-name="Rectangle 10104 - Outline" d="M-.23-.566H6.332a.336.336,0,0,1,.336.336V4.288a.336.336,0,0,1-.336.336H-.23a.336.336,0,0,1-.336-.336V-.23A.336.336,0,0,1-.23-.566ZM6,.107H.107V3.951H6Z" transform="translate(60.767 84.24)" fill="#013c68"/>
          <rect id="Rectangle_10105" data-name="Rectangle 10105" width="2.918" height="4.856" transform="translate(53.827 83.309)" fill="#fff"/>
          <path id="Rectangle_10105_-_Outline" data-name="Rectangle 10105 - Outline" d="M-.23-.566H2.689a.336.336,0,0,1,.336.336V4.626a.336.336,0,0,1-.336.336H-.23a.336.336,0,0,1-.336-.336V-.23A.336.336,0,0,1-.23-.566ZM2.352.107H.107V4.29H2.352Z" transform="translate(54.057 83.539)" fill="#013c68"/>
          <rect id="Rectangle_10106" data-name="Rectangle 10106" width="2.187" height="10.645" transform="translate(76.282 83.583)" fill="#fff"/>
          <path id="Rectangle_10106_-_Outline" data-name="Rectangle 10106 - Outline" d="M-.23-.566H1.958a.336.336,0,0,1,.336.336V10.416a.336.336,0,0,1-.336.336H-.23a.336.336,0,0,1-.336-.336V-.23A.336.336,0,0,1-.23-.566ZM1.621.107H.107v9.972H1.621Z" transform="translate(76.512 83.812)" fill="#013c68"/>
          <path id="Line_235" data-name="Line 235" d="M5.019,1.706a.336.336,0,0,1-.1-.015L-.328.092a.336.336,0,0,1-.224-.42.336.336,0,0,1,.42-.224l5.248,1.6a.336.336,0,0,1-.1.658Z" transform="translate(60.618 103.052)" fill="#013c68"/>
          <path id="Path_75531" data-name="Path 75531" d="M524.708,441.107h-4.232s-1.456-4.517-4.083-4.226-2.77,3.935-2.77,3.935-7.287,4.666-7.727,5.539a5.581,5.581,0,0,0,0,2.77h18.841Z" transform="translate(-461.984 -272.661)" fill="#013c68"/>
          <path id="Path_75531_-_Outline" data-name="Path 75531 - Outline" d="M516.405,436.3h0c2.362,0,3.74,3.312,4.08,4.239h3.993a.336.336,0,0,1,.336.335l.03,8.018a.336.336,0,0,1-.336.338H505.666a.336.336,0,0,1-.328-.26,5.64,5.64,0,0,1,.027-3c.094-.187.314-.624,4.14-3.224,1.56-1.06,3.1-2.056,3.564-2.356a6.918,6.918,0,0,1,.409-1.787,3.214,3.214,0,0,1,2.647-2.29A2.55,2.55,0,0,1,516.405,436.3Zm7.737,4.912h-3.9a.336.336,0,0,1-.32-.233c-.013-.04-1.321-4.006-3.52-4.006h0a1.872,1.872,0,0,0-.205.011c-2.313.256-2.469,3.58-2.471,3.613a.336.336,0,0,1-.155.27c-.018.012-1.837,1.177-3.687,2.435-3.413,2.32-3.864,2.862-3.92,2.973a4.557,4.557,0,0,0-.026,2.282h18.23Z" transform="translate(-461.753 -272.431)" fill="#013c68"/>
          <path id="Path_75532" data-name="Path 75532" d="M505.877,456.182h18.841V454.31H505.7a8.162,8.162,0,0,0,.178,1.872Z" transform="translate(-461.982 -279.736)" fill="#fff"/>
          <path id="Path_75532_-_Outline" data-name="Path 75532 - Outline" d="M524.489,456.289H505.648a.336.336,0,0,1-.329-.266,8.511,8.511,0,0,1-.186-1.949.336.336,0,0,1,.336-.329h19.02a.336.336,0,0,1,.336.336v1.872A.336.336,0,0,1,524.489,456.289Zm-18.683-1.872a7.84,7.84,0,0,0,.119,1.2h18.228v-1.2Z" transform="translate(-461.752 -279.507)" fill="#013c68"/>
          <path id="Path_75533" data-name="Path 75533" d="M541.546,441.107h4.226s1.456-4.517,4.083-4.226,2.77,3.935,2.77,3.935,7.287,4.666,7.727,5.539a5.581,5.581,0,0,1,0,2.77H541.51Z" transform="translate(-476.509 -272.661)" fill="#013c68"/>
          <path id="Path_75533_-_Outline" data-name="Path 75533 - Outline" d="M549.383,436.3a2.544,2.544,0,0,1,.28.016,3.214,3.214,0,0,1,2.647,2.29,6.918,6.918,0,0,1,.409,1.787c.466.3,2,1.3,3.564,2.356,3.826,2.6,4.046,3.038,4.14,3.224a5.641,5.641,0,0,1,.027,3,.336.336,0,0,1-.328.26H541.28a.336.336,0,0,1-.336-.338l.036-8.018a.336.336,0,0,1,.336-.335H545.3C545.643,439.613,547.021,436.3,549.383,436.3Zm10.465,12.257a4.567,4.567,0,0,0-.026-2.282c-.057-.111-.508-.653-3.92-2.973-1.85-1.257-3.669-2.423-3.687-2.435a.336.336,0,0,1-.155-.27,6.24,6.24,0,0,0-.383-1.765,2.546,2.546,0,0,0-2.087-1.848,1.876,1.876,0,0,0-.206-.011c-2.2,0-3.507,3.966-3.52,4.006a.336.336,0,0,1-.32.233h-3.891l-.033,7.345Z" transform="translate(-476.279 -272.431)" fill="#013c68"/>
          <path id="Path_75534" data-name="Path 75534" d="M560.351,456.182H541.51V454.31h19.02a8.373,8.373,0,0,1-.178,1.872Z" transform="translate(-476.509 -279.736)" fill="#fff"/>
          <path id="Path_75534_-_Outline" data-name="Path 75534 - Outline" d="M560.122,456.289H541.28a.336.336,0,0,1-.336-.336V454.08a.336.336,0,0,1,.336-.336H560.3a.337.337,0,0,1,.336.33,8.727,8.727,0,0,1-.185,1.947A.336.336,0,0,1,560.122,456.289Zm-18.505-.673h18.227a8.053,8.053,0,0,0,.119-1.2H541.617Z" transform="translate(-476.279 -279.507)" fill="#013c68"/>
          <rect id="Rectangle_10107" data-name="Rectangle 10107" width="9.771" height="10.205" transform="translate(50.332 87.951)" fill="#fff"/>
          <path id="Rectangle_10107_-_Outline" data-name="Rectangle 10107 - Outline" d="M-.23-.566H9.542a.336.336,0,0,1,.336.336V9.976a.336.336,0,0,1-.336.336H-.23a.336.336,0,0,1-.336-.336V-.23A.336.336,0,0,1-.23-.566ZM9.205.107H.107V9.639h9.1Z" transform="translate(50.562 88.181)" fill="#013c68"/>
          <path id="Path_75535" data-name="Path 75535" d="M526.267,314.517a3.863,3.863,0,1,1-3.863-3.857A3.863,3.863,0,0,1,526.267,314.517Z" transform="translate(-467.191 -221.467)" fill="#fff"/>
          <path id="Path_75535_-_Outline" data-name="Path 75535 - Outline" d="M522.174,310.094a4.2,4.2,0,0,1,0,8.4h0a4.2,4.2,0,0,1,0-8.4Zm0,7.727a3.527,3.527,0,1,0-3.531-3.525,3.5,3.5,0,0,0,3.531,3.525Z" transform="translate(-466.962 -221.237)" fill="#013c68"/>
          <path id="Path_75536" data-name="Path 75536" d="M525.684,315.771a2.027,2.027,0,1,1-2.027-2.021,2.027,2.027,0,0,1,2.027,2.021Z" transform="translate(-468.445 -222.72)" fill="#fff"/>
          <path id="Path_75536_-_Outline" data-name="Path 75536 - Outline" d="M523.427,313.184a2.363,2.363,0,0,1,0,4.726h0a2.363,2.363,0,0,1,0-4.726Zm0,4.054a1.69,1.69,0,0,0,0-3.381h0a1.69,1.69,0,0,0,0,3.381Z" transform="translate(-468.215 -222.491)" fill="#013c68"/>
          <path id="Path_75537" data-name="Path 75537" d="M525.3,316.638a.82.82,0,1,1-.817-.75A.82.82,0,0,1,525.3,316.638Z" transform="translate(-469.27 -223.587)" fill="#fff"/>
          <path id="Path_75537_-_Outline" data-name="Path 75537 - Outline" d="M524.256,315.322a1.157,1.157,0,1,1-1.152,1.058A1.15,1.15,0,0,1,524.256,315.322Zm0,1.64a.484.484,0,1,0-.254-.072A.484.484,0,0,0,524.256,316.962Z" transform="translate(-469.041 -223.358)" fill="#013c68"/>
          <path id="Path_75538" data-name="Path 75538" d="M529.608,225.479l-1.314,1.082a4.921,4.921,0,0,0-1.783,4.161l.594,7.9s5.349-3.721,6.58-4.1a37.556,37.556,0,0,1,5.242-.594l7.822,4.2s.41-6.907-.547-9.861-2.794-4.351-3.566-4.351S529.608,225.479,529.608,225.479Z" transform="translate(-470.42 -186.278)" fill="#fff"/>
          <path id="Path_75538_-_Outline" data-name="Path 75538 - Outline" d="M542.407,223.344c1.007,0,2.917,1.593,3.886,4.583s.579,9.7.563,9.984a.336.336,0,0,1-.495.276l-7.738-4.151a35.558,35.558,0,0,0-5.067.575,55.843,55.843,0,0,0-6.487,4.056.336.336,0,0,1-.528-.251l-.594-7.9a5.265,5.265,0,0,1,1.9-4.446l1.313-1.082a.337.337,0,0,1,.171-.074C529.837,224.852,541.622,223.344,542.407,223.344Zm3.8,14c.071-1.663.218-6.817-.557-9.209a8.284,8.284,0,0,0-1.777-3.156,2.7,2.7,0,0,0-1.469-.962c-.611,0-9.417,1.11-12.89,1.554l-1.239,1.02a4.591,4.591,0,0,0-1.661,3.876l.55,7.314a49.277,49.277,0,0,1,6.189-3.813,36.931,36.931,0,0,1,5.324-.609.335.335,0,0,1,.177.039Z" transform="translate(-470.19 -186.048)" fill="#013c68"/>
          <path id="Path_75539" data-name="Path 75539" d="M523.1,194.837a5.946,5.946,0,0,0-.1,2c.19.594.475,1.331.475,1.331s-2.478,2.377-2.193,3.055S523,202.754,523,202.754s-.957,7.436-.672,8.006,4.386.1,4.386.1a35.205,35.205,0,0,0,2.193,6.58c1.236,2.383,5.349,6.294,6.1,6.2s4.868-6.1,5.349-7.055a21.563,21.563,0,0,0,1.046-5.819,37.826,37.826,0,0,0-.666-4.672s2.972-7.917,3.049-9.343-8.779-5.444-12.583-6.3-6.009.761-6.776,1.623A9.339,9.339,0,0,0,523.1,194.837Z" transform="translate(-468.295 -172.605)" fill="#fff"/>
          <path id="Path_75539_-_Outline" data-name="Path 75539 - Outline" d="M528.9,189.636h0a9.857,9.857,0,0,1,2.155.251,42.9,42.9,0,0,1,7.819,2.961,29.313,29.313,0,0,1,3.479,1.922c1.1.737,1.573,1.28,1.547,1.763a31.331,31.331,0,0,1-1.572,5.3c-.39,1.117-.776,2.184-1.032,2.882-.145.4-.264.718-.338.918l-.094.253a38.3,38.3,0,0,1,.652,4.618c0,.009,0,.018,0,.027a21.577,21.577,0,0,1-1.082,5.971c-.273.539-1.488,2.358-2.6,3.894-.655.9-1.245,1.672-1.706,2.217-.838.993-1.111,1.1-1.3,1.126a.569.569,0,0,1-.071,0c-.194,0-.521-.08-1.332-.708a20.568,20.568,0,0,1-1.795-1.607,18.854,18.854,0,0,1-3.248-4.067,33.392,33.392,0,0,1-2.154-6.368c-.527.054-1.654.156-2.614.156-1.312,0-1.674-.187-1.814-.467-.078-.155-.222-.445.2-4.4.162-1.533.348-3.036.416-3.582a4.809,4.809,0,0,1-1.667-1.569c-.112-.267-.035-.606.244-1.068a8.316,8.316,0,0,1,.8-1.064c.415-.482.841-.917,1.066-1.14-.1-.264-.272-.733-.4-1.143a.348.348,0,0,1-.014-.062,6.267,6.267,0,0,1,.1-2.116c0-.007,0-.015.006-.022a9.651,9.651,0,0,1,1.385-2.869.347.347,0,0,1,.023-.029A6.533,6.533,0,0,1,528.9,189.636Zm11.3,16.1c.766-2.036,2.966-8.1,3.028-9.243,0,0,0-.326-1.25-1.168a28.663,28.663,0,0,0-3.4-1.874,42.2,42.2,0,0,0-7.675-2.911,9.186,9.186,0,0,0-2.007-.234,5.864,5.864,0,0,0-4.431,1.739,8.981,8.981,0,0,0-1.275,2.643,5.593,5.593,0,0,0-.091,1.847c.185.572.456,1.275.459,1.282a.336.336,0,0,1-.081.364c-.006.005-.578.556-1.129,1.189-.969,1.115-.986,1.459-.984,1.5a4.836,4.836,0,0,0,1.576,1.361.337.337,0,0,1,.162.332c0,.018-.233,1.816-.432,3.686a24.249,24.249,0,0,0-.275,4.1,3.466,3.466,0,0,0,1.214.122c1.236,0,2.819-.182,2.834-.184a.337.337,0,0,1,.367.259,35.085,35.085,0,0,0,2.164,6.5,18.121,18.121,0,0,0,3.089,3.864,20.347,20.347,0,0,0,1.725,1.554,3.165,3.165,0,0,0,.946.6,15.841,15.841,0,0,0,2.627-3.172c1.144-1.586,2.246-3.26,2.468-3.7a21.408,21.408,0,0,0,1.01-5.654,37.647,37.647,0,0,0-.659-4.617.336.336,0,0,1,.015-.187Z" transform="translate(-468.066 -172.375)" fill="#013c68"/>
          <path id="Path_75540" data-name="Path 75540" d="M548.99,206.759s2.972-7.917,3.049-9.343c.083-1.189-5.825-4.06-10.068-5.545l-.226,3.162.1,1.236-.19,3.626,1.712.285s.862-2.377,2-2.669,2.288,2.377,2.288,4.1a4.012,4.012,0,0,1-2.669,3.239h-.951s2.164,2.591,5.01,2.175A1.293,1.293,0,0,0,548.99,206.759Z" transform="translate(-476.566 -173.281)" fill="#263238"/>
          <path id="Path_75540_-_Outline" data-name="Path 75540 - Outline" d="M548.192,207.178h0a5.82,5.82,0,0,1-3.339-1.173,7.5,7.5,0,0,1-1.307-1.169.336.336,0,0,1,.258-.552h.951c.35,0,2.332-1.33,2.332-2.9a6.33,6.33,0,0,0-.619-2.53c-.369-.775-.813-1.256-1.159-1.256a.363.363,0,0,0-.091.012c-.791.2-1.562,1.884-1.77,2.457a.336.336,0,0,1-.372.217L541.365,200a.336.336,0,0,1-.281-.349l.189-3.6-.093-1.215a.347.347,0,0,1,0-.05l.226-3.162a.336.336,0,0,1,.447-.294,53.33,53.33,0,0,1,6.7,2.9,19.074,19.074,0,0,1,2.516,1.531c.76.574,1.1,1.034,1.074,1.448-.077,1.393-2.669,8.37-3.032,9.34a1.886,1.886,0,0,1,.035.215.336.336,0,0,1-.286.369A4.657,4.657,0,0,1,548.192,207.178Zm-3.574-2.221a5.654,5.654,0,0,0,3.573,1.548h0q.116,0,.233-.007a.348.348,0,0,1,.021-.088c.822-2.189,2.967-8.116,3.028-9.243v-.005c0-.006.006-.634-3.233-2.34a52.721,52.721,0,0,0-6.2-2.716l-.193,2.7.093,1.211a.332.332,0,0,1,0,.043l-.174,3.326,1.147.191a9.463,9.463,0,0,1,.494-1.015,3.03,3.03,0,0,1,1.639-1.6,1.041,1.041,0,0,1,.257-.032c.635,0,1.263.582,1.766,1.64a7.044,7.044,0,0,1,.684,2.82,3.78,3.78,0,0,1-1.219,2.5,3.456,3.456,0,0,1-1.786,1.072Z" transform="translate(-476.336 -173.052)" fill="#013c68"/>
          <path id="Path_75541" data-name="Path 75541" d="M521.976,203.858a.336.336,0,0,1-.3-.186c-.81-1.621.036-4.6.073-4.725a.336.336,0,0,1,.359-.241l9.064.957a.336.336,0,0,1,.3.335v3.049a.336.336,0,0,1-.319.336l-9.159.475Zm.348-4.453a7.7,7.7,0,0,0-.132,3.769l8.607-.447V200.3Z" transform="translate(-468.321 -176.053)" fill="#013c68"/>
          <path id="Path_75542" data-name="Path 75542" d="M540.213,202.788l2.045.279.529-.951-4.957-1.236v3.049l2.068-.048Z" transform="translate(-475.016 -176.936)" fill="#99b1c3"/>
          <path id="Path_75542_-_Outline" data-name="Path 75542 - Outline" d="M537.6,204.036a.336.336,0,0,1-.336-.336V200.65a.336.336,0,0,1,.418-.326l4.957,1.236a.336.336,0,0,1,.213.49l-.529.951a.336.336,0,0,1-.339.17l-1.756-.24-.234.814a.336.336,0,0,1-.316.243l-2.068.048Zm.336-2.955v2.274l1.477-.034.247-.856a.336.336,0,0,1,.369-.24l1.817.248.2-.366Z" transform="translate(-474.787 -176.706)" fill="#013c68"/>
          <path id="Path_75543" data-name="Path 75543" d="M529.056,202.856c0,.475-.19.862-.428.862s-.428-.386-.428-.862.19-.856.428-.856S529.056,202.386,529.056,202.856Z" transform="translate(-471.11 -177.39)" fill="#263238"/>
          <path id="Path_75543_-_Outline" data-name="Path 75543 - Outline" d="M528.4,201.434c.443,0,.764.5.764,1.192s-.321,1.2-.764,1.2-.764-.5-.764-1.2S527.956,201.434,528.4,201.434Zm0,1.655a1.064,1.064,0,0,0,.091-.463.238.238,0,1,0-.183,0A1.062,1.062,0,0,0,528.4,203.089Z" transform="translate(-470.88 -177.161)" fill="#013c68"/>
          <path id="Path_75544" data-name="Path 75544" d="M530.45,224.486l4.285-.666-3.334,3.721Z" transform="translate(-472.023 -186.241)" fill="#263238"/>
          <path id="Path_75544_-_Outline" data-name="Path 75544 - Outline" d="M534.506,223.254a.336.336,0,0,1,.25.561l-3.334,3.721a.336.336,0,0,1-.572-.125l-.951-3.055a.336.336,0,0,1,.27-.432l4.285-.666A.337.337,0,0,1,534.506,223.254Zm-3.189,3.391,2.31-2.578-2.969.461Z" transform="translate(-471.793 -186.012)" fill="#013c68"/>
          <path id="Path_75545" data-name="Path 75545" d="M526.286,211.111h-.1a.336.336,0,0,1,.024-.672h0a5.734,5.734,0,0,0,3.939-1.517.336.336,0,1,1,.49.461A6.263,6.263,0,0,1,526.286,211.111Z" transform="translate(-470.162 -180.154)" fill="#013c68"/>
          <path id="Path_75546" data-name="Path 75546" d="M524.19,189.249l20.981,4.577a39.061,39.061,0,0,0,1.141-6.675c0-2.193-5.914-6.865-9.439-7.727s-10.966,2.1-11.543,3.429A41.11,41.11,0,0,0,524.19,189.249Z" transform="translate(-469.483 -168.17)" fill="#99b1c3"/>
          <path id="Path_75546_-_Outline" data-name="Path 75546 - Outline" d="M544.942,193.933a.336.336,0,0,1-.072-.008l-20.981-4.577a.336.336,0,0,1-.263-.366c.023-.209.577-5.13,1.167-6.492a3.265,3.265,0,0,1,1.394-1.209,17.976,17.976,0,0,1,2.6-1.2,19.324,19.324,0,0,1,6.39-1.376,6.576,6.576,0,0,1,1.547.164A17.92,17.92,0,0,1,542.9,182.3c1.059.855,3.523,3.018,3.523,4.624a38.678,38.678,0,0,1-1.152,6.758A.336.336,0,0,1,544.942,193.933Zm-20.612-5.177,20.364,4.442a35.866,35.866,0,0,0,1.053-6.276c0-.886-1.285-2.5-3.273-4.1a17.235,17.235,0,0,0-5.91-3.3,5.91,5.91,0,0,0-1.387-.145,18.922,18.922,0,0,0-6.152,1.333c-2.12.8-3.445,1.654-3.615,2.049A36.788,36.788,0,0,0,524.33,188.756Z" transform="translate(-469.254 -167.941)" fill="#013c68"/>
          <path id="Path_75547" data-name="Path 75547" d="M518.028,195.757S509,194.9,509,195.567s3.429,2.77,6.288,3.055,8.2-1.623,8.2-1.623Z" transform="translate(-463.322 -174.678)" fill="#99b1c3"/>
          <path id="Path_75547_-_Outline" data-name="Path 75547 - Outline" d="M510.5,194.748h0c2.607,0,7.286.441,7.333.445l.043.007,5.462,1.242a.336.336,0,0,1,.038.645c-.191.068-4.715,1.671-7.685,1.671-.236,0-.459-.01-.663-.031a12.414,12.414,0,0,1-4.341-1.422,9.975,9.975,0,0,1-1.545-.987c-.633-.51-.706-.8-.706-.98a.463.463,0,0,1,.339-.431,1.877,1.877,0,0,1,.434-.1A10.448,10.448,0,0,1,510.5,194.748Zm7.248,1.113c-.348-.032-4.763-.44-7.248-.44h0a8.89,8.89,0,0,0-1.274.063,7.387,7.387,0,0,0,1.9,1.289,11.673,11.673,0,0,0,3.973,1.285c.182.018.383.027.6.027A24.9,24.9,0,0,0,522,196.829Z" transform="translate(-463.092 -174.449)" fill="#013c68"/>
          <path id="Path_75548" data-name="Path 75548" d="M592.184,356.519a1.346,1.346,0,0,1-1.346-1.346v-5.216h-4.776a1.346,1.346,0,0,1,0-2.691h6.122a1.346,1.346,0,0,1,1.345,1.346v6.562A1.346,1.346,0,0,1,592.184,356.519Z" transform="translate(-494.035 -236.315)" fill="#013c68"/>
          <path id="Path_75549" data-name="Path 75549" d="M581.687,329.946s.3,2.187-.291,2.479-4.226,3.941-4.226,4.666a25.955,25.955,0,0,0,1.9,5.248c.583,1.165,1.314,1.9,1.9,1.9a19.32,19.32,0,0,0,4.517-1.314c.731-.434,2.918-8.915,2.918-10.205a16.144,16.144,0,0,0-.874-3.786Z" transform="translate(-490.974 -228.878)" fill="#fff"/>
          <path id="Path_75549_-_Outline" data-name="Path 75549 - Outline" d="M587.294,328.364a.336.336,0,0,1,.316.222,16.5,16.5,0,0,1,.892,3.865.33.33,0,0,1,0,.036,36.776,36.776,0,0,1-1.2,5.512c-.346,1.266-.683,2.375-.976,3.208-.481,1.37-.722,1.662-.91,1.774a.332.332,0,0,1-.039.02,19.677,19.677,0,0,1-4.6,1.336.335.335,0,0,1-.054,0c-.724,0-1.545-.778-2.2-2.082a25.859,25.859,0,0,1-1.932-5.4c0-.155,0-.628,1.984-2.727a16.848,16.848,0,0,1,2.429-2.241s.186-.154.179-1.085a9.337,9.337,0,0,0-.072-1.047.337.337,0,0,1,.276-.377l5.837-1.016A.34.34,0,0,1,587.294,328.364Zm.537,4.139a15.827,15.827,0,0,0-.76-3.423l-5.245.913c.021.22.042.53.043.852,0,.939-.175,1.463-.553,1.65a16.834,16.834,0,0,0-2.189,2.048,8.975,8.975,0,0,0-1.85,2.323,26.613,26.613,0,0,0,1.86,5.091c.575,1.15,1.211,1.687,1.572,1.709a19,19,0,0,0,4.365-1.267,5.721,5.721,0,0,0,.668-1.548c.287-.831.614-1.919.948-3.147A37.25,37.25,0,0,0,587.831,332.5Z" transform="translate(-490.744 -228.648)" fill="#013c68"/>
          <path id="Path_75550" data-name="Path 75550" d="M583.393,348.739a.336.336,0,0,1-.336-.332,4.743,4.743,0,0,0-1.9-3.748.336.336,0,0,1,.405-.537,5.448,5.448,0,0,1,2.166,4.276.336.336,0,0,1-.332.341Z" transform="translate(-492.537 -235.012)" fill="#013c68"/>
          <path id="Path_75551" data-name="Path 75551" d="M573.312,356.519a1.346,1.346,0,0,1-1.346-1.346v-6.562a1.346,1.346,0,0,1,1.346-1.346h5.438a1.346,1.346,0,0,1,0,2.691h-4.093v5.216A1.346,1.346,0,0,1,573.312,356.519Z" transform="translate(-488.863 -236.315)" fill="#013c68"/>
          <path id="Path_75552" data-name="Path 75552" d="M562.822,360.57h24.523a4.22,4.22,0,0,1,4.22,4.22v20.274h-32.1V363.9a3.328,3.328,0,0,1,3.352-3.328Z" transform="translate(-483.794 -241.712)" fill="#99b1c3"/>
          <path id="Path_75552_-_Outline" data-name="Path 75552 - Outline" d="M562.569,360h24.547a4.561,4.561,0,0,1,4.556,4.556v20.274a.336.336,0,0,1-.336.336h-32.1a.336.336,0,0,1-.336-.336V363.669a3.689,3.689,0,0,1,1.083-2.6A3.642,3.642,0,0,1,562.569,360ZM591,384.5V364.56a3.888,3.888,0,0,0-3.884-3.884H562.569a2.974,2.974,0,0,0-2.108.869,3.012,3.012,0,0,0-.884,2.123V384.5Z" transform="translate(-483.565 -241.482)" fill="#013c68"/>
          <path id="Path_75553" data-name="Path 75553" d="M572.648,360.57h18.693a4.22,4.22,0,0,1,4.22,4.22v20.274H569.32V363.9A3.328,3.328,0,0,1,572.648,360.57Z" transform="translate(-487.79 -241.712)" fill="#013c68"/>
          <path id="Path_75553_-_Outline" data-name="Path 75553 - Outline" d="M572.419,360h18.693a4.561,4.561,0,0,1,4.556,4.556v20.274a.336.336,0,0,1-.336.336H569.09a.336.336,0,0,1-.336-.336V363.669A3.669,3.669,0,0,1,572.419,360ZM595,384.5V364.56a3.888,3.888,0,0,0-3.884-3.884H572.419a3,3,0,0,0-2.992,2.992V384.5Z" transform="translate(-487.56 -241.482)" fill="#013c68"/>
          <path id="Ellipse_1680" data-name="Ellipse 1680" d="M6.974-.566a7.54,7.54,0,0,1,7.54,7.54A7.54,7.54,0,0,1,1.642,12.306a7.54,7.54,0,0,1,0-10.663A7.491,7.491,0,0,1,6.974-.566Zm0,14.407A6.867,6.867,0,1,0,.107,6.974,6.875,6.875,0,0,0,6.974,13.841Z" transform="translate(87.68 124.128)" fill="#013c68"/>
          <circle id="Ellipse_1681" data-name="Ellipse 1681" cx="6.098" cy="6.098" r="6.098" transform="translate(88.556 125.004)" fill="#fff"/>
          <path id="Ellipse_1681_-_Outline" data-name="Ellipse 1681 - Outline" d="M5.869-.566A6.435,6.435,0,0,1,12.3,5.869,6.435,6.435,0,0,1,5.869,12.3,6.435,6.435,0,0,1-.566,5.869,6.435,6.435,0,0,1,5.869-.566Zm0,12.2A5.762,5.762,0,1,0,.107,5.869,5.768,5.768,0,0,0,5.869,11.63Z" transform="translate(88.785 125.233)" fill="#013c68"/>
          <path id="Path_75554" data-name="Path 75554" d="M591.133,375h.036a.743.743,0,0,1,.743.743v1.337H590.39v-1.337A.743.743,0,0,1,591.133,375Z" transform="translate(-496.336 -247.565)" fill="#263238"/>
          <path id="Path_75554_-_Outline" data-name="Path 75554 - Outline" d="M590.9,374.434h.036a1.081,1.081,0,0,1,1.079,1.079v1.337a.336.336,0,0,1-.336.336H590.16a.336.336,0,0,1-.336-.336v-1.337A1.081,1.081,0,0,1,590.9,374.434Zm.442,2.08v-1a.407.407,0,0,0-.407-.407H590.9a.407.407,0,0,0-.407.407v1Z" transform="translate(-496.107 -247.336)" fill="#013c68"/>
          <path id="Path_75555" data-name="Path 75555" d="M588.589,373.812a.148.148,0,0,1-.149-.119l-.363-1.718a.149.149,0,1,1,.291-.065l.369,1.724a.154.154,0,0,1-.119.178Z" transform="translate(-495.397 -246.265)" fill="#263238"/>
          <path id="Path_75556" data-name="Path 75556" d="M589.889,375.577h-.042l-.992-.594a.077.077,0,0,1,0-.107.071.071,0,0,1,.1,0l.993.594a.064.064,0,1,1-.059.107Z" transform="translate(-495.705 -247.506)" fill="#263238"/>
          <path id="Path_75557" data-name="Path 75557" d="M585.026,379a.214.214,0,0,0-.232.1l-1.07,2.015a.2.2,0,1,0,.351.184l1.064-2.015a.19.19,0,0,0-.077-.262Z" transform="translate(-493.623 -249.184)" fill="#263238"/>
          <path id="Path_75558" data-name="Path 75558" d="M587.245,378.538a.161.161,0,0,0-.054,0l-1.45.386a.089.089,0,0,0-.065.119.1.1,0,0,0,.119.071l1.444-.386a.1.1,0,0,0,.071-.119A.113.113,0,0,0,587.245,378.538Z" transform="translate(-494.422 -249)" fill="#263238"/>
          <path id="Path_75559" data-name="Path 75559" d="M584.825,382.61a.19.19,0,0,0-.2.143l-.594,2.2a.194.194,0,1,0,.374.1l.594-2.193a.2.2,0,0,0-.137-.244Z" transform="translate(-493.755 -250.652)" fill="#263238"/>
          <path id="Path_75560" data-name="Path 75560" d="M586.623,381.607a.089.089,0,0,0-.053,0l-1.325.7a.1.1,0,1,0,.089.172l1.325-.7a.095.095,0,0,0,.042-.131A.083.083,0,0,0,586.623,381.607Z" transform="translate(-494.228 -250.244)" fill="#263238"/>
          <path id="Path_75561" data-name="Path 75561" d="M586.383,384.67a.2.2,0,0,0-.2.143l-.594,2.2a.2.2,0,0,0,.143.238.19.19,0,0,0,.238-.137l.594-2.193a.2.2,0,0,0-.137-.244Z" transform="translate(-494.386 -251.488)" fill="#263238"/>
          <path id="Path_75562" data-name="Path 75562" d="M588.176,383.667a.071.071,0,0,0-.048,0l-1.331.7a.1.1,0,0,0-.036.137.1.1,0,0,0,.131.042l1.325-.7a.107.107,0,0,0,.042-.137.1.1,0,0,0-.083-.042Z" transform="translate(-494.859 -251.079)" fill="#263238"/>
          <path id="Path_75563" data-name="Path 75563" d="M597.173,379a.2.2,0,0,1,.226.1l1.07,2.015a.2.2,0,0,1-.345.184l-1.07-2.015a.19.19,0,0,1,.083-.262Z" transform="translate(-499.03 -249.183)" fill="#263238"/>
          <path id="Path_75564" data-name="Path 75564" d="M594.829,378.538a.161.161,0,0,1,.054,0l1.444.386a.1.1,0,1,1-.048.19l-1.45-.386a.1.1,0,0,1-.071-.119A.107.107,0,0,1,594.829,378.538Z" transform="translate(-498.107 -249)" fill="#263238"/>
          <path id="Path_75565" data-name="Path 75565" d="M597.694,382.61a.2.2,0,0,1,.2.143l.594,2.2a.2.2,0,1,1-.38.1l-.594-2.193a.2.2,0,0,1,.137-.244Z" transform="translate(-499.224 -250.652)" fill="#263238"/>
          <path id="Path_75566" data-name="Path 75566" d="M595.535,381.607a.066.066,0,0,1,.048,0l1.331.7a.1.1,0,0,1,.042.131.107.107,0,0,1-.137.042l-1.325-.7a.1.1,0,0,1-.042-.131.089.089,0,0,1,.083-.042Z" transform="translate(-498.385 -250.243)" fill="#263238"/>
          <path id="Path_75567" data-name="Path 75567" d="M596.137,384.67a.2.2,0,0,1,.2.143l.594,2.2a.2.2,0,0,1-.137.238.184.184,0,0,1-.238-.137l-.594-2.193a.2.2,0,0,1,.137-.244Z" transform="translate(-498.595 -251.487)" fill="#263238"/>
          <path id="Path_75568" data-name="Path 75568" d="M593.965,383.667a.083.083,0,0,1,.053,0l1.325.7a.107.107,0,0,1,.042.137.1.1,0,0,1-.131.042l-1.29-.678a.107.107,0,0,1-.042-.137A.1.1,0,0,1,593.965,383.667Z" transform="translate(-497.766 -251.079)" fill="#263238"/>
          <path id="Path_75569" data-name="Path 75569" d="M594.457,373.827h-.036a.154.154,0,0,1-.113-.178l.362-1.724a.155.155,0,0,1,.3.065l-.369,1.724A.149.149,0,0,1,594.457,373.827Z" transform="translate(-497.925 -246.279)" fill="#263238"/>
          <path id="Path_75570" data-name="Path 75570" d="M592.831,375.552a.065.065,0,0,1-.065-.036.077.077,0,0,1,0-.107l.993-.594a.077.077,0,0,1,.107,0,.083.083,0,0,1,0,.107l-.993.594Z" transform="translate(-497.291 -247.482)" fill="#263238"/>
          <path id="Path_76113" data-name="Path 76113" d="M2.479,0A2.479,2.479,0,1,1,0,2.479,2.479,2.479,0,0,1,2.479,0Z" transform="translate(92.33 128.653)" fill="#fd5675"/>
          <path id="Path_76113_-_Outline" data-name="Path 76113 - Outline" d="M2.249-.566A2.815,2.815,0,1,1-.566,2.249,2.818,2.818,0,0,1,2.249-.566Zm0,4.957A2.142,2.142,0,1,0,.107,2.249,2.145,2.145,0,0,0,2.249,4.391Z" transform="translate(92.56 128.883)" fill="#013c68"/>
          <path id="Path_75571" data-name="Path 75571" d="M592.015,380.992V379.7l-1.117-.642-1.117.642v1.29l1.117.642Z" transform="translate(-496.089 -249.212)" fill="#263238"/>
          <path id="Path_75571_-_Outline" data-name="Path 75571 - Outline" d="M590.668,381.74a.336.336,0,0,1-.168-.045l-1.117-.642a.336.336,0,0,1-.169-.292v-1.29a.336.336,0,0,1,.169-.292l1.117-.642a.336.336,0,0,1,.335,0l1.117.642a.337.337,0,0,1,.169.292v1.29a.336.336,0,0,1-.169.292l-1.117.642A.336.336,0,0,1,590.668,381.74Zm-.781-1.173.781.449.781-.449v-.9l-.781-.449-.781.449Z" transform="translate(-495.859 -248.983)" fill="#013c68"/>
          <path id="Line_236" data-name="Line 236" d="M.107,1.195H-.566V0H.107Z" transform="translate(95.038 128.653)" fill="#013c68"/>
          <path id="Line_237" data-name="Line 237" d="M.107,1.195H-.566V0H.107Z" transform="translate(95.038 132.421)" fill="#013c68"/>
          <path id="Line_238" data-name="Line 238" d="M4.963.107H0V-.566H4.963Z" transform="translate(92.33 131.361)" fill="#013c68"/>
          <path id="Line_239" data-name="Line 239" d="M-.229,8.588A.336.336,0,0,1-.5,8.455a.336.336,0,0,1,.065-.471L10.741-.5a.336.336,0,0,1,.471.065.336.336,0,0,1-.065.471L-.026,8.52A.335.335,0,0,1-.229,8.588Z" transform="translate(88.702 126.422)" fill="#013c68"/>
          <path id="Path_75572" data-name="Path 75572" d="M579.62,322.975l2.045,4.814,8.452-.44.588-5.539Z" transform="translate(-491.968 -225.99)" fill="#fff"/>
          <path id="Path_75572_-_Outline" data-name="Path 75572 - Outline" d="M590.475,321.244a.336.336,0,0,1,.335.372l-.588,5.539a.337.337,0,0,1-.317.3l-8.452.44a.336.336,0,0,1-.327-.2l-2.045-4.814a.336.336,0,0,1,.274-.466l11.085-1.165Zm-.893,5.555.514-4.84-10.219,1.074,1.775,4.179Z" transform="translate(-491.738 -225.76)" fill="#013c68"/>
          <path id="Path_75573" data-name="Path 75573" d="M584.65,331.712l6.49.369-.369-.951Z" transform="translate(-494.008 -229.77)" fill="#263238"/>
          <path id="Path_75573_-_Outline" data-name="Path 75573 - Outline" d="M590.911,332.188h-.019l-6.49-.369a.336.336,0,0,1-.013-.671l6.122-.582a.337.337,0,0,1,.346.213l.368.951a.336.336,0,0,1-.314.458Zm-2.049-.79,1.546.088-.088-.227Z" transform="translate(-493.779 -229.54)" fill="#013c68"/>
        </g>
      </g>
    </g>
    <rect id="Rectangle_10189" data-name="Rectangle 10189" width="84.027" height="154.172" rx="10" transform="translate(2889.032 1200.467)" fill="#fff"/>
    <path id="Rectangle_10189_-_Outline" data-name="Rectangle 10189 - Outline" d="M7.307.731A6.583,6.583,0,0,0,.731,7.307V146.865a6.583,6.583,0,0,0,6.576,6.576H76.721a6.583,6.583,0,0,0,6.576-6.576V7.307A6.583,6.583,0,0,0,76.721.731H7.307m0-.731H76.721a7.307,7.307,0,0,1,7.307,7.307V146.865a7.307,7.307,0,0,1-7.307,7.307H7.307A7.307,7.307,0,0,1,0,146.865V7.307A7.307,7.307,0,0,1,7.307,0Z" transform="translate(2889.032 1200.467)" fill="#707070"/>
    <g id="Group_47159" data-name="Group 47159" transform="translate(2888.821 1196.73)">
      <rect id="Rectangle_10182" data-name="Rectangle 10182" width="5.512" height="3.023" transform="translate(71.717 6.011)" fill="#013c68"/>
      <path id="Rectangle_10182_-_Outline" data-name="Rectangle 10182 - Outline" d="M-.111-.411H5.4a.3.3,0,0,1,.3.3V2.913a.3.3,0,0,1-.3.3H-.111a.3.3,0,0,1-.3-.3V-.111A.3.3,0,0,1-.111-.411ZM5.1.189H.189V2.613H5.1Z" transform="translate(71.828 6.122)" fill="#013c68"/>
      <rect id="Rectangle_10183" data-name="Rectangle 10183" width="4.298" height="3.023" transform="translate(71.717 6.011)" fill="#013c68"/>
      <path id="Rectangle_10183_-_Outline" data-name="Rectangle 10183 - Outline" d="M-.1-.363H4.2A.265.265,0,0,1,4.465-.1V2.926A.265.265,0,0,1,4.2,3.19H-.1a.265.265,0,0,1-.265-.265V-.1A.265.265,0,0,1-.1-.363Zm4.033.53H.167V2.661H3.936Z" transform="translate(71.815 6.109)" fill="#013c68"/>
      <rect id="Rectangle_10184" data-name="Rectangle 10184" width="0.775" height="1.332" transform="translate(77.218 6.858)" fill="#013c68"/>
      <path id="Rectangle_10184_-_Outline" data-name="Rectangle 10184 - Outline" d="M-.1-.363H.677A.265.265,0,0,1,.942-.1V1.235A.265.265,0,0,1,.677,1.5H-.1a.265.265,0,0,1-.265-.265V-.1A.265.265,0,0,1-.1-.363Zm.51.53H.167v.8H.412Z" transform="translate(77.315 6.956)" fill="#013c68"/>
      <rect id="Rectangle_10185" data-name="Rectangle 10185" width="1.012" height="1.733" transform="translate(7.351 6.95)" fill="#013c68"/>
      <path id="Rectangle_10185_-_Outline" data-name="Rectangle 10185 - Outline" d="M-.119-.442H.893a.323.323,0,0,1,.323.323V1.614a.323.323,0,0,1-.323.323H-.119a.323.323,0,0,1-.323-.323V-.119A.323.323,0,0,1-.119-.442ZM.57.2H.2V1.291H.57Z" transform="translate(7.47 7.069)" fill="#013c68"/>
      <rect id="Rectangle_10186" data-name="Rectangle 10186" width="1.012" height="2.34" transform="translate(8.939 6.339)" fill="#013c68"/>
      <path id="Rectangle_10186_-_Outline" data-name="Rectangle 10186 - Outline" d="M-.119-.442H.893a.323.323,0,0,1,.323.323v2.34a.323.323,0,0,1-.323.323H-.119a.323.323,0,0,1-.323-.323V-.119A.323.323,0,0,1-.119-.442ZM.57.2H.2V1.9H.57Z" transform="translate(9.058 6.458)" fill="#013c68"/>
      <rect id="Rectangle_10187" data-name="Rectangle 10187" width="1.012" height="3.061" transform="translate(10.527 5.622)" fill="#013c68"/>
      <path id="Rectangle_10187_-_Outline" data-name="Rectangle 10187 - Outline" d="M-.119-.442H.893a.323.323,0,0,1,.323.323V2.942a.323.323,0,0,1-.323.323H-.119a.323.323,0,0,1-.323-.323V-.119A.323.323,0,0,1-.119-.442ZM.57.2H.2V2.62H.57Z" transform="translate(10.646 5.741)" fill="#013c68"/>
      <path id="Line_240" data-name="Line 240" d="M74.889.231H-.135A.365.365,0,0,1-.5-.135.365.365,0,0,1-.135-.5H74.889a.365.365,0,0,1,.365.365A.365.365,0,0,1,74.889.231Z" transform="translate(5.378 10.203)" fill="#013c68"/>
      <path id="Path_76091" data-name="Path 76091" d="M224.194,89.594a.557.557,0,0,0,.561-.557V74.023a.557.557,0,0,0-.561-.557h-1.458V44.791a7.207,7.207,0,0,0-7.207-7.211H145.147a7.207,7.207,0,0,0-7.207,7.211V192.766a7.207,7.207,0,0,0,7.207,7.207h70.382a7.207,7.207,0,0,0,7.207-7.207V102.5h1.458a.561.561,0,0,0,.561-.557v-6.68a.557.557,0,0,0-.561-.557h-1.458V89.594ZM220.3,187.151a5.21,5.21,0,0,1-5.279,5.142H145.658a5.211,5.211,0,0,1-5.283-5.142V46.348a5.214,5.214,0,0,1,5.283-5.146H173l1.145,2.107a7.092,7.092,0,0,0,12.406,0l1.145-2.107h27.343a5.211,5.211,0,0,1,5.264,5.146Z" transform="translate(-137.575 -37.215)" fill="#013c68"/>
      <path id="Path_76091_-_Outline" data-name="Path 76091 - Outline" d="M145.012,37.08h70.382a7.572,7.572,0,0,1,7.572,7.576V72.966h1.1a.917.917,0,0,1,.65.268.929.929,0,0,1,.272.655V88.9a.929.929,0,0,1-.272.655.917.917,0,0,1-.65.268h-1.1V94.2h1.1a.917.917,0,0,1,.65.268.929.929,0,0,1,.272.655v6.68a.929.929,0,0,1-.926.923h-1.093v89.9a7.581,7.581,0,0,1-7.572,7.572H145.012a7.581,7.581,0,0,1-7.572-7.572V44.656a7.572,7.572,0,0,1,7.572-7.576ZM224.059,73.7H222.6a.365.365,0,0,1-.365-.365V44.656a6.842,6.842,0,0,0-6.842-6.845H145.012a6.842,6.842,0,0,0-6.842,6.845V192.631a6.849,6.849,0,0,0,6.842,6.842h70.382a6.849,6.849,0,0,0,6.842-6.842V102.365A.365.365,0,0,1,222.6,102h1.458a.2.2,0,0,0,.2-.194V95.127a.193.193,0,0,0-.057-.136.191.191,0,0,0-.135-.056H222.6a.365.365,0,0,1-.365-.365V89.459a.365.365,0,0,1,.365-.365h1.462a.191.191,0,0,0,.135-.056.193.193,0,0,0,.057-.136V73.888a.193.193,0,0,0-.057-.136.191.191,0,0,0-.135-.056ZM145.453,40.7h27.41a.365.365,0,0,1,.321.191L174.329,43a6.727,6.727,0,0,0,11.765,0l1.144-2.1a.365.365,0,0,1,.321-.191H214.9a5.576,5.576,0,0,1,5.631,5.506s0,0,0,0v140.8s0,0,0,0a5.576,5.576,0,0,1-5.646,5.5H145.449a5.576,5.576,0,0,1-5.574-5.5s0,0,0,0V46.214s0,0,0,0a5.58,5.58,0,0,1,5.578-5.507Zm27.192.731H145.453a4.867,4.867,0,0,0-4.847,4.783v140.8a4.863,4.863,0,0,0,4.843,4.777h69.508a4.863,4.863,0,0,0,4.843-4.779V46.214a4.862,4.862,0,0,0-4.895-4.78H187.776l-1.041,1.916a7.458,7.458,0,0,1-13.047,0Z" transform="translate(-137.44 -37.08)" fill="#013c68"/>
      <path id="Path_76092" data-name="Path 76092" d="M247.844,46.132a1.882,1.882,0,1,0-.553,1.332A1.882,1.882,0,0,0,247.844,46.132Z" transform="translate(-203.199 -41.339)" fill="#013c68"/>
      <path id="Path_76092_-_Outline" data-name="Path 76092 - Outline" d="M245.827,43.75h0a2.247,2.247,0,0,1,0,4.494h0a2.247,2.247,0,0,1,0-4.494Zm0,3.764a1.517,1.517,0,1,0,0-3.033v0a1.517,1.517,0,0,0,0,3.033Z" transform="translate(-203.064 -41.204)" fill="#013c68"/>
    </g>
    <rect id="Rectangle_10191" data-name="Rectangle 10191" width="65.76" height="13.152" transform="translate(2899.992 1295.454)" fill="#99b1c3" opacity="0.23"/>
    <rect id="Rectangle_10195" data-name="Rectangle 10195" width="65.76" height="13.152" transform="translate(2899.992 1318.835)" fill="#99b1c3" opacity="0.23"/>
    <rect id="Rectangle_10192" data-name="Rectangle 10192" width="65.76" height="10.229" transform="translate(2899.992 1220.195)" fill="#99b1c3" opacity="0.23"/>
    <rect id="Rectangle_10193" data-name="Rectangle 10193" width="65.76" height="10.229" transform="translate(2899.992 1234.808)" fill="#99b1c3" opacity="0.23"/>
    <rect id="Rectangle_10194" data-name="Rectangle 10194" width="65.76" height="35.803" transform="translate(2899.992 1253.806)" fill="#99b1c3" opacity="0.23"/>
    <g id="freepik--Bugs--inject-1" transform="translate(2904.315 1220.573)">
      <path id="Path_75612" data-name="Path 75612" d="M287.09,250.2a.93.93,0,1,0,.93-.933v.933Z" transform="translate(-238.353 -224.472)" fill="#407bff"/>
      <path id="Path_75613" data-name="Path 75613" d="M287.09,250.2a.93.93,0,1,0,.93-.933v.933Z" transform="translate(-238.353 -224.472)" fill="#013c68"/>
      <path id="Path_75614" data-name="Path 75614" d="M275.052,261.868c-1.3,1.374-3.768,3.1-5.494,1.492-.3-.281-.764.176-.46.46,2.029,1.889,4.839.166,6.411-1.5C275.8,262.025,275.34,261.565,275.052,261.868Z" transform="translate(-226.044 -232.976)" fill="#407bff"/>
      <g id="Group_47143" data-name="Group 47143" transform="translate(42.955 28.793)" opacity="0.6">
        <path id="Path_75615" data-name="Path 75615" d="M275.052,261.868c-1.3,1.374-3.768,3.1-5.494,1.492-.3-.281-.764.176-.46.46,2.029,1.889,4.839.166,6.411-1.5C275.8,262.025,275.34,261.565,275.052,261.868Z" transform="translate(-268.999 -261.769)"/>
      </g>
      <path id="Path_75616" data-name="Path 75616" d="M300.144,237.681c1.662-1.572,3.381-4.382,1.492-6.408-.284-.32-.741.153-.457.457,1.6,1.726-.121,4.193-1.492,5.494-.3.288.153.745.457.457Z" transform="translate(-246.857 -212.154)" fill="#407bff"/>
      <g id="Group_47144" data-name="Group 47144" transform="translate(52.731 19.013)" opacity="0.6">
        <path id="Path_75617" data-name="Path 75617" d="M300.144,237.681c1.662-1.572,3.381-4.382,1.492-6.408-.284-.32-.741.153-.457.457,1.6,1.726-.121,4.193-1.492,5.494-.3.288.153.745.457.457Z" transform="translate(-299.587 -231.167)"/>
      </g>
      <path id="Path_75618" data-name="Path 75618" d="M288.184,268.634c-.572,2.221-.546,5.5,2.128,6.232a.33.33,0,0,0,.163-.639c-2.282-.639-2.141-3.592-1.665-5.433a.33.33,0,1,0-.639-.163Z" transform="translate(-238.895 -237.476)" fill="#407bff"/>
      <g id="Group_47145" data-name="Group 47145" transform="translate(48.991 30.907)" opacity="0.6">
        <path id="Path_75619" data-name="Path 75619" d="M288.184,268.634c-.572,2.221-.546,5.5,2.128,6.232a.33.33,0,0,0,.163-.639c-2.282-.639-2.141-3.592-1.665-5.433a.33.33,0,1,0-.639-.163Z" transform="translate(-287.886 -268.383)"/>
      </g>
      <path id="Path_75620" data-name="Path 75620" d="M306.931,250.7c1.85-.476,4.816-.617,5.433,1.665A.33.33,0,0,0,313,252.2c-.735-2.672-4.011-2.7-6.232-2.128a.33.33,0,0,0,.163.639Z" transform="translate(-251.576 -224.813)" fill="#407bff"/>
      <g id="Group_47146" data-name="Group 47146" transform="translate(54.947 24.959)" opacity="0.6">
        <path id="Path_75621" data-name="Path 75621" d="M306.931,250.7c1.85-.476,4.816-.617,5.433,1.665A.33.33,0,0,0,313,252.2c-.735-2.672-4.011-2.7-6.232-2.128a.33.33,0,0,0,.163.639Z" transform="translate(-306.523 -249.772)"/>
      </g>
      <path id="Path_75622" data-name="Path 75622" d="M286.59,255.417a7.047,7.047,0,0,0,1.339,1.863c2.359,2.359,5.877,2.665,7.855.687s1.675-5.5-.684-7.859a7.1,7.1,0,0,0-1.863-1.339Z" transform="translate(-238.013 -224.131)" fill="#407bff"/>
      <path id="Path_75623" data-name="Path 75623" d="M286.59,255.417a7.047,7.047,0,0,0,1.339,1.863c2.359,2.359,5.877,2.665,7.855.687s1.675-5.5-.684-7.859a7.1,7.1,0,0,0-1.863-1.339Z" transform="translate(-238.013 -224.131)" fill="#fd5675"/>
      <path id="Path_75624" data-name="Path 75624" d="M287.563,255.059l5.318-5.318a3.851,3.851,0,0,0-5.318,5.318Z" transform="translate(-238.321 -224.437)" fill="#407bff"/>
      <path id="Path_75625" data-name="Path 75625" d="M287.563,255.059l5.318-5.318a3.851,3.851,0,0,0-5.318,5.318Z" transform="translate(-238.321 -224.437)" fill="#013c68"/>
      <path id="Path_75626" data-name="Path 75626" d="M286.59,262.494a7.047,7.047,0,0,0,1.339,1.863c2.359,2.359,5.877,2.665,7.855.687l-5.868-5.874Z" transform="translate(-238.013 -231.208)" opacity="0.2"/>
      <path id="Path_75627" data-name="Path 75627" d="M272.792,254.947a4.688,4.688,0,0,1,1.023-1.54c1.151-1.141,2.557-.914,3.755.022.08.064.195-.048.115-.112-1.106-.853-2.432-1.253-3.627-.342a4.7,4.7,0,0,0-1.422,1.918c-.042.1.118.137.157.042Z" transform="translate(-228.514 -226.64)" fill="#263238"/>
      <path id="Path_75628" data-name="Path 75628" d="M292.75,234.817a4.675,4.675,0,0,0-1.918,1.425c-.911,1.2-.515,2.518.339,3.624.064.083.179-.032.115-.115-.933-1.208-1.166-2.608-.026-3.752a4.765,4.765,0,0,1,1.54-1.026c.1-.038.058-.195-.038-.157Z" transform="translate(-240.546 -214.634)" fill="#263238"/>
      <path id="Path_75629" data-name="Path 75629" d="M293.733,266.54a.959.959,0,1,1-1.349,0A.959.959,0,0,1,293.733,266.54Z" transform="translate(-241.762 -236.034)" fill="#fff"/>
      <path id="Path_75630" data-name="Path 75630" d="M305.693,254.58a.959.959,0,1,1-1.349,0A.959.959,0,0,1,305.693,254.58Z" transform="translate(-249.9 -227.896)" fill="#fff"/>
      <path id="Path_75631" data-name="Path 75631" d="M303.083,273.02a.959.959,0,1,1-1.349,0A.959.959,0,0,1,303.083,273.02Z" transform="translate(-248.124 -240.443)" fill="#fff"/>
      <path id="Path_75632" data-name="Path 75632" d="M312.173,263.93a.959.959,0,1,1-1.349,0A.959.959,0,0,1,312.173,263.93Z" transform="translate(-254.309 -234.258)" fill="#fff"/>
      <path id="Path_75633" data-name="Path 75633" d="M164.089,290.83a.8.8,0,1,0,.793.8h-.793Z" transform="translate(-154.118 -252.749)" fill="#407bff"/>
      <path id="Path_75634" data-name="Path 75634" d="M164.089,290.83a.8.8,0,1,0,.793.8h-.793Z" transform="translate(-154.118 -252.749)" fill="#013c68"/>
      <path id="Path_75635" data-name="Path 75635" d="M152.272,280.562c-1.173-1.112-2.649-3.218-1.278-4.695.243-.259-.147-.639-.393-.39-1.614,1.732-.141,4.129,1.278,5.475.256.246.639-.144.39-.39Z" transform="translate(-145.005 -242.248)" fill="#407bff"/>
      <g id="Group_47147" data-name="Group 47147" transform="translate(4.891 33.148)" opacity="0.6">
        <path id="Path_75636" data-name="Path 75636" d="M152.272,280.562c-1.173-1.112-2.649-3.218-1.278-4.695.243-.259-.147-.639-.393-.39-1.614,1.732-.141,4.129,1.278,5.475.256.246.639-.144.39-.39Z" transform="translate(-149.896 -275.396)"/>
      </g>
      <path id="Path_75637" data-name="Path 75637" d="M166.16,301.989c1.342,1.419,3.742,2.876,5.475,1.278.262-.243-.131-.639-.39-.39-1.476,1.374-3.583-.1-4.695-1.278C166.3,301.34,165.911,301.73,166.16,301.989Z" transform="translate(-156.017 -260.019)" fill="#407bff"/>
      <g id="Group_47148" data-name="Group 47148" transform="translate(10.064 41.495)" opacity="0.6">
        <path id="Path_75638" data-name="Path 75638" d="M166.16,301.989c1.342,1.419,3.742,2.876,5.475,1.278.262-.243-.131-.639-.39-.39-1.476,1.374-3.583-.1-4.695-1.278C166.3,301.34,165.911,301.73,166.16,301.989Z" transform="translate(-166.081 -301.514)"/>
      </g>
      <path id="Path_75639" data-name="Path 75639" d="M139.925,291.77c-1.9-.486-4.7-.467-5.324,1.818a.276.276,0,1,0,.534.141c.534-1.949,3.068-1.828,4.65-1.425a.276.276,0,0,0,.141-.534Z" transform="translate(-134.591 -253.216)" fill="#407bff"/>
      <g id="Group_47149" data-name="Group 47149" transform="translate(0 38.3)" opacity="0.6">
        <path id="Path_75640" data-name="Path 75640" d="M139.925,291.77c-1.9-.486-4.7-.467-5.324,1.818a.276.276,0,1,0,.534.141c.534-1.949,3.068-1.828,4.65-1.425a.276.276,0,0,0,.141-.534Z" transform="translate(-134.591 -291.516)"/>
      </g>
      <path id="Path_75641" data-name="Path 75641" d="M161.914,307.824c.406,1.579.527,4.113-1.422,4.65a.276.276,0,0,0,.141.534c2.282-.639,2.3-3.426,1.818-5.324a.278.278,0,0,0-.537.141Z" transform="translate(-152.074 -264.087)" fill="#407bff"/>
      <g id="Group_47150" data-name="Group 47150" transform="translate(8.212 43.405)" opacity="0.6">
        <path id="Path_75642" data-name="Path 75642" d="M161.914,307.824c.406,1.579.527,4.113-1.422,4.65a.276.276,0,0,0,.141.534c2.282-.639,2.3-3.426,1.818-5.324a.278.278,0,0,0-.537.141Z" transform="translate(-160.286 -307.492)"/>
      </g>
      <path id="Path_75643" data-name="Path 75643" d="M143.907,290.4a6.072,6.072,0,0,0-1.6,1.147c-2.013,2.013-2.279,5.021-.585,6.711s4.695,1.429,6.711-.585a5.95,5.95,0,0,0,1.144-1.6Z" transform="translate(-138.685 -252.457)" fill="#407bff"/>
      <path id="Path_75644" data-name="Path 75644" d="M143.907,290.4a6.072,6.072,0,0,0-1.6,1.147c-2.013,2.013-2.279,5.021-.585,6.711s4.695,1.429,6.711-.585a5.95,5.95,0,0,0,1.144-1.6Z" transform="translate(-138.685 -252.457)" fill="#fd5675"/>
      <path id="Path_75645" data-name="Path 75645" d="M152.71,291.242l4.545,4.545a3.291,3.291,0,0,0-4.545-4.545Z" transform="translate(-146.919 -252.73)" fill="#407bff"/>
      <path id="Path_75646" data-name="Path 75646" d="M152.71,291.242l4.545,4.545a3.291,3.291,0,0,0-4.545-4.545Z" transform="translate(-146.919 -252.73)" fill="#013c68"/>
      <path id="Path_75647" data-name="Path 75647" d="M143.907,290.4a6.072,6.072,0,0,0-1.6,1.147c-2.013,2.013-2.279,5.021-.585,6.711l5.018-5.018Z" transform="translate(-138.685 -252.457)" opacity="0.2"/>
      <path id="Path_75648" data-name="Path 75648" d="M158.8,278.587a4.023,4.023,0,0,1,1.317.876,2.267,2.267,0,0,1-.022,3.2c-.054.067.045.166.1.1a2.423,2.423,0,0,0,.291-3.1,4.049,4.049,0,0,0-1.649-1.218c-.083-.032-.118.1-.035.134Z" transform="translate(-151.03 -244.316)" fill="#263238"/>
      <path id="Path_75649" data-name="Path 75649" d="M171.382,295.646A4.03,4.03,0,0,0,170.164,294a2.423,2.423,0,0,0-3.1.291c-.07.054.026.153.1.1a2.252,2.252,0,0,1,3.2-.022,4.11,4.11,0,0,1,.876,1.317c.032.083.166.048.134-.035Z" transform="translate(-156.672 -254.603)" fill="#263238"/>
      <path id="Path_75650" data-name="Path 75650" d="M150.039,296.517a.815.815,0,1,1,0-1.154A.815.815,0,0,1,150.039,296.517Z" transform="translate(-144.156 -255.672)" fill="#fff"/>
      <path id="Path_75651" data-name="Path 75651" d="M160.269,306.737a.815.815,0,1,1,.239-.577A.815.815,0,0,1,160.269,306.737Z" transform="translate(-151.117 -262.626)" fill="#fff"/>
      <path id="Path_75652" data-name="Path 75652" d="M144.516,304.5a.815.815,0,1,1,0-1.151A.815.815,0,0,1,144.516,304.5Z" transform="translate(-140.397 -261.105)" fill="#fff"/>
      <path id="Path_75653" data-name="Path 75653" d="M152.289,312.277a.815.815,0,1,1,0-1.154.815.815,0,0,1,0,1.154Z" transform="translate(-145.687 -266.395)" fill="#fff"/>
      <path id="Path_75654" data-name="Path 75654" d="M196.59,186.978a.61.61,0,1,0,.2.844l-.518-.32Z" transform="translate(-176.143 -182.026)" fill="#407bff"/>
      <path id="Path_75655" data-name="Path 75655" d="M196.59,186.978a.61.61,0,1,0,.2.844l-.518-.32Z" transform="translate(-176.143 -182.026)" fill="#013c68"/>
      <path id="Path_75656" data-name="Path 75656" d="M191.433,175.687c-.32-1.2-.431-3.18,1.064-3.589.262-.074.166-.486-.1-.415-1.755.483-1.764,2.646-1.381,4.1C191.088,176.048,191.5,175.953,191.433,175.687Z" transform="translate(-172.846 -171.675)" fill="#407bff"/>
      <g id="Group_47151" data-name="Group 47151" transform="translate(17.968 0)" opacity="0.6">
        <path id="Path_75657" data-name="Path 75657" d="M191.433,175.687c-.32-1.2-.431-3.18,1.064-3.589.262-.074.166-.486-.1-.415-1.755.483-1.764,2.646-1.381,4.1C191.088,176.048,191.5,175.953,191.433,175.687Z" transform="translate(-190.814 -171.675)"/>
      </g>
      <path id="Path_75658" data-name="Path 75658" d="M193.99,194.8c.32,1.473,1.278,3.407,3.068,3.052.268-.054.169-.47-.1-.415-1.524.32-2.3-1.518-2.557-2.736C194.351,194.434,193.935,194.533,193.99,194.8Z" transform="translate(-175.003 -187.235)" fill="#407bff"/>
      <g id="Group_47152" data-name="Group 47152" transform="translate(18.981 7.309)" opacity="0.6">
        <path id="Path_75659" data-name="Path 75659" d="M193.99,194.8c.32,1.473,1.278,3.407,3.068,3.052.268-.054.169-.47-.1-.415-1.524.32-2.3-1.518-2.557-2.736C194.351,194.434,193.935,194.533,193.99,194.8Z" transform="translate(-193.985 -194.544)"/>
      </g>
      <path id="Path_75660" data-name="Path 75660" d="M179.358,179.06c-1.045-1.087-2.876-2.205-4.219-.959-.2.185.093.5.294.32,1.138-1.058,2.748.045,3.618.959.189.195.5-.1.32-.294Z" transform="translate(-162.135 -175.674)" fill="#407bff"/>
      <g id="Group_47153" data-name="Group 47153" transform="translate(12.937 1.879)" opacity="0.6">
        <path id="Path_75661" data-name="Path 75661" d="M179.358,179.06c-1.045-1.087-2.876-2.205-4.219-.959-.2.185.093.5.294.32,1.138-1.058,2.748.045,3.618.959.189.195.5-.1.32-.294Z" transform="translate(-175.073 -177.553)"/>
      </g>
      <path id="Path_75662" data-name="Path 75662" d="M184.578,198.261c-.374,1.2-1.32,2.905-2.812,2.467a.212.212,0,0,0-.125.406c1.748.515,2.9-1.307,3.343-2.748a.212.212,0,1,0-.406-.125Z" transform="translate(-166.502 -189.662)" fill="#407bff"/>
      <g id="Group_47154" data-name="Group 47154" transform="translate(14.988 8.449)" opacity="0.6">
        <path id="Path_75663" data-name="Path 75663" d="M184.578,198.261c-.374,1.2-1.32,2.905-2.812,2.467a.212.212,0,0,0-.125.406c1.748.515,2.9-1.307,3.343-2.748a.212.212,0,1,0-.406-.125Z" transform="translate(-181.491 -198.111)"/>
      </g>
      <path id="Path_75664" data-name="Path 75664" d="M179.038,180.838a4.668,4.668,0,0,0-1.505.105c-2.135.5-3.515,2.362-3.1,4.155s2.5,2.835,4.631,2.333a4.714,4.714,0,0,0,1.393-.578Z" transform="translate(-161.65 -177.896)" fill="#407bff"/>
      <path id="Path_75665" data-name="Path 75665" d="M179.038,180.838a4.668,4.668,0,0,0-1.505.105c-2.135.5-3.515,2.362-3.1,4.155s2.5,2.835,4.631,2.333a4.714,4.714,0,0,0,1.393-.578Z" transform="translate(-161.65 -177.896)" fill="#fd5675"/>
      <path id="Path_75666" data-name="Path 75666" d="M189.47,182.76l1.128,4.813a2.715,2.715,0,0,0,1.365-2.876A2.679,2.679,0,0,0,189.47,182.76Z" transform="translate(-171.931 -179.217)" fill="#407bff"/>
      <path id="Path_75667" data-name="Path 75667" d="M189.47,182.76l1.128,4.813a2.715,2.715,0,0,0,1.365-2.876A2.679,2.679,0,0,0,189.47,182.76Z" transform="translate(-171.931 -179.217)" fill="#013c68"/>
      <path id="Path_75668" data-name="Path 75668" d="M179.038,180.838a4.668,4.668,0,0,0-1.505.105c-2.135.5-3.515,2.362-3.1,4.155l5.315-1.253Z" transform="translate(-161.65 -177.896)" opacity="0.2"/>
      <path id="Path_75669" data-name="Path 75669" d="M197.1,176.369a3.109,3.109,0,0,1,.508,1.106,1.744,1.744,0,0,1-1.313,2.09c-.061.026-.038.128.026.105a1.865,1.865,0,0,0,1.445-1.918,3.078,3.078,0,0,0-.588-1.464c-.038-.054-.115.019-.077.073Z" transform="translate(-176.55 -174.802)" fill="#263238"/>
      <path id="Path_75670" data-name="Path 75670" d="M199.6,193.583a3.081,3.081,0,0,0-.131-1.569,1.864,1.864,0,0,0-2.144-1.064c-.067,0-.042.112.026.105a1.739,1.739,0,0,1,2.106,1.278,3.122,3.122,0,0,1,.042,1.218c0,.067.09.1.1.029Z" transform="translate(-177.25 -184.777)" fill="#263238"/>
      <path id="Path_75671" data-name="Path 75671" d="M185.022,184.981a.639.639,0,1,1,.467-.754A.639.639,0,0,1,185.022,184.981Z" transform="translate(-168.363 -179.872)" fill="#fff"/>
      <path id="Path_75672" data-name="Path 75672" d="M187.572,195.8a.639.639,0,1,1,.467-.754A.639.639,0,0,1,187.572,195.8Z" transform="translate(-170.098 -187.234)" fill="#fff"/>
      <path id="Path_75673" data-name="Path 75673" d="M178.165,187.963a.639.639,0,1,1,.463-.751A.639.639,0,0,1,178.165,187.963Z" transform="translate(-163.694 -181.902)" fill="#fff"/>
      <path id="Path_75674" data-name="Path 75674" d="M180.106,196.192a.639.639,0,1,1,.463-.754A.639.639,0,0,1,180.106,196.192Z" transform="translate(-165.015 -187.501)" fill="#fff"/>
    </g>
  </g>
</svg>
