<svg xmlns="http://www.w3.org/2000/svg" width="251.602" height="287.557" viewBox="0 0 251.602 287.557">
  <g id="walkthrough_02" transform="translate(-62 -81.443)">
    <g id="Group_38338" data-name="Group 38338" transform="translate(62 142.457)">
      <path id="Path_73661" data-name="Path 73661" d="M412.25,167.5H185.755a12.333,12.333,0,0,0-12.314,12.329V341.972A12.333,12.333,0,0,0,185.755,354.3H412.25a12.333,12.333,0,0,0,12.314-12.329V179.829A12.333,12.333,0,0,0,412.25,167.5Z" transform="translate(-173.441 -167.5)" fill="#fff"/>
      <path id="Path_73660" data-name="Path 73660" d="M424.563,179.829v28.394h-.746v-.3H174.188v.3h-.746V179.829A12.333,12.333,0,0,1,185.755,167.5H412.25A12.333,12.333,0,0,1,424.563,179.829Z" transform="translate(-173.441 -167.5)" fill="#64c1ff"/>
      <ellipse id="Ellipse_1463" data-name="Ellipse 1463" cx="7.463" cy="7.472" rx="7.463" ry="7.472" transform="translate(43.284 12.889)" fill="#fff"/>
      <ellipse id="Ellipse_1464" data-name="Ellipse 1464" cx="7.463" cy="7.472" rx="7.463" ry="7.472" transform="translate(192.912 12.889)" fill="#fff"/>
      <path id="Path_73662" data-name="Path 73662" d="M280.727,385.961H236.332a7.106,7.106,0,0,1-7.094-7.1V357.849a7.106,7.106,0,0,1,7.094-7.1h44.395a7.106,7.106,0,0,1,7.094,7.1v21.009A7.106,7.106,0,0,1,280.727,385.961Z" transform="translate(-208.418 -282.285)" fill="#013c68"/>
      <path id="Path_73663" data-name="Path 73663" d="M483.125,385.961H438.731a7.106,7.106,0,0,1-7.094-7.1V357.849a7.106,7.106,0,0,1,7.094-7.1h44.395a7.106,7.106,0,0,1,7.094,7.1v21.009A7.106,7.106,0,0,1,483.125,385.961Z" transform="translate(-335.294 -282.285)" fill="#b3b23d"/>
      <path id="Path_73664" data-name="Path 73664" d="M482.764,530.53H438.37a7.322,7.322,0,0,1-7.309-7.318V502.2a7.322,7.322,0,0,1,7.309-7.318h44.395a7.322,7.322,0,0,1,7.309,7.318v21.009A7.322,7.322,0,0,1,482.764,530.53Z" transform="translate(-334.933 -372.573)" fill="#e1e1e1"/>
      <path id="Path_73665" data-name="Path 73665" d="M279.975,530.53H235.581a7.322,7.322,0,0,1-7.309-7.318V502.2a7.322,7.322,0,0,1,7.309-7.318h44.395a7.322,7.322,0,0,1,7.309,7.318v21.009A7.322,7.322,0,0,1,279.975,530.53Z" transform="translate(-207.813 -372.573)" fill="#e1e1e1"/>
      <path id="Path_73666" data-name="Path 73666" d="M685.163,530.53H640.768a7.322,7.322,0,0,1-7.309-7.318V502.2a7.322,7.322,0,0,1,7.309-7.318h44.395a7.322,7.322,0,0,1,7.309,7.318v21.009A7.322,7.322,0,0,1,685.163,530.53Z" transform="translate(-461.809 -372.573)" fill="#e1e1e1"/>
      <path id="Path_73667" data-name="Path 73667" d="M685.163,385.352H640.768a7.322,7.322,0,0,1-7.309-7.318V357.025a7.322,7.322,0,0,1,7.309-7.318h44.395a7.322,7.322,0,0,1,7.309,7.318v21.009A7.322,7.322,0,0,1,685.163,385.352Z" transform="translate(-461.809 -281.634)" fill="#e1e1e1"/>
      <ellipse id="Ellipse_1465" data-name="Ellipse 1465" cx="12.038" cy="12.053" rx="12.038" ry="12.053" transform="translate(38.073 74.015)" fill="#fff"/>
      <path id="Path_73668" data-name="Path 73668" d="M297.675,394.812a1.247,1.247,0,0,1-.751-.25l-.013-.01-2.829-2.169a1.258,1.258,0,0,1,1.529-2l1.832,1.407,4.33-5.654a1.256,1.256,0,0,1,1.762-.233l-.027.037.028-.036a1.261,1.261,0,0,1,.233,1.764l-5.094,6.651A1.257,1.257,0,0,1,297.675,394.812Z" transform="translate(-248.757 -304.145)" fill="#013c68"/>
      <ellipse id="Ellipse_1466" data-name="Ellipse 1466" cx="12.038" cy="12.053" rx="12.038" ry="12.053" transform="translate(113.811 73.842)" fill="#fff"/>
      <path id="Path_73669" data-name="Path 73669" d="M500.65,394.348a1.248,1.248,0,0,1-.751-.25l-.013-.01-2.829-2.169a1.258,1.258,0,0,1,1.529-2l1.833,1.407,4.33-5.655a1.256,1.256,0,0,1,1.762-.233l-.027.037.028-.036a1.261,1.261,0,0,1,.233,1.764l-5.094,6.651A1.257,1.257,0,0,1,500.65,394.348Z" transform="translate(-375.994 -303.855)" fill="#013c68"/>
      <path id="Path_73670" data-name="Path 73670" d="M702.364,479.18a4.017,4.017,0,0,0-.815-6.1l-6.721-35.93-8.174,3.035,9.176,34.364a4.032,4.032,0,0,0,6.532,4.632Z" transform="translate(-495.155 -336.408)" fill="#ffb8b8"/>
      <path id="Path_73671" data-name="Path 73671" d="M539.741,396.469a4.269,4.269,0,0,1,.008.671l15.892,12.247,4.507-1.853,3.682,6.444-7.66,4.057a3.232,3.232,0,0,1-3.835-.608l-15.885-16.4a4.251,4.251,0,1,1,3.291-4.56Z" transform="translate(-397.751 -308.523)" fill="#ffb8b8"/>
      <path id="Path_73672" data-name="Path 73672" d="M468.687,529.492h-4.574l-2.176-13.931h6.752Z" transform="translate(-289.57 -322.946)" fill="#ffb8b8"/>
      <path id="Path_73673" data-name="Path 73673" d="M631.816,722.281h-14.75v-.187a5.745,5.745,0,0,1,5.741-5.748h9.009Z" transform="translate(-451.532 -511.295)" fill="#012763"/>
      <path id="Path_73674" data-name="Path 73674" d="M514.687,529.492h-4.574l-2.176-13.931h6.752Z" transform="translate(-318.406 -322.946)" fill="#ffb8b8"/>
      <path id="Path_73675" data-name="Path 73675" d="M677.816,722.281h-14.75v-.187a5.745,5.745,0,0,1,5.741-5.748h9.009Z" transform="translate(-480.368 -511.295)" fill="#012763"/>
      <path id="Path_73676" data-name="Path 73676" d="M629.162,616.611a1.676,1.676,0,0,1-1.67-1.521l-3.986-53.683.188-.015,27.433-2.258.007.2,2.181,55.611a1.68,1.68,0,0,1-1.678,1.744h-5.379a1.67,1.67,0,0,1-1.659-1.425l-7.3-44.924a.187.187,0,0,0-.371.027l-.331,44.355A1.682,1.682,0,0,1,635,616.384l-5.75.224Z" transform="translate(-455.57 -412.818)" fill="#0c4b7a"/>
      <ellipse id="Ellipse_1467" data-name="Ellipse 1467" cx="9.165" cy="9.176" rx="9.165" ry="9.176" transform="translate(169.11 65.393)" fill="#ffb8b8"/>
      <path id="Path_73677" data-name="Path 73677" d="M631.26,461.907a45.112,45.112,0,0,1-11.854-1.622,1.685,1.685,0,0,1-1.207-1.751c1.234-18.566,1.524-32.973-1.071-42.942a16.758,16.758,0,0,1,1.377-12.277,16.135,16.135,0,0,1,14.306-8.49h0q.419.008.846.03c8.871.457,15.783,8.492,15.408,17.911l-1.784,44.9a1.659,1.659,0,0,1-1.05,1.511A42.583,42.583,0,0,1,631.26,461.907Z" transform="translate(-451.21 -309.895)" fill="#08375a"/>
      <path id="Path_73678" data-name="Path 73678" d="M609.79,428.6l-6.865-8.423a2.154,2.154,0,0,1,.565-3.21l9.3-5.548a5.975,5.975,0,0,1,7.523,9.285l-7.268,7.985a2.148,2.148,0,0,1-3.254-.089Z" transform="translate(-442.365 -319.451)" fill="#013c68"/>
      <path id="Path_73679" data-name="Path 73679" d="M671.875,422.9a2.15,2.15,0,0,1-1.181-1.347L667.6,411.2a5.972,5.972,0,1,1,10.8-5.1l5.976,9.037a2.154,2.154,0,0,1-.881,3.138l-9.834,4.609A2.145,2.145,0,0,1,671.875,422.9Z" transform="translate(-482.855 -314.81)" fill="#013c68"/>
      <path id="Path_73680" data-name="Path 73680" d="M634.274,348.351l-6.793-1.557c-.7-.161-1.543-.467-1.64-1.18-.131-.958,1.247-1.626,1.12-2.585-.123-.929-1.378-1.048-2.273-1.322a3.4,3.4,0,0,1-2.117-4.237,3.121,3.121,0,0,1-4.435.376,3.935,3.935,0,0,1-.742-4.609,5.331,5.331,0,0,1,4-2.705,8.43,8.43,0,0,1,4.859.907c.1-1.059,1.419-1.488,2.481-1.5a10.61,10.61,0,0,1,9.941,7.265c1.3,4.2.432,8.812-3.214,11.272Z" transform="translate(-451.47 -266.253)" fill="#1a2536"/>
      <path id="Path_73681" data-name="Path 73681" d="M607.267,731.247H465.1a.374.374,0,0,1,0-.747H607.267a.374.374,0,0,1,0,.747Z" transform="translate(-356.038 -520.162)" fill="#012763"/>
      <path id="Path_74135" data-name="Path 74135" d="M175.795,79.637c-2.891-2.154,1.2,5.432.631,6s3.968-1.644,5.442-.964-.732-3.8-.732-3.8A10.293,10.293,0,0,0,175.795,79.637Z" transform="matrix(0.995, 0.105, -0.105, 0.995, 10.612, -17.173)" fill="#ffb8b8"/>
    </g>
    <g id="Ellipse_1663" data-name="Ellipse 1663" transform="translate(158 123)" fill="none" stroke="#fff" stroke-width="1.6">
      <circle cx="15" cy="15" r="15" stroke="none"/>
      <circle cx="15" cy="15" r="14.2" fill="none"/>
    </g>
    <circle id="Ellipse_1664" data-name="Ellipse 1664" cx="5.5" cy="5.5" r="5.5" transform="translate(112 358)" fill="#fff"/>
    <g id="Group_47081" data-name="Group 47081" transform="translate(90.038 81.443)">
      <g id="Group_38576" data-name="Group 38576" transform="translate(0 0.09)">
        <g id="Group_38575" data-name="Group 38575" transform="translate(0 0)">
          <rect id="Rectangle_6370" data-name="Rectangle 6370" width="2.051" height="18.456" transform="translate(0 1.45) rotate(-45)" fill="#fff"/>
        </g>
      </g>
      <g id="Group_38578" data-name="Group 38578" transform="translate(0 0)">
        <g id="Group_38577" data-name="Group 38577">
          <rect id="Rectangle_6371" data-name="Rectangle 6371" width="18.456" height="2.051" transform="translate(0 13.051) rotate(-45)" fill="#fff"/>
        </g>
      </g>
    </g>
    <g id="Group_47082" data-name="Group 47082" transform="translate(278.038 115.443)">
      <g id="Group_38576-2" data-name="Group 38576" transform="translate(0 0.09)">
        <g id="Group_38575-2" data-name="Group 38575" transform="translate(0 0)">
          <rect id="Rectangle_6370-2" data-name="Rectangle 6370" width="2.051" height="18.456" transform="translate(0 1.45) rotate(-45)" fill="#fff"/>
        </g>
      </g>
      <g id="Group_38578-2" data-name="Group 38578" transform="translate(0 0)">
        <g id="Group_38577-2" data-name="Group 38577">
          <rect id="Rectangle_6371-2" data-name="Rectangle 6371" width="18.456" height="2.051" transform="translate(0 13.051) rotate(-45)" fill="#fff"/>
        </g>
      </g>
    </g>
  </g>
</svg>
