<svg xmlns="http://www.w3.org/2000/svg" width="344.838" height="177.695" viewBox="0 0 344.838 177.695">
  <g id="Group_47126" data-name="Group 47126" transform="translate(0)">
    <path id="Path_74255" data-name="Path 74255" d="M141.862,82.429a6.145,6.145,0,0,1-5.321-3.072L99.3,14.845A6.144,6.144,0,0,1,109.938,8.7l25.78,44.654V37.682a6.144,6.144,0,0,1,6.144-6.144h33.792a6.144,6.144,0,0,1,0,12.288H148.006V76.285a6.142,6.142,0,0,1-6.144,6.144" transform="translate(22.529 1.287)" fill="#013c68"/>
    <path id="Path_74256" data-name="Path 74256" d="M196.722,39.48A23.989,23.989,0,0,0,172.76,15.518H132.667a3.448,3.448,0,0,1-2.954-1.685L122.946,2.411a4.915,4.915,0,1,0-8.457,5.011l6.766,11.422a13.32,13.32,0,0,0,11.412,6.505H172.76a14.131,14.131,0,1,1,0,28.262H154.943a4.915,4.915,0,0,0,0,9.83h17.07l6.628,16.57a4.915,4.915,0,1,0,9.127-3.65L181.876,61.63a23.993,23.993,0,0,0,14.846-22.15" transform="translate(26.037 -0.001)" fill="#fd5675"/>
    <rect id="Rectangle_10154" data-name="Rectangle 10154" width="2.286" height="18.314" transform="translate(2.437 158.949)" fill="#fd5675"/>
    <path id="Path_74257" data-name="Path 74257" d="M16.615,147.669H14.331V131.411H8.555v-2.056H22.39v2.056H16.615Z" transform="translate(1.957 29.594)" fill="#fd5675"/>
    <path id="Path_74258" data-name="Path 74258" d="M26.242,135.815H24.4l1.23-6.46h2.348Z" transform="translate(5.583 29.594)" fill="#fd5675"/>
    <path id="Path_74259" data-name="Path 74259" d="M32.119,142.686h2.3a3.249,3.249,0,0,0,1.454,2.386,5.546,5.546,0,0,0,3.255.9,5.069,5.069,0,0,0,3.065-.882,2.658,2.658,0,0,0,1.213-2.227,2.43,2.43,0,0,0-.844-1.9,6.581,6.581,0,0,0-2.7-1.231l-2.347-.611a8,8,0,0,1-3.706-1.808,4.081,4.081,0,0,1-1.167-3.027,4.563,4.563,0,0,1,1.808-3.732,7.237,7.237,0,0,1,4.664-1.448,6.893,6.893,0,0,1,4.518,1.467,4.863,4.863,0,0,1,1.865,3.763H43.211a3.2,3.2,0,0,0-1.269-2.322,4.663,4.663,0,0,0-2.906-.852,4.727,4.727,0,0,0-2.9.838,2.606,2.606,0,0,0-1.123,2.184,2.105,2.105,0,0,0,.818,1.707,7.232,7.232,0,0,0,2.685,1.149l1.916.506a9.214,9.214,0,0,1,4.087,1.892,4.133,4.133,0,0,1,1.244,3.147,4.806,4.806,0,0,1-1.847,3.978,7.829,7.829,0,0,1-5.006,1.466,7.48,7.48,0,0,1-4.773-1.459,5.171,5.171,0,0,1-2.018-3.884" transform="translate(7.349 29.538)" fill="#fd5675"/>
    <path id="Path_74260" data-name="Path 74260" d="M57.488,147.669h-2.26V129.355H57.45l10.026,14.379h.114V129.355h2.26v18.314H67.628L57.6,133.341h-.114Z" transform="translate(12.636 29.594)" fill="#fd5675"/>
    <path id="Path_74261" data-name="Path 74261" d="M74.463,131.658a8.732,8.732,0,0,1,12.336,0,11.66,11.66,0,0,1,0,13.828,8.747,8.747,0,0,1-12.336,0,11.655,11.655,0,0,1,0-13.828M85.079,133.2a5.975,5.975,0,0,0-8.9,0,9.587,9.587,0,0,0,0,10.737,5.975,5.975,0,0,0,8.9,0,9.587,9.587,0,0,0,0-10.737" transform="translate(16.517 29.538)" fill="#fd5675"/>
    <path id="Path_74262" data-name="Path 74262" d="M97.192,147.669H94.907V131.411H89.132v-2.056h13.835v2.056H97.192Z" transform="translate(20.393 29.594)" fill="#fd5675"/>
    <path id="Path_74263" data-name="Path 74263" d="M111.178,143.367h2.272a2.553,2.553,0,0,0,.844,1.9,3.358,3.358,0,0,0,4.36-.152,3.686,3.686,0,0,0,.8-2.557v-13.2h2.284v13.212a5.6,5.6,0,0,1-1.422,4.069,6,6,0,0,1-7.691.139,4.413,4.413,0,0,1-1.446-3.407" transform="translate(25.437 29.594)" fill="#fd5675"/>
    <path id="Path_74264" data-name="Path 74264" d="M127.7,129.355v11.74a4.659,4.659,0,0,0,1.326,3.446,5.72,5.72,0,0,0,7.324,0,4.668,4.668,0,0,0,1.325-3.446v-11.74h2.286v11.891A6.407,6.407,0,0,1,138,146.1a8.469,8.469,0,0,1-10.623,0,6.407,6.407,0,0,1-1.961-4.855V129.355Z" transform="translate(28.693 29.594)" fill="#fd5675"/>
    <path id="Path_74265" data-name="Path 74265" d="M142.178,142.686h2.3a3.249,3.249,0,0,0,1.454,2.386,5.546,5.546,0,0,0,3.255.9,5.073,5.073,0,0,0,3.066-.882,2.66,2.66,0,0,0,1.212-2.227,2.433,2.433,0,0,0-.843-1.9,6.6,6.6,0,0,0-2.7-1.231l-2.348-.611a8.007,8.007,0,0,1-3.706-1.808,4.085,4.085,0,0,1-1.166-3.027,4.56,4.56,0,0,1,1.809-3.732,7.231,7.231,0,0,1,4.663-1.448,6.893,6.893,0,0,1,4.518,1.467,4.863,4.863,0,0,1,1.865,3.763H153.27A3.2,3.2,0,0,0,152,132.014a4.669,4.669,0,0,0-2.907-.852,4.729,4.729,0,0,0-2.9.838,2.606,2.606,0,0,0-1.123,2.184,2.105,2.105,0,0,0,.818,1.707,7.243,7.243,0,0,0,2.684,1.149l1.917.506a9.207,9.207,0,0,1,4.087,1.892,4.133,4.133,0,0,1,1.244,3.147,4.806,4.806,0,0,1-1.847,3.978,7.83,7.83,0,0,1-5.007,1.466,7.473,7.473,0,0,1-4.77-1.459,5.169,5.169,0,0,1-2.019-3.884" transform="translate(32.529 29.538)" fill="#fd5675"/>
    <path id="Path_74266" data-name="Path 74266" d="M165.329,147.669h-2.284V131.411h-5.774v-2.056H171.1v2.056h-5.775Z" transform="translate(35.982 29.594)" fill="#fd5675"/>
    <path id="Path_74267" data-name="Path 74267" d="M180.328,129.355h6.536a5.89,5.89,0,1,1-.025,11.777h-4.227v6.537h-2.284Zm2.284,2.03V139.1h3.656a4.243,4.243,0,0,0,3.034-1.021,4.3,4.3,0,0,0,0-5.687,4.265,4.265,0,0,0-3.039-1.009Z" transform="translate(41.257 29.594)" fill="#fd5675"/>
    <path id="Path_74268" data-name="Path 74268" d="M206.336,147.669l-1.84-5.242h-7.285l-1.84,5.242h-2.4l6.752-18.314h2.259l6.752,18.314Zm-5.521-15.534-2.932,8.351h5.94l-2.932-8.351Z" transform="translate(44.15 29.594)" fill="#fd5675"/>
    <path id="Path_74269" data-name="Path 74269" d="M215.99,147.669h-2.284v-7.881l-6.5-10.432h2.6l5,8.223h.075l5-8.223h2.6l-6.5,10.432Z" transform="translate(47.407 29.594)" fill="#fd5675"/>
    <path id="Path_74270" data-name="Path 74270" d="M226.382,140.421v7.247H224.1V129.355h6.866a5.966,5.966,0,0,1,4.245,1.491,5.178,5.178,0,0,1,1.592,3.967,5.629,5.629,0,0,1-.978,3.312,5.048,5.048,0,0,1-2.7,1.944l4.239,7.6h-2.678l-3.921-7.247Zm0-9.037V138.4h4.379a3.782,3.782,0,0,0,2.722-.914,3.425,3.425,0,0,0,.958-2.6,3.34,3.34,0,0,0-1-2.578,3.951,3.951,0,0,0-2.78-.927Z" transform="translate(51.272 29.594)" fill="#fd5675"/>
    <path id="Path_74271" data-name="Path 74271" d="M241.214,131.658a8.732,8.732,0,0,1,12.336,0,11.661,11.661,0,0,1,0,13.828,8.747,8.747,0,0,1-12.336,0,11.655,11.655,0,0,1,0-13.828M251.83,133.2a5.975,5.975,0,0,0-8.9,0,9.593,9.593,0,0,0,0,10.737,5.975,5.975,0,0,0,8.9,0,9.593,9.593,0,0,0,0-10.737" transform="translate(54.668 29.538)" fill="#fd5675"/>
    <path id="Path_74272" data-name="Path 74272" d="M268.86,145.613v2.056H257.743V129.355h2.284v16.258Z" transform="translate(58.969 29.594)" fill="#fd5675"/>
    <path id="Path_74273" data-name="Path 74273" d="M282.7,145.613v2.056H271.585V129.355h2.284v16.258Z" transform="translate(62.136 29.594)" fill="#fd5675"/>
    <path id="Path_74274" data-name="Path 74274" d="M56.518,81.12h9.15l15.518,44.608H72.408L61.094,89.684h-.187L49.594,125.728H41Z" transform="translate(9.38 18.559)" fill="#013c68"/>
    <path id="Path_74275" data-name="Path 74275" d="M24.668,125.728h-9.15L0,81.12H8.779l11.313,36.044h.187L31.592,81.12h8.594Z" transform="translate(0 18.559)" fill="#013c68"/>
    <path id="Path_74276" data-name="Path 74276" d="M105.169,125.728H97.225V108.139L81.583,81.12h8.748l10.818,19.414h.187L112.124,81.12h8.686l-15.641,27.019Z" transform="translate(18.666 18.559)" fill="#013c68"/>
    <path id="Path_74277" data-name="Path 74277" d="M135.662,108.942v16.785h-7.975V81.12H145.4q7.2,0,11.313,3.724T160.825,95a14.143,14.143,0,0,1-2.225,7.9,12.013,12.013,0,0,1-6.183,4.838l9.738,17.992h-9.089l-8.778-16.785Zm0-21.361V102.82h8.995a8.2,8.2,0,0,0,5.906-2.009,7.415,7.415,0,0,0,2.1-5.627,7.223,7.223,0,0,0-2.195-5.563,8.417,8.417,0,0,0-5.966-2.041Z" transform="translate(29.214 18.559)" fill="#013c68"/>
    <path id="Path_74278" data-name="Path 74278" d="M190.134,80.517q9.738,0,15.441,6.213t5.7,16.848q0,10.633-5.7,16.832t-15.441,6.2q-9.769,0-15.472-6.2t-5.7-16.832q0-10.635,5.7-16.848t15.472-6.213m9.49,11.205a12.439,12.439,0,0,0-18.98-.016q-3.524,4.39-3.524,11.871,0,7.45,3.524,11.839a12.454,12.454,0,0,0,18.98,0q3.524-4.389,3.524-11.839t-3.524-11.855" transform="translate(38.656 18.421)" fill="#013c68"/>
    <path id="Path_74279" data-name="Path 74279" d="M247.083,118.988v6.739H218.86V81.121h7.975v37.868Z" transform="translate(50.073 18.559)" fill="#013c68"/>
    <path id="Path_74280" data-name="Path 74280" d="M285.01,118.988v6.739H256.787V81.121h7.975v37.868Z" transform="translate(58.751 18.559)" fill="#013c68"/>
  </g>
</svg>
