<svg xmlns="http://www.w3.org/2000/svg" width="344.838" height="177.695" viewBox="0 0 344.838 177.695">
  <g id="Group_47127" data-name="Group 47127" transform="translate(0)">
    <path id="Path_74229" data-name="Path 74229" d="M141.862,512.429a6.146,6.146,0,0,1-5.321-3.072L99.3,444.845a6.144,6.144,0,0,1,10.643-6.144l25.78,44.654V467.682a6.144,6.144,0,0,1,6.144-6.144h33.792a6.144,6.144,0,0,1,0,12.288H148.006v32.458a6.142,6.142,0,0,1-6.144,6.144" transform="translate(22.529 -428.713)" fill="#fff"/>
    <path id="Path_74230" data-name="Path 74230" d="M196.722,469.48a23.989,23.989,0,0,0-23.961-23.961H132.667a3.448,3.448,0,0,1-2.954-1.685l-6.767-11.423a4.915,4.915,0,1,0-8.457,5.011l6.766,11.422a13.319,13.319,0,0,0,11.412,6.505H172.76a14.131,14.131,0,1,1,0,28.262H154.943a4.915,4.915,0,0,0,0,9.83h17.07l6.628,16.57a4.915,4.915,0,0,0,9.127-3.65l-5.893-14.732a23.993,23.993,0,0,0,14.846-22.15" transform="translate(26.037 -430.001)" fill="#fd5675"/>
    <rect id="Rectangle_10153" data-name="Rectangle 10153" width="2.286" height="18.314" transform="translate(2.437 158.949)" fill="#fd5675"/>
    <path id="Path_74231" data-name="Path 74231" d="M16.615,577.669H14.331V561.411H8.555v-2.056H22.39v2.056H16.615Z" transform="translate(1.957 -400.406)" fill="#fd5675"/>
    <path id="Path_74232" data-name="Path 74232" d="M26.242,565.815H24.4l1.23-6.46h2.348Z" transform="translate(5.583 -400.406)" fill="#fd5675"/>
    <path id="Path_74233" data-name="Path 74233" d="M32.119,572.687h2.3a3.251,3.251,0,0,0,1.454,2.386,5.555,5.555,0,0,0,3.255.9,5.07,5.07,0,0,0,3.065-.882,2.659,2.659,0,0,0,1.213-2.227,2.433,2.433,0,0,0-.844-1.9,6.581,6.581,0,0,0-2.7-1.231l-2.347-.609a8.012,8.012,0,0,1-3.706-1.809,4.079,4.079,0,0,1-1.167-3.026,4.565,4.565,0,0,1,1.808-3.732,7.237,7.237,0,0,1,4.664-1.446,6.892,6.892,0,0,1,4.518,1.466,4.865,4.865,0,0,1,1.865,3.763H43.211a3.2,3.2,0,0,0-1.269-2.322,4.67,4.67,0,0,0-2.906-.852,4.727,4.727,0,0,0-2.9.838,2.606,2.606,0,0,0-1.123,2.184,2.1,2.1,0,0,0,.818,1.707,7.231,7.231,0,0,0,2.685,1.149l1.916.508a9.215,9.215,0,0,1,4.087,1.891,4.133,4.133,0,0,1,1.244,3.147,4.808,4.808,0,0,1-1.847,3.979,7.829,7.829,0,0,1-5.006,1.466,7.48,7.48,0,0,1-4.773-1.459,5.173,5.173,0,0,1-2.018-3.884" transform="translate(7.349 -400.462)" fill="#fd5675"/>
    <path id="Path_74234" data-name="Path 74234" d="M57.488,577.669h-2.26V559.355H57.45l10.026,14.379h.114V559.355h2.26v18.314H67.628L57.6,563.341h-.114Z" transform="translate(12.636 -400.406)" fill="#fd5675"/>
    <path id="Path_74235" data-name="Path 74235" d="M74.463,561.658a8.732,8.732,0,0,1,12.336,0,11.66,11.66,0,0,1,0,13.828,8.747,8.747,0,0,1-12.336,0,11.655,11.655,0,0,1,0-13.828M85.079,563.2a5.975,5.975,0,0,0-8.9,0,9.587,9.587,0,0,0,0,10.737,5.975,5.975,0,0,0,8.9,0,9.587,9.587,0,0,0,0-10.737" transform="translate(16.517 -400.462)" fill="#fd5675"/>
    <path id="Path_74236" data-name="Path 74236" d="M97.192,577.669H94.907V561.411H89.132v-2.056h13.835v2.056H97.192Z" transform="translate(20.393 -400.406)" fill="#fd5675"/>
    <path id="Path_74237" data-name="Path 74237" d="M111.178,573.367h2.272a2.553,2.553,0,0,0,.844,1.9,3.358,3.358,0,0,0,4.36-.152,3.688,3.688,0,0,0,.8-2.557v-13.2h2.284v13.212a5.6,5.6,0,0,1-1.422,4.069,6,6,0,0,1-7.691.139,4.413,4.413,0,0,1-1.446-3.407" transform="translate(25.437 -400.406)" fill="#fd5675"/>
    <path id="Path_74238" data-name="Path 74238" d="M127.7,559.355v11.74a4.659,4.659,0,0,0,1.326,3.446,5.72,5.72,0,0,0,7.324,0,4.668,4.668,0,0,0,1.325-3.446v-11.74h2.286v11.891A6.409,6.409,0,0,1,138,576.1a8.469,8.469,0,0,1-10.623,0,6.409,6.409,0,0,1-1.961-4.855V559.355Z" transform="translate(28.693 -400.406)" fill="#fd5675"/>
    <path id="Path_74239" data-name="Path 74239" d="M142.178,572.687h2.3a3.251,3.251,0,0,0,1.454,2.386,5.555,5.555,0,0,0,3.255.9,5.073,5.073,0,0,0,3.066-.882,2.66,2.66,0,0,0,1.212-2.227,2.436,2.436,0,0,0-.843-1.9,6.6,6.6,0,0,0-2.7-1.231l-2.348-.609a8.019,8.019,0,0,1-3.706-1.809,4.083,4.083,0,0,1-1.166-3.026,4.562,4.562,0,0,1,1.809-3.732,7.231,7.231,0,0,1,4.663-1.446,6.892,6.892,0,0,1,4.518,1.466,4.865,4.865,0,0,1,1.865,3.763H153.27A3.2,3.2,0,0,0,152,562.014a4.677,4.677,0,0,0-2.907-.852,4.73,4.73,0,0,0-2.9.838,2.606,2.606,0,0,0-1.123,2.184,2.1,2.1,0,0,0,.818,1.707,7.242,7.242,0,0,0,2.684,1.149l1.917.508a9.208,9.208,0,0,1,4.087,1.891,4.133,4.133,0,0,1,1.244,3.147,4.808,4.808,0,0,1-1.847,3.979,7.831,7.831,0,0,1-5.007,1.466,7.473,7.473,0,0,1-4.77-1.459,5.171,5.171,0,0,1-2.019-3.884" transform="translate(32.529 -400.462)" fill="#fd5675"/>
    <path id="Path_74240" data-name="Path 74240" d="M165.329,577.669h-2.284V561.411h-5.774v-2.056H171.1v2.056h-5.775Z" transform="translate(35.982 -400.406)" fill="#fd5675"/>
    <path id="Path_74241" data-name="Path 74241" d="M180.328,559.355h6.536a5.89,5.89,0,1,1-.025,11.777h-4.227v6.537h-2.284Zm2.284,2.03V569.1h3.656a4.238,4.238,0,0,0,3.034-1.022,4.3,4.3,0,0,0,0-5.686,4.265,4.265,0,0,0-3.039-1.009Z" transform="translate(41.257 -400.406)" fill="#fd5675"/>
    <path id="Path_74242" data-name="Path 74242" d="M206.336,577.669l-1.84-5.242h-7.285l-1.84,5.242h-2.4l6.752-18.314h2.259l6.752,18.314Zm-5.521-15.534-2.932,8.35h5.94l-2.932-8.35Z" transform="translate(44.15 -400.406)" fill="#fd5675"/>
    <path id="Path_74243" data-name="Path 74243" d="M215.99,577.669h-2.284v-7.881l-6.5-10.432h2.6l5,8.223h.075l5-8.223h2.6l-6.5,10.432Z" transform="translate(47.407 -400.406)" fill="#fd5675"/>
    <path id="Path_74244" data-name="Path 74244" d="M226.382,570.422v7.247H224.1V559.355h6.866a5.961,5.961,0,0,1,4.245,1.491,5.177,5.177,0,0,1,1.592,3.965,5.631,5.631,0,0,1-.978,3.313,5.047,5.047,0,0,1-2.7,1.943l4.239,7.6h-2.678l-3.921-7.247Zm0-9.036V568.4h4.379a3.787,3.787,0,0,0,2.722-.914,3.428,3.428,0,0,0,.958-2.6,3.335,3.335,0,0,0-1-2.577,3.945,3.945,0,0,0-2.78-.926Z" transform="translate(51.272 -400.406)" fill="#fd5675"/>
    <path id="Path_74245" data-name="Path 74245" d="M241.214,561.658a8.732,8.732,0,0,1,12.336,0,11.66,11.66,0,0,1,0,13.828,8.747,8.747,0,0,1-12.336,0,11.655,11.655,0,0,1,0-13.828M251.83,563.2a5.975,5.975,0,0,0-8.9,0,9.593,9.593,0,0,0,0,10.737,5.975,5.975,0,0,0,8.9,0,9.593,9.593,0,0,0,0-10.737" transform="translate(54.668 -400.462)" fill="#fd5675"/>
    <path id="Path_74246" data-name="Path 74246" d="M268.86,575.613v2.056H257.743V559.355h2.284v16.258Z" transform="translate(58.969 -400.406)" fill="#fd5675"/>
    <path id="Path_74247" data-name="Path 74247" d="M282.7,575.613v2.056H271.585V559.355h2.284v16.258Z" transform="translate(62.136 -400.406)" fill="#fd5675"/>
    <path id="Path_74248" data-name="Path 74248" d="M56.518,511.12h9.15l15.518,44.608H72.408L61.094,519.684h-.187L49.594,555.728H41Z" transform="translate(9.38 -411.441)" fill="#fff"/>
    <path id="Path_74249" data-name="Path 74249" d="M24.668,555.728h-9.15L0,511.12H8.779l11.313,36.044h.187L31.592,511.12h8.594Z" transform="translate(0 -411.441)" fill="#fff"/>
    <path id="Path_74250" data-name="Path 74250" d="M105.169,555.728H97.225V538.139L81.583,511.12h8.748l10.818,19.414h.187l10.788-19.414h8.686l-15.641,27.019Z" transform="translate(18.666 -411.441)" fill="#fff"/>
    <path id="Path_74251" data-name="Path 74251" d="M135.662,538.942v16.785h-7.975V511.12H145.4q7.2,0,11.313,3.724T160.825,525a14.143,14.143,0,0,1-2.225,7.9,12.014,12.014,0,0,1-6.183,4.838l9.738,17.992h-9.089l-8.778-16.785Zm0-21.361v15.24h8.995a8.2,8.2,0,0,0,5.906-2.009,7.415,7.415,0,0,0,2.1-5.627,7.223,7.223,0,0,0-2.195-5.563,8.417,8.417,0,0,0-5.966-2.041Z" transform="translate(29.214 -411.441)" fill="#fff"/>
    <path id="Path_74252" data-name="Path 74252" d="M190.134,510.517q9.738,0,15.441,6.213t5.7,16.848q0,10.633-5.7,16.832t-15.441,6.2q-9.769,0-15.472-6.2t-5.7-16.832q0-10.635,5.7-16.848t15.472-6.213m9.49,11.205a12.439,12.439,0,0,0-18.98-.016q-3.524,4.391-3.524,11.871,0,7.45,3.524,11.839a12.454,12.454,0,0,0,18.98,0q3.524-4.389,3.524-11.839t-3.524-11.855" transform="translate(38.656 -411.579)" fill="#fff"/>
    <path id="Path_74253" data-name="Path 74253" d="M247.083,548.988v6.739H218.86V511.121h7.975v37.868Z" transform="translate(50.073 -411.441)" fill="#fff"/>
    <path id="Path_74254" data-name="Path 74254" d="M285.01,548.988v6.739H256.787V511.121h7.975v37.868Z" transform="translate(58.751 -411.441)" fill="#fff"/>
  </g>
</svg>
