<svg id="round-done-button-svgrepo-com_2_" data-name="round-done-button-svgrepo-com (2)" xmlns="http://www.w3.org/2000/svg" width="23.655" height="23.655" viewBox="0 0 23.655 23.655">
  <g id="Group_47121" data-name="Group 47121">
    <path id="Path_73997" data-name="Path 73997" d="M11.827,0A11.828,11.828,0,1,0,23.655,11.828,11.841,11.841,0,0,0,11.827,0Zm0,22.1A10.276,10.276,0,1,1,22.1,11.828,10.288,10.288,0,0,1,11.827,22.1Z" fill="#013c68"/>
    <path id="Path_73998" data-name="Path 73998" d="M115.086,130.91l-6.1,6.1-2.465-2.465a.776.776,0,0,0-1.1,1.1l3.014,3.013a.776.776,0,0,0,1.1,0l0,0,6.645-6.645a.775.775,0,1,0-1.1-1.1Z" transform="translate(-98.976 -122.954)" fill="#013c68"/>
  </g>
</svg>
