<svg xmlns="http://www.w3.org/2000/svg" width="24.076" height="24.074" viewBox="0 0 24.076 24.074">
  <path id="announcement" d="M12.482,0a.734.734,0,0,0-.734.734c0,2.165-1.9,2.937-3.671,2.937H2.937A2.937,2.937,0,0,0,0,6.608V8.077A2.922,2.922,0,0,0,1.112,10.36l2.623,5.853A2.374,2.374,0,0,0,5.9,17.622a2.19,2.19,0,0,0,2-3.084L6.284,11.014H8.077c1.775,0,3.671.772,3.671,2.937a.734.734,0,0,0,1.469,0V.734A.734.734,0,0,0,12.482,0ZM6.562,15.14A.722.722,0,0,1,5.9,16.154a.9.9,0,0,1-.827-.539l-2.062-4.6H4.669Zm5.186-4.419A5.671,5.671,0,0,0,8.077,9.545H2.937A1.469,1.469,0,0,1,1.469,8.077V6.608A1.469,1.469,0,0,1,2.937,5.14h5.14a5.671,5.671,0,0,0,3.671-1.171Zm5.8.626a.734.734,0,0,1-.985.329l-1.469-.734a.735.735,0,1,1,.656-1.314l1.469.734a.734.734,0,0,1,.329.982ZM14.766,4.737a.734.734,0,0,1,.329-.985l1.469-.734a.735.735,0,1,1,.656,1.314l-1.469.734A.734.734,0,0,1,14.766,4.737Zm-.081,2.605a.734.734,0,0,1,.734-.734h1.469a.734.734,0,0,1,0,1.469H15.419A.734.734,0,0,1,14.685,7.343Z" transform="translate(0 8.813) rotate(-30)" fill="#fff"/>
</svg>
