<svg xmlns="http://www.w3.org/2000/svg" width="18.891" height="18.579" viewBox="0 0 18.891 18.579">
  <path id="XMLID_518_" d="M18.338,21.7H17.38V17.463a1.231,1.231,0,0,0,.461-.952V15.084a1.483,1.483,0,0,0-1.544-1.41h-.723V10.205a1.053,1.053,0,0,0-1.051-1.052h-.066v-.38A1.681,1.681,0,0,0,15.582,7.19a3.808,3.808,0,0,0-.628-1.7c-.287-.534-.57-.983-.582-1a.553.553,0,0,0-.936,0c-.012.019-.295.468-.582,1a3.808,3.808,0,0,0-.628,1.7A1.681,1.681,0,0,0,13.35,8.774v.38h-.066a1.053,1.053,0,0,0-1.051,1.052v3.469H11.116V10.205a1.053,1.053,0,0,0-1.051-1.052H10v-.38A1.681,1.681,0,0,0,11.123,7.19a3.808,3.808,0,0,0-.628-1.7c-.287-.534-.57-.983-.582-1a.553.553,0,0,0-.936,0c-.012.019-.295.468-.582,1a3.808,3.808,0,0,0-.628,1.7A1.681,1.681,0,0,0,8.892,8.774v.38H8.826a1.053,1.053,0,0,0-1.051,1.052v3.469H6.658V10.205A1.053,1.053,0,0,0,5.606,9.154H5.541v-.38A1.681,1.681,0,0,0,6.665,7.19a3.808,3.808,0,0,0-.628-1.7c-.287-.534-.57-.983-.582-1a.553.553,0,0,0-.936,0c-.012.019-.295.468-.582,1a3.808,3.808,0,0,0-.628,1.7A1.681,1.681,0,0,0,4.434,8.774v.38H4.368a1.053,1.053,0,0,0-1.051,1.052v3.469H2.594a1.483,1.483,0,0,0-1.544,1.41v1.427a1.231,1.231,0,0,0,.461.952V21.7H.553a.553.553,0,0,0,0,1.107H18.338a.553.553,0,1,0,0-1.107Zm-5-14.514A4.9,4.9,0,0,1,13.9,5.878a4.9,4.9,0,0,1,.571,1.313.571.571,0,1,1-1.142,0Zm.007,3.07h1.127v3.41H13.34ZM8.875,7.191a4.9,4.9,0,0,1,.571-1.313,4.9,4.9,0,0,1,.571,1.313.571.571,0,1,1-1.142,0Zm.007,3.07h1.127v3.41H8.882ZM4.416,7.191a4.9,4.9,0,0,1,.571-1.313A4.9,4.9,0,0,1,5.558,7.19a.571.571,0,1,1-1.142,0Zm.007,3.07H5.551v3.41H4.424ZM16.273,21.7H2.618V17.783a1.52,1.52,0,0,0,.258-.053l1.4-.414a4.463,4.463,0,0,1,2.5,0l1.1.326a5.582,5.582,0,0,0,3.132,0l1.1-.326a4.462,4.462,0,0,1,2.5,0l1.4.414a1.52,1.52,0,0,0,.258.053V21.7Zm.461-5.194a.146.146,0,0,1-.068.107.386.386,0,0,1-.336.051l-1.4-.414a5.581,5.581,0,0,0-3.132,0l-1.1.326a4.462,4.462,0,0,1-2.5,0l-1.1-.326a5.581,5.581,0,0,0-3.132,0l-1.4.414a.386.386,0,0,1-.336-.051.146.146,0,0,1-.068-.107V15.084c0-.143.18-.3.437-.3H16.3c.258,0,.437.16.437.3v1.427Z" transform="translate(0 -4.233)" fill="#fd5675"/>
</svg>
