<svg xmlns="http://www.w3.org/2000/svg" width="45.996" height="50" viewBox="0 0 45.996 50">
  <path id="block-user" d="M61.223,32.164V29.59a5.859,5.859,0,0,0-11.719,0v2.541a7.825,7.825,0,0,0-5.371,7.42v2.637A7.821,7.821,0,0,0,51.945,50h6.738A7.821,7.821,0,0,0,66.5,42.188V39.551A7.825,7.825,0,0,0,61.223,32.164Zm-5.859-4.527a1.955,1.955,0,0,1,1.953,1.953v2.148H53.41V29.59A1.955,1.955,0,0,1,55.363,27.637ZM62.59,42.188a3.911,3.911,0,0,1-3.906,3.906H51.945a3.911,3.911,0,0,1-3.906-3.906V39.551a3.911,3.911,0,0,1,3.906-3.906h6.738a3.911,3.911,0,0,1,3.906,3.906ZM39.543,26.367A13.184,13.184,0,1,0,26.359,13.184,13.2,13.2,0,0,0,39.543,26.367Zm0-22.461a9.277,9.277,0,1,1-9.277,9.277A9.288,9.288,0,0,1,39.543,3.906ZM57.87,40.82a2.441,2.441,0,1,1-2.441-2.441A2.441,2.441,0,0,1,57.87,40.82ZM42.18,32.227a1.953,1.953,0,0,1-1.953,1.953H38.273A13.883,13.883,0,0,0,24.406,48.047a1.953,1.953,0,0,1-3.906,0A17.794,17.794,0,0,1,38.273,30.273h1.953A1.953,1.953,0,0,1,42.18,32.227Z" transform="translate(-20.5)" fill="#64c1ff"/>
</svg>
