<svg xmlns="http://www.w3.org/2000/svg" width="31.734" height="40" viewBox="0 0 31.734 40">
  <g id="Group_47218" data-name="Group 47218" transform="translate(-8078 -5513)">
    <path id="Path_73751" data-name="Path 73751" d="M98.769,0H78.088a1.6,1.6,0,0,0-1.6,1.6V38.4a1.6,1.6,0,0,0,1.6,1.6h26.133a1.6,1.6,0,0,0,1.6-1.6V7.053Z" transform="translate(8003.912 5513)" fill="#e1e6e9"/>
    <path id="Path_74167" data-name="Path 74167" d="M0,0H31.733V10.959H0Z" transform="translate(8078 5535.043)" fill="#ac9a6a"/>
    <path id="Path_73755" data-name="Path 73755" d="M48.39,386.364l2.4,2.232v-2.232Z" transform="translate(8029.61 5159.638)" fill="#806e3f"/>
    <path id="Path_73756" data-name="Path 73756" d="M337.335,7.053h7.052L337.335,0Z" transform="translate(7765.346 5513)" fill="#ebf0f3"/>
    <path id="Path_73757" data-name="Path 73757" d="M353.221,82.567l5.7,3.3v-3.3Z" transform="translate(7750.816 5437.485)" fill="#d5d6db"/>
    <path id="Path_74175" data-name="Path 74175" d="M.91-.19A.19.19,0,0,0,1.1,0H3.52A2.022,2.022,0,0,0,5.7-1.93,1.8,1.8,0,0,0,4.4-3.56,1.9,1.9,0,0,0,5.5-5.15,1.959,1.959,0,0,0,3.39-7H1.1a.19.19,0,0,0-.19.19ZM2.2-4.06V-5.81H3.27a.816.816,0,0,1,.86.85.857.857,0,0,1-.86.9Zm0,2.88V-2.96H3.29a.968.968,0,0,1,1.02.87.892.892,0,0,1-.9.91Zm4.42.95A.183.183,0,0,0,6.81,0h.9a.194.194,0,0,0,.18-.15l.58-3.79H8.5L10.27-.01a.18.18,0,0,0,.17.11h.18a.17.17,0,0,0,.17-.11l1.75-3.93h.03l.59,3.79a.217.217,0,0,0,.19.15h.91a.174.174,0,0,0,.18-.23L13.26-6.95a.169.169,0,0,0-.18-.15h-.16a.172.172,0,0,0-.17.1l-2.2,4.72h-.03L8.32-7a.182.182,0,0,0-.17-.1H7.99a.169.169,0,0,0-.18.15Zm9.19.04A.19.19,0,0,0,16,0h.92a.2.2,0,0,0,.19-.19V-2.54h1.25a2.249,2.249,0,0,0,2.23-2.25A2.237,2.237,0,0,0,18.35-7H16a.19.19,0,0,0-.19.19Zm1.3-3.57V-5.77h1.16a1,1,0,0,1,1.03.97,1.031,1.031,0,0,1-1.03,1.04Z" transform="translate(8084.567 5544.233)" fill="#fff"/>
  </g>
</svg>
