<svg xmlns="http://www.w3.org/2000/svg" width="14" height="16" viewBox="0 0 14 16">
  <g id="cake" transform="translate(-42.56)">
    <g id="Group_38286" data-name="Group 38286" transform="translate(42.56)">
      <g id="Group_38285" data-name="Group 38285" transform="translate(0)">
        <path id="Path_73618" data-name="Path 73618" d="M193.448,4.7A1.56,1.56,0,0,0,195,3.133a1.578,1.578,0,0,0-.222-.807L193.448,0l-1.333,2.326a1.578,1.578,0,0,0-.222.807A1.56,1.56,0,0,0,193.448,4.7Z" transform="translate(-186.452)" fill="#fd5675"/>
        <path id="Path_73619" data-name="Path 73619" d="M54.22,150.9H50.333v-1.566H48.779V150.9H44.892a2.343,2.343,0,0,0-2.332,2.35v1.206a1.532,1.532,0,0,0,1.524,1.535,1.505,1.505,0,0,0,1.077-.45l1.664-1.672,1.66,1.668a1.551,1.551,0,0,0,2.153,0l1.664-1.668,1.66,1.668a1.505,1.505,0,0,0,1.077.45,1.532,1.532,0,0,0,1.524-1.535v-1.2A2.354,2.354,0,0,0,54.22,150.9Z" transform="translate(-42.56 -143.85)" fill="#fd5675"/>
        <path id="Path_73620" data-name="Path 73620" d="M53.128,318.922h0l-.836-.842-.84.842a2.74,2.74,0,0,1-3.8,0l-.836-.842-.84.842a2.626,2.626,0,0,1-1.893.795,2.67,2.67,0,0,1-1.524-.482v2.384a.783.783,0,0,0,.777.783H55.775a.783.783,0,0,0,.777-.783v-2.384a2.661,2.661,0,0,1-3.424-.313Z" transform="translate(-42.56 -306.402)" fill="#fd5675"/>
      </g>
    </g>
  </g>
</svg>
