<svg xmlns="http://www.w3.org/2000/svg" width="18.666" height="17.231" viewBox="0 0 18.666 17.231">
  <g id="XMLID_2374_" transform="translate(0.15 -19.85)">
    <g id="XMLID_707_" transform="translate(0 20)">
      <g id="XMLID_708_" transform="translate(0 0)">
        <path id="XMLID_713_" d="M17.289,23.157h-.5v-.5a1.077,1.077,0,0,0-1.076-1.076H14.85v-.43a1.148,1.148,0,1,0-2.3,0v.43H9.541v-.43a1.148,1.148,0,1,0-2.3,0v.43H4.233v-.43a1.148,1.148,0,1,0-2.3,0v.43H1.076A1.077,1.077,0,0,0,0,22.654V34.276a1.077,1.077,0,0,0,1.076,1.076h.5v.5a1.077,1.077,0,0,0,1.076,1.076H17.289a1.077,1.077,0,0,0,1.076-1.076V24.233A1.077,1.077,0,0,0,17.289,23.157Zm-4.017-2.009a.43.43,0,1,1,.861,0v1.578a.43.43,0,1,1-.861,0Zm-5.309,0a.43.43,0,1,1,.861,0v1.578a.43.43,0,1,1-.861,0Zm-5.309,0a.43.43,0,1,1,.861,0v1.578a.43.43,0,1,1-.861,0ZM1.076,22.3h.861v.43a1.148,1.148,0,1,0,2.3,0V22.3H7.246v.43a1.148,1.148,0,1,0,2.3,0V22.3h3.013v.43a1.148,1.148,0,1,0,2.3,0V22.3h.861a.359.359,0,0,1,.359.359v3.228H.717V22.654A.359.359,0,0,1,1.076,22.3ZM17.648,35.855a.359.359,0,0,1-.359.359H2.654a.359.359,0,0,1-.359-.359v-.5h8.823a.359.359,0,0,0,0-.717H1.076a.359.359,0,0,1-.359-.359V26.6H16.07v7.676a.359.359,0,0,1-.359.359h-5.7a.359.359,0,0,0,0,.717h5.7a1.077,1.077,0,0,0,1.076-1.076v-10.4h.5a.359.359,0,0,1,.359.359Z" transform="translate(0 -20)" fill="#fd5675" stroke="#fd5675" stroke-width="0.3"/>
        <path id="XMLID_710_" d="M160.636,247.2a.381.381,0,0,0,.553-.4l-.271-1.579,1.147-1.118a.381.381,0,0,0-.211-.65l-1.585-.23-.709-1.436a.381.381,0,0,0-.683,0l-.709,1.436-1.585.23a.381.381,0,0,0-.211.65l1.147,1.118-.271,1.579a.381.381,0,0,0,.553.4l1.418-.745Zm-2.507-1.034.174-1.015a.381.381,0,0,0-.11-.337l-.738-.719,1.019-.148a.381.381,0,0,0,.287-.208l.456-.924.456.924a.381.381,0,0,0,.287.208l1.019.148-.738.719a.381.381,0,0,0-.11.337l.174,1.015-.912-.479a.381.381,0,0,0-.354,0Z" transform="translate(-150.824 -233.789)" fill="#fd5675" stroke="#fd5675" stroke-width="0.3"/>
      </g>
    </g>
  </g>
</svg>
