<svg xmlns="http://www.w3.org/2000/svg" width="18" height="18" viewBox="0 0 18 18">
  <path id="Calendar" d="M699.75,462h-13.5a2.25,2.25,0,0,1-2.25-2.25V448.5a2.25,2.25,0,0,1,2.25-2.25.75.75,0,0,0,.75-.75v-.75a.75.75,0,0,1,1.5,0v.75a2.25,2.25,0,0,1-2.25,2.25.75.75,0,0,0-.75.75v11.25a.75.75,0,0,0,.75.75h13.5a.75.75,0,0,0,.75-.75V447a.75.75,0,0,1,1.5,0v12.75A2.25,2.25,0,0,1,699.75,462ZM699,445.5v-.75a.75.75,0,0,0-1.5,0v.75a.75.75,0,0,1-.75.75h-6a.75.75,0,0,0,0,1.5h6A2.25,2.25,0,0,0,699,445.5Zm-10.5,5.25a.75.75,0,1,0,.75.75A.75.75,0,0,0,688.5,450.75Zm3,0a.75.75,0,1,0,.75.75A.75.75,0,0,0,691.5,450.75Zm3,0a.75.75,0,1,0,.75.75A.75.75,0,0,0,694.5,450.75Zm3,0a.75.75,0,1,0,.75.75A.75.75,0,0,0,697.5,450.75Zm-9,3a.75.75,0,1,0,.75.75A.75.75,0,0,0,688.5,453.75Zm6,0a.75.75,0,1,0,.75.75A.75.75,0,0,0,694.5,453.75Zm-3,0a.75.75,0,1,0,.75.75A.75.75,0,0,0,691.5,453.75Zm6,0a.75.75,0,1,0,.75.75A.75.75,0,0,0,697.5,453.75Zm-9,3a.75.75,0,1,0,.75.75A.75.75,0,0,0,688.5,456.75Zm3,0a.75.75,0,1,0,.75.75A.75.75,0,0,0,691.5,456.75Zm3,0a.75.75,0,1,0,.75.75A.75.75,0,0,0,694.5,456.75Z" transform="translate(-684 -444)" fill="#013c68"/>
</svg>
