<svg xmlns="http://www.w3.org/2000/svg" width="61" height="48" viewBox="0 0 61 48">
  <g id="camera" transform="translate(0 -44.8)" opacity="0.32">
    <g id="Group_38379" data-name="Group 38379" transform="translate(0 44.8)">
      <g id="Group_38378" data-name="Group 38378" transform="translate(0 0)">
        <path id="Path_73698" data-name="Path 73698" d="M58.971,52.278a6.559,6.559,0,0,0-4.813-2.029H44.532v-.116a5.2,5.2,0,0,0-1.566-3.768A5.306,5.306,0,0,0,39.2,44.8H21.8a5.345,5.345,0,0,0-5.393,5.333v.116H6.842a6.559,6.559,0,0,0-4.813,2.029A6.891,6.891,0,0,0,0,57.09v28.87a6.556,6.556,0,0,0,2.029,4.812A6.9,6.9,0,0,0,6.842,92.8H54.158a6.559,6.559,0,0,0,4.813-2.029A6.891,6.891,0,0,0,61,85.959V57.09A6.556,6.556,0,0,0,58.971,52.278Zm-.986,33.681h-.058a3.761,3.761,0,0,1-3.769,3.768H6.842a3.761,3.761,0,0,1-3.769-3.768V57.09a3.761,3.761,0,0,1,3.769-3.768H18.033A1.559,1.559,0,0,0,19.6,51.757V50.075a2.182,2.182,0,0,1,2.261-2.261H39.2a2.182,2.182,0,0,1,2.261,2.261v1.681a1.559,1.559,0,0,0,1.566,1.565H54.216a3.761,3.761,0,0,1,3.769,3.768Z" transform="translate(0 -44.8)" fill="#012763"/>
        <path id="Path_73699" data-name="Path 73699" d="M126.311,130.8a14.3,14.3,0,1,0,10.122,4.189A14.336,14.336,0,0,0,126.311,130.8Zm7.912,22.281a11.236,11.236,0,0,1-15.824,0,11.121,11.121,0,0,1-3.258-7.912,11.369,11.369,0,0,1,3.258-7.912A11.121,11.121,0,0,1,126.311,134a11.369,11.369,0,0,1,7.912,3.258,11.121,11.121,0,0,1,3.258,7.912A10.886,10.886,0,0,1,134.223,153.081Z" transform="translate(-95.811 -118.461)" fill="#012763"/>
        <circle id="Ellipse_1568" data-name="Ellipse 1568" cx="2.851" cy="2.851" r="2.851" transform="translate(48.26 12.4)" fill="#012763"/>
      </g>
    </g>
  </g>
</svg>
