<svg xmlns="http://www.w3.org/2000/svg" width="16" height="16.023" viewBox="0 0 16 16.023">
  <path id="contacts_call" d="M405.3,460.561c-2.009,0-4.7-2.235-6.588-4.847-2.338-3.229-3.757-7.438-1.776-8.871l1.371-1.008a1.748,1.748,0,0,1,1.405-.3,1.577,1.577,0,0,1,1.042.782l1.3,2.53a.686.686,0,0,1-1.22.624l-1.289-2.516a.2.2,0,0,0-.13-.082.377.377,0,0,0-.3.069l-1.371,1.008c-.809.59-.411,3.517,2.057,6.958s5.155,4.73,5.964,4.113l1.371-1.008a.377.377,0,0,0,.165-.267.2.2,0,0,0-.048-.165l-1.419-1.433a.686.686,0,0,0-.686-.178l-.96.254a2.057,2.057,0,0,1-2.057-.638l-.377-.439a15.822,15.822,0,0,1-1.611-2.228l-.713-1.207a.686.686,0,1,1,1.179-.686l.734,1.227a14.459,14.459,0,0,0,1.474,2.057l.377.439a.686.686,0,0,0,.686.213l.96-.254a2.057,2.057,0,0,1,1.988.542l1.433,1.446a1.584,1.584,0,0,1,.432,1.241,1.748,1.748,0,0,1-.72,1.248l-1.371,1.008a2.146,2.146,0,0,1-1.3.37Zm3.291-9.365a2.5,2.5,0,0,0-2.3-3.359.686.686,0,1,0,0,1.371,1.124,1.124,0,0,1,1.035,1.515.686.686,0,1,0,1.289.473Zm3.023,1.57A6.1,6.1,0,0,0,406,444.54a.686.686,0,1,0,0,1.371,4.73,4.73,0,0,1,4.36,6.376.686.686,0,0,0,1.289.473Z" transform="translate(-395.999 -444.54)" fill="#013c68"/>
</svg>
