<svg xmlns="http://www.w3.org/2000/svg" width="20" height="17.138" viewBox="0 0 20 17.138">
  <path id="contacts_home" d="M795,750.575h-1.667a1.667,1.667,0,0,1-1.667-1.667v-5.834h-3.334v5.834a1.667,1.667,0,0,1-1.667,1.667H785a2.5,2.5,0,0,1-2.5-2.5V742.24a.833.833,0,1,1,1.667,0v5.834a.833.833,0,0,0,.833.833h1.667v-5.834a1.667,1.667,0,0,1,1.667-1.667h3.334a1.667,1.667,0,0,1,1.667,1.667v5.834H795a.833.833,0,0,0,.833-.833V742.24a.833.833,0,0,1,1.667,0v5.834A2.5,2.5,0,0,1,795,750.575Zm4.867-10.384a.834.834,0,0,0-.242-1.15l-7.809-5.067a3.334,3.334,0,0,0-3.625,0l-7.809,5.067a.835.835,0,1,0,.909,1.4l7.809-5.067a1.667,1.667,0,0,1,1.817,0l7.809,5.067a.833.833,0,0,0,1.15-.242Z" transform="translate(-780.004 -733.437)" fill="#013c68"/>
</svg>
