<svg xmlns="http://www.w3.org/2000/svg" width="15.222" height="11.695" viewBox="0 0 15.222 11.695">
  <path id="contacts_mail" d="M601.256,554.692H589.894A1.922,1.922,0,0,1,588,552.743v-7.8A1.922,1.922,0,0,1,589.894,543h11.993a1.264,1.264,0,0,1,1.268.879,1.32,1.32,0,0,1-.485,1.492l-5.87,4.645a1.852,1.852,0,0,1-2.386-.065l-5.642-4.209a.663.663,0,0,1-.069-.916.619.619,0,0,1,.89-.071l5.642,4.209a.617.617,0,0,0,.8,0l5.87-4.645-12.006-.019a.641.641,0,0,0-.631.65v7.8a.641.641,0,0,0,.631.65h11.362a.641.641,0,0,0,.631-.65v-8.2a.631.631,0,1,1,1.262,0v8.2A1.922,1.922,0,0,1,601.256,554.692Z" transform="translate(-588 -542.997)" fill="#013c68"/>
</svg>
