<svg xmlns="http://www.w3.org/2000/svg" width="24.238" height="19.544" viewBox="0 0 24.238 19.544">
  <g id="contacts_emergency" transform="translate(54.012 66.84) rotate(45)">
    <g id="Group_36614" data-name="Group 36614" transform="translate(-78.339 -19.092)">
      <path id="Path_63620" data-name="Path 63620" d="M11.616,35.424a1.4,1.4,0,0,0-1.018-.467,1.452,1.452,0,0,0-1.03.464l-.952.949c-.078-.042-.157-.081-.232-.121-.108-.054-.211-.105-.3-.16a10.348,10.348,0,0,1-2.48-2.26,6.1,6.1,0,0,1-.814-1.284c.247-.226.476-.461.7-.687.084-.084.169-.172.253-.256a1.382,1.382,0,0,0,0-2.085L4.922,28.7c-.093-.093-.19-.19-.28-.286-.181-.187-.371-.38-.566-.56a1.426,1.426,0,0,0-1.009-.443,1.476,1.476,0,0,0-1.024.443l-.006.006L1.011,28.888a2.2,2.2,0,0,0-.654,1.4,5.282,5.282,0,0,0,.386,2.236,12.973,12.973,0,0,0,2.3,3.845,14.179,14.179,0,0,0,4.721,3.7,7.356,7.356,0,0,0,2.651.783c.063,0,.13.006.19.006a2.27,2.27,0,0,0,1.738-.747c0-.006.009-.009.012-.015a6.849,6.849,0,0,1,.527-.545c.13-.124.262-.253.392-.389a1.5,1.5,0,0,0,.455-1.042,1.448,1.448,0,0,0-.464-1.033ZM12.7,38.6s0,0,0,0c-.118.127-.238.241-.368.368a7.923,7.923,0,0,0-.582.6,1.453,1.453,0,0,1-1.133.479c-.045,0-.093,0-.139,0a6.535,6.535,0,0,1-2.35-.705,13.384,13.384,0,0,1-4.447-3.483,12.232,12.232,0,0,1-2.169-3.613,4.3,4.3,0,0,1-.337-1.886,1.383,1.383,0,0,1,.416-.895l1.027-1.027a.685.685,0,0,1,.458-.214.644.644,0,0,1,.44.211l.009.009c.184.172.359.35.542.539.093.1.19.193.286.292l.823.823a.575.575,0,0,1,0,.934c-.087.087-.172.175-.259.259-.253.259-.494.5-.756.735-.006.006-.012.009-.015.015a.615.615,0,0,0-.157.684l.009.027a6.6,6.6,0,0,0,.973,1.588l0,0a11.059,11.059,0,0,0,2.676,2.434,4.114,4.114,0,0,0,.371.2c.108.054.211.105.3.16.012.006.024.015.036.021a.653.653,0,0,0,.3.075.644.644,0,0,0,.458-.208l1.03-1.03a.682.682,0,0,1,.455-.226.614.614,0,0,1,.434.22l.006.006,1.66,1.66A.6.6,0,0,1,12.7,38.6Z" transform="translate(2.133 -26.58)" fill="#013c68" stroke="#013c68" stroke-width="0.4"/>
      <path id="Path_63621" data-name="Path 63621" d="M245.279,86.732a3.878,3.878,0,0,1,3.158,3.158.4.4,0,0,0,.4.337.539.539,0,0,0,.069-.006.407.407,0,0,0,.334-.47,4.689,4.689,0,0,0-3.82-3.82.409.409,0,0,0-.47.331A.4.4,0,0,0,245.279,86.732Z" transform="translate(-235.097 -83.336)" fill="#013c68" stroke="#013c68" stroke-width="0.4"/>
      <path id="Path_63622" data-name="Path 63622" d="M255.539,6.3A7.721,7.721,0,0,0,249.248.006a.406.406,0,1,0-.133.8,6.9,6.9,0,0,1,5.622,5.622.4.4,0,0,0,.4.337.538.538,0,0,0,.069-.006A.4.4,0,0,0,255.539,6.3Z" transform="translate(-238.813 0)" fill="#013c68" stroke="#013c68" stroke-width="0.4"/>
      <path id="Path_63623" data-name="Path 63623" d="M.335.807A3.821,3.821,0,0,1,2.414,1.886,3.841,3.841,0,0,1,3.492,3.965a.4.4,0,0,0,.4.337A.538.538,0,0,0,3.962,4.3a.407.407,0,0,0,.334-.47,4.647,4.647,0,0,0-1.3-2.516A4.647,4.647,0,0,0,.476.005a.409.409,0,0,0-.47.331A.4.4,0,0,0,.335.807Z" transform="translate(6.885 14.141) rotate(180)" fill="#013c68" stroke="#013c68" stroke-width="0.4"/>
      <path id="Path_63624" data-name="Path 63624" d="M6.764,6.3A7.645,7.645,0,0,0,4.615,2.154,7.645,7.645,0,0,0,.472.006a.406.406,0,1,0-.133.8,6.846,6.846,0,0,1,3.7,1.919,6.826,6.826,0,0,1,1.919,3.7.4.4,0,0,0,.4.337.538.538,0,0,0,.069-.006A.4.4,0,0,0,6.764,6.3Z" transform="translate(6.77 16.73) rotate(180)" fill="#013c68" stroke="#013c68" stroke-width="0.4"/>
    </g>
  </g>
</svg>
