<svg xmlns="http://www.w3.org/2000/svg" width="31.734" height="40" viewBox="0 0 31.734 40">
  <g id="Group_47223" data-name="Group 47223" transform="translate(-8078 -5513)">
    <path id="Path_73751" data-name="Path 73751" d="M98.769,0H78.088a1.6,1.6,0,0,0-1.6,1.6V38.4a1.6,1.6,0,0,0,1.6,1.6h26.133a1.6,1.6,0,0,0,1.6-1.6V7.053Z" transform="translate(8003.912 5513)" fill="#e1e6e9"/>
    <path id="Path_74167" data-name="Path 74167" d="M0,0H31.733V10.959H0Z" transform="translate(8078 5535.043)" fill="#9ead18"/>
    <path id="Path_73755" data-name="Path 73755" d="M48.39,386.364l2.4,2.232v-2.232Z" transform="translate(8029.61 5159.638)" fill="#768112"/>
    <path id="Path_73756" data-name="Path 73756" d="M337.335,7.053h7.052L337.335,0Z" transform="translate(7765.346 5513)" fill="#ebf0f3"/>
    <path id="Path_73757" data-name="Path 73757" d="M353.221,82.567l5.7,3.3v-3.3Z" transform="translate(7750.816 5437.485)" fill="#d5d6db"/>
    <path id="Path_74170" data-name="Path 74170" d="M.4-3.49A3.585,3.585,0,0,0,4.01.1,3.432,3.432,0,0,0,6.44-.87a.19.19,0,0,0,.01-.27l-.62-.64a.184.184,0,0,0-.25,0,2.4,2.4,0,0,1-1.53.57A2.264,2.264,0,0,1,1.81-3.52,2.267,2.267,0,0,1,4.04-5.85a2.366,2.366,0,0,1,1.54.59.16.16,0,0,0,.25,0l.61-.63a.186.186,0,0,0-.01-.28A3.384,3.384,0,0,0,4.01-7.1,3.6,3.6,0,0,0,.4-3.49ZM7.39-.68A3.217,3.217,0,0,0,9.59.1a2.112,2.112,0,0,0,2.3-1.98c0-1.29-1.12-1.87-2.09-2.26-.81-.33-1.18-.65-1.18-1.12a.8.8,0,0,1,.88-.7,3.29,3.29,0,0,1,1.39.55.263.263,0,0,0,.35-.12l.38-.57a.248.248,0,0,0-.06-.33,3.521,3.521,0,0,0-2-.67A2,2,0,0,0,7.31-5.18c0,1.18.94,1.78,1.88,2.16.84.34,1.27.69,1.27,1.2a.835.835,0,0,1-.91.77,3.312,3.312,0,0,1-1.51-.62.232.232,0,0,0-.34.07l-.36.62C7.25-.82,7.3-.77,7.39-.68Zm7.96.67a.18.18,0,0,0,.17.11h.1a.18.18,0,0,0,.17-.11l3.1-6.73A.177.177,0,0,0,18.72-7H17.7a.184.184,0,0,0-.17.11l-1.92,4.3h-.07l-1.92-4.3A.184.184,0,0,0,13.45-7H12.43a.177.177,0,0,0-.17.26Z" transform="translate(8085.567 5544.233)" fill="#fff"/>
  </g>
</svg>
