<svg xmlns="http://www.w3.org/2000/svg" width="30.788" height="33.032" viewBox="0 0 30.788 33.032">
  <g id="Group_47350" data-name="Group 47350" transform="translate(1976.732 -11554.815)">
    <g id="fi-rr-interactive" transform="translate(-1976.732 11554.814)">
      <path id="Path_136" data-name="Path 136" d="M12.841,25.682A12.841,12.841,0,1,1,25.682,12.841a1.284,1.284,0,0,1-2.568,0A10.273,10.273,0,1,0,12.841,23.114a1.284,1.284,0,0,1,0,2.568Z" fill="#fff"/>
      <path id="Path_137" data-name="Path 137" d="M9.244,18.921a1.284,1.284,0,0,1-.492-.1A7.7,7.7,0,1,1,18.827,8.763a1.284,1.284,0,1,1-2.373.981,5.136,5.136,0,1,0-6.717,6.711,1.284,1.284,0,0,1-.493,2.471Z" transform="translate(1.137 1.137)" fill="#fff"/>
    </g>
    <path id="fi-rr-cursor-finger" d="M15.083,7.676l-4.9-.979V2.543A2.522,2.522,0,0,0,8.141.033,2.456,2.456,0,0,0,5.276,2.456V7.909L2.993,10.888a4.11,4.11,0,0,0,.2,5.562l1.965,1.985a4.123,4.123,0,0,0,2.91,1.212h6.21a4.1,4.1,0,0,0,4.093-4.093V11.689a4.1,4.1,0,0,0-3.291-4.014Zm1.654,7.879a2.456,2.456,0,0,1-2.456,2.456H8.071a2.474,2.474,0,0,1-1.747-.729L4.359,15.293a2.481,2.481,0,0,1-.095-3.375L5.276,10.6v3.32a.819.819,0,1,0,1.637,0V2.456a.819.819,0,0,1,.963-.806.886.886,0,0,1,.675.894V7.368a.819.819,0,0,0,.655.8l5.554,1.111a2.464,2.464,0,0,1,1.978,2.408Z" transform="translate(-1964.319 11568.199)" fill="#fff"/>
  </g>
</svg>
