<svg xmlns="http://www.w3.org/2000/svg" width="23.854" height="23.175" viewBox="0 0 23.854 23.175">
  <g id="Group_47167" data-name="Group 47167" transform="translate(2303.944 -3324.873)">
    <path id="Path_74207" data-name="Path 74207" d="M1.8,1.8V6.2H6.2V1.8H1.8M1.142,0H6.854A1.142,1.142,0,0,1,8,1.142V6.854A1.142,1.142,0,0,1,6.854,8H1.142A1.142,1.142,0,0,1,0,6.854V1.142A1.142,1.142,0,0,1,1.142,0Z" transform="translate(-2300.454 3324.873)" fill="#013c68"/>
    <path id="Path_74206" data-name="Path 74206" d="M18.743.9H0A.9.9,0,0,1-.9,0,.9.9,0,0,1,0-.9H18.743a.9.9,0,0,1,.9.9A.9.9,0,0,1,18.743.9Z" transform="translate(-2303.044 3334.317)" fill="#013c68"/>
    <path id="Path_74208" data-name="Path 74208" d="M0,3.932a.9.9,0,0,1-.9-.9V0A.9.9,0,0,1,0-.9.9.9,0,0,1,.9,0V3.032A.9.9,0,0,1,0,3.932Z" transform="translate(-2296.178 3334.317)" fill="#013c68"/>
    <path id="Path_74209" data-name="Path 74209" d="M0,3.932a.9.9,0,0,1-.9-.9V0A.9.9,0,0,1,0-.9.9.9,0,0,1,.9,0V3.032A.9.9,0,0,1,0,3.932Z" transform="translate(-2284.301 3334.317)" fill="#013c68"/>
    <path id="Path_74204" data-name="Path 74204" d="M-2330.191,3319.886h-3.587a.9.9,0,0,1-.9-.9.9.9,0,0,1,.9-.9h2.687v-5h-5.3v5.262a.9.9,0,0,1-.9.9.9.9,0,0,1-.9-.9v-6.162a.9.9,0,0,1,.9-.9h7.1a.9.9,0,0,1,.9.9v6.8A.9.9,0,0,1-2330.191,3319.886Z" transform="translate(37.289 28.161)" fill="#013c68"/>
    <path id="Path_74205" data-name="Path 74205" d="M-2330.191,3319.886h-3.494a.9.9,0,0,1-.9-.9.9.9,0,0,1,.9-.9h2.594v-5h-5.3v5.262a.9.9,0,0,1-.9.9.9.9,0,0,1-.9-.9v-6.162a.9.9,0,0,1,.9-.9h7.1a.9.9,0,0,1,.9.9v6.8A.9.9,0,0,1-2330.191,3319.886Z" transform="translate(49.202 28.161)" fill="#013c68"/>
  </g>
</svg>
