<svg xmlns="http://www.w3.org/2000/svg" width="31.733" height="40" viewBox="0 0 31.733 40">
  <g id="Group_47216" data-name="Group 47216" transform="translate(-8078 -5513)">
    <path id="Path_73751" data-name="Path 73751" d="M98.769,0H78.088a1.6,1.6,0,0,0-1.6,1.6V38.4a1.6,1.6,0,0,0,1.6,1.6h26.133a1.6,1.6,0,0,0,1.6-1.6V7.053Z" transform="translate(8003.912 5513)" fill="#e1e6e9"/>
    <path id="Path_74167" data-name="Path 74167" d="M0,0H31.733V10.959H0Z" transform="translate(8078 5535.043)" fill="#8249bb"/>
    <path id="Path_73755" data-name="Path 73755" d="M48.39,386.364l2.4,2.232v-2.232Z" transform="translate(8029.61 5159.638)" fill="#652e9d"/>
    <path id="Path_73756" data-name="Path 73756" d="M337.335,7.053h7.052L337.335,0Z" transform="translate(7765.346 5513)" fill="#ebf0f3"/>
    <path id="Path_73757" data-name="Path 73757" d="M353.221,82.567l5.7,3.3v-3.3Z" transform="translate(7750.816 5437.485)" fill="#d5d6db"/>
    <path id="Path_74181" data-name="Path 74181" d="M.91-.19A.188.188,0,0,0,1.09,0H3.46A3.515,3.515,0,0,0,6.97-3.51,3.51,3.51,0,0,0,3.46-7H1.09a.188.188,0,0,0-.18.19ZM2.2-1.22V-5.79H3.34A2.205,2.205,0,0,1,5.59-3.51,2.208,2.208,0,0,1,3.34-1.22ZM8.29-.19A.2.2,0,0,0,8.48,0h.93A.2.2,0,0,0,9.6-.19V-6.81A.2.2,0,0,0,9.41-7H8.48a.2.2,0,0,0-.19.19Zm3.13,0a.19.19,0,0,0,.19.19h2.42a2.022,2.022,0,0,0,2.18-1.93,1.8,1.8,0,0,0-1.3-1.63,1.9,1.9,0,0,0,1.1-1.59A1.959,1.959,0,0,0,13.9-7H11.61a.19.19,0,0,0-.19.19Zm1.29-3.87V-5.81h1.07a.816.816,0,0,1,.86.85.857.857,0,0,1-.86.9Zm0,2.88V-2.96H13.8a.968.968,0,0,1,1.02.87.892.892,0,0,1-.9.91Z" transform="translate(8086.681 5544.233)" fill="#fff"/>
  </g>
</svg>
