<svg xmlns="http://www.w3.org/2000/svg" width="12.795" height="15.354" viewBox="0 0 12.795 15.354">
  <path id="fi-rr-document" d="M11.6,8.956a.64.64,0,0,1-.64.64H5.838a.64.64,0,0,1,0-1.279h5.118A.64.64,0,0,1,11.6,8.956ZM9.037,10.876h-3.2a.64.64,0,1,0,0,1.279h3.2a.64.64,0,1,0,0-1.279Zm5.758-4.168v5.447a3.2,3.2,0,0,1-3.2,3.2H5.2a3.2,3.2,0,0,1-3.2-3.2V3.2A3.2,3.2,0,0,1,5.2,0H8.087a4.451,4.451,0,0,1,3.167,1.311l2.229,2.23A4.447,4.447,0,0,1,14.795,6.708ZM10.349,2.216a3.205,3.205,0,0,0-.672-.5V4.478a.64.64,0,0,0,.64.64h2.761a3.188,3.188,0,0,0-.5-.672Zm3.166,4.492c0-.106-.02-.207-.03-.31H10.317A1.919,1.919,0,0,1,8.4,4.478V1.31c-.1-.01-.205-.03-.31-.03H5.2A1.919,1.919,0,0,0,3.279,3.2v8.956A1.919,1.919,0,0,0,5.2,14.074h6.4a1.919,1.919,0,0,0,1.919-1.919Z" transform="translate(-2 0)" fill="#fff"/>
</svg>
