<svg xmlns="http://www.w3.org/2000/svg" width="31.734" height="40" viewBox="0 0 31.734 40">
  <g id="Group_47221" data-name="Group 47221" transform="translate(-8078 -5513)">
    <path id="Path_73751" data-name="Path 73751" d="M98.769,0H78.088a1.6,1.6,0,0,0-1.6,1.6V38.4a1.6,1.6,0,0,0,1.6,1.6h26.133a1.6,1.6,0,0,0,1.6-1.6V7.053Z" transform="translate(8003.912 5513)" fill="#e1e6e9"/>
    <path id="Path_74167" data-name="Path 74167" d="M0,0H31.733V10.959H0Z" transform="translate(8078 5535.043)" fill="#118ac2"/>
    <path id="Path_73755" data-name="Path 73755" d="M48.39,386.364l2.4,2.232v-2.232Z" transform="translate(8029.61 5159.638)" fill="#085b82"/>
    <path id="Path_73756" data-name="Path 73756" d="M337.335,7.053h7.052L337.335,0Z" transform="translate(7765.346 5513)" fill="#ebf0f3"/>
    <path id="Path_73757" data-name="Path 73757" d="M353.221,82.567l5.7,3.3v-3.3Z" transform="translate(7750.816 5437.485)" fill="#d5d6db"/>
    <path id="Path_74172" data-name="Path 74172" d="M.91-.19A.188.188,0,0,0,1.09,0H3.46A3.515,3.515,0,0,0,6.97-3.51,3.51,3.51,0,0,0,3.46-7H1.09a.188.188,0,0,0-.18.19ZM2.2-1.22V-5.79H3.34A2.205,2.205,0,0,1,5.59-3.51,2.208,2.208,0,0,1,3.34-1.22ZM7.79-3.49A3.568,3.568,0,0,0,11.38.1a3.577,3.577,0,0,0,3.6-3.59,3.594,3.594,0,0,0-3.6-3.61A3.585,3.585,0,0,0,7.79-3.49Zm1.3,0A2.313,2.313,0,0,1,11.38-5.8a2.322,2.322,0,0,1,2.3,2.31,2.3,2.3,0,0,1-2.3,2.29A2.3,2.3,0,0,1,9.09-3.49Zm6.69,0A3.585,3.585,0,0,0,19.39.1a3.432,3.432,0,0,0,2.43-.97.19.19,0,0,0,.01-.27l-.62-.64a.184.184,0,0,0-.25,0,2.4,2.4,0,0,1-1.53.57,2.264,2.264,0,0,1-2.24-2.31,2.267,2.267,0,0,1,2.23-2.33,2.366,2.366,0,0,1,1.54.59.16.16,0,0,0,.25,0l.61-.63a.186.186,0,0,0-.01-.28,3.384,3.384,0,0,0-2.42-.93A3.6,3.6,0,0,0,15.78-3.49ZM22.52-.28c-.08.13,0,.28.18.28h1.08a.219.219,0,0,0,.17-.09l1.41-2.29h.03L26.82-.09a.2.2,0,0,0,.17.09h1.08a.179.179,0,0,0,.17-.28L26.16-3.59l2.01-3.13A.18.18,0,0,0,28-7H26.84a.184.184,0,0,0-.16.09l-1.3,2.12h-.01L24.09-6.91A.2.2,0,0,0,23.93-7H22.77a.18.18,0,0,0-.17.28l2,3.13Z" transform="translate(8080.038 5544.233)" fill="#fff"/>
  </g>
</svg>
