<svg xmlns="http://www.w3.org/2000/svg" width="24.807" height="29.768" viewBox="0 0 24.807 29.768">
  <path id="fi-rr-document" d="M20.605,17.365a1.24,1.24,0,0,1-1.24,1.24H9.442a1.24,1.24,0,1,1,0-2.481h9.923A1.24,1.24,0,0,1,20.605,17.365Zm-4.961,3.721h-6.2a1.24,1.24,0,1,0,0,2.481h6.2a1.24,1.24,0,0,0,0-2.481Zm11.163-8.081V23.567a6.209,6.209,0,0,1-6.2,6.2H8.2a6.209,6.209,0,0,1-6.2-6.2V6.2A6.209,6.209,0,0,1,8.2,0h5.6a8.63,8.63,0,0,1,6.14,2.543l4.321,4.324a8.622,8.622,0,0,1,2.544,6.138ZM18.188,4.3a6.214,6.214,0,0,0-1.3-.967V8.682a1.24,1.24,0,0,0,1.24,1.24h5.353a6.181,6.181,0,0,0-.969-1.3Zm6.138,8.708c0-.2-.04-.4-.058-.6H18.124A3.721,3.721,0,0,1,14.4,8.682V2.539c-.2-.019-.4-.058-.6-.058H8.2A3.721,3.721,0,0,0,4.481,6.2V23.567A3.721,3.721,0,0,0,8.2,27.288h12.4a3.721,3.721,0,0,0,3.721-3.721Z" transform="translate(-2)" fill="#fff"/>
</svg>
