<svg xmlns="http://www.w3.org/2000/svg" width="22" height="16.04" viewBox="0 0 22 16.04">
  <g id="envelope" transform="translate(0 -57.75)">
    <g id="Group_36542" data-name="Group 36542" transform="translate(0 57.75)">
      <path id="Path_63539" data-name="Path 63539" d="M19.314,57.75H2.69A2.638,2.638,0,0,0,0,60.327V71.213A2.638,2.638,0,0,0,2.69,73.79H19.31A2.638,2.638,0,0,0,22,71.213V60.332A2.635,2.635,0,0,0,19.314,57.75Zm1.461,13.463a1.433,1.433,0,0,1-1.461,1.4H2.69a1.433,1.433,0,0,1-1.461-1.4V60.332a1.433,1.433,0,0,1,1.461-1.4H19.31a1.433,1.433,0,0,1,1.461,1.4V71.213Z" transform="translate(0 -57.75)" fill="#013c68"/>
      <path id="Path_63540" data-name="Path 63540" d="M67.089,114.556l5.381-4.623a.574.574,0,0,0,.046-.833.637.637,0,0,0-.869-.044l-7.42,6.38L62.778,114.2s-.009-.009-.009-.013a.9.9,0,0,0-.1-.083l-5.89-5.05a.633.633,0,0,0-.869.048.571.571,0,0,0,.05.833L61.4,114.6l-5.421,4.863a.574.574,0,0,0-.027.833.642.642,0,0,0,.451.188.631.631,0,0,0,.419-.157l5.5-4.932,1.493,1.278a.633.633,0,0,0,.819,0l1.534-1.317,5.472,4.98a.635.635,0,0,0,.869-.022.574.574,0,0,0-.023-.833Z" transform="translate(-53.215 -106.672)" fill="#013c68"/>
    </g>
  </g>
</svg>
