<svg xmlns="http://www.w3.org/2000/svg" width="31.423" height="37.707" viewBox="0 0 31.423 37.707">
  <g id="export" transform="translate(-578 -228.726)">
    <path id="fi-rr-file-add" d="M33.423,16.473V29.852a7.865,7.865,0,0,1-7.856,7.856H9.856A7.865,7.865,0,0,1,2,29.852v-22A7.865,7.865,0,0,1,9.856,0h7.094a10.932,10.932,0,0,1,7.777,3.221L30.2,8.7a10.921,10.921,0,0,1,3.222,7.776ZM22.5,5.442a7.871,7.871,0,0,0-1.651-1.225V11a1.571,1.571,0,0,0,1.571,1.571h6.781a7.829,7.829,0,0,0-1.227-1.65ZM30.28,16.473c0-.259-.05-.507-.074-.762H22.425A4.713,4.713,0,0,1,17.711,11V3.216c-.255-.024-.5-.074-.762-.074H9.856A4.713,4.713,0,0,0,5.142,7.856v22a4.713,4.713,0,0,0,4.713,4.713H25.567a4.713,4.713,0,0,0,4.713-4.713Z" transform="translate(576 228.726)" fill="#fd5675"/>
    <g id="fi-rr-download" transform="translate(585.369 243.235)">
      <path id="Path_82" data-name="Path 82" d="M14.266,16h0a.62.62,0,0,0-.62.62V19.1a.62.62,0,0,1-.62.62H1.861a.62.62,0,0,1-.62-.62V16.62A.62.62,0,0,0,.62,16h0a.62.62,0,0,0-.62.62V19.1a1.861,1.861,0,0,0,1.861,1.861H13.025A1.861,1.861,0,0,0,14.886,19.1V16.62A.62.62,0,0,0,14.266,16Z" transform="translate(0.409 -5.667)" fill="#fd5675"/>
      <path id="Path_82_-_Outline" data-name="Path 82 - Outline" d="M.53,15.5a1.031,1.031,0,0,1,1.03,1.03v2.481a.211.211,0,0,0,.211.211H12.934a.211.211,0,0,0,.211-.211V16.53a1.03,1.03,0,0,1,2.059,0v2.481a2.273,2.273,0,0,1-2.27,2.27H1.77A2.273,2.273,0,0,1-.5,19.011V16.53A1.031,1.031,0,0,1,.53,15.5Zm12.4,4.54H1.77a1.031,1.031,0,0,1-1.03-1.03V16.53a.211.211,0,0,0-.422,0v2.481A1.453,1.453,0,0,0,1.77,20.462H12.934a1.453,1.453,0,0,0,1.451-1.451V16.53a.211.211,0,0,0-.422,0v2.481A1.031,1.031,0,0,1,12.934,20.04Z" transform="translate(0.5 -5.576)" fill="#fd5675"/>
      <path id="Path_83" data-name="Path 83" d="M5.182,8.4l2.844,2.845a1.865,1.865,0,0,0,2.631,0L13.5,8.4a.62.62,0,1,0-.877-.877L9.962,10.182V.62a.62.62,0,1,0-1.24,0v9.562L6.059,7.52a.62.62,0,1,0-.877.877Z" transform="translate(-1.489 0.409)" fill="#fd5675"/>
      <path id="Path_83_-_Outline" data-name="Path 83 - Outline" d="M9.251,12.1a2.26,2.26,0,0,1-1.6-.662L4.8,8.6A1.03,1.03,0,1,1,6.258,7.14L8.222,9.1V.53a1.03,1.03,0,0,1,2.059,0V9.1L12.245,7.14A1.03,1.03,0,1,1,13.7,8.6l-2.844,2.844A2.261,2.261,0,0,1,9.251,12.1ZM5.376,8.012l2.849,2.85a1.456,1.456,0,0,0,2.053,0l2.844-2.844a.211.211,0,1,0-.3-.3l-3.361,3.36V.53a.211.211,0,1,0-.422,0V11.08L5.679,7.719a.211.211,0,0,0-.3.294Z" transform="translate(-1.399 0.5)" fill="#fd5675"/>
    </g>
  </g>
</svg>
