<svg id="fi-rr-eye" xmlns="http://www.w3.org/2000/svg" width="16.441" height="12.799" viewBox="0 0 16.441 12.799">
  <path id="Path_98" data-name="Path 98" d="M15.935,7.287A9.069,9.069,0,0,0,8.216,2.655,9.069,9.069,0,0,0,.5,7.287a3.361,3.361,0,0,0,0,3.535,9.069,9.069,0,0,0,7.718,4.632,9.069,9.069,0,0,0,7.718-4.632A3.361,3.361,0,0,0,15.935,7.287ZM14.767,10.1a7.748,7.748,0,0,1-6.551,3.979A7.748,7.748,0,0,1,1.665,10.1a2,2,0,0,1,0-2.1A7.748,7.748,0,0,1,8.216,4.025,7.742,7.742,0,0,1,14.767,8,2,2,0,0,1,14.767,10.1Z" transform="translate(0.004 -2.655)" fill="#fff"/>
  <path id="Path_99" data-name="Path 99" d="M10.424,7a3.424,3.424,0,1,0,3.424,3.424A3.424,3.424,0,0,0,10.424,7Zm0,5.478a2.054,2.054,0,1,1,2.054-2.054A2.054,2.054,0,0,1,10.424,12.478Z" transform="translate(-2.203 -4.025)" fill="#fff"/>
</svg>
