<svg xmlns="http://www.w3.org/2000/svg" width="28.99" height="34.788" viewBox="0 0 28.99 34.788">
  <g id="Group_47116" data-name="Group 47116" transform="translate(-2799.916 -427.073)">
    <g id="Group_47115" data-name="Group 47115" transform="translate(2799.916 427.073)">
      <path id="fi-rr-document" d="M23.742,20.293a1.449,1.449,0,0,1-1.449,1.449H10.7a1.449,1.449,0,1,1,0-2.9h11.6A1.449,1.449,0,0,1,23.742,20.293Zm-5.8,4.348H10.7a1.449,1.449,0,0,0,0,2.9h7.247a1.449,1.449,0,0,0,0-2.9ZM30.99,15.2V27.54a7.256,7.256,0,0,1-7.247,7.247H9.247A7.256,7.256,0,0,1,2,27.54V7.247A7.256,7.256,0,0,1,9.247,0h6.544a10.086,10.086,0,0,1,7.175,2.971l5.05,5.053A10.075,10.075,0,0,1,30.99,15.2ZM20.917,5.021A7.262,7.262,0,0,0,19.394,3.89v6.256A1.449,1.449,0,0,0,20.843,11.6H27.1a7.223,7.223,0,0,0-1.132-1.522ZM28.091,15.2c0-.239-.046-.468-.068-.7H20.843a4.348,4.348,0,0,1-4.348-4.348V2.967c-.235-.022-.465-.068-.7-.068H9.247A4.348,4.348,0,0,0,4.9,7.247V27.54a4.348,4.348,0,0,0,4.348,4.348H23.742a4.348,4.348,0,0,0,4.348-4.348Z" transform="translate(-2 0)" fill="#013c68"/>
      <path id="fi-rr-dollar" d="M9.9,2.194a1.685,1.685,0,0,1,1.683,1.683.549.549,0,0,0,1.1,0V3.81A2.783,2.783,0,0,0,9.9,1.1H9.388V.549a.549.549,0,1,0-1.1,0V1.1H7.78A2.78,2.78,0,0,0,6.9,6.514l1.389.464v3.993H7.78A1.685,1.685,0,0,1,6.1,9.288a.549.549,0,1,0-1.1,0v.067a2.783,2.783,0,0,0,2.78,2.713h.511v.549a.549.549,0,1,0,1.1,0v-.549H9.9a2.78,2.78,0,0,0,.878-5.417L9.388,6.188V2.194Zm.532,5.5a1.683,1.683,0,0,1-.532,3.28H9.388V7.343ZM8.291,5.822,7.249,5.474a1.683,1.683,0,0,1,.531-3.28h.511Z" transform="translate(0.717 4.229)" fill="#013c68" stroke="#013c68" stroke-width="1"/>
    </g>
  </g>
</svg>
