<svg id="fingerprints" xmlns="http://www.w3.org/2000/svg" width="36.495" height="52.5" viewBox="0 0 36.495 52.5">
  <path id="Path_3582" data-name="Path 3582" d="M73.312,159.821a16.472,16.472,0,0,1-6.675-13.2v-16c0-.469.02-.943.06-1.408a.926.926,0,1,0-1.846-.157c-.044.517-.066,1.043-.066,1.565v16a18.223,18.223,0,0,0,7.428,14.7.926.926,0,1,0,1.1-1.491Z" transform="translate(-64.785 -112.365)" fill="#0369b1"/>
  <path id="Path_3583" data-name="Path 3583" d="M147.473,397.106a16.371,16.371,0,0,1-1.681-.694.926.926,0,0,0-.8,1.671,18.241,18.241,0,0,0,1.872.772.926.926,0,1,0,.61-1.75Z" transform="translate(-134.623 -347.368)" fill="#0369b1"/>
  <path id="Path_3584" data-name="Path 3584" d="M208.918,243.219a.926.926,0,0,0-.926.926v3.284A16.413,16.413,0,0,1,191.6,263.824a16.639,16.639,0,0,1-1.915-.111.926.926,0,0,0-.214,1.84,18.486,18.486,0,0,0,2.129.123,18.268,18.268,0,0,0,18.248-18.248v-3.284A.926.926,0,0,0,208.918,243.219Z" transform="translate(-173.349 -213.177)" fill="#0369b1"/>
  <path id="Path_3585" data-name="Path 3585" d="M88.922,0A18.255,18.255,0,0,0,71.549,12.65a.926.926,0,1,0,1.764.568,16.4,16.4,0,0,1,32,5.029v9.015a.926.926,0,1,0,1.853,0V18.248A18.268,18.268,0,0,0,88.922,0Z" transform="translate(-70.674)" fill="#0369b1"/>
  <path id="Path_3586" data-name="Path 3586" d="M107.505,318.066a.926.926,0,0,0-.421,1.241,14.435,14.435,0,0,0,12.939,8.059,14.275,14.275,0,0,0,5.952-1.286.926.926,0,1,0-.767-1.686,12.55,12.55,0,0,1-11.906-.833,12.638,12.638,0,0,1-4.557-5.073A.926.926,0,0,0,107.505,318.066Z" transform="translate(-101.776 -278.695)" fill="#0369b1"/>
  <path id="Path_3587" data-name="Path 3587" d="M278.059,111.706a.922.922,0,0,0,.612-.231,14.429,14.429,0,0,0,4.9-10.821v-16a14.3,14.3,0,0,0-2.786-8.512.926.926,0,1,0-1.494,1.1,12.455,12.455,0,0,1,2.427,7.416v16a12.576,12.576,0,0,1-4.27,9.431.926.926,0,0,0,.613,1.622Z" transform="translate(-250.903 -66.401)" fill="#0369b1"/>
  <path id="Path_3588" data-name="Path 3588" d="M252.725,43.679a.926.926,0,1,0,1.055-1.523,14.458,14.458,0,0,0-2.223-1.265.926.926,0,1,0-.77,1.685A12.594,12.594,0,0,1,252.725,43.679Z" transform="translate(-227.337 -35.767)" fill="#0369b1"/>
  <path id="Path_3589" data-name="Path 3589" d="M112.617,31.2A14.426,14.426,0,0,0,95.786,45.419V60.981a.926.926,0,1,0,1.853,0V45.419a12.573,12.573,0,0,1,14.669-12.39.926.926,0,0,0,.309-1.827Z" transform="translate(-91.957 -27.171)" fill="#0369b1"/>
  <path id="Path_3590" data-name="Path 3590" d="M140.323,66.672a.926.926,0,0,0,1.535,1.038,8.734,8.734,0,0,1,15.98,4.88V82.964a.926.926,0,0,0,1.853,0V72.59a10.587,10.587,0,0,0-19.367-5.918Z" transform="translate(-130.854 -54.342)" fill="#0369b1"/>
  <path id="Path_3591" data-name="Path 3591" d="M127.712,144.306a.926.926,0,0,0,.926-.926v-2.222a.926.926,0,0,0-1.853,0v2.222A.926.926,0,0,0,127.712,144.306Z" transform="translate(-119.128 -122.911)" fill="#0369b1"/>
  <path id="Path_3592" data-name="Path 3592" d="M126.786,199.224a10.612,10.612,0,0,0,5.441,9.252.926.926,0,1,0,.9-1.617,8.757,8.757,0,0,1-4.491-7.634V189.146a.926.926,0,1,0-1.853,0Z" transform="translate(-119.128 -164.971)" fill="#0369b1"/>
  <path id="Path_3593" data-name="Path 3593" d="M200.195,258.823v-1.678a.926.926,0,1,0-1.853,0v1.678a8.741,8.741,0,0,1-10.818,8.486.926.926,0,1,0-.441,1.8,10.594,10.594,0,0,0,13.113-10.286Z" transform="translate(-171.357 -224.571)" fill="#0369b1"/>
  <path id="Path_3594" data-name="Path 3594" d="M171.307,99.858A6.844,6.844,0,0,0,164.677,93a6.767,6.767,0,0,0-6.891,6.759v16a.926.926,0,1,0,1.853,0v-16a4.914,4.914,0,0,1,5-4.907,4.982,4.982,0,0,1,4.813,5v8.794a.926.926,0,1,0,1.853,0Z" transform="translate(-146.299 -81.513)" fill="#0369b1"/>
  <path id="Path_3595" data-name="Path 3595" d="M188.786,223.084a4.846,4.846,0,1,0,9.692,0V218.6a.926.926,0,0,0-1.853,0v4.48a2.993,2.993,0,1,1-5.986,0v-7.938a.926.926,0,0,0-1.853,0Z" transform="translate(-173.469 -187.759)" fill="#0369b1"/>
  <path id="Path_3596" data-name="Path 3596" d="M193.722,144.578a.926.926,0,0,0,.926-.926V126.989A2.959,2.959,0,0,0,191.864,124a2.905,2.905,0,0,0-2.167.8,2.945,2.945,0,0,0-.911,2.123v5.186a.926.926,0,0,0,1.853,0v-5.186a1.081,1.081,0,0,1,1.134-1.077,1.122,1.122,0,0,1,1.023,1.135v16.663A.926.926,0,0,0,193.722,144.578Z" transform="translate(-173.469 -108.683)" fill="#0369b1"/>
</svg>
