<svg xmlns="http://www.w3.org/2000/svg" width="31.733" height="40" viewBox="0 0 31.733 40">
  <g id="Group_47215" data-name="Group 47215" transform="translate(-8078 -5513)">
    <path id="Path_73751" data-name="Path 73751" d="M98.769,0H78.088a1.6,1.6,0,0,0-1.6,1.6V38.4a1.6,1.6,0,0,0,1.6,1.6h26.133a1.6,1.6,0,0,0,1.6-1.6V7.053Z" transform="translate(8003.912 5513)" fill="#e1e6e9"/>
    <path id="Path_74167" data-name="Path 74167" d="M0,0H31.733V10.959H0Z" transform="translate(8078 5535.043)" fill="#b7bb49"/>
    <path id="Path_73755" data-name="Path 73755" d="M48.39,386.364l2.4,2.232v-2.232Z" transform="translate(8029.61 5159.638)" fill="#7c8021"/>
    <path id="Path_73756" data-name="Path 73756" d="M337.335,7.053h7.052L337.335,0Z" transform="translate(7765.346 5513)" fill="#ebf0f3"/>
    <path id="Path_73757" data-name="Path 73757" d="M353.221,82.567l5.7,3.3v-3.3Z" transform="translate(7750.816 5437.485)" fill="#d5d6db"/>
    <path id="Path_74180" data-name="Path 74180" d="M.41-3.49A3.566,3.566,0,0,0,4,.09,5.053,5.053,0,0,0,6.48-.56a.192.192,0,0,0,.08-.16V-3.28a.188.188,0,0,0-.18-.19H4.46a.184.184,0,0,0-.19.19v.79a.182.182,0,0,0,.19.18h.8v.85a3.128,3.128,0,0,1-1.19.25A2.275,2.275,0,0,1,1.82-3.5,2.293,2.293,0,0,1,4.06-5.82a2.267,2.267,0,0,1,1.51.58.171.171,0,0,0,.26,0l.62-.65a.194.194,0,0,0-.01-.28A3.78,3.78,0,0,0,4-7.1,3.591,3.591,0,0,0,.41-3.49ZM8.03-.19A.2.2,0,0,0,8.22,0h.93a.2.2,0,0,0,.19-.19V-6.81A.2.2,0,0,0,9.15-7H8.22a.2.2,0,0,0-.19.19Zm3.13,0a.19.19,0,0,0,.19.19h.92a.2.2,0,0,0,.19-.19V-2.72h2.47a.2.2,0,0,0,.19-.19v-.82a.2.2,0,0,0-.19-.19H12.46V-5.8h2.96a.19.19,0,0,0,.19-.19v-.82A.19.19,0,0,0,15.42-7H11.35a.19.19,0,0,0-.19.19Z" transform="translate(8086.681 5544.233)" fill="#fff"/>
  </g>
</svg>
