<svg xmlns="http://www.w3.org/2000/svg" width="23.794" height="20.829" viewBox="0 0 23.794 20.829">
  <path id="group" d="M307.931,657.819h-4.957A2.974,2.974,0,0,1,300,654.845v-3.172a3.053,3.053,0,0,1,1.854-2.7,15.277,15.277,0,0,1,8.021-.872,1,1,0,1,1-.317,1.983,13.313,13.313,0,0,0-6.94.763,1.1,1.1,0,0,0-.595.853v3.143a.991.991,0,0,0,.991.991h4.957a.991.991,0,1,1,0,1.983Zm3.966-16.3a4.461,4.461,0,1,0-4.461,4.4A4.461,4.461,0,0,0,311.9,641.521Zm-1.983,0a2.479,2.479,0,1,1-2.479-2.419,2.449,2.449,0,0,1,2.479,2.419Zm13.88,13.989v-3.331a2.707,2.707,0,0,0-1.646-2.4,12.76,12.76,0,0,0-9.409,0,2.707,2.707,0,0,0-1.646,2.4v4.65a.991.991,0,1,0,1.983,0v-4.64a.753.753,0,0,1,.387-.545,10.8,10.8,0,0,1,7.931,0,.754.754,0,0,1,.387.545v3.331a.337.337,0,0,1-.347.327h-5.572a.991.991,0,0,0,0,1.983h5.6a2.32,2.32,0,0,0,2.33-2.32Zm-2.974-12.026a3.416,3.416,0,1,0,0,.01Zm-1.983,0a1.487,1.487,0,1,1-1.487-1.437,1.467,1.467,0,0,1,1.487,1.448Z" transform="translate(-300 -637)" fill="#013c68"/>
</svg>
