<svg xmlns="http://www.w3.org/2000/svg" width="31.734" height="40" viewBox="0 0 31.734 40">
  <g id="Group_47219" data-name="Group 47219" transform="translate(-8078 -5513)">
    <path id="Path_73751" data-name="Path 73751" d="M98.769,0H78.088a1.6,1.6,0,0,0-1.6,1.6V38.4a1.6,1.6,0,0,0,1.6,1.6h26.133a1.6,1.6,0,0,0,1.6-1.6V7.053Z" transform="translate(8003.912 5513)" fill="#e1e6e9"/>
    <path id="Path_74167" data-name="Path 74167" d="M0,0H31.733V10.959H0Z" transform="translate(8078 5535.043)" fill="#f09c2f"/>
    <path id="Path_73755" data-name="Path 73755" d="M48.39,386.364l2.4,2.232v-2.232Z" transform="translate(8029.61 5159.638)" fill="#ae6c17"/>
    <path id="Path_73756" data-name="Path 73756" d="M337.335,7.053h7.052L337.335,0Z" transform="translate(7765.346 5513)" fill="#ebf0f3"/>
    <path id="Path_73757" data-name="Path 73757" d="M353.221,82.567l5.7,3.3v-3.3Z" transform="translate(7750.816 5437.485)" fill="#d5d6db"/>
    <path id="Path_74174" data-name="Path 74174" d="M.91-.19A.2.2,0,0,0,1.1,0h.93a.19.19,0,0,0,.19-.19V-2.95H5.48V-.19A.19.19,0,0,0,5.67,0h.92a.2.2,0,0,0,.19-.19V-6.81A.2.2,0,0,0,6.59-7H5.67a.19.19,0,0,0-.19.19v2.65H2.22V-6.81A.19.19,0,0,0,2.03-7H1.1a.2.2,0,0,0-.19.19Zm7.69,0A.19.19,0,0,0,8.79,0h4.07a.19.19,0,0,0,.19-.19v-.82a.19.19,0,0,0-.19-.19H9.9V-2.95h2.47a.19.19,0,0,0,.19-.19v-.83a.2.2,0,0,0-.19-.19H9.9V-5.8h2.96a.19.19,0,0,0,.19-.19v-.82A.19.19,0,0,0,12.86-7H8.79a.19.19,0,0,0-.19.19Zm5.88,0a.2.2,0,0,0,.19.19h.93a.2.2,0,0,0,.19-.19V-6.81A.2.2,0,0,0,15.6-7h-.93a.2.2,0,0,0-.19.19Zm2.62-3.3A3.585,3.585,0,0,0,20.71.1a3.432,3.432,0,0,0,2.43-.97.19.19,0,0,0,.01-.27l-.62-.64a.184.184,0,0,0-.25,0,2.4,2.4,0,0,1-1.53.57,2.264,2.264,0,0,1-2.24-2.31,2.267,2.267,0,0,1,2.23-2.33,2.366,2.366,0,0,1,1.54.59.16.16,0,0,0,.25,0l.61-.63a.186.186,0,0,0-.01-.28,3.384,3.384,0,0,0-2.42-.93A3.6,3.6,0,0,0,17.1-3.49Z" transform="translate(8083.067 5544.233)" fill="#fff"/>
  </g>
</svg>
