<svg id="fi-rr-info" xmlns="http://www.w3.org/2000/svg" width="33.263" height="33.263" viewBox="0 0 33.263 33.263">
  <path id="Path_133" data-name="Path 133" d="M16.631,0A16.631,16.631,0,1,0,33.263,16.631,16.631,16.631,0,0,0,16.631,0Zm0,30.491a13.86,13.86,0,1,1,13.86-13.86A13.86,13.86,0,0,1,16.631,30.491Z" transform="translate(0 0)" fill="#99b1c3"/>
  <path id="Path_134" data-name="Path 134" d="M12.772,10H11.386a1.386,1.386,0,1,0,0,2.772h1.386v8.316a1.386,1.386,0,0,0,2.772,0V12.772A2.772,2.772,0,0,0,12.772,10Z" transform="translate(3.86 3.86)" fill="#99b1c3"/>
  <ellipse id="Ellipse_10" data-name="Ellipse 10" cx="2.079" cy="2.079" rx="2.079" ry="2.079" transform="translate(14.552 6.93)" fill="#99b1c3"/>
</svg>
