<svg xmlns="http://www.w3.org/2000/svg" width="31.734" height="40" viewBox="0 0 31.734 40">
  <g id="Group_47211" data-name="Group 47211" transform="translate(-8077.999 -5513)">
    <path id="Path_73751" data-name="Path 73751" d="M98.769,0H78.088a1.6,1.6,0,0,0-1.6,1.6V38.4a1.6,1.6,0,0,0,1.6,1.6h26.133a1.6,1.6,0,0,0,1.6-1.6V7.053Z" transform="translate(8003.912 5513)" fill="#e1e6e9"/>
    <rect id="Rectangle_6384" data-name="Rectangle 6384" width="31.733" height="10.959" transform="translate(8077.999 5535.043)" fill="#0a6c80"/>
    <path id="Path_73755" data-name="Path 73755" d="M48.39,386.364l2.4,2.232v-2.232Z" transform="translate(8029.61 5159.638)" fill="#053943"/>
    <path id="Path_73756" data-name="Path 73756" d="M337.335,7.053h7.052L337.335,0Z" transform="translate(7765.346 5513)" fill="#ebf0f3"/>
    <path id="Path_73757" data-name="Path 73757" d="M353.221,82.567l5.7,3.3v-3.3Z" transform="translate(7750.816 5437.485)" fill="#d5d6db"/>
    <path id="Path_74168" data-name="Path 74168" d="M-.16-.63A1.917,1.917,0,0,0,1.36.1a2.035,2.035,0,0,0,2.1-2.19V-6.81A.19.19,0,0,0,3.27-7H2.33a.19.19,0,0,0-.19.19v4.72c0,.69-.41,1.01-.8,1.01A.87.87,0,0,1,.68-1.4a.193.193,0,0,0-.3-.01l-.52.53A.211.211,0,0,0-.16-.63Zm5.25.44A.19.19,0,0,0,5.28,0H6.2a.2.2,0,0,0,.19-.19V-2.54H7.64A2.249,2.249,0,0,0,9.87-4.79,2.237,2.237,0,0,0,7.63-7H5.28a.19.19,0,0,0-.19.19Zm1.3-3.57V-5.77H7.55a1,1,0,0,1,1.03.97A1.031,1.031,0,0,1,7.55-3.76Zm4.12.27A3.566,3.566,0,0,0,14.1.09a5.053,5.053,0,0,0,2.48-.65.192.192,0,0,0,.08-.16V-3.28a.188.188,0,0,0-.18-.19H14.56a.184.184,0,0,0-.19.19v.79a.182.182,0,0,0,.19.18h.8v.85a3.128,3.128,0,0,1-1.19.25A2.275,2.275,0,0,1,11.92-3.5a2.293,2.293,0,0,1,2.24-2.32,2.267,2.267,0,0,1,1.51.58.171.171,0,0,0,.26,0l.62-.65a.194.194,0,0,0-.01-.28A3.78,3.78,0,0,0,14.1-7.1,3.591,3.591,0,0,0,10.51-3.49Z" transform="translate(8085.191 5544)" fill="#fff"/>
  </g>
</svg>
