<svg xmlns="http://www.w3.org/2000/svg" width="17.847" height="15.463" viewBox="0 0 17.847 15.463">
  <g id="key" transform="translate(0.1 -2.2)">
    <path id="Path_73723" data-name="Path 73723" d="M20.206,22.412a2.206,2.206,0,1,1,2.206-2.206A2.209,2.209,0,0,1,20.206,22.412Zm0-3.309a1.1,1.1,0,1,0,1.1,1.1A1.1,1.1,0,0,0,20.206,19.1Z" transform="translate(-4.764 -4.849)" fill="#013c68" stroke="#013c68" stroke-width="0.2"/>
    <path id="Path_73724" data-name="Path 73724" d="M11.551,22.456A.552.552,0,0,1,11,21.9v-.735a.92.92,0,0,1,.919-.919h4.6a.551.551,0,1,1,0,1.1H12.1V21.9A.552.552,0,0,1,11.551,22.456Z" transform="translate(-2.912 -5.445)" fill="#013c68" stroke="#013c68" stroke-width="0.2"/>
    <path id="Path_73725" data-name="Path 73725" d="M13.551,22.456A.552.552,0,0,1,13,21.9V20.8a.551.551,0,0,1,1.1,0v1.1A.552.552,0,0,1,13.551,22.456Z" transform="translate(-3.441 -5.445)" fill="#013c68" stroke="#013c68" stroke-width="0.2"/>
    <path id="Path_73726" data-name="Path 73726" d="M5.083,15.009h-3.7A1.388,1.388,0,0,1,0,13.623V8.386A1.388,1.388,0,0,1,1.386,7H8.471A1.388,1.388,0,0,1,9.857,8.386v4.929a.462.462,0,0,1-.924,0V8.386a.463.463,0,0,0-.462-.462H1.386a.463.463,0,0,0-.462.462v5.237a.463.463,0,0,0,.462.462h3.7a.462.462,0,1,1,0,.924Z" transform="translate(0 -0.388)" fill="#013c68" stroke="#013c68" stroke-width="0.2"/>
    <path id="Path_73727" data-name="Path 73727" d="M8.7,5.237a.462.462,0,0,1-.462-.462V3.08a2.156,2.156,0,0,0-4.313,0V4.775a.462.462,0,0,1-.924,0V3.08a3.08,3.08,0,0,1,6.161,0V4.775A.462.462,0,0,1,8.7,5.237Z" transform="translate(-1.152 2.3)" fill="#013c68" stroke="#013c68" stroke-width="0.2"/>
  </g>
</svg>
