<svg xmlns="http://www.w3.org/2000/svg" width="17.14" height="17.14" viewBox="0 0 17.14 17.14">
  <g id="language" transform="translate(0.1 0.1)">
    <path id="Path_73718" data-name="Path 73718" d="M11.566,5.375a5.791,5.791,0,1,0-6.191,6.191,5.79,5.79,0,1,0,6.191-6.191ZM.993,5.79a4.8,4.8,0,0,1,9.579-.4A5.765,5.765,0,0,0,7.436,6.711L6.294,3.284a.5.5,0,0,0-.942,0L3.764,8.048a.5.5,0,1,0,.942.314l.24-.719h1.6a5.76,5.76,0,0,0-1.158,2.929A4.8,4.8,0,0,1,.993,5.79Zm5.377.86H5.276l.547-1.64Zm4.78,9.3a4.8,4.8,0,1,1,4.8-4.8A4.8,4.8,0,0,1,11.15,15.947Z" fill="#013c68" stroke="#013c68" stroke-width="0.2"/>
    <path id="Path_73719" data-name="Path 73719" d="M.608,5.418H2.229a.573.573,0,1,0,0-1.145H1.247A4.9,4.9,0,0,1,2.609,1.019a.55.55,0,0,0,.1-.8A.634.634,0,0,0,1.849.125C.021,1.5,0,4.71,0,4.846A.591.591,0,0,0,.608,5.418Z" transform="translate(8.779 8.47)" fill="#013c68" stroke="#013c68" stroke-width="0.2"/>
    <path id="Path_73720" data-name="Path 73720" d="M1.479,5.231a.719.719,0,0,1-.739.7A.719.719,0,0,1,0,5.231.742.742,0,1,1,1.479,5.231Z" transform="translate(11.811 6.066)" fill="#013c68" stroke="#013c68" stroke-width="0.2"/>
    <path id="Path_73721" data-name="Path 73721" d="M369.5,33.993a2.153,2.153,0,0,1,2.151,2.151.5.5,0,0,0,.993,0A3.147,3.147,0,0,0,369.5,33a.5.5,0,0,0,0,.993Z" transform="translate(-356.791 -31.908)" fill="#013c68" stroke="#013c68" stroke-width="0.2"/>
    <path id="Path_73722" data-name="Path 73722" d="M36.143,371.647a2.153,2.153,0,0,1-2.151-2.151.5.5,0,0,0-.993,0,3.147,3.147,0,0,0,3.143,3.143.5.5,0,0,0,0-.993Z" transform="translate(-31.908 -356.791)" fill="#013c68" stroke="#013c68" stroke-width="0.2"/>
  </g>
</svg>
