<svg xmlns="http://www.w3.org/2000/svg" width="20" height="22.275" viewBox="0 0 20 22.275">
  <g id="Group_46939" data-name="Group 46939" transform="translate(-20 -754.725)">
    <path id="Account" d="M220.922,658.275h-9.281a.928.928,0,1,1,0-1.856h9.281a.928.928,0,0,0,.928-.928v-3.852a1.513,1.513,0,0,0-.826-1.216,15.147,15.147,0,0,0-11.342,0,1.513,1.513,0,0,0-.826,1.216v5.708a.928.928,0,0,1-1.856,0v-5.708a3.332,3.332,0,0,1,1.986-2.942,16.993,16.993,0,0,1,12.734,0,3.332,3.332,0,0,1,1.986,2.942v3.852A2.784,2.784,0,0,1,220.922,658.275Zm-.928-17.634a4.641,4.641,0,1,0-4.641,4.641A4.641,4.641,0,0,0,219.994,640.641Zm-1.856,0a2.784,2.784,0,1,1-2.784-2.784A2.784,2.784,0,0,1,218.137,640.641Z" transform="translate(-187 118.725)" fill="#013c68"/>
    <g id="Ellipse_1613" data-name="Ellipse 1613" transform="translate(35 760)" fill="none" stroke="#013c68" stroke-width="1.5">
      <circle cx="2.5" cy="2.5" r="2.5" stroke="none"/>
      <circle cx="2.5" cy="2.5" r="1.75" fill="none"/>
    </g>
  </g>
</svg>
