<svg xmlns="http://www.w3.org/2000/svg" width="15.951" height="15.898" viewBox="0 0 15.951 15.898">
  <g id="logout" transform="translate(0.1 -0.75)">
    <path id="Path_73715" data-name="Path 73715" d="M7.849,16.548H1.962A1.965,1.965,0,0,1,0,14.586V2.812A1.965,1.965,0,0,1,1.962.85H7.849a.654.654,0,1,1,0,1.308H1.962a.655.655,0,0,0-.654.654V14.586a.655.655,0,0,0,.654.654H7.849a.654.654,0,0,1,0,1.308Z" fill="#fd5675" stroke="#fd5675" stroke-width="0.2"/>
    <path id="Path_73716" data-name="Path 73716" d="M178.6,236.046h-7.849a.654.654,0,0,1,0-1.308H178.6a.654.654,0,0,1,0,1.308Z" transform="translate(-164.867 -226.693)" fill="#fd5675" stroke="#fd5675" stroke-width="0.2"/>
    <path id="Path_73717" data-name="Path 73717" d="M340.848,116.3a.654.654,0,0,1-.459-1.12l3.5-3.459-3.5-3.459a.654.654,0,1,1,.918-.931l3.977,3.925a.654.654,0,0,1,0,.931l-3.977,3.925A.651.651,0,0,1,340.848,116.3Z" transform="translate(-329.728 -103.027)" fill="#fd5675" stroke="#fd5675" stroke-width="0.2"/>
  </g>
</svg>
