<svg xmlns="http://www.w3.org/2000/svg" width="18.723" height="22.069" viewBox="0 0 18.723 22.069">
  <g id="man-raising-hand-icon" transform="translate(-21.912 -15.639)">
    <path id="Path_73794" data-name="Path 73794" d="M23.188,21.429v2.937a2.965,2.965,0,0,0,.838,2.125c1.312,1.394,2.61,2.8,3.927,4.193a1.083,1.083,0,0,1,.332.832c-.02,1.66-.01,3.32-.01,4.979v.2a.478.478,0,0,1-.47.526c-.276-.005-.449-.2-.455-.536,0-1.66-.005-3.32.005-4.979a.743.743,0,0,0-.214-.541c-1.282-1.364-2.553-2.737-3.835-4.1a3.587,3.587,0,0,1-1.027-2.462c-.02-2.13-.026-4.254,0-6.384a2.3,2.3,0,0,1,4.586-.082c.041.628.02,1.261.02,1.89,0,1.267.005,2.538-.005,3.8a.6.6,0,0,0,.189.47c1.185,1.175,2.359,2.359,3.549,3.529a.583.583,0,0,0,.373.153c1.721.01,3.437.031,5.158,0a3.871,3.871,0,0,1,4.065,3.759c.123,1.66.051,3.335.061,5a.462.462,0,1,1-.919-.036c-.005-1.389,0-2.773,0-4.162a4.4,4.4,0,0,0-.4-1.982,2.737,2.737,0,0,0-2.579-1.65c-1.879-.015-3.764-.01-5.643,0a.75.75,0,0,1-.587-.24Q28.18,26.692,26.2,24.723a.745.745,0,0,1-.235-.567q.008-2.834,0-5.669a2.261,2.261,0,0,0-.051-.557,1.37,1.37,0,0,0-1.486-1.016,1.384,1.384,0,0,0-1.236,1.4C23.178,19.356,23.188,20.393,23.188,21.429Z" transform="translate(0)" fill="#013c68" stroke="#013c68" stroke-width="0.7"/>
    <path id="Path_73795" data-name="Path 73795" d="M152.874,59.577a3.788,3.788,0,1,1,3.8-3.77A3.792,3.792,0,0,1,152.874,59.577Zm3.041-3.69a3.03,3.03,0,1,0-3.2,2.932A3.033,3.033,0,0,0,155.915,55.887Z" transform="translate(-119.53 -34.34)" fill="#013c68" stroke="#013c68" stroke-width="0.7"/>
    <path id="Path_73796" data-name="Path 73796" d="M303.519,343.549v3.782c0,.2-.036.33-.235.381a.628.628,0,0,1-.444-.046.443.443,0,0,1-.229-.32c-.015-1.215-.01-7.431-.005-8.646a.47.47,0,0,1,.47-.5.461.461,0,0,1,.449.511C303.524,339.329,303.519,342.941,303.519,343.549Z" transform="translate(-307.457 339.958) rotate(-90)" fill="#013c68" stroke="#013c68" stroke-width="0.7"/>
  </g>
</svg>
