<svg xmlns="http://www.w3.org/2000/svg" width="16.189" height="16.079" viewBox="0 0 16.189 16.079">
  <g id="message" transform="translate(-1.048 0.1)">
    <path id="Path_73728" data-name="Path 73728" d="M133.473,143.544l2.028-1.877a1.581,1.581,0,0,0-2.028-2.41,1.58,1.58,0,0,0-2.028,2.41Zm-.91-3.644c.409,0,.544.323.91.641.365-.318.5-.641.91-.641a.651.651,0,0,1,.465,1.1l-1.375,1.273L132.1,141A.651.651,0,0,1,132.563,139.9Z" transform="translate(-125.724 -134.659)" fill="#013c68" stroke="#013a64" stroke-width="0.2"/>
    <path id="Path_73729" data-name="Path 73729" d="M15.572,13.891a5.786,5.786,0,0,0-1.467-8.8A6.513,6.513,0,1,0,2.868,10.826l-1.623,2.2H6.22a5.782,5.782,0,0,0,4.987,2.853h5.831ZM3.8,10.461A5.583,5.583,0,1,1,7.749,12.1H3.088l1-1.352Zm7.406,4.488a4.851,4.851,0,0,1-3.869-1.923h.411a6.52,6.52,0,0,0,6.51-6.706,4.854,4.854,0,0,1,.38,7.207l-.283.283.84,1.139Z" transform="translate(0)" fill="#013c68" stroke="#013a64" stroke-width="0.2"/>
  </g>
</svg>
