<svg xmlns="http://www.w3.org/2000/svg" width="229.498" height="171.004" viewBox="0 0 229.498 171.004">
  <g id="not_found" data-name="not found" transform="translate(0 -55)">
    <g id="freepik--background-complete--inject-2" transform="translate(0 55)">
      <rect id="Rectangle_10245" data-name="Rectangle 10245" width="229.498" height="0.115" transform="translate(0 150.275)" fill="#ebebeb"/>
      <rect id="Rectangle_10246" data-name="Rectangle 10246" width="15.202" height="0.115" transform="translate(191.301 157.661)" fill="#ebebeb"/>
      <rect id="Rectangle_10247" data-name="Rectangle 10247" width="3.989" height="0.115" transform="translate(148.04 158.909)" fill="#ebebeb"/>
      <rect id="Rectangle_10248" data-name="Rectangle 10248" width="8.808" height="0.115" transform="translate(182.033 153.401)" fill="#ebebeb"/>
      <rect id="Rectangle_10249" data-name="Rectangle 10249" width="19.824" height="0.115" transform="translate(24.079 154.172)" fill="#ebebeb"/>
      <rect id="Rectangle_10250" data-name="Rectangle 10250" width="2.905" height="0.115" transform="translate(47.993 154.172)" fill="#ebebeb"/>
      <rect id="Rectangle_10251" data-name="Rectangle 10251" width="42.999" height="0.115" transform="translate(60.344 156.109)" fill="#ebebeb"/>
      <path id="Path_77098" data-name="Path 77098" d="M129.454,184.8H40.826a2.621,2.621,0,0,1-2.616-2.621V57.6A2.621,2.621,0,0,1,40.826,55h88.628a2.621,2.621,0,0,1,2.621,2.621V182.183A2.621,2.621,0,0,1,129.454,184.8ZM40.826,55.092a2.506,2.506,0,0,0-2.5,2.506V182.183a2.506,2.506,0,0,0,2.5,2.506h88.628a2.511,2.511,0,0,0,2.506-2.506V57.6a2.511,2.511,0,0,0-2.506-2.506Z" transform="translate(-20.672 -55)" fill="#ebebeb"/>
      <path id="Path_77099" data-name="Path 77099" d="M345.753,184.8H257.121a2.625,2.625,0,0,1-2.621-2.621V57.6a2.625,2.625,0,0,1,2.621-2.6h88.632a2.621,2.621,0,0,1,2.612,2.6V182.183A2.621,2.621,0,0,1,345.753,184.8ZM257.121,55.092a2.511,2.511,0,0,0-2.506,2.506V182.183a2.511,2.511,0,0,0,2.506,2.506h88.632a2.511,2.511,0,0,0,2.506-2.506V57.6a2.511,2.511,0,0,0-2.506-2.506Z" transform="translate(-137.685 -55)" fill="#ebebeb"/>
      <path id="Path_77100" data-name="Path 77100" d="M359.26,165.919h22.046l-.34-2.979H358.92Z" transform="translate(-194.177 -113.396)" fill="#f5f5f5"/>
      <path id="Path_77101" data-name="Path 77101" d="M362.7,196.279h22.046l-.34-2.979H362.36Z" transform="translate(-196.038 -129.821)" fill="#f5f5f5"/>
      <path id="Path_77102" data-name="Path 77102" d="M366.14,226.633h22.046l-.34-2.983H365.8Z" transform="translate(-197.899 -146.24)" fill="#f5f5f5"/>
      <path id="Path_77103" data-name="Path 77103" d="M369.575,256.989h22.05l-.34-2.979H369.24Z" transform="translate(-199.76 -162.665)" fill="#f5f5f5"/>
      <path id="Path_77104" data-name="Path 77104" d="M373.015,287.343h22.046l-.335-2.983H372.68Z" transform="translate(-201.621 -179.085)" fill="#f5f5f5"/>
      <path id="Path_77105" data-name="Path 77105" d="M376.455,317.7H398.5l-.335-2.979H376.12Z" transform="translate(-203.482 -195.509)" fill="#f5f5f5"/>
      <path id="Path_77106" data-name="Path 77106" d="M379.9,348.053h22.046l-.335-2.983H379.56Z" transform="translate(-205.343 -211.929)" fill="#f5f5f5"/>
      <path id="Path_77107" data-name="Path 77107" d="M414.27,256.7h3.452L405.632,150.02H402.18Z" transform="translate(-217.581 -106.406)" fill="#ebebeb"/>
      <path id="Path_77108" data-name="Path 77108" d="M365.325,256.7h3.456L356.692,150.02H353.24Z" transform="translate(-191.104 -106.406)" fill="#ebebeb"/>
      <rect id="Rectangle_10252" data-name="Rectangle 10252" width="56.851" height="3.277" transform="translate(189.276 29.054) rotate(180)" fill="#f0f0f0"/>
      <path id="Path_77109" data-name="Path 77109" d="M303.744,90.84l-.335-.459a.634.634,0,0,0-.514-.271h-2.332a.56.56,0,0,0-.487.271l-.275.459a.565.565,0,0,1-.487.271h-1.377a.565.565,0,0,0-.569.606l.459,7.8a.647.647,0,0,0,.633.606h11.016a.56.56,0,0,0,.565-.606l-.459-7.8a.647.647,0,0,0-.633-.606h-4.691a.633.633,0,0,1-.514-.271Z" transform="translate(-160.876 -73.995)" fill="#e0e0e0"/>
      <path id="Path_77110" data-name="Path 77110" d="M311.394,93.91H301.3a.849.849,0,0,0-.831.757l-.61,6.747a.684.684,0,0,0,.7.757h10.1a.849.849,0,0,0,.831-.757l.606-6.747a.679.679,0,0,0-.693-.757Z" transform="translate(-162.221 -76.05)" fill="#e6e6e6"/>
      <path id="Path_77111" data-name="Path 77111" d="M343.744,90.84l-.335-.459a.633.633,0,0,0-.514-.271h-2.332a.56.56,0,0,0-.487.271l-.275.459a.565.565,0,0,1-.487.271h-1.377a.565.565,0,0,0-.569.606l.459,7.8a.647.647,0,0,0,.633.606h11.016a.56.56,0,0,0,.565-.606l-.459-7.8a.647.647,0,0,0-.633-.606h-4.691a.633.633,0,0,1-.514-.271Z" transform="translate(-182.517 -73.995)" fill="#e0e0e0"/>
      <path id="Path_77112" data-name="Path 77112" d="M351.394,93.91H341.3a.849.849,0,0,0-.831.757l-.61,6.747a.684.684,0,0,0,.7.757h10.1a.849.849,0,0,0,.831-.757l.606-6.747a.679.679,0,0,0-.693-.757Z" transform="translate(-183.861 -76.05)" fill="#e6e6e6"/>
      <path id="Path_77113" data-name="Path 77113" d="M383.744,90.84l-.335-.459a.633.633,0,0,0-.514-.271h-2.332a.56.56,0,0,0-.487.271l-.275.459a.565.565,0,0,1-.487.271h-1.377a.565.565,0,0,0-.569.606l.459,7.8a.647.647,0,0,0,.633.606h11.016a.56.56,0,0,0,.565-.606l-.459-7.8a.647.647,0,0,0-.633-.606h-4.691a.634.634,0,0,1-.514-.271Z" transform="translate(-204.157 -73.995)" fill="#e0e0e0"/>
      <path id="Path_77114" data-name="Path 77114" d="M391.394,93.91H381.3a.849.849,0,0,0-.831.757l-.61,6.747a.684.684,0,0,0,.7.757h10.1a.849.849,0,0,0,.831-.757l.606-6.747a.679.679,0,0,0-.693-.757Z" transform="translate(-205.501 -76.05)" fill="#e6e6e6"/>
      <rect id="Rectangle_10253" data-name="Rectangle 10253" width="66.89" height="42.549" transform="translate(31.584 21.766)" fill="#f5f5f5"/>
      <rect id="Rectangle_10254" data-name="Rectangle 10254" width="66.89" height="2.882" transform="translate(31.584 21.766)" fill="#e0e0e0"/>
      <path id="Path_77115" data-name="Path 77115" d="M210.324,104.532a.872.872,0,1,1-.872-.872A.872.872,0,0,1,210.324,104.532Z" transform="translate(-112.843 -81.325)" fill="#fafafa"/>
      <path id="Path_77116" data-name="Path 77116" d="M204.034,104.532a.872.872,0,1,1-.872-.872.872.872,0,0,1,.872.872Z" transform="translate(-109.44 -81.325)" fill="#fafafa"/>
      <path id="Path_77117" data-name="Path 77117" d="M197.744,104.532a.868.868,0,1,1-.252-.616A.872.872,0,0,1,197.744,104.532Z" transform="translate(-106.037 -81.325)" fill="#fafafa"/>
      <path id="Path_77118" data-name="Path 77118" d="M85.806,118.519l-.413-.574a.794.794,0,0,0-.643-.335h-2.9a.693.693,0,0,0-.6.335l-.344.574a.707.707,0,0,1-.606.335h-1.73a.7.7,0,0,0-.7.771l.56,9.689a.8.8,0,0,0,.789.753H92.939a.7.7,0,0,0,.7-.753l-.569-9.689a.8.8,0,0,0-.789-.753H86.444a.8.8,0,0,1-.638-.353Z" transform="translate(-42.123 -88.872)" fill="#e0e0e0"/>
      <path id="Path_77119" data-name="Path 77119" d="M95.356,122.33H82.784a1.06,1.06,0,0,0-1.037.918l-.753,8.413a.849.849,0,0,0,.863.941H94.429a1.051,1.051,0,0,0,1.033-.941l.757-8.39a.849.849,0,0,0-.863-.941Z" transform="translate(-43.815 -91.426)" fill="#e6e6e6"/>
      <path id="Path_77120" data-name="Path 77120" d="M131.413,118.519l-.413-.574a.794.794,0,0,0-.643-.335h-2.9a.693.693,0,0,0-.6.335l-.344.574a.707.707,0,0,1-.606.335H124.17a.7.7,0,0,0-.7.753l.56,9.689a.8.8,0,0,0,.789.753h13.724a.7.7,0,0,0,.7-.753l-.555-9.671a.8.8,0,0,0-.789-.753h-5.848a.8.8,0,0,1-.638-.353Z" transform="translate(-66.795 -88.872)" fill="#e0e0e0"/>
      <path id="Path_77121" data-name="Path 77121" d="M140.965,122.33H128.394a1.056,1.056,0,0,0-1.037.918l-.753,8.39a.845.845,0,0,0,.863.941h12.572a1.051,1.051,0,0,0,1.033-.941l.757-8.39a.849.849,0,0,0-.863-.918Z" transform="translate(-68.49 -91.426)" fill="#e6e6e6"/>
      <path id="Path_77122" data-name="Path 77122" d="M177.028,118.519l-.413-.574a.794.794,0,0,0-.643-.335h-2.9a.693.693,0,0,0-.6.335l-.349.574a.7.7,0,0,1-.6.335h-1.73a.7.7,0,0,0-.7.753l.56,9.689a.8.8,0,0,0,.789.753h13.724a.7.7,0,0,0,.7-.753l-.56-9.671a.8.8,0,0,0-.789-.753h-5.848A.794.794,0,0,1,177.028,118.519Z" transform="translate(-91.476 -88.872)" fill="#e0e0e0"/>
      <path id="Path_77123" data-name="Path 77123" d="M186.571,122.33H174a1.056,1.056,0,0,0-1.033.918l-.753,8.39a.845.845,0,0,0,.863.941h12.572a1.051,1.051,0,0,0,1.033-.941l.757-8.39a.849.849,0,0,0-.868-.918Z" transform="translate(-93.165 -91.425)" fill="#e6e6e6"/>
      <path id="Path_77124" data-name="Path 77124" d="M85.808,157.139l-.413-.569a.8.8,0,0,0-.643-.34h-2.9a.693.693,0,0,0-.6.34l-.344.569a.7.7,0,0,1-.606.335H78.57a.7.7,0,0,0-.7.757l.56,9.689a.8.8,0,0,0,.789.753H92.941a.7.7,0,0,0,.7-.753l-.569-9.689a.8.8,0,0,0-.789-.757H86.446a.789.789,0,0,1-.638-.335Z" transform="translate(-42.125 -109.766)" fill="#e0e0e0"/>
      <path id="Path_77125" data-name="Path 77125" d="M95.356,161H82.784a1.06,1.06,0,0,0-1.037.918l-.753,8.4a.849.849,0,0,0,.863.941H94.429a1.056,1.056,0,0,0,1.033-.941l.757-8.4a.849.849,0,0,0-.863-.918Z" transform="translate(-43.815 -112.346)" fill="#e6e6e6"/>
      <path id="Path_77126" data-name="Path 77126" d="M131.412,157.139,131,156.57a.8.8,0,0,0-.643-.34h-2.9a.693.693,0,0,0-.6.34l-.344.569a.7.7,0,0,1-.606.335h-1.735a.7.7,0,0,0-.7.757l.56,9.689a.8.8,0,0,0,.789.753H138.54a.7.7,0,0,0,.7-.753l-.56-9.689a.8.8,0,0,0-.789-.757H132.05A.789.789,0,0,1,131.412,157.139Z" transform="translate(-66.795 -109.766)" fill="#e0e0e0"/>
      <path id="Path_77127" data-name="Path 77127" d="M140.966,161H128.394a1.056,1.056,0,0,0-1.037.918l-.753,8.39a.849.849,0,0,0,.863.941h12.572a1.056,1.056,0,0,0,1.033-.941l.757-8.39a.849.849,0,0,0-.863-.918Z" transform="translate(-68.491 -112.346)" fill="#e6e6e6"/>
      <path id="Path_77128" data-name="Path 77128" d="M177.028,157.139l-.413-.569a.8.8,0,0,0-.643-.34h-2.9a.693.693,0,0,0-.6.34l-.349.569a.684.684,0,0,1-.6.335h-1.73a.7.7,0,0,0-.7.757l.56,9.689a.8.8,0,0,0,.789.753H184.16a.7.7,0,0,0,.7-.753l-.56-9.689a.8.8,0,0,0-.789-.757h-5.848A.785.785,0,0,1,177.028,157.139Z" transform="translate(-91.475 -109.766)" fill="#e0e0e0"/>
      <path id="Path_77129" data-name="Path 77129" d="M186.572,161H174a1.056,1.056,0,0,0-1.033.918l-.753,8.39a.849.849,0,0,0,.863.941h12.572a1.056,1.056,0,0,0,1.033-.941l.757-8.39a.849.849,0,0,0-.867-.918Z" transform="translate(-93.166 -112.346)" fill="#e6e6e6"/>
      <path id="Path_77130" data-name="Path 77130" d="M91.724,324.961c0-.161.546-16.115,3.14-18.64,2.524-2.451,5.421-.092,5.545,0l.257-.312c-.032-.028-3.3-2.7-6.086,0-2.708,2.635-3.241,18.25-3.259,18.915Z" transform="translate(-49.404 -190.144)" fill="#e0e0e0"/>
      <path id="Path_77131" data-name="Path 77131" d="M85.277,323.631c.023-.193,1.776-19.154-5.15-27.081l-.308.266c6.812,7.8,5.072,26.622,5.049,26.792Z" transform="translate(-43.183 -185.679)" fill="#e0e0e0"/>
      <path id="Path_77132" data-name="Path 77132" d="M92.051,319.883l.409-.028c0-.216-1.377-21.573,3.722-26.227l-.275-.3C90.683,298.131,92,319,92.051,319.883Z" transform="translate(-49.699 -183.937)" fill="#e0e0e0"/>
      <path id="Path_77133" data-name="Path 77133" d="M79.242,330.978h.409c0-.592-.17-14.417-4.1-16.666a2.754,2.754,0,0,0-2.538-.248c-2.378.982-3.553,5.205-3.6,5.389l.395.106c0-.041,1.17-4.214,3.364-5.122a2.4,2.4,0,0,1,2.18.225C79.076,316.8,79.242,330.835,79.242,330.978Z" transform="translate(-37.551 -195.046)" fill="#e0e0e0"/>
      <path id="Path_77134" data-name="Path 77134" d="M94.091,331.747l.409-.023c0-.106-.592-10.924,2.327-14.738a2.673,2.673,0,0,1,2.295-1.3c1.914.133,3.516,2.933,3.534,2.961l.353-.2c-.073-.124-1.73-3.016-3.86-3.167a3.093,3.093,0,0,0-2.639,1.469C93.489,320.653,94.068,331.3,94.091,331.747Z" transform="translate(-50.872 -195.806)" fill="#e0e0e0"/>
      <path id="Path_77135" data-name="Path 77135" d="M90.839,318.9c.078-1.051,1.909-25.75-1.308-30.1l-.33.239c3.13,4.232,1.253,29.578,1.235,29.835Z" transform="translate(-48.258 -181.487)" fill="#e0e0e0"/>
      <path id="Path_77136" data-name="Path 77136" d="M67.685,317.905s1.932.711,1.377,2.391-6.678,4.448-6.678,4.448-2.557-2.345-.211-6.155S67.635,316.7,67.685,317.905Z" transform="translate(-33.1 -196.386)" fill="#ebebeb"/>
      <path id="Path_77137" data-name="Path 77137" d="M91.073,311.871s-2.056-.087-2.176,1.685,4.457,6.678,4.457,6.678,3.259-1.18,2.561-5.6S91.582,310.784,91.073,311.871Z" transform="translate(-48.093 -193.551)" fill="#ebebeb"/>
      <path id="Path_77138" data-name="Path 77138" d="M95.934,291.462s-1.377-.147-1.262-.982,5.329-2.983,8.409.491c0,0-1.974,3.387-4.824,3.433S95.934,291.462,95.934,291.462Z" transform="translate(-51.214 -181.624)" fill="#ebebeb"/>
      <path id="Path_77139" data-name="Path 77139" d="M85.021,284.661s1.244.6,1.593-.17-2.947-5.347-7.394-4.03c0,0-.119,3.92,2.295,5.462S85.021,284.661,85.021,284.661Z" transform="translate(-42.857 -176.847)" fill="#ebebeb"/>
      <path id="Path_77140" data-name="Path 77140" d="M105.242,316.784s-.946-.767.073-1.138,6.031-.266,6.086,4.7c0,0-5.834.968-6.559-.918S105.242,316.784,105.242,316.784Z" transform="translate(-56.588 -195.94)" fill="#ebebeb"/>
      <path id="Path_77141" data-name="Path 77141" d="M72.825,292.512s.946-.762-.073-1.134-6.031-.243-6.082,4.7c0,0,5.834.973,6.554-.918S72.825,292.512,72.825,292.512Z" transform="translate(-36.069 -182.812)" fill="#ebebeb"/>
      <path id="Path_77142" data-name="Path 77142" d="M83.831,301.979s.083-.918-.666-.565-3.36,3.181-.652,5.852c0,0,3.64-2.694,2.983-4.1S83.831,301.979,83.831,301.979Z" transform="translate(-43.991 -188.267)" fill="#ebebeb"/>
      <path id="Path_77143" data-name="Path 77143" d="M106.9,304.634s-.565-.739.266-.831,4.539.918,3.672,4.59c0,0-4.521-.34-4.714-1.882S106.9,304.634,106.9,304.634Z" transform="translate(-57.398 -189.6)" fill="#ebebeb"/>
      <path id="Path_77144" data-name="Path 77144" d="M72.591,361.1H88.1L89.78,344.11H70.92Z" transform="translate(-38.368 -211.41)" fill="#f0f0f0"/>
      <rect id="Rectangle_10255" data-name="Rectangle 10255" width="20.517" height="3.75" transform="translate(52.243 134.573) rotate(180)" fill="#e6e6e6"/>
    </g>
    <g id="freepik--Shadow--inject-2" transform="translate(25.754 215.612)">
      <ellipse id="freepik--path--inject-2" cx="88.995" cy="5.196" rx="88.995" ry="5.196" fill="#f5f5f5"/>
    </g>
    <g id="freepik--Character--inject-2" transform="translate(40.126 124.95)">
      <path id="Path_77145" data-name="Path 77145" d="M172.863,240.12c-.041,1.689-.349,3.837-1.675,5.049-1.707,1.538-4.59.459-5.678-1.313" transform="translate(-129.667 -225.101)" fill="none" stroke="#263238" stroke-linecap="round" stroke-linejoin="round" stroke-width="0.707"/>
      <path id="Path_77146" data-name="Path 77146" d="M178.376,268.35l4.131,3.144s1.06.142,1.354.528,1.294,3.14,1.074,3.475-2.446.8-2.85.335a10.312,10.312,0,0,1-.886-3.213l-5.329-3.475Z" transform="translate(-135.272 -240.374)" fill="#eec1bb"/>
      <path id="Path_77147" data-name="Path 77147" d="M168.962,248.328l-1.446,2.474s-7.578-4.741-8.817-5.508a7.918,7.918,0,0,1-1.5-2.1c-2.373-4.131-6.063-12.879-2.589-14.614,1.9-.95,3,2.07,3,2.07s.22.959.555,2.295c.133.546.285,1.161.459,1.8h0c.767,3,1.758,6.61,2.231,7.036C161.668,242.591,168.962,248.328,168.962,248.328Z" transform="translate(-123.003 -218.759)" fill="#fd5675"/>
      <path id="Path_77148" data-name="Path 77148" d="M157.2,243.226c-2.373-4.131-6.063-12.879-2.589-14.614,1.9-.95,3,2.07,3,2.07s.22.959.555,2.295a13.259,13.259,0,0,1,.459,1.8h0C159,236.952,159.222,240.5,157.2,243.226Z" transform="translate(-123.003 -218.775)" opacity="0.2"/>
      <path id="Path_77149" data-name="Path 77149" d="M123.411,231.967s-2.469.845-6.614-1.046c-1.808-.822-6.187-5.292-6.187-5.292s3.764-5.568,14.16-7.578c0,0,6.83.886,11.984,12.012C136.754,230.062,131.705,232.811,123.411,231.967Z" transform="translate(-99.966 -213.161)" fill="#fd5675"/>
      <path id="Path_77150" data-name="Path 77150" d="M153.327,262.39l3.277,4.039s1,.39,1.193.835.509,3.355.216,3.631-2.566.2-2.85-.353a9.932,9.932,0,0,1-.092-3.346l-4.351-4.641Z" transform="translate(-121.666 -237.149)" fill="#eec1bb"/>
      <path id="Path_77151" data-name="Path 77151" d="M149.626,389.129l-2.786.491-1.138-3.8-1.042-3.484,3.208-1.12.932,4.186Z" transform="translate(-118.387 -301.437)" fill="#e4897b"/>
      <path id="Path_77152" data-name="Path 77152" d="M148.824,385.51l-3.1.413L144.67,382.4l3.208-1.138Z" transform="translate(-118.393 -301.458)" opacity="0.2"/>
      <path id="Path_77153" data-name="Path 77153" d="M110.613,391.61h-2.827l-.464-3.979L106.9,384l3.36-.555.188,4.324Z" transform="translate(-97.959 -302.638)" fill="#e4897b"/>
      <path id="Path_77154" data-name="Path 77154" d="M110.448,387.806l-3.126-.138-.422-3.649,3.36-.569Z" transform="translate(-97.959 -302.643)" opacity="0.2"/>
      <path id="Path_77155" data-name="Path 77155" d="M113.3,404.053a4.792,4.792,0,0,0-1.51-.822h0s-1.643-1.625-2.433-6.532l-2.148-.56a1.836,1.836,0,0,0-1.955.767,1,1,0,0,0-.138.28,12.56,12.56,0,0,0-.234,1.616,44.482,44.482,0,0,0-.032,5.384h.39l.156-3.378c.055-1.147.918.2,1.184,1.432s.785,2.552,3.3,2.612C112.825,404.889,114.064,404.769,113.3,404.053Z" transform="translate(-96.815 -309.481)" fill="#263238"/>
      <path id="Path_77156" data-name="Path 77156" d="M154.163,403.333a4.741,4.741,0,0,0-1.51-.822h0s-1.639-1.629-2.428-6.532l-2.153-.56a1.836,1.836,0,0,0-1.955.762.95.95,0,0,0-.133.285,11.572,11.572,0,0,0-.23,1.593,43.506,43.506,0,0,0-.032,5.384h.386l.156-3.378c.06-1.147.918.2,1.189,1.432s.785,2.552,3.3,2.612C153.685,404.168,154.906,404.053,154.163,403.333Z" transform="translate(-118.921 -309.091)" fill="#263238"/>
      <path id="Path_77157" data-name="Path 77157" d="M118.113,303.634l-4.59.808c-4.622-11.507-7.9-21.114-10.226-29.077-1.248-4.3-2.295-8.129-3.039-11.521l.142,12.526v28.215H95.9c-10.819-51.532-12.14-60.418,1.024-69.308l1.4-1.276s.459,2.35,4.438,4.769a17.543,17.543,0,0,0,7.523,2.157l-3.02,2.873.61,4.484,5.283,27.306Z" transform="translate(-87.42 -221.79)" fill="#263238"/>
      <g id="Group_47204" data-name="Group 47204" transform="translate(0 12.21)">
        <path id="Path_77158" data-name="Path 77158" d="M118.113,303.634l-4.59.808c-4.622-11.507-7.9-21.114-10.226-29.077-1.248-4.3-2.295-8.129-3.039-11.521l.142,12.526v28.215H95.9c-10.819-51.532-12.14-60.418,1.024-69.308l1.4-1.276s.459,2.35,4.438,4.769a17.543,17.543,0,0,0,7.523,2.157l-3.02,2.873.61,4.484,5.283,27.306Z" transform="translate(-87.42 -234)" fill="#013c68"/>
      </g>
      <path id="Path_77159" data-name="Path 77159" d="M118.5,296.383c-1.248-4.3-2.222-8.129-2.97-11.521a105.844,105.844,0,0,1,.872-12.012S118.4,288.346,118.5,296.383Z" transform="translate(-102.628 -242.808)" opacity="0.2"/>
      <path id="Path_77160" data-name="Path 77160" d="M109.53,234s3.819,5.049,12.54,6.6l-1.634,1.354a19.416,19.416,0,0,1-12.306-6.655Z" transform="translate(-98.624 -221.79)"/>
      <path id="Path_77161" data-name="Path 77161" d="M128.593,246.471a.7.7,0,0,0-.4-.386l-1.377-.56a.812.812,0,0,0-.968.234l-.487.689a.528.528,0,0,0-.064.5.661.661,0,0,0,.34.358l.06.028,1.377.56a.826.826,0,0,0,.968-.239l.482-.684A.542.542,0,0,0,128.593,246.471Zm-1.377,1.134-1.377-.56a.34.34,0,0,1-.193-.188.257.257,0,0,1,.032-.243l.487-.684a.386.386,0,0,1,.459-.115l1.377.56h.028a.321.321,0,0,1,.165.174.257.257,0,0,1-.032.243l-.073.1a.152.152,0,0,0-.046-.028l-.386-.161a.271.271,0,0,0-.34.092.2.2,0,0,0,.119.289l.381.161h0l-.156.225a.4.4,0,0,1-.422.133Z" transform="translate(-107.893 -227.987)" fill="#fff"/>
      <path id="Path_77162" data-name="Path 77162" d="M166.49,213.8a6.426,6.426,0,0,1,1.308,5.049c-.326,2.676-1.17,6.564-.7,8.992s-.794,4.81-1.942,4.856A3.306,3.306,0,0,0,166.5,230.2c-.06-1.483-.459-3.966-.459-3.966s-.2,2.506-1.836,3.456-5.724-.6-7.032-4.429-3.406-4.879-4.448-6.541-.987-3.213,1.542-4.7S164.314,211.1,166.49,213.8Z" transform="translate(-122.408 -210.04)" fill="#013c68"/>
      <path id="Path_77163" data-name="Path 77163" d="M153.7,231.491l-1.2-.633h0c-.918,1.4-4.512,0-4.512,0-1.588-2.809.849-6.688.849-6.688.688,1.271,3.062,1.271,3.566,1.248h.1Z" transform="translate(-119.896 -216.472)" fill="#eec1bb"/>
      <path id="Path_77164" data-name="Path 77164" d="M156.975,232.963l-1.2-.633h0a6.665,6.665,0,0,0-2.263-.5,6.352,6.352,0,0,1,1.8-4.7,1.317,1.317,0,0,1,.363-.234h.1Z" transform="translate(-123.175 -217.944)" opacity="0.2"/>
      <path id="Path_77165" data-name="Path 77165" d="M175.721,213.56s4.351,2.111,2.988,5.829a5.967,5.967,0,0,1-5.049,3.9Z" transform="translate(-134.076 -210.732)" fill="#013c68"/>
      <path id="Path_77166" data-name="Path 77166" d="M165.454,216.149c3.084,1.776,3.13,4,1.524,7.312-2.006,4.131-4.512,6.458-7.886,3.387C154.512,222.663,160.323,213.2,165.454,216.149Z" transform="translate(-125.297 -211.83)" fill="#eec1bb"/>
      <path id="Path_77167" data-name="Path 77167" d="M173.094,229.86a7.541,7.541,0,0,0,.161,1.8.982.982,0,0,1-1.014-.119Z" transform="translate(-133.308 -219.55)" fill="#d4827d"/>
      <path id="Path_77168" data-name="Path 77168" d="M169.462,226.214c-.142.257-.395.386-.565.294s-.2-.376-.055-.633.39-.39.56-.3S169.6,225.929,169.462,226.214Z" transform="translate(-131.42 -217.217)" fill="#013c68"/>
      <path id="Path_77169" data-name="Path 77169" d="M170,225.51l.679.083S170.147,225.914,170,225.51Z" transform="translate(-132.096 -217.197)" fill="#013c68"/>
      <path id="Path_77170" data-name="Path 77170" d="M176.486,229.836c-.138.257-.39.39-.56.3s-.2-.381-.06-.638.395-.39.565-.294S176.628,229.579,176.486,229.836Z" transform="translate(-135.223 -219.178)" fill="#013c68"/>
      <path id="Path_77171" data-name="Path 77171" d="M177,229.18l.679.087S177.156,229.584,177,229.18Z" transform="translate(-135.883 -219.182)" fill="#013c68"/>
      <path id="Path_77172" data-name="Path 77172" d="M171.006,221.822a1.836,1.836,0,0,0-1.606-.3" transform="translate(-131.772 -215)" fill="none" stroke="#013c68" stroke-linecap="round" stroke-linejoin="round" stroke-width="0.707"/>
      <path id="Path_77173" data-name="Path 77173" d="M178,224.79a1.652,1.652,0,0,1,1.083.964" transform="translate(-136.424 -216.807)" fill="none" stroke="#013c68" stroke-linecap="round" stroke-linejoin="round" stroke-width="0.707"/>
      <path id="Path_77174" data-name="Path 77174" d="M158.76,217.316s2.905-1.707,3.81-3.791c0,0,7.56,1.019,4.287,7.4,0,0,3.773-5.173-1.464-8.349s-9.694,3.121-8.262,7.013C157.126,219.593,156.97,218.386,158.76,217.316Z" transform="translate(-124.987 -209.733)" fill="#013c68"/>
      <path id="Path_77175" data-name="Path 77175" d="M166.4,210.328s1.781.968,2.056,2.065-6.6,2.483-9.483,1.262c0,0-2.557,1.808-2.754,3.6,0,0-2.442-2.428.308-6.958S165.053,207.147,166.4,210.328Z" transform="translate(-124.101 -207.399)" fill="#013c68"/>
      <path id="Path_77176" data-name="Path 77176" d="M158.622,223.461a1.565,1.565,0,0,0-.744-2.079c-1.019-.459-2.607,1.258-.5,3.1C157.686,224.732,158.071,224.507,158.622,223.461Z" transform="translate(-124.707 -214.923)" fill="#eec1bb"/>
      <path id="Path_77177" data-name="Path 77177" d="M175.068,218.94s-3.3,3.126-7.578,2.116" transform="translate(-130.738 -213.643)" fill="none" stroke="#013c68" stroke-linecap="round" stroke-linejoin="round" stroke-width="0.707"/>
      <path id="Path_77178" data-name="Path 77178" d="M167.464,232.11a2.184,2.184,0,0,0,.978,2.065" transform="translate(-130.712 -220.768)" fill="none" stroke="#013c68" stroke-linecap="round" stroke-linejoin="round" stroke-width="0.707"/>
      <path id="Path_77179" data-name="Path 77179" d="M142.978,234.943a29.707,29.707,0,0,1-6.426.023,4.755,4.755,0,0,1-1.262.179,14.063,14.063,0,0,1-.358-2.557c-.124-2.827.5-7.849,1.184-8.721s3.842.413,4.214,2.8c0,0,.431,6.426,1.005,6.981C141.665,233.938,142.395,234.5,142.978,234.943Z" transform="translate(-113.116 -216.16)" opacity="0.2"/>
      <path id="Path_77180" data-name="Path 77180" d="M138.591,218.9c-4.92.716-1.028,15.767,0,16.795s7.261,7.436,7.261,7.436l1.992-2.061s-5.719-7.307-6.339-8.225-.5-11.622-.5-11.622S141.134,218.532,138.591,218.9Z" transform="translate(-113.787 -213.602)" fill="#fd5675"/>
    </g>
    <g id="freepik--filing-cabinet--inject-2" transform="translate(67.28 85.991)">
      <rect id="Rectangle_10256" data-name="Rectangle 10256" width="88.449" height="134.665" transform="translate(36.522 0)" fill="#99b1c3"/>
      <rect id="Rectangle_10258" data-name="Rectangle 10258" width="34.351" height="134.665" transform="translate(90.62)" fill="#c4d6e3"/>
      <rect id="Rectangle_10259" data-name="Rectangle 10259" width="48.612" height="48.612" transform="translate(39.111 72.058)" opacity="0.2"/>
      <rect id="Rectangle_10260" data-name="Rectangle 10260" width="12.278" height="48.612" transform="translate(75.445 72.058)" opacity="0.2"/>
      <path id="Path_77181" data-name="Path 77181" d="M231.79,279.51,246,293.711H280.4v-14.2Z" transform="translate(-192.679 -207.452)" opacity="0.2"/>
      <rect id="Rectangle_10261" data-name="Rectangle 10261" width="48.612" height="48.612" transform="translate(39.111 19.328)" opacity="0.2"/>
      <rect id="Rectangle_10262" data-name="Rectangle 10262" width="47.226" height="48.612" transform="translate(39.111 19.328)" fill="#fd5675"/>
      <rect id="Rectangle_10263" data-name="Rectangle 10263" width="47.226" height="48.612" transform="translate(39.111 19.328)" fill="#c4d6e3"/>
      <rect id="Rectangle_10264" data-name="Rectangle 10264" width="16.886" height="4.356" transform="translate(52.321 25.144)" fill="#fff"/>
      <path id="Path_77182" data-name="Path 77182" d="M284.041,217.464l-4.471-5.893h-.89v4H277.5l1.519,1.891a.124.124,0,0,1-.1.2H266.19a.739.739,0,0,1-.578-.289l-1.377-1.8H259.14l3.672,4.59a.734.734,0,0,0,.569.271h20.067a.725.725,0,0,0,.725-.725v-1.813A.725.725,0,0,0,284.041,217.464Z" transform="translate(-207.475 -170.696)" opacity="0.1"/>
      <rect id="Rectangle_10265" data-name="Rectangle 10265" width="25.332" height="4.902" rx="1.55" transform="translate(46.873 40.575)" fill="#fd5675"/>
      <rect id="Rectangle_10266" data-name="Rectangle 10266" width="19.613" height="4.902" rx="1.55" transform="translate(46.873 40.575)" fill="#fff" opacity="0.2"/>
      <path id="Path_77183" data-name="Path 77183" d="M263.55,180.961a3.989,3.989,0,0,0,2.2-1.781,2.575,2.575,0,0,0-1.106,2.079c.817.129,1.184-1.12,1.983-1.34l-.275,1.212a1.441,1.441,0,0,0,1.143-.39,2.345,2.345,0,0,0,1.689-.661.624.624,0,0,0-.771-.262l2.593.243a.405.405,0,1,0,.321.487.774.774,0,0,1,.073-.234c.092-.129.28-.115.431-.092a18.249,18.249,0,0,0,4.719.119" transform="translate(-209.861 -153.173)" fill="none" stroke="#263238" stroke-linecap="round" stroke-linejoin="round" stroke-width="0.5"/>
      <path id="Path_77184" data-name="Path 77184" d="M277.351,330.02l2.9,3.6v35.82H236.854l-10.7-11.8Z" transform="translate(-189.628 -234.778)" opacity="0.1"/>
      <rect id="Rectangle_10267" data-name="Rectangle 10267" width="22.578" height="8.808" transform="translate(39.414 5.719)" fill="#fd5675"/>
      <rect id="Rectangle_10268" data-name="Rectangle 10268" width="7.537" height="8.808" transform="translate(39.414 5.719)" fill="#fff"/>
      <path id="Path_77185" data-name="Path 77185" d="M239.983,139.952a4.327,4.327,0,0,0,.05,2.947c.436,1,.2,1.226-.28,1.377s-4.131,1.074-4.416-.252.239-1.349,0-2.433-.386-2.364.037-2.983S239.983,139.952,239.983,139.952Z" transform="translate(-194.473 -131.158)" fill="#263238"/>
      <path id="Path_77186" data-name="Path 77186" d="M233.37,150.8a5.32,5.32,0,0,1,3.084-.822,10.557,10.557,0,0,1,3.7.822v.647H233.37Z" transform="translate(-193.534 -137.37)" fill="#fd5675"/>
      <path id="Path_77187" data-name="Path 77187" d="M240.343,147.716a1.377,1.377,0,0,1-.831.849,4.56,4.56,0,0,1-1.542-1.047c.537-.308.431-1.2.308-1.744h0a4.081,4.081,0,0,0-.11-.4h0l.675-.1,1,.881a.588.588,0,0,1-.037.174,2.69,2.69,0,0,0-.05,1.065.46.46,0,0,0,.055.115A.693.693,0,0,0,240.343,147.716Z" transform="translate(-196.022 -134.828)" fill="#eec1bb"/>
      <path id="Path_77188" data-name="Path 77188" d="M240.079,147.588a1.128,1.128,0,0,1-.33-.055c-.638-.2-1.014-1.088-1.189-1.639h0a3.454,3.454,0,0,1-.11-.4l1.634.955a2.689,2.689,0,0,0-.05,1.065A.458.458,0,0,0,240.079,147.588Z" transform="translate(-196.282 -134.947)" opacity="0.2"/>
      <path id="Path_77189" data-name="Path 77189" d="M241.62,137.09s1.73-.055,1.914,1.349a2.125,2.125,0,0,1-.946,2.075Z" transform="translate(-197.997 -130.402)" fill="#263238"/>
      <path id="Path_77190" data-name="Path 77190" d="M239.1,138.659c1.276.05,1.657.748,1.7,2.065.055,1.643-.353,2.8-1.932,2.382C236.719,142.546,236.985,138.576,239.1,138.659Z" transform="translate(-195.703 -131.25)" fill="#eec1bb"/>
      <path id="Path_77191" data-name="Path 77191" d="M243.05,142.93a2.56,2.56,0,0,0,.349.542.353.353,0,0,1-.344.133Z" transform="translate(-198.771 -133.562)" fill="#d4827d"/>
      <path id="Path_77192" data-name="Path 77192" d="M241.057,142.413c0,.106-.06.188-.133.188s-.124-.087-.124-.193.06-.188.133-.188S241.057,142.307,241.057,142.413Z" transform="translate(-197.553 -133.178)" fill="#263238"/>
      <path id="Path_77193" data-name="Path 77193" d="M241,142.127l.23-.087S241.124,142.233,241,142.127Z" transform="translate(-197.662 -133.08)" fill="#263238"/>
      <path id="Path_77194" data-name="Path 77194" d="M243.892,142.408c0,.106-.06.193-.129.188s-.124-.087-.124-.188.06-.188.129-.188S243.9,142.307,243.892,142.408Z" transform="translate(-199.09 -133.178)" fill="#263238"/>
      <path id="Path_77195" data-name="Path 77195" d="M243.86,142.127l.229-.087S243.975,142.228,243.86,142.127Z" transform="translate(-199.209 -133.08)" fill="#263238"/>
      <path id="Path_77196" data-name="Path 77196" d="M240.117,140.888a.051.051,0,0,1-.037,0,.06.06,0,0,1,0-.083.7.7,0,0,1,.61-.188.055.055,0,0,1,.05.064.064.064,0,0,1-.069.05.578.578,0,0,0-.5.151A.06.06,0,0,1,240.117,140.888Z" transform="translate(-197.155 -132.305)" fill="#263238"/>
      <path id="Path_77197" data-name="Path 77197" d="M243.852,140.79h-.032a.555.555,0,0,0-.459-.119.058.058,0,0,1-.037-.11.647.647,0,0,1,.56.133.064.064,0,0,1,0,.083A.055.055,0,0,1,243.852,140.79Z" transform="translate(-198.897 -132.271)" fill="#263238"/>
      <path id="Path_77198" data-name="Path 77198" d="M237.066,140.147a3.814,3.814,0,0,0,.578-1.836s2.566-.918,2.593,1.634c0,0,.335-2.267-1.836-2.4s-2.552,2.6-1.46,3.6C236.924,141.143,236.676,140.79,237.066,140.147Z" transform="translate(-195.146 -130.646)" fill="#263238"/>
      <path id="Path_77199" data-name="Path 77199" d="M238.416,136.522s.725,0,.991.312-1.675,1.886-2.8,1.978a2.491,2.491,0,0,0-.266,1.6s-1.175-.363-1.056-2.258a2.01,2.01,0,0,1,3.126-1.629Z" transform="translate(-194.568 -129.912)" fill="#263238"/>
      <path id="Path_77200" data-name="Path 77200" d="M237.266,143.192a.565.565,0,0,0-.583-.532c-.4.028-.615.831.358,1.065C237.178,143.757,237.266,143.624,237.266,143.192Z" transform="translate(-195.144 -133.415)" fill="#eec1bb"/>
      <path id="Path_77201" data-name="Path 77201" d="M239.831,139.757a.06.06,0,0,1-.055-.046.05.05,0,0,1,.041-.069,3.162,3.162,0,0,0,2.01-1.9.06.06,0,0,1,.11.037,3.277,3.277,0,0,1-2.093,1.969Z" transform="translate(-196.997 -130.742)" fill="#263238"/>
      <path id="Path_77202" data-name="Path 77202" d="M241.926,145.223h0a.831.831,0,0,1-.7-.537.059.059,0,0,1,.115-.028.757.757,0,0,0,.61.459.06.06,0,0,1,.041.069.055.055,0,0,1-.069.037Z" transform="translate(-197.785 -134.474)" fill="#263238"/>
      <path id="Path_77203" data-name="Path 77203" d="M245.347,142.906a.06.06,0,0,1-.055-.041,1.378,1.378,0,0,0-.1-.22,1.919,1.919,0,0,1-.133-1.308v-.087c.129-1.024.271-2.185-.537-2.9a.055.055,0,0,1,0-.078.06.06,0,0,1,.083,0c.858.753.707,1.946.578,3v.087c-.1.808,0,1.019.124,1.239a1.964,1.964,0,0,1,.1.239.055.055,0,0,1-.032.073Z" transform="translate(-199.558 -131.032)" fill="#263238"/>
      <path id="Path_77204" data-name="Path 77204" d="M258.074,138.637h-6.233a.551.551,0,0,1-.551-.551h0a.546.546,0,0,1,.551-.546h6.233a.546.546,0,0,1,.546.546h0a.546.546,0,0,1-.546.551Z" transform="translate(-203.229 -130.646)" fill="#fff"/>
      <path id="Path_77205" data-name="Path 77205" d="M262.387,144.66H251.72a.431.431,0,0,1-.431-.431h0a.431.431,0,0,1,.431-.459h10.667a.431.431,0,0,1,.431.459h0A.431.431,0,0,1,262.387,144.66Z" transform="translate(-203.227 -134.016)" fill="#fff"/>
      <path id="Path_77206" data-name="Path 77206" d="M260.553,148.308h-8.831a.431.431,0,0,1-.431-.431h0a.431.431,0,0,1,.431-.436h8.831a.431.431,0,0,1,.431.436h0A.431.431,0,0,1,260.553,148.308Z" transform="translate(-203.228 -136.002)" fill="#fff"/>
      <path id="Path_77207" data-name="Path 77207" d="M273.693,288.361H247.677l-.266-1.68a.767.767,0,0,0-.776-.652h-7.188a1.01,1.01,0,0,0-.918.652l-.629,1.68h-5.838a2.3,2.3,0,0,0-2.235,2.02l-3.557,32.589a1.776,1.776,0,0,0,1.795,2.024H269.7a2.3,2.3,0,0,0,2.231-2.024l3.557-32.589a1.772,1.772,0,0,0-1.79-2.02Z" transform="translate(-189.683 -210.979)" fill="#fd5675"/>
      <path id="Path_77208" data-name="Path 77208" d="M273.693,288.361H247.677l-.266-1.68a.767.767,0,0,0-.776-.652h-7.188a1.01,1.01,0,0,0-.918.652l-.629,1.68h-5.838a2.3,2.3,0,0,0-2.235,2.02l-3.557,32.589a1.776,1.776,0,0,0,1.795,2.024H269.7a2.3,2.3,0,0,0,2.231-2.024l3.557-32.589a1.772,1.772,0,0,0-1.79-2.02Z" transform="translate(-189.683 -210.979)" opacity="0.4"/>
      <path id="Path_77209" data-name="Path 77209" d="M226.44,328.263l1.4-33.883h45.009l-2.24,33.14Z" transform="translate(-189.785 -215.497)" fill="#fd5675"/>
      <path id="Path_77210" data-name="Path 77210" d="M226.44,328.263l1.4-33.883h45.009l-2.24,33.14Z" transform="translate(-189.785 -215.497)" fill="#fff" opacity="0.7"/>
      <path id="Path_77211" data-name="Path 77211" d="M268.212,330.927H226.577a1.937,1.937,0,0,1-2-1.887l.252-30.395a1.965,1.965,0,0,1,2.024-1.886h41.636a1.937,1.937,0,0,1,2,1.886l-.248,30.395a1.974,1.974,0,0,1-2.029,1.887Z" transform="translate(-188.778 -216.783)" fill="#fd5675"/>
      <path id="Path_77212" data-name="Path 77212" d="M268.212,330.927H226.577a1.937,1.937,0,0,1-2-1.887l.252-30.395a1.965,1.965,0,0,1,2.024-1.886h41.636a1.937,1.937,0,0,1,2,1.886l-.248,30.395a1.974,1.974,0,0,1-2.029,1.887Z" transform="translate(-188.778 -216.783)" opacity="0.25"/>
      <path id="Path_77213" data-name="Path 77213" d="M255.827,296.76l.845,30.835h-22.78L232.57,296.76Z" transform="translate(-193.101 -216.784)" opacity="0.15"/>
      <path id="Path_77214" data-name="Path 77214" d="M217.141,286.122H191.125l-.459-1.671a.872.872,0,0,0-.845-.652h-7.174a.872.872,0,0,0-.845.652l-.459,1.671H175.51a2.01,2.01,0,0,0-2.01,2.01v32.424a2.01,2.01,0,0,0,2.01,2.01h41.631a2.015,2.015,0,0,0,2.015-2.01V288.133a2.015,2.015,0,0,0-2.015-2.01Z" transform="translate(-161.144 -209.773)" fill="#fd5675"/>
      <path id="Path_77215" data-name="Path 77215" d="M217.141,286.122H191.125l-.459-1.671a.872.872,0,0,0-.845-.652h-7.174a.872.872,0,0,0-.845.652l-.459,1.671H175.51a2.01,2.01,0,0,0-2.01,2.01v32.424a2.01,2.01,0,0,0,2.01,2.01h41.631a2.015,2.015,0,0,0,2.015-2.01V288.133a2.015,2.015,0,0,0-2.015-2.01Z" transform="translate(-161.144 -209.773)" opacity="0.15"/>
      <path id="Path_77216" data-name="Path 77216" d="M171.114,325.823l-2.3-33.713h45.009l1.377,32.97Z" transform="translate(-158.607 -214.269)" fill="#fd5675"/>
      <path id="Path_77217" data-name="Path 77217" d="M171.114,325.823l-2.3-33.713h45.009l1.377,32.97Z" transform="translate(-158.607 -214.269)" fill="#fff" opacity="0.8"/>
      <path id="Path_77218" data-name="Path 77218" d="M212.057,328.469H170.426a2.208,2.208,0,0,1-2.2-1.877l-3.071-30.239a1.73,1.73,0,0,1,1.836-1.877h41.636a2.2,2.2,0,0,1,2.2,1.877l3.071,30.239a1.73,1.73,0,0,1-1.836,1.877Z" transform="translate(-156.624 -215.547)" fill="#fd5675"/>
      <path id="Path_77219" data-name="Path 77219" d="M243.72,336.556l43.136-6.536v23.487l-39.979,7.651Z" transform="translate(-199.133 -234.778)" fill="#fd5675"/>
      <path id="Path_77220" data-name="Path 77220" d="M243.72,336.556l43.136-6.536v23.487l-39.979,7.651Z" transform="translate(-199.133 -234.778)" fill="#c4d6e3"/>
      <path id="Path_77221" data-name="Path 77221" d="M243.72,336.556l.606.665,42.531-6.541v-.661Z" transform="translate(-199.133 -234.778)" fill="#fff" opacity="0.7"/>
      <path id="Path_77222" data-name="Path 77222" d="M250.8,341.93l1.946.441,1.6,23.8-7.468,1.427L243.72,343Z" transform="translate(-199.133 -241.222)" opacity="0.2"/>
      <path id="Path_77223" data-name="Path 77223" d="M198.245,348.157H149.637L146.58,300.27h48.612Z" transform="translate(-146.58 -218.683)" fill="#fd5675"/>
      <path id="Path_77224" data-name="Path 77224" d="M198.245,348.157H149.637L146.58,300.27h48.612Z" transform="translate(-146.58 -218.683)" fill="#c4d6e3"/>
      <path id="Path_77225" data-name="Path 77225" d="M253.909,348.157h-1.382L249.47,300.27h1.386Z" transform="translate(-202.244 -218.683)" opacity="0.2"/>
      <path id="Path_77226" data-name="Path 77226" d="M193.317,317.046H176.431l-.271-4.3h16.886Z" transform="translate(-162.583 -225.435)" fill="#fff"/>
      <path id="Path_77227" data-name="Path 77227" d="M202.45,352.316l-4.842-5.806h-.89l.252,3.943h-1.18l1.634,1.864a.115.115,0,0,1-.083.193H184.609a.79.79,0,0,1-.6-.285l-1.478-1.772h-5.1l3.975,4.53a.78.78,0,0,0,.583.271H202.06a.67.67,0,0,0,.679-.716l-.115-1.785A.776.776,0,0,0,202.45,352.316Z" transform="translate(-163.27 -243.699)" opacity="0.1"/>
      <path id="Path_77228" data-name="Path 77228" d="M191.38,350.708H167.471a.762.762,0,0,1-.753-.7l-.22-3.429a.652.652,0,0,1,.666-.7h23.891a.766.766,0,0,1,.757.7l.216,3.429a.652.652,0,0,1-.647.7Z" transform="translate(-157.355 -243.358)" fill="#fd5675"/>
      <path id="Path_77229" data-name="Path 77229" d="M185.661,350.708h-18.19a.762.762,0,0,1-.753-.7l-.22-3.429a.652.652,0,0,1,.666-.7h18.19a.757.757,0,0,1,.753.7l.22,3.429a.656.656,0,0,1-.666.7Z" transform="translate(-157.355 -243.358)" fill="#fff" opacity="0.2"/>
      <path id="Path_77230" data-name="Path 77230" d="M179.85,316.338a1.616,1.616,0,0,0,1.776-.537c0,.363-.106.831-.083,1.244a3.893,3.893,0,0,0,.78-1.125c-.34.748.551.918,1.074.67a1.046,1.046,0,0,0,.61-.9c0-.119-.05-.266-.17-.289s-.211.078-.271.174c-.211.326-.459,1.226.055,1.336s1.111-.757,1.248-1.111a.78.78,0,0,0-.427.762c.532-.023,1.262.106,1.294-.61-.046.946.854.624,1.184,0-.106.335.395.5.744.5l4.686-.106" transform="translate(-164.579 -226.87)" fill="none" stroke="#263238" stroke-linecap="round" stroke-linejoin="round" stroke-width="0.5"/>
    </g>
  </g>
</svg>
