<svg xmlns="http://www.w3.org/2000/svg" width="15.956" height="20" viewBox="0 0 15.956 20">
  <path id="Notes" d="M700.289,560H689.658A2.582,2.582,0,0,1,687,557.5v-15a2.582,2.582,0,0,1,2.658-2.5h10.631a2.582,2.582,0,0,1,2.658,2.5v1.067a1.679,1.679,0,0,1-1.214,1.583l-2.055.642a.9.9,0,0,1-1.121-.529.824.824,0,0,1,.563-1.054l2.055-.642V542.5a.861.861,0,0,0-.886-.833H689.658a.861.861,0,0,0-.886.833v15a.861.861,0,0,0,.886.833h10.631a.861.861,0,0,0,.886-.833.888.888,0,0,1,1.772,0A2.582,2.582,0,0,1,700.289,560Zm-.6-4.208,2.055-.642a1.679,1.679,0,0,0,1.214-1.583V552.5a.888.888,0,0,0-1.772,0v1.067l-2.055.642a.824.824,0,0,0-.563,1.054A.9.9,0,0,0,699.686,555.792Zm0-5,2.055-.642a1.679,1.679,0,0,0,1.214-1.583V547.5a.888.888,0,0,0-1.772,0v1.067l-2.055.642a.824.824,0,0,0-.563,1.054.9.9,0,0,0,1.121.529Z" transform="translate(-687 -540)" fill="#013c68"/>
</svg>
