<svg xmlns="http://www.w3.org/2000/svg" width="13.786" height="19.259" viewBox="0 0 13.786 19.259">
  <g id="notes_1_" data-name="notes (1)" transform="translate(-73.8 0.2)">
    <path id="Path_73701" data-name="Path 73701" d="M86.092,1.35H84.576v-.8a.555.555,0,0,0-1.109,0v.8H81.248v-.8a.555.555,0,1,0-1.109,0v.8H77.92v-.8a.555.555,0,0,0-1.109,0v.8H75.294A1.3,1.3,0,0,0,74,2.644V17.565a1.3,1.3,0,0,0,1.294,1.294h10.8a1.3,1.3,0,0,0,1.294-1.294V2.644A1.3,1.3,0,0,0,86.092,1.35Zm.185,16.215a.185.185,0,0,1-.185.185h-10.8a.185.185,0,0,1-.185-.185V2.644a.185.185,0,0,1,.185-.185H76.81v.8a.555.555,0,0,0,1.109,0v-.8h2.219v.8a.555.555,0,1,0,1.109,0v-.8h2.219v.8a.555.555,0,0,0,1.109,0v-.8h1.516a.185.185,0,0,1,.185.185Z" fill="#fd5675" stroke="#fd5675" stroke-width="0.4"/>
    <path id="Path_73702" data-name="Path 73702" d="M157.211,182.187h-6.656a.555.555,0,0,0,0,1.109h6.656a.555.555,0,0,0,0-1.109Z" transform="translate(-73.19 -175.45)" fill="#fd5675" stroke="#fd5675" stroke-width="0.4"/>
    <path id="Path_73703" data-name="Path 73703" d="M157.211,272.456h-6.656a.555.555,0,1,0,0,1.109h6.656a.555.555,0,1,0,0-1.109Z" transform="translate(-73.19 -262.381)" fill="#fd5675" stroke="#fd5675" stroke-width="0.4"/>
    <path id="Path_73704" data-name="Path 73704" d="M157.211,362.725h-6.656a.555.555,0,1,0,0,1.109h6.656a.555.555,0,1,0,0-1.109Z" transform="translate(-73.19 -349.312)" fill="#fd5675" stroke="#fd5675" stroke-width="0.4"/>
  </g>
</svg>
