<svg xmlns="http://www.w3.org/2000/svg" width="14" height="18" viewBox="0 0 14 18">
  <path id="Bell" d="M501.169,941.979a3.493,3.493,0,0,1-1.8-.5.764.764,0,0,1-.018-1.319.7.7,0,0,1,.738.022,2.087,2.087,0,0,0,1.963.1,2.233,2.233,0,0,0,1.228-1.6,1.456,1.456,0,0,1,1.441-1.214h2.038l-.5-2.068a.777.777,0,0,1,0-.18v-4.294a5.292,5.292,0,0,0-4.7-5.44,4.927,4.927,0,0,0-3.786,1.406,5.347,5.347,0,0,0-1.594,3.839v4.5a.784.784,0,0,1,0,.18l-.5,2.068h5.561a.75.75,0,0,1,0,1.5h-5.561a1.421,1.421,0,0,1-1.134-.575,1.546,1.546,0,0,1-.264-1.283l.475-1.978v-4.4a6.875,6.875,0,0,1,2.049-4.935,6.335,6.335,0,0,1,4.866-1.809,6.767,6.767,0,0,1,6.05,6.932v4.2l.475,1.978a1.546,1.546,0,0,1-.264,1.283,1.421,1.421,0,0,1-1.133.575h-2.038A3.638,3.638,0,0,1,501.169,941.979Z" transform="translate(-494.241 -923.98)" fill="#fff"/>
</svg>
