<svg xmlns="http://www.w3.org/2000/svg" width="16.546" height="15.789" viewBox="0 0 16.546 15.789">
  <g id="Group_46913" data-name="Group 46913" transform="translate(-23.407 -239.593)">
    <g id="phone-call" transform="matrix(0.996, 0.087, -0.087, 0.996, 25.899, 224.557)">
      <g id="Group_38265" data-name="Group 38265" transform="translate(0.344 15.634)">
        <path id="Path_73606" data-name="Path 73606" d="M11.914,35.635a1.441,1.441,0,0,0-1.045-.479,1.49,1.49,0,0,0-1.058.476l-.977.974c-.08-.043-.161-.083-.238-.124-.111-.056-.216-.108-.306-.164A10.621,10.621,0,0,1,5.744,34a6.266,6.266,0,0,1-.835-1.317c.254-.232.489-.473.717-.705.087-.087.173-.176.26-.263a1.419,1.419,0,0,0,0-2.14l-.844-.844c-.1-.1-.195-.195-.288-.294-.186-.192-.38-.39-.581-.575a1.464,1.464,0,0,0-1.036-.455,1.515,1.515,0,0,0-1.051.455l-.006.006L1.028,28.927a2.262,2.262,0,0,0-.671,1.438,5.421,5.421,0,0,0,.4,2.295,13.315,13.315,0,0,0,2.366,3.946A14.553,14.553,0,0,0,7.965,40.4a7.55,7.55,0,0,0,2.721.8c.065,0,.133.006.195.006a2.33,2.33,0,0,0,1.784-.767c0-.006.009-.009.012-.015a7.03,7.03,0,0,1,.541-.56c.133-.127.269-.26.4-.4a1.543,1.543,0,0,0,.467-1.07,1.486,1.486,0,0,0-.476-1.061Zm1.107,3.256s0,0,0,0c-.121.13-.244.247-.377.377a8.131,8.131,0,0,0-.6.618,1.491,1.491,0,0,1-1.163.492c-.046,0-.1,0-.142,0a6.707,6.707,0,0,1-2.412-.724,13.737,13.737,0,0,1-4.564-3.575,12.555,12.555,0,0,1-2.227-3.708,4.415,4.415,0,0,1-.346-1.936,1.42,1.42,0,0,1,.427-.918l1.055-1.055a.7.7,0,0,1,.47-.22.661.661,0,0,1,.451.216l.009.009c.189.176.368.359.557.554.1.1.195.2.294.3l.844.844a.59.59,0,0,1,0,.959c-.09.09-.176.179-.266.266-.26.266-.507.513-.776.755-.006.006-.012.009-.015.015a.631.631,0,0,0-.161.7l.009.028a6.778,6.778,0,0,0,1,1.63l0,0a11.35,11.35,0,0,0,2.746,2.5,4.22,4.22,0,0,0,.38.207c.111.056.216.108.306.164.012.006.025.015.037.022a.67.67,0,0,0,.306.077.661.661,0,0,0,.47-.213L10.4,36.219a.7.7,0,0,1,.467-.232.63.63,0,0,1,.445.226l.006.006,1.7,1.7A.611.611,0,0,1,13.021,38.891Z" transform="translate(-0.344 -27.406)" fill="#013c68" stroke="#01345a" stroke-width="0.5"/>
      </g>
    </g>
    <g id="Icon_feather-arrow-down-left" data-name="Icon feather-arrow-down-left" transform="translate(49.533 255.987) rotate(180)">
      <path id="Path_73755" data-name="Path 73755" d="M15.475,10.5,10.5,15.475" fill="none" stroke="#64c1ff" stroke-linecap="round" stroke-linejoin="round" stroke-width="1.3"/>
      <path id="Path_73756" data-name="Path 73756" d="M15.475,15.475H10.5V10.5" fill="none" stroke="#64c1ff" stroke-linecap="round" stroke-linejoin="round" stroke-width="1.3"/>
    </g>
  </g>
</svg>
