<svg xmlns="http://www.w3.org/2000/svg" width="31.733" height="40" viewBox="0 0 31.733 40">
  <g id="Group_47224" data-name="Group 47224" transform="translate(-8078 -5513)">
    <path id="Path_73751" data-name="Path 73751" d="M98.769,0H78.088a1.6,1.6,0,0,0-1.6,1.6V38.4a1.6,1.6,0,0,0,1.6,1.6h26.133a1.6,1.6,0,0,0,1.6-1.6V7.053Z" transform="translate(8003.912 5513)" fill="#e1e6e9"/>
    <path id="Path_74167" data-name="Path 74167" d="M0,0H31.733V10.959H0Z" transform="translate(8078 5535.043)" fill="#494949"/>
    <path id="Path_73755" data-name="Path 73755" d="M48.39,386.364l2.4,2.232v-2.232Z" transform="translate(8029.61 5159.638)" fill="#272724"/>
    <path id="Path_73756" data-name="Path 73756" d="M337.335,7.053h7.052L337.335,0Z" transform="translate(7765.346 5513)" fill="#ebf0f3"/>
    <path id="Path_73757" data-name="Path 73757" d="M353.221,82.567l5.7,3.3v-3.3Z" transform="translate(7750.816 5437.485)" fill="#d5d6db"/>
    <path id="Path_74169" data-name="Path 74169" d="M.328-2.792A2.854,2.854,0,0,0,3.2.08,2.861,2.861,0,0,0,6.08-2.792,2.875,2.875,0,0,0,3.2-5.68,2.868,2.868,0,0,0,.328-2.792Zm1.04,0A1.851,1.851,0,0,1,3.2-4.64,1.858,1.858,0,0,1,5.04-2.792,1.844,1.844,0,0,1,3.2-.96,1.837,1.837,0,0,1,1.368-2.792ZM7.824-.152A.157.157,0,0,0,7.976,0H8.72a.157.157,0,0,0,.152-.152V-4.64H10.1a.152.152,0,0,0,.152-.152v-.656A.152.152,0,0,0,10.1-5.6H6.6a.152.152,0,0,0-.152.152v.656A.152.152,0,0,0,6.6-4.64H7.824Zm3.256,0A.157.157,0,0,0,11.232,0h.744a.152.152,0,0,0,.152-.152V-2.36h2.608V-.152A.152.152,0,0,0,14.888,0h.736a.157.157,0,0,0,.152-.152v-5.3a.157.157,0,0,0-.152-.152h-.736a.152.152,0,0,0-.152.152v2.12H12.128v-2.12a.152.152,0,0,0-.152-.152h-.744a.157.157,0,0,0-.152.152Zm6.152,0A.152.152,0,0,0,17.384,0H20.64a.152.152,0,0,0,.152-.152V-.808A.152.152,0,0,0,20.64-.96H18.272v-1.4h1.976a.152.152,0,0,0,.152-.152v-.664a.157.157,0,0,0-.152-.152H18.272V-4.64H20.64a.152.152,0,0,0,.152-.152v-.656A.152.152,0,0,0,20.64-5.6H17.384a.152.152,0,0,0-.152.152Zm4.7,0A.152.152,0,0,0,22.088,0h.736a.157.157,0,0,0,.152-.152v-2.04h.888l1.064,2.12A.137.137,0,0,0,25.056,0h.84a.151.151,0,0,0,.136-.232l-1.1-2.032A1.765,1.765,0,0,0,26.12-3.88,1.733,1.733,0,0,0,24.376-5.6H22.088a.152.152,0,0,0-.152.152Zm1.048-2.9V-4.64h1.3a.8.8,0,0,1,.792.776.815.815,0,0,1-.792.816Z" transform="translate(8079.997 5543)" fill="#fff"/>
  </g>
</svg>
