<svg xmlns="http://www.w3.org/2000/svg" width="20" height="20" viewBox="0 0 20 20">
  <path id="Plus" d="M692.33,838.843h-2.5a.833.833,0,0,1,0-1.667h2.5a.833.833,0,0,1,0,1.667Zm7.258,7.5a.834.834,0,1,0-.933-1.383,8.441,8.441,0,1,1,2.375-2.458.833.833,0,0,0,1.408.892,10,10,0,1,0-2.858,2.95ZM699,838.009a.833.833,0,0,0-.833-.833h-2.5a.833.833,0,0,0,0,1.667h2.5A.833.833,0,0,0,699,838.009Zm-4.167,4.167v-2.5a.833.833,0,0,0-1.667,0v2.5a.833.833,0,0,0,1.667,0Zm0-5.833v-2.5a.833.833,0,0,0-1.667,0v2.5a.833.833,0,0,0,1.667,0Z" transform="translate(-683.981 -828.057)" fill="#013c68"/>
</svg>
