<svg xmlns="http://www.w3.org/2000/svg" width="31.734" height="40" viewBox="0 0 31.734 40">
  <g id="Group_47212" data-name="Group 47212" transform="translate(-8078 -5513)">
    <path id="Path_73751" data-name="Path 73751" d="M98.769,0H78.088a1.6,1.6,0,0,0-1.6,1.6V38.4a1.6,1.6,0,0,0,1.6,1.6h26.133a1.6,1.6,0,0,0,1.6-1.6V7.053Z" transform="translate(8003.912 5513)" fill="#e1e6e9"/>
    <path id="Path_74167" data-name="Path 74167" d="M0,0H31.733V10.959H0Z" transform="translate(8078 5535.043)" fill="#cb1e81"/>
    <path id="Path_73755" data-name="Path 73755" d="M48.39,386.364l2.4,2.232v-2.232Z" transform="translate(8029.61 5159.638)" fill="#88034f"/>
    <path id="Path_73756" data-name="Path 73756" d="M337.335,7.053h7.052L337.335,0Z" transform="translate(7765.346 5513)" fill="#ebf0f3"/>
    <path id="Path_73757" data-name="Path 73757" d="M353.221,82.567l5.7,3.3v-3.3Z" transform="translate(7750.816 5437.485)" fill="#d5d6db"/>
    <path id="Path_74177" data-name="Path 74177" d="M.91-.19A.19.19,0,0,0,1.1,0h.92a.2.2,0,0,0,.19-.19V-2.54H3.46A2.249,2.249,0,0,0,5.69-4.79,2.237,2.237,0,0,0,3.45-7H1.1a.19.19,0,0,0-.19.19Zm1.3-3.57V-5.77H3.37A1,1,0,0,1,4.4-4.8,1.031,1.031,0,0,1,3.37-3.76ZM6.83-.19A.2.2,0,0,0,7.02,0h.91a.19.19,0,0,0,.19-.19v-4.3h.01L12.31.1h.24a.188.188,0,0,0,.19-.18V-6.81A.2.2,0,0,0,12.55-7h-.92a.19.19,0,0,0-.19.19v4.13h-.01L7.27-7.1H7.02a.188.188,0,0,0-.19.18Zm7.23-3.3A3.566,3.566,0,0,0,17.65.09a5.053,5.053,0,0,0,2.48-.65.192.192,0,0,0,.08-.16V-3.28a.188.188,0,0,0-.18-.19H18.11a.184.184,0,0,0-.19.19v.79a.182.182,0,0,0,.19.18h.8v.85a3.128,3.128,0,0,1-1.19.25A2.275,2.275,0,0,1,15.47-3.5a2.293,2.293,0,0,1,2.24-2.32,2.267,2.267,0,0,1,1.51.58.171.171,0,0,0,.26,0l.62-.65a.194.194,0,0,0-.01-.28,3.78,3.78,0,0,0-2.44-.93A3.591,3.591,0,0,0,14.06-3.49Z" transform="translate(8084.999 5544)" fill="#fff"/>
  </g>
</svg>
