<svg xmlns="http://www.w3.org/2000/svg" width="12.843" height="16.547" viewBox="0 0 12.843 16.547">
  <g id="position" transform="translate(-57.9 0.101)">
    <g id="XMLID_1836_" transform="translate(58 0)">
      <path id="XMLID_1878_" d="M67.992,284.8H60.651A2.654,2.654,0,0,0,58,287.451v4.284a.319.319,0,0,0,.319.319h12a.319.319,0,0,0,0-.639H64.762l2.063-5.977h1.168A2.014,2.014,0,0,1,70,287.451v4.116a.319.319,0,1,0,.639,0v-4.116A2.654,2.654,0,0,0,67.992,284.8Zm-9.354,2.651a2.014,2.014,0,0,1,2.012-2.012H61.8l2.063,5.977H60.171c-.469.009.028.009-.639,0h-.894Zm6,2.358v-2.79a.319.319,0,1,0-.639,0v2.834l-1.523-4.414h3.67Z" transform="translate(-58 -275.707)" fill="#013c68" stroke="#013c68" stroke-width="0.2"/>
      <path id="XMLID_1882_" d="M174.907,3.526a.908.908,0,0,0,.907-.907.8.8,0,1,1,.981.784,1.377,1.377,0,0,0-1.084,1.35V5.39a.907.907,0,0,0,1.815,0V5.074A2.618,2.618,0,0,0,176.8.007a2.6,2.6,0,0,0-1.97.7A2.627,2.627,0,0,0,174,2.618.908.908,0,0,0,174.907,3.526Zm.36-2.355a1.964,1.964,0,0,1,1.49-.527,1.98,1.98,0,0,1,.367,3.889.319.319,0,0,0-.238.309V5.39a.269.269,0,0,1-.537,0V4.753a.742.742,0,0,1,.585-.727,1.442,1.442,0,0,0-.214-2.846q-.052,0-.1,0a1.442,1.442,0,0,0-1.441,1.442.269.269,0,0,1-.538,0A1.987,1.987,0,0,1,175.268,1.171Z" transform="translate(-170.296 0)" fill="#013c68" stroke="#013c68" stroke-width="0.2"/>
      <path id="XMLID_1885_" d="M228.491,209.166a.907.907,0,1,0,.907.907A.908.908,0,0,0,228.491,209.166Zm0,1.176a.269.269,0,1,1,.269-.269A.269.269,0,0,1,228.491,210.342Z" transform="translate(-222.17 -202.488)" fill="#013c68" stroke="#013c68" stroke-width="0.2"/>
      <path id="XMLID_1886_" d="M434.319,452a.319.319,0,1,0,.226.094A.321.321,0,0,0,434.319,452Z" transform="translate(-421.995 -437.57)" fill="#013c68" stroke="#013c68" stroke-width="0.2"/>
    </g>
  </g>
</svg>
