<svg xmlns="http://www.w3.org/2000/svg" width="15.525" height="15.525" viewBox="0 0 15.525 15.525">
  <g id="manager" transform="translate(0)">
    <g id="Group_36612" data-name="Group 36612" transform="translate(0)">
      <g id="Group_36611" data-name="Group 36611">
        <path id="Path_63611" data-name="Path 63611" d="M346.146,423.279a.606.606,0,0,0-1.187.247.633.633,0,0,1-.128.531.616.616,0,0,1-.485.231h-2.738a.606.606,0,0,0,0,1.213h2.738a1.842,1.842,0,0,0,1.8-2.222Z" transform="translate(-330.66 -409.975)" fill="#013c68"/>
        <path id="Path_63612" data-name="Path 63612" d="M8.379,8.271a6.672,6.672,0,0,1,4.934,2.935.606.606,0,1,0,1.007-.675,7.888,7.888,0,0,0-4.088-3.105,4.124,4.124,0,1,0-4.936,0A7.886,7.886,0,0,0,.04,13.3a1.842,1.842,0,0,0,1.8,2.222H4.488a.606.606,0,0,0,0-1.213H1.841a.616.616,0,0,1-.485-.231.634.634,0,0,1-.128-.531A6.7,6.7,0,0,1,7.085,8.278L5.927,13.545a.607.607,0,0,0,.164.559L7.3,15.317a.606.606,0,0,0,.858,0L9.374,14.1a.606.606,0,0,0,.163-.559ZM4.852,4.124A2.911,2.911,0,1,1,7.908,7.031H7.763l-.142,0A2.915,2.915,0,0,1,4.852,4.124Zm2.881,9.907-.549-.549.549-2.5.549,2.5Z" transform="translate(0)" fill="#013c68"/>
      </g>
    </g>
  </g>
</svg>
