<svg xmlns="http://www.w3.org/2000/svg" width="14.905" height="17.397" viewBox="0 0 14.905 17.397">
  <g id="cake" transform="translate(-42.06 1.006)">
    <g id="Group_38286" data-name="Group 38286" transform="translate(42.56)">
      <g id="Group_38285" data-name="Group 38285" transform="translate(0)">
        <path id="Path_73618" data-name="Path 73618" d="M193.437,4.667a1.55,1.55,0,0,0,1.544-1.556,1.567,1.567,0,0,0-.22-.8L193.437,0l-1.324,2.31a1.567,1.567,0,0,0-.22.8A1.55,1.55,0,0,0,193.437,4.667Z" transform="translate(-186.489)" fill="none" stroke="#013c68" stroke-width="1"/>
        <path id="Path_73619" data-name="Path 73619" d="M54.141,150.889h-3.86v-1.556H48.736v1.556h-3.86a2.327,2.327,0,0,0-2.316,2.334v1.2a1.521,1.521,0,0,0,1.513,1.525,1.5,1.5,0,0,0,1.069-.447l1.652-1.661,1.648,1.657a1.54,1.54,0,0,0,2.139,0l1.652-1.657,1.648,1.657a1.5,1.5,0,0,0,1.069.447,1.521,1.521,0,0,0,1.513-1.525v-1.194A2.338,2.338,0,0,0,54.141,150.889Z" transform="translate(-42.56 -143.888)" fill="none" stroke="#013c68" stroke-width="1"/>
        <path id="Path_73620" data-name="Path 73620" d="M53.056,318.916h0l-.83-.836-.834.836a2.721,2.721,0,0,1-3.775,0l-.83-.836-.834.836a2.608,2.608,0,0,1-1.88.79,2.651,2.651,0,0,1-1.513-.478v2.368a.777.777,0,0,0,.772.778H55.685a.777.777,0,0,0,.772-.778v-2.368a2.643,2.643,0,0,1-3.4-.311Z" transform="translate(-42.56 -306.482)" fill="none" stroke="#013c68" stroke-width="1"/>
      </g>
    </g>
  </g>
</svg>
