<svg xmlns="http://www.w3.org/2000/svg" width="17.458" height="17.458" viewBox="0 0 17.458 17.458">
  <g id="gender" transform="translate(0.2 0.2)">
    <path id="Path_73632" data-name="Path 73632" d="M9.029,4.531A4.533,4.533,0,0,0,4.531,0,4.562,4.562,0,0,0,0,4.531,4.519,4.519,0,0,0,4.031,8.979v3.048h-1.5a.5.5,0,1,0,0,1h1.5v1.5a.5.5,0,1,0,1,0v-1.5h1.5a.5.5,0,1,0,0-1h-1.5V8.979A4.49,4.49,0,0,0,9.029,4.531Zm-4.5,3.5A3.531,3.531,0,0,1,1,4.531,3.559,3.559,0,0,1,4.531,1a3.515,3.515,0,0,1,0,7.03Z" fill="#013c68" stroke="#013c68" stroke-width="0.4"/>
    <path id="Path_73633" data-name="Path 73633" d="M246,67.047V62.709l1.149,1.139a.495.495,0,1,0,.7-.7l-2-2a.483.483,0,0,0-.7,0l-2,2a.495.495,0,1,0,.7.7L245,62.709v4.338a4.5,4.5,0,0,0,.5,8.979,4.5,4.5,0,0,0,.5-8.979Zm-.5,7.979a3.515,3.515,0,1,1,3.531-3.531A3.531,3.531,0,0,1,245.5,75.026Z" transform="translate(-232.971 -58.967)" fill="#013c68" stroke="#013c68" stroke-width="0.4"/>
  </g>
</svg>
