<svg xmlns="http://www.w3.org/2000/svg" width="21.392" height="16.044" viewBox="0 0 21.392 16.044">
  <path id="Purse" d="M316.936,1423.044H302.674A2.674,2.674,0,0,1,300,1420.37v-10.7a2.674,2.674,0,0,1,2.674-2.674h14.262a2.674,2.674,0,0,1,2.674,2.674v.891a.891.891,0,1,1-1.783,0v-.891a.891.891,0,0,0-.891-.891H302.674a.891.891,0,0,0-.891.891v10.7a.891.891,0,0,0,.891.891h14.262a.891.891,0,0,0,.891-.891v-.891a.891.891,0,1,1,1.783,0v.891A2.674,2.674,0,0,1,316.936,1423.044Zm4.457-7.131v-1.783a1.783,1.783,0,0,0-1.783-1.783h-4.457a1.783,1.783,0,0,0-1.783,1.783v2.674a.891.891,0,1,0,1.783,0v-2.674h4.457v1.783h-1.783a.891.891,0,0,0,0,1.783h1.783A1.783,1.783,0,0,0,321.392,1415.913Z" transform="translate(-300 -1407)" fill="#013c68"/>
</svg>
