<svg id="fi-rr-cross-circle" xmlns="http://www.w3.org/2000/svg" width="23.655" height="23.655" viewBox="0 0 23.655 23.655">
  <path id="Path_78" data-name="Path 78" d="M15.881,8a.986.986,0,0,0-1.394,0l-2.549,2.549L9.389,8A.986.986,0,1,0,8,9.39l2.549,2.549L8,14.487A.986.986,0,1,0,9.39,15.881l2.549-2.549,2.549,2.549a.986.986,0,1,0,1.394-1.394l-2.549-2.549,2.549-2.549A.986.986,0,0,0,15.881,8Z" transform="translate(-0.111 -0.111)" fill="#fd5675"/>
  <path id="Path_79" data-name="Path 79" d="M11.828,0A11.828,11.828,0,1,0,23.655,11.828,11.828,11.828,0,0,0,11.828,0Zm0,21.684a9.856,9.856,0,1,1,9.856-9.856A9.856,9.856,0,0,1,11.828,21.684Z" transform="translate(0 0)" fill="#fd5675"/>
</svg>
