<svg xmlns="http://www.w3.org/2000/svg" width="14.609" height="14" viewBox="0 0 14.609 14">
  <path id="Subscribe" d="M787.723,460h-.233a1.46,1.46,0,0,1-1.247-1.213l-.587-4.087a1.38,1.38,0,0,1,.313-1.087l1.82-2.147a.667.667,0,0,1,1.02.86l-1.82,2.147.573,4.1a.127.127,0,0,0,.12.1.173.173,0,0,0,.193-.107l5.5-11.007a.153.153,0,0,0-.193-.213l-11.6,4.393a.18.18,0,0,0-.127.18.133.133,0,0,0,.107.133l2.427.56a.667.667,0,1,1-.3,1.3l-2.467-.573a1.473,1.473,0,0,1-1.093-1.373,1.5,1.5,0,0,1,.987-1.473l11.6-4.393a1.487,1.487,0,0,1,1.86,2.06l-5.48,11.014a1.5,1.5,0,0,1-1.373.827Z" transform="translate(-780.128 -446.001)" fill="#fff"/>
</svg>
