<svg xmlns="http://www.w3.org/2000/svg" width="20.665" height="21.41" viewBox="0 0 20.665 21.41">
  <g id="sunbed" transform="translate(-8.721 0.162)">
    <path id="Path_73851" data-name="Path 73851" d="M27.541,3.945a.309.309,0,1,0-.488.379,7.477,7.477,0,0,1,1.559,4.261l-4.15-1.112a17.331,17.331,0,0,0,.026-5.248,7.388,7.388,0,0,1,1.617,1.089.309.309,0,0,0,.41-.462,8.054,8.054,0,0,0-2.771-1.6l.3-.837a.309.309,0,1,0-.582-.208l-.311.871a8.039,8.039,0,0,0-8.935,3.885.317.317,0,0,0-.041.177l.11,1.611a.721.721,0,0,0,.533.648l3.052.818a.723.723,0,0,0,.785-.294l.4-.591.048.71a.721.721,0,0,0,.533.648l1.227.329L19.13,15.466l-2.891-.008h0a.309.309,0,0,0,0,.618l6.052.018h0a1.14,1.14,0,0,0,.809-.34l2.178-2.222a1.7,1.7,0,0,1,1.743-.421l.662.221-4.13,4.159a.933.933,0,0,1-.658.274H10.935a1.592,1.592,0,0,1,.437-1.264,1.475,1.475,0,0,1,1.048-.433h.005l2.37.009h0a.309.309,0,0,0,0-.618l-2.371-.009a2.086,2.086,0,0,0-1.492.614,2.538,2.538,0,0,0-.619,1.887.433.433,0,0,0,.433.433h.743l-.639,1.4a.924.924,0,0,0-.029.693H9.18a.309.309,0,1,0,0,.618H28.2a.309.309,0,1,0,0-.618H25.3a.924.924,0,0,0-.029-.693l-.98-2.155,4.049-4.077a.437.437,0,0,0-.17-.715l-.946-.315a2.323,2.323,0,0,0-2.379.574l-2.178,2.222a.518.518,0,0,1-.368.155h0l-2.522-.007,1.686-6.291,1.227.329a.723.723,0,0,0,.785-.294l.4-.591.048.71a.721.721,0,0,0,.533.648L27.5,10.8a.723.723,0,0,0,.785-.294l.9-1.34a.317.317,0,0,0,.052-.174,8.09,8.09,0,0,0-1.694-5.042ZM11.7,20.48a.309.309,0,0,1-.281-.437l.756-1.661h.679L11.979,20.3a.31.31,0,0,1-.282.181Zm6.09,0H12.575l.955-2.1h4.819Zm.64,0,.562-2.1h3.6l.955,2.1Zm6.276-.437a.31.31,0,0,1-.154.41.3.3,0,0,1-.127.028.311.311,0,0,1-.282-.181l-.891-1.959a1.563,1.563,0,0,0,.562-.258ZM18.14,7.576a.1.1,0,0,1-.112.042L14.977,6.8a.1.1,0,0,1-.076-.093l-.08-1.18L18.8,6.595Zm.963-1.54L14.957,4.925A7.43,7.43,0,0,1,21.883,1.49,13.831,13.831,0,0,0,19.1,6.036Zm3.852,2.83a.1.1,0,0,1-.112.042l-3.052-.818A.1.1,0,0,1,19.715,8l-.08-1.18,3.979,1.066Zm.907-1.555L19.7,6.2a13.213,13.213,0,0,1,2.931-4.6,7.279,7.279,0,0,1,1.182.336,16.7,16.7,0,0,1,.046,5.38Zm3.908,2.845a.1.1,0,0,1-.112.042l-3.052-.818a.1.1,0,0,1-.076-.092l-.08-1.18,3.979,1.066Z" transform="translate(0 0)" fill="#fd5675" stroke="#fd5675" stroke-width="0.3"/>
  </g>
</svg>
