<svg xmlns="http://www.w3.org/2000/svg" width="24.004" height="22.808" viewBox="0 0 24.004 22.808">
  <path id="Support" d="M206,463.34a3,3,0,0,1-2-2.94v-3.14a2.92,2.92,0,0,1,1.53-2.54v-.27A10.5,10.5,0,0,1,226,451.1a1,1,0,0,1-1.88.69,8.43,8.43,0,0,0-4-4.81,8.57,8.57,0,0,0-12.59,7.53v1a1,1,0,0,1-1,1c-.17,0-.5.39-.5.76v3.24a1,1,0,0,0,2,0v-2.24a1,1,0,0,1,2,0v2.24a3,3,0,0,1-4.03,2.83Zm19.88.22A3,3,0,0,0,228,460.7v-2.9a3,3,0,1,0-6-.09v2a1,1,0,1,0,2,0v-2a1,1,0,0,1,2,0v3a1,1,0,0,1-1,1,1,1,0,0,0-1,1.06,2,2,0,0,1-2,1.94h-4V464a1,1,0,0,0-2,0v1.7a1,1,0,0,0,1,1h5a4,4,0,0,0,3.91-3.14Z" transform="translate(-203.998 -443.892)" fill="#013c68"/>
</svg>
