<svg xmlns="http://www.w3.org/2000/svg" width="31.734" height="40" viewBox="0 0 31.734 40">
  <g id="Group_47213" data-name="Group 47213" transform="translate(-8078 -5513)">
    <path id="Path_73751" data-name="Path 73751" d="M98.769,0H78.088a1.6,1.6,0,0,0-1.6,1.6V38.4a1.6,1.6,0,0,0,1.6,1.6h26.133a1.6,1.6,0,0,0,1.6-1.6V7.053Z" transform="translate(8003.912 5513)" fill="#e1e6e9"/>
    <path id="Path_74167" data-name="Path 74167" d="M0,0H31.733V10.959H0Z" transform="translate(8078 5535.043)" fill="#cb811e"/>
    <path id="Path_73755" data-name="Path 73755" d="M48.39,386.364l2.4,2.232v-2.232Z" transform="translate(8029.61 5159.638)" fill="#8d560c"/>
    <path id="Path_73756" data-name="Path 73756" d="M337.335,7.053h7.052L337.335,0Z" transform="translate(7765.346 5513)" fill="#ebf0f3"/>
    <path id="Path_73757" data-name="Path 73757" d="M353.221,82.567l5.7,3.3v-3.3Z" transform="translate(7750.816 5437.485)" fill="#d5d6db"/>
    <path id="Path_74178" data-name="Path 74178" d="M1.85-.19A.2.2,0,0,0,2.04,0h.93a.2.2,0,0,0,.19-.19V-5.8H4.69a.19.19,0,0,0,.19-.19v-.82A.19.19,0,0,0,4.69-7H.32a.19.19,0,0,0-.19.19v.82a.19.19,0,0,0,.19.19H1.85Zm4.07,0A.2.2,0,0,0,6.11,0h.93a.2.2,0,0,0,.19-.19V-6.81A.2.2,0,0,0,7.04-7H6.11a.2.2,0,0,0-.19.19Zm3.13,0A.19.19,0,0,0,9.24,0h.92a.2.2,0,0,0,.19-.19V-2.72h2.47a.2.2,0,0,0,.19-.19v-.82a.2.2,0,0,0-.19-.19H10.35V-5.8h2.96a.19.19,0,0,0,.19-.19v-.82A.19.19,0,0,0,13.31-7H9.24a.19.19,0,0,0-.19.19Zm5.64,0a.19.19,0,0,0,.19.19h.92a.2.2,0,0,0,.19-.19V-2.72h2.47a.2.2,0,0,0,.19-.19v-.82a.2.2,0,0,0-.19-.19H15.99V-5.8h2.96a.19.19,0,0,0,.19-.19v-.82A.19.19,0,0,0,18.95-7H14.88a.19.19,0,0,0-.19.19Z" transform="translate(8084.999 5544)" fill="#fff"/>
  </g>
</svg>
