<svg xmlns="http://www.w3.org/2000/svg" width="31.734" height="40" viewBox="0 0 31.734 40">
  <g id="Group_47222" data-name="Group 47222" transform="translate(-8078 -5513)">
    <path id="Path_73751" data-name="Path 73751" d="M98.769,0H78.088a1.6,1.6,0,0,0-1.6,1.6V38.4a1.6,1.6,0,0,0,1.6,1.6h26.133a1.6,1.6,0,0,0,1.6-1.6V7.053Z" transform="translate(8003.912 5513)" fill="#e1e6e9"/>
    <path id="Path_74167" data-name="Path 74167" d="M0,0H31.733V10.959H0Z" transform="translate(8078 5535.043)" fill="#838383"/>
    <path id="Path_73755" data-name="Path 73755" d="M48.39,386.364l2.4,2.232v-2.232Z" transform="translate(8029.61 5159.638)" fill="#646363"/>
    <path id="Path_73756" data-name="Path 73756" d="M337.335,7.053h7.052L337.335,0Z" transform="translate(7765.346 5513)" fill="#ebf0f3"/>
    <path id="Path_73757" data-name="Path 73757" d="M353.221,82.567l5.7,3.3v-3.3Z" transform="translate(7750.816 5437.485)" fill="#d5d6db"/>
    <path id="Path_74171" data-name="Path 74171" d="M1.85-.19A.2.2,0,0,0,2.04,0h.93a.2.2,0,0,0,.19-.19V-5.8H4.69a.19.19,0,0,0,.19-.19v-.82A.19.19,0,0,0,4.69-7H.32a.19.19,0,0,0-.19.19v.82a.19.19,0,0,0,.19.19H1.85ZM5.31-.28c-.08.13,0,.28.18.28H6.57a.219.219,0,0,0,.17-.09L8.15-2.38h.03L9.61-.09A.2.2,0,0,0,9.78,0h1.08a.179.179,0,0,0,.17-.28L8.95-3.59l2.01-3.13A.18.18,0,0,0,10.79-7H9.63a.184.184,0,0,0-.16.09L8.17-4.79H8.16L6.88-6.91A.2.2,0,0,0,6.72-7H5.56a.18.18,0,0,0-.17.28l2,3.13Zm7.87.09a.2.2,0,0,0,.19.19h.93a.2.2,0,0,0,.19-.19V-5.8h1.53a.19.19,0,0,0,.19-.19v-.82A.19.19,0,0,0,16.02-7H11.65a.19.19,0,0,0-.19.19v.82a.19.19,0,0,0,.19.19h1.53Z" transform="translate(8086.681 5544.233)" fill="#fff"/>
  </g>
</svg>
