<svg xmlns="http://www.w3.org/2000/svg" width="24.016" height="18.327" viewBox="0 0 24.016 18.327">
  <path id="Up-down" d="M222,3730.64a1,1,0,0,1-1-1V3716l-3.25,3.71a1,1,0,1,1-1.5-1.32l5-5.71a1,1,0,0,1,1.75.66v16.31a1,1,0,0,1-1,.99Zm5.66-10.84a1,1,0,0,0,.09-1.41l-1-1.14a1,1,0,1,0-1.5,1.32l1,1.14a1,1,0,0,0,1.41.09Zm-16.91,10.5,5-5.71a1,1,0,1,0-1.5-1.32L211,3727v-13.64a1,1,0,0,0-2,0v16.31a1,1,0,0,0,1.75.66Zm-3.87-4.22a1,1,0,0,0,.09-1.41l-1.23-1.4a1,1,0,0,0-1.51,1.32l1.23,1.4a1,1,0,0,0,1.41.09Z" transform="translate(-203.982 -3712.341)" fill="#013c68"/>
</svg>
