<svg xmlns="http://www.w3.org/2000/svg" width="22.576" height="13.17" viewBox="0 0 22.576 13.17">
  <g id="visibility_on" transform="translate(0 -16.071)">
    <g id="Group_47014" data-name="Group 47014" transform="translate(0 16.071)">
      <g id="Group_47013" data-name="Group 47013">
        <path id="Path_73797" data-name="Path 73797" d="M22.493,22.388c-.178-.259-4.45-6.318-11.2-6.318-5.8,0-10.96,6.024-11.177,6.281a.472.472,0,0,0,0,.608c.217.257,5.382,6.281,11.177,6.281s10.96-6.024,11.177-6.281A.47.47,0,0,0,22.493,22.388ZM11.288,28.3c-4.646,0-9.064-4.431-10.186-5.644,1.12-1.214,5.533-5.644,10.186-5.644,5.436,0,9.273,4.424,10.21,5.619C20.417,23.805,15.974,28.3,11.288,28.3Z" transform="translate(0 -16.071)" fill="#697e8d"/>
      </g>
    </g>
    <g id="Group_47016" data-name="Group 47016" transform="translate(7.546 18.914)">
      <g id="Group_47015" data-name="Group 47015">
        <path id="Path_73798" data-name="Path 73798" d="M29.455,25.714A3.742,3.742,0,1,0,33.2,29.455,3.745,3.745,0,0,0,29.455,25.714Zm0,6.548a2.806,2.806,0,1,1,2.806-2.806A2.81,2.81,0,0,1,29.455,32.262Z" transform="translate(-25.714 -25.714)" fill="#697e8d"/>
      </g>
    </g>
  </g>
</svg>
