<svg xmlns="http://www.w3.org/2000/svg" width="22" height="18" viewBox="0 0 22 18">
  <g id="hide" transform="translate(0)">
    <g id="Group_40" data-name="Group 40" transform="translate(0 0)">
      <g id="Group_39" data-name="Group 39">
        <path id="Path_83" data-name="Path 83" d="M19.559,49.266a.8.8,0,0,0-1.145,0l-2.873,2.939c-3.56-1.653-7.358-1.249-10.981,1.171a18.542,18.542,0,0,0-4.4,4.16.849.849,0,0,0,.022,1.01,20.018,20.018,0,0,0,4.786,4.477L2.436,65.609a.845.845,0,0,0,0,1.171.79.79,0,0,0,1.14,0L19.559,50.437A.845.845,0,0,0,19.559,49.266ZM9,58.9a2.192,2.192,0,0,1-.175-.872,2.239,2.239,0,0,1,.638-1.575,2.145,2.145,0,0,1,2.393-.473Zm4.05-4.137a3.734,3.734,0,0,0-4.727.519,3.944,3.944,0,0,0-.507,4.835l-1.666,1.7a17.117,17.117,0,0,1-4.292-3.807,17.434,17.434,0,0,1,3.587-3.251c2.99-1.993,5.967-2.425,8.867-1.29Z" transform="translate(0 -49.023)" fill="#697e8d"/>
      </g>
    </g>
    <g id="Group_42" data-name="Group 42" transform="translate(8.111 4.798)">
      <g id="Group_41" data-name="Group 41" transform="translate(0 0)">
        <path id="Path_84" data-name="Path 84" d="M194.374,157.191a21.9,21.9,0,0,0-3.425-3.5.805.805,0,0,0-1.14.142.844.844,0,0,0,.139,1.162,19.512,19.512,0,0,1,2.748,2.732,17.887,17.887,0,0,1-2.963,2.815c-2.7,2.007-5.423,2.732-8.095,2.154a.806.806,0,0,0-.956.638.824.824,0,0,0,.624.978,9.845,9.845,0,0,0,2.1.225,10.462,10.462,0,0,0,3.192-.51,14.14,14.14,0,0,0,4.126-2.181A18.765,18.765,0,0,0,194.4,158.2.849.849,0,0,0,194.374,157.191Z" transform="translate(-180.663 -153.512)" fill="#697e8d"/>
      </g>
    </g>
  </g>
</svg>
