<svg xmlns="http://www.w3.org/2000/svg" width="31.734" height="40" viewBox="0 0 31.734 40">
  <g id="Group_47217" data-name="Group 47217" transform="translate(-8078 -5513)">
    <path id="Path_73751" data-name="Path 73751" d="M98.769,0H78.088a1.6,1.6,0,0,0-1.6,1.6V38.4a1.6,1.6,0,0,0,1.6,1.6h26.133a1.6,1.6,0,0,0,1.6-1.6V7.053Z" transform="translate(8003.912 5513)" fill="#e1e6e9"/>
    <path id="Path_74167" data-name="Path 74167" d="M0,0H31.733V10.959H0Z" transform="translate(8078 5535.043)" fill="#f77272"/>
    <path id="Path_73755" data-name="Path 73755" d="M48.39,386.364l2.4,2.232v-2.232Z" transform="translate(8029.61 5159.638)" fill="#d85a5a"/>
    <path id="Path_73756" data-name="Path 73756" d="M337.335,7.053h7.052L337.335,0Z" transform="translate(7765.346 5513)" fill="#ebf0f3"/>
    <path id="Path_73757" data-name="Path 73757" d="M353.221,82.567l5.7,3.3v-3.3Z" transform="translate(7750.816 5437.485)" fill="#d5d6db"/>
    <path id="Path_74176" data-name="Path 74176" d="M2.18-.04A.192.192,0,0,0,2.36.1h.16a.17.17,0,0,0,.17-.11L4.46-4.54h.05L6.3-.01A.17.17,0,0,0,6.47.1h.16a.192.192,0,0,0,.18-.14L8.7-6.76A.174.174,0,0,0,8.52-7H7.6a.205.205,0,0,0-.18.14L6.4-2.87H6.36L4.76-6.99a.161.161,0,0,0-.17-.11H4.41a.161.161,0,0,0-.17.11L2.65-2.87H2.61L1.57-6.86A.205.205,0,0,0,1.39-7H.47a.174.174,0,0,0-.18.24ZM9.87-.19a.19.19,0,0,0,.19.19h4.07a.19.19,0,0,0,.19-.19v-.82a.19.19,0,0,0-.19-.19H11.17V-2.95h2.47a.19.19,0,0,0,.19-.19v-.83a.2.2,0,0,0-.19-.19H11.17V-5.8h2.96a.19.19,0,0,0,.19-.19v-.82A.19.19,0,0,0,14.13-7H10.06a.19.19,0,0,0-.19.19Zm5.88,0a.19.19,0,0,0,.19.19h2.42a2.022,2.022,0,0,0,2.18-1.93,1.8,1.8,0,0,0-1.3-1.63,1.9,1.9,0,0,0,1.1-1.59A1.959,1.959,0,0,0,18.23-7H15.94a.19.19,0,0,0-.19.19Zm1.29-3.87V-5.81h1.07a.816.816,0,0,1,.86.85.857.857,0,0,1-.86.9Zm0,2.88V-2.96h1.09a.968.968,0,0,1,1.02.87.892.892,0,0,1-.9.91Zm4.88.99a.19.19,0,0,0,.19.19h.92a.2.2,0,0,0,.19-.19V-2.54h1.25A2.249,2.249,0,0,0,26.7-4.79,2.237,2.237,0,0,0,24.46-7H22.11a.19.19,0,0,0-.19.19Zm1.3-3.57V-5.77h1.16a1,1,0,0,1,1.03.97,1.031,1.031,0,0,1-1.03,1.04Z" transform="translate(8081.681 5544.233)" fill="#fff"/>
  </g>
</svg>
