<svg xmlns="http://www.w3.org/2000/svg" width="19.31" height="19" viewBox="0 0 19.31 19">
  <path id="widgets" d="M-2141-8a2,2,0,0,1-2-2v-5a2,2,0,0,1,2-2h5a2,2,0,0,1,2,2v5a2,2,0,0,1-2,2Zm-.364-6.364v3.728a1,1,0,0,0,1,1h3.728a1,1,0,0,0,1-1v-3.728a1,1,0,0,0-1-1h-3.728A1,1,0,0,0-2141.364-14.364ZM-2152.309-8a1,1,0,0,1-.877-1.481l3.809-6.925a1,1,0,0,1,1.752,0l3.809,6.925A1,1,0,0,1-2144.691-8ZM-2151-18a2,2,0,0,1-2-2v-5a2,2,0,0,1,2-2h5a2,2,0,0,1,2,2v5a2,2,0,0,1-2,2Zm-.364-6.364v3.728a1,1,0,0,0,1,1h3.728a1,1,0,0,0,1-1v-3.728a1,1,0,0,0-1-1h-3.728A1,1,0,0,0-2151.364-24.364ZM-2142-23a4,4,0,0,1,4-4,4,4,0,0,1,4,4,4,4,0,0,1-4,4A4,4,0,0,1-2142-23Z" transform="translate(2153.31 27)" fill="#fff"/>
</svg>
