<svg xmlns="http://www.w3.org/2000/svg" width="31.734" height="40" viewBox="0 0 31.734 40">
  <g id="Group_47220" data-name="Group 47220" transform="translate(-8078 -5513)">
    <path id="Path_73751" data-name="Path 73751" d="M98.769,0H78.088a1.6,1.6,0,0,0-1.6,1.6V38.4a1.6,1.6,0,0,0,1.6,1.6h26.133a1.6,1.6,0,0,0,1.6-1.6V7.053Z" transform="translate(8003.912 5513)" fill="#e1e6e9"/>
    <path id="Path_74167" data-name="Path 74167" d="M0,0H31.733V10.959H0Z" transform="translate(8078 5535.043)" fill="#0f866b"/>
    <path id="Path_73755" data-name="Path 73755" d="M48.39,386.364l2.4,2.232v-2.232Z" transform="translate(8029.61 5159.638)" fill="#065d49"/>
    <path id="Path_73756" data-name="Path 73756" d="M337.335,7.053h7.052L337.335,0Z" transform="translate(7765.346 5513)" fill="#ebf0f3"/>
    <path id="Path_73757" data-name="Path 73757" d="M353.221,82.567l5.7,3.3v-3.3Z" transform="translate(7750.816 5437.485)" fill="#d5d6db"/>
    <path id="Path_74173" data-name="Path 74173" d="M.3-.28C.22-.15.3,0,.48,0H1.56a.219.219,0,0,0,.17-.09L3.14-2.38h.03L4.6-.09A.2.2,0,0,0,4.77,0H5.85a.179.179,0,0,0,.17-.28L3.94-3.59,5.95-6.72A.18.18,0,0,0,5.78-7H4.62a.184.184,0,0,0-.16.09L3.16-4.79H3.15L1.87-6.91A.2.2,0,0,0,1.71-7H.55a.18.18,0,0,0-.17.28l2,3.13Zm6.93.09A.19.19,0,0,0,7.42,0h3.66a.19.19,0,0,0,.19-.19v-.82a.19.19,0,0,0-.19-.19H8.53V-6.81A.2.2,0,0,0,8.34-7H7.42a.19.19,0,0,0-.19.19Zm4.69-.49a3.217,3.217,0,0,0,2.2.78,2.112,2.112,0,0,0,2.3-1.98c0-1.29-1.12-1.87-2.09-2.26-.81-.33-1.18-.65-1.18-1.12a.8.8,0,0,1,.88-.7,3.29,3.29,0,0,1,1.39.55.263.263,0,0,0,.35-.12l.38-.57a.248.248,0,0,0-.06-.33,3.521,3.521,0,0,0-2-.67,2,2,0,0,0-2.25,1.92c0,1.18.94,1.78,1.88,2.16.84.34,1.27.69,1.27,1.2a.835.835,0,0,1-.91.77,3.312,3.312,0,0,1-1.51-.62.232.232,0,0,0-.34.07l-.36.62C11.78-.82,11.83-.77,11.92-.68Z" transform="translate(8087.038 5544.233)" fill="#fff"/>
  </g>
</svg>
