<svg xmlns="http://www.w3.org/2000/svg" width="31.734" height="40" viewBox="0 0 31.734 40">
  <g id="Group_38566" data-name="Group 38566" transform="translate(-8077 -5513)">
    <path id="Path_73751" data-name="Path 73751" d="M98.769,0H78.088a1.6,1.6,0,0,0-1.6,1.6V38.4a1.6,1.6,0,0,0,1.6,1.6h26.133a1.6,1.6,0,0,0,1.6-1.6V7.053Z" transform="translate(8002.912 5513)" fill="#e1e6e9"/>
    <rect id="Rectangle_6384" data-name="Rectangle 6384" width="31.733" height="10.959" transform="translate(8077 5535.043)" fill="#507c5c"/>
    <path id="Path_73755" data-name="Path 73755" d="M48.39,386.364l2.4,2.232v-2.232Z" transform="translate(8028.61 5159.638)" fill="#457452"/>
    <path id="Path_73756" data-name="Path 73756" d="M337.335,7.053h7.052L337.335,0Z" transform="translate(7764.346 5513)" fill="#ebf0f3"/>
    <path id="Path_73757" data-name="Path 73757" d="M353.221,82.567l5.7,3.3v-3.3Z" transform="translate(7749.816 5437.485)" fill="#d5d6db"/>
    <path id="Path_73789" data-name="Path 73789" d="M226.795,265.647l-1.373,2.332a.4.4,0,0,1-.348.15c-.4,0-.978-.32-.978-.724a.507.507,0,0,1,.085-.263l1.627-2.511-1.561-2.5a.532.532,0,0,1-.094-.292c0-.395.536-.7.95-.7a.457.457,0,0,1,.442.244l1.251,2.182,1.251-2.182a.457.457,0,0,1,.442-.244c.414,0,.95.3.95.7a.533.533,0,0,1-.094.292l-1.561,2.5,1.627,2.511a.509.509,0,0,1,.085.263c0,.4-.574.724-.978.724a.384.384,0,0,1-.348-.15Z" transform="translate(7858.301 5275.871)" fill="#fff"/>
    <path id="Path_73790" data-name="Path 73790" d="M294.748,268.676c-.32,0-.64-.15-.64-.451v-5.981c0-.31.367-.442.733-.442s.733.132.733.442V267.4h2.144c.282,0,.423.32.423.639s-.141.639-.423.639h-2.971Z" transform="translate(7794.27 5275.269)" fill="#fff"/>
    <path id="Path_73791" data-name="Path 73791" d="M347.563,266.229c0-1.138-2.981-.94-2.981-3.141,0-1.411,1.232-1.946,2.407-1.946.5,0,1.871.094,1.871.828,0,.254-.169.771-.583.771-.339,0-.517-.357-1.288-.357-.668,0-.94.273-.94.564,0,.94,2.981.762,2.981,3.131a2.077,2.077,0,0,1-2.351,2.088c-1.232,0-2.266-.6-2.266-1.223,0-.32.282-.79.639-.79.442,0,.724.7,1.6.7C347.084,266.85,347.563,266.681,347.563,266.229Z" transform="translate(7748.261 5275.872)" fill="#fff"/>
    <path id="Path_73792" data-name="Path 73792" d="M404.577,265.647l-1.373,2.332a.4.4,0,0,1-.348.15c-.4,0-.978-.32-.978-.724a.508.508,0,0,1,.085-.263l1.627-2.511-1.561-2.5a.532.532,0,0,1-.094-.292c0-.395.536-.7.95-.7a.457.457,0,0,1,.442.244l1.251,2.182,1.251-2.182a.457.457,0,0,1,.442-.244c.414,0,.95.3.95.7a.532.532,0,0,1-.094.292l-1.561,2.5,1.627,2.511a.509.509,0,0,1,.085.263c0,.4-.574.724-.978.724a.384.384,0,0,1-.348-.15Z" transform="translate(7695.705 5275.871)" fill="#fff"/>
  </g>
</svg>
